<svg xmlns="http://www.w3.org/2000/svg" width="3543" height="1111" xmlns:v="https://vecta.io/nano"><defs><linearGradient id="A" x1="2001.476" y1="326.003" x2="2009.04" y2="310.584" gradientUnits="userSpaceOnUse"><stop offset=".158" stop-color="#ffffff"/><stop offset=".939" stop-color="#ffffff" stop-opacity="0"/></linearGradient></defs><path d="M 340 545.7 c -16.2 -4.9 -29.9 -19.8 -30.2 -37.2 c -3.4 -45.3 -5.2 -90.7 -7.7 -136.1 l -8.9 -173.7 c -0.3 -9.5 -1.2 -19.6 3.6 -28.2 c 6.9 -14.2 22 -24 37.9 -24.1 c 33.9 -2.3 67.8 -3.6 101.8 -5.5 l 868.9 -45.4 l 110 -4.9 c 17.7 1.2 33.7 15.2 37.3 32.5 l 10.5 184.2 l 6.7 142 c 0.9 18.1 -12.9 34.9 -29.8 40.1 c -17.1 2.8 -34.6 2.7 -51.9 3.9 l -624.2 33 l -97.9 4.8 l -297.6 15.4 c -9.4 0 -19.1 1.6 -28.3 -0.7 z" fill="#faf4f7"/><path d="M 3095 618.1 c -12.7 0.4 -24.4 6.1 -36.2 10 l -123.8 44.6 c -207.1 79.8 -417.9 149.7 -626.8 224.8 c -15.5 5.7 -31.3 10.7 -46.2 17.7 c -11.3 6.8 -19.3 18.6 -22.9 31.1 c -1.1 9.8 -2 20.1 1.9 29.5 c 5.2 14.2 9.6 28.7 16.2 42.3 c 10.6 18.8 34.3 29.3 55.2 23.5 c 12.5 -3.6 24.6 -8.7 36.9 -12.8 l 487.7 -175.1 l 288 -103.4 c 21.3 -8 35.7 -31.6 31.7 -54.2 c -4.7 -16.8 -10.3 -33.4 -16.9 -49.5 c -8.1 -16.9 -26.2 -27.9 -44.8 -28.4 z" fill="#ea018a"/><path d="M 400.5 505.1 c -24.8 -2.5 -46.4 -22.1 -52.1 -46.3 c -0.8 -5.8 -5.3 -13.1 -1.9 -18.2 c 12.9 -4.2 25.4 -9.8 37.7 -15.7 c 4 -2.6 9.4 -3.2 7.9 3.3 c 1.2 10.4 5 21.5 13.3 28.3 c 5.9 5.1 15.3 3.1 21 -1.3 c 9.3 -8.4 10.8 -21.7 12.5 -33.4 c 3.6 -31.6 0.9 -63.5 -4.9 -94.7 c -1.3 -9.1 -3.7 -18 -5 -27.1 c -0.1 -6.9 9.3 -7.3 14.1 -10.1 c 10 -3.2 20 -7.8 30.7 -7.9 c 6.7 1.6 4.1 12.1 6.7 17.5 c 3.3 17.9 7.2 35.7 9.4 53.8 c 1.8 21 3.2 42.2 1.3 63.3 c -2.6 25.5 -10.5 52.2 -30.1 69.9 c -13.9 12.8 -33 18.7 -51.6 19.3 c -3 -0.1 -6 -0.5 -8.9 -0.7 z M 566 491.5 c -21.5 -5.3 -38.4 -22.2 -47 -42.2 c -6.3 -13.5 -9.2 -28.3 -8.8 -43.2 c 0 -16.5 2.6 -32.9 7.9 -48.5 c 4.3 -15.9 13.9 -29.8 23.7 -42.9 c 5.4 -7.3 12.1 -13.4 18.5 -19.7 c -14.7 -0.1 -29.3 -3.1 -43.7 -6 c -23.4 -5.6 -47.2 -14.1 -64.8 -31.2 c -11 -10.4 -17 -26.9 -12 -41.6 c 6 -17.6 21.5 -29.9 37 -39 c 29.1 -16.4 62.2 -24.4 95.1 -28.3 c 23.1 -1.6 46.4 -2 69.5 -0.2 c 29 3.8 58.6 10.6 83.3 26.9 c 13.3 8.8 25.3 22.4 25.4 39.2 c 0.2 16.7 -11.3 30.8 -23.7 40.6 c -10.9 8.8 -23.7 14.8 -36.2 21 c 3.9 4 8.5 9 6.5 15.1 c -2.6 7.8 -10.7 11.4 -17.4 15.1 c 1.7 7.2 9.9 0.8 14.7 1.1 c 5.4 -0.5 13.3 0.5 9.8 -7.5 c -0.1 -6 -3.5 -12.7 -0.9 -18.4 c 5.3 -3.5 11.7 -4.6 17.6 -7.3 c 12.9 -4.3 26.6 -6.1 40.1 -6.6 c 15.5 32.5 32.3 64.6 53 94.3 c 5.5 7.7 10.5 15.8 16.8 22.9 c 1.4 -9.5 0.5 -19.3 0.6 -29 c -0.3 -26.1 -2.4 -52.1 -2.7 -78.2 c 3 -5.8 12.7 -4.5 18.3 -7.1 c 8.7 -2 16.9 -6 25.5 -8.1 c 3 4.5 1.1 13.2 2 19.4 c 0.8 34.5 0.5 69.2 4.6 103.6 c 2.4 22.2 5 44.4 9 66.4 c 0.8 3.7 1.3 8.5 -3.2 8.5 c -5.2 8.1 -10.9 18.2 -21.4 19.4 c -13.3 0.8 -25.6 -7.6 -31.6 -19.1 c -3.4 -5.4 -9 -9.2 -12.6 -14.7 c -19.6 -26 -37.8 -53.2 -54.2 -81.4 c -3 -3.5 -4.6 -12.5 -8.4 -12.8 c 2.5 33.4 3.5 67 4.8 100.5 c 0.2 10.1 1.1 20.3 0.2 30.4 c -4.6 3.5 -12.2 -1.6 -18 -1 c -9.1 -1.3 -18.2 -2.1 -27.3 -3 c -6.4 -3 -3.5 -12 -4.4 -17.8 c -0.2 -36.3 -0.9 -72.6 -3.1 -108.8 l -0.7 -7.9 l -15.4 0.1 c 0.8 15.4 0.6 30.9 -2.4 46.1 c -4.7 25.8 -15.1 51.5 -33.9 70.4 c -16.4 17.7 -39.1 29.3 -63.1 31.8 c -9 1 -18.3 1.7 -27 -1.3 z m 44.8 -54.9 c 9.9 -4.1 17.5 -12.6 23 -21.6 c 9.5 -17.6 12.9 -38.6 9.3 -58.3 c -2.2 -13.9 -13.9 -26.3 -28.3 -27.2 c -9.3 -1.4 -19.2 0.7 -26.5 6.8 c -12.1 9.7 -19.4 24.3 -23.6 38.9 c -2.8 13.6 -2.7 28.2 1.8 41.5 c 3.8 12.1 15.1 20.9 27.6 21.9 c 5.6 0.6 11.3 -0.3 16.7 -1.9 z m 157.5 -93.6 c 8 -0.3 10 -11.3 1.2 -12.3 c -6.2 -1.3 -13.9 -1 -18.4 4 c -3 6.3 6.1 9.5 11.1 9.2 c 2.1 0 4.1 -0.4 6.1 -1 z m -60.4 -4 c 8.4 -1.5 18.5 -4.5 21.8 -13.2 c 0.6 -7.1 -7.3 -10.9 -13.2 -12.4 c -12.1 -2.7 -25.7 -1.9 -36.4 4.8 c -6.2 3 -8.3 11.7 -1.8 15.6 c 8.3 6.2 19.7 6.7 29.5 5.2 z M 651 307.1 c 12.5 -1.7 26 -4.2 35.5 -13.1 c 4.7 -4.2 4.9 -12.5 -0.8 -16 c -4 -4.4 -14 -5.8 -16.5 -7.8 c 4.1 0 8.3 1.8 12.3 2 c 18.2 -8.7 37.3 -18 49.5 -34.8 c 4.4 -5.9 7.4 -13.1 6.6 -20.6 c 0.4 -6.7 -0.6 -13.6 -4.6 -19.2 c -10.7 -16.6 -29.4 -25.6 -47.4 -32 c -25.2 -8.5 -52 -12.1 -78.6 -11.4 c -20.1 0.2 -40.3 0.7 -59.9 5.3 c -24.9 5.4 -49.9 13.3 -71.1 27.8 c -8.6 7 -17.2 14.6 -22.6 24.5 c -5.8 11.5 -4.5 25.9 3.2 36.1 c 12.2 16.5 32.1 25.1 51.1 31.2 c 20 6.3 40.8 9.4 61.8 9.6 l 22.6 0.6 c 6.3 -7.7 14.5 -14.2 24.3 -16.5 c 2.6 -0.8 5.8 -0.7 1.2 0.9 c -7.3 3.2 -16.7 7.1 -18.4 15.9 c -0.2 6.5 6.6 10.3 11.7 12.9 c 12.6 5.3 26.7 6.3 40.2 4.6 z m 347.5 167.1 c -12 7.3 -26.3 14.3 -40.7 10.4 c -7.3 -2.6 -13.3 -7.9 -19.9 -11.9 c -6 -4.1 -12.2 -7.8 -18 -12.2 c -7.6 -7.7 -14.5 -16.4 -18.2 -26.7 c -9.9 -26.7 -7.7 -56.4 0.6 -83.2 c 12 -38 40.4 -70.7 77 -86.8 c 12.8 -5.6 26.6 -9.5 40.7 -9.1 c 11.7 0.1 23.8 -1.4 34.9 3.3 c 6 0.8 8.4 4.9 5.9 10.5 c -2.6 13 -2.6 26.3 -4.9 39.3 c -11.1 -4.8 -23.5 -4.5 -35.3 -4 c -14.1 0.6 -27.5 6.4 -39.4 13.6 c -19.4 12.8 -35.9 32.6 -39.1 56.3 c -2.6 15.6 -0.2 33.8 12.5 44.7 c 9.1 8 22.4 10.2 33.8 6.3 c 10.2 -2.8 19.8 -8 26.5 -16.3 c 2.6 -2.4 8.9 -11.2 0.9 -7.9 c -14.5 3.3 -28.8 7.8 -43.2 10.8 c -1.7 -6 -0.5 -12.6 -0.8 -18.9 c 0.2 -7.1 0 -14.4 1 -21.4 c 11.4 -4.3 23.4 -6.8 35 -10.4 c 22.9 -6.6 46.1 -12 69.2 -17.9 c 4.2 -1.9 8 -0.4 6.1 4.7 c -1.7 11.6 -1.3 23.4 -3 35 c -1.9 6.6 -12.1 2.3 -14.9 8.8 c -1.7 11.8 -7.3 22.7 -12.6 33.3 c -7.6 14.7 -19.6 26.7 -33.2 35.9 c -6.5 3.6 -14 4.8 -18.4 11.6 c -0.8 0.8 -1.6 1.7 -2.5 2.3 z" fill="#110f0f"/><path d="M 1901 918.9 c -17.9 -2 -34.8 -14.2 -41 -31.3 l -46 -112.2 l -83.4 -204.9 l -14.5 -85.9 c 4.3 -8.3 11.7 -14.9 19.7 -19.5 c 15.6 -6.9 31.4 -13.5 47.5 -19.1 c 15.4 -3.1 32.3 0.8 44 11.6 c 9.8 8.6 14.4 21 18.9 32.8 l 59.6 145.7 l 55.2 135.6 l 26.7 97.2 c 0.9 6.2 -4.8 12.9 -8.6 18 c -6.5 8.2 -15.8 13.4 -25.5 16.9 c -14.1 5.5 -27.7 12.5 -42.7 15.1 c -3.3 0.4 -6.6 0.4 -9.9 0 z m 1005.4 -36.7 l 28.7 -168.8 c 4.9 -4.3 12.5 -3.8 18.6 -5.8 l 18.6 -3.7 c 1.4 15.4 0.4 31.1 1.2 46.6 c 0.7 15.1 0.9 30.4 3.6 45.3 c 2.3 1.8 2.1 -7.6 3.1 -10 c 4.5 -24.4 7.6 -49.1 13 -73.4 c 4.3 -3.7 11.6 -3.3 17.1 -5 c 6.5 -1.1 12.9 -2.8 19.5 -3.1 c -2.3 15.8 -7 31.2 -10.1 46.9 c -7.6 34.8 -13.7 69.9 -18.2 105.2 c 1.3 8.3 -7.2 8.7 -13.1 10.6 c -7.4 2 -14.7 4.4 -22.2 5.6 c -6.8 -16.1 -11.3 -33.1 -17.7 -49.4 c -2.8 16.6 -5.2 33.4 -7 50.1 l -34.8 10.6 c -0.8 -0.1 -0.4 -1.5 -0.4 -1.8 z m 125.4 -5.4 c -7.2 -1.1 -13 -8.1 -11.5 -15.5 c 2.4 -14.2 16.3 -24 29.9 -26.1 c 9.2 -1.7 20.6 5.3 19.5 15.5 c -1.6 14.4 -15.8 23.9 -29.2 26.2 c -2.9 0.4 -5.8 0.5 -8.7 -0.1 z m -303.3 -6.6 c 7.4 -49.5 5.2 -99.6 7.4 -149.3 c 0.7 -1.9 -0.9 -5.6 1.8 -5.7 c 13.7 -3.1 27.4 -6.6 41.2 -9.2 c 1.9 4.6 -1.2 11.4 -1.2 16.9 l -14.4 116.1 c 7.9 -30.2 14.3 -60.9 21.4 -91.3 l 8.4 -35.6 c 12.3 -3.4 24.9 -5.7 37.4 -7.9 c 2.7 3.9 -2.8 12.5 -3.7 17.9 c -14.8 44.4 -27.4 89.4 -38.7 134.8 c -0.1 7.9 -7.6 8.6 -13.7 9.5 l -46.1 8.7 c -0.4 -1.5 0 -3.2 0.1 -4.8 z m -175.6 -78 l 13.7 -81.1 c 12.2 -2.9 24.6 -5.2 37 -7 c -3 17.7 -8 35 -11.4 52.6 c -4.5 21.2 -8.4 42.5 -12.1 63.9 c 12.9 -2.1 25.7 -4.4 38.6 -5.9 l -3.5 43 c -17.6 1.4 -34.8 5.6 -52 9.5 l -23.3 5.7 c 3.9 -27 8.6 -53.8 13 -80.8 z m 69.2 80 l 26.2 -163.7 c 23.8 -4 47.6 -7.3 71.6 -10.3 c 2.4 3.8 0.1 11.7 0.4 17.1 c -0.5 7.7 -0.7 15.5 -1.7 23.2 c -4.4 4.7 -13.1 2.2 -19.1 4 l -20.3 2.6 c -2.2 8 -4.2 16.2 -4.6 24.5 c 11 -1.3 21.8 -4.2 32.7 -6.5 c 2.4 4.6 0.1 11.3 0.4 16.7 l -0.8 14.8 c -12.9 2.7 -25.9 4.8 -38.7 8.2 c -2 5.6 -3.4 11.7 -3.7 17.6 c 13.4 -1.7 26.7 -4.4 40.2 -5.4 c 0 13.5 -1.1 27 -2.5 40.4 c -2.4 4.9 -10.6 1.7 -15.3 3.8 c -21.6 3.3 -42.9 8.7 -64.2 13.5 c -0.5 0.3 -0.7 -0.3 -0.6 -0.6 z m 191 0 l 26.2 -163.7 c 23.8 -4 47.6 -7.3 71.6 -10.3 c 2.4 3.8 0.1 11.7 0.4 17.1 c -0.5 7.7 -0.7 15.5 -1.7 23.2 c -4.4 4.7 -13.1 2.2 -19.1 4 l -20.3 2.6 c -2.2 8 -4.2 16.2 -4.6 24.5 c 11 -1.3 21.8 -4.2 32.7 -6.5 c 2.4 4.6 0.1 11.3 0.4 16.7 l -0.8 14.8 c -12.9 2.7 -25.9 4.8 -38.7 8.2 c -2 5.6 -3.4 11.7 -3.7 17.6 c 13.4 -1.7 26.7 -4.4 40.2 -5.4 c 0 13.5 -1.1 27 -2.5 40.4 c -2.4 4.9 -10.6 1.7 -15.3 3.8 c -21.6 3.3 -42.9 8.7 -64.2 13.5 c -0.5 0.3 -0.7 -0.3 -0.6 -0.6 z m 242.3 -61.2 c -4.9 -0.9 -15.9 1.6 -11.7 -6.4 l 29.8 -111.1 c 5.2 -0.6 11.6 1.6 17.2 2.2 c 9.2 1.6 18.5 2.9 27.6 5 c -0.1 6.1 -5.3 11.9 -7.6 17.7 c -14.3 26.9 -26.4 54.9 -35.5 83.9 c -1 6.2 -4.7 11.3 -11.6 9.1 l -8.3 -0.3 z M 1337.5 617 l -170.2 -6 l -322.7 -12 c -13.3 -0.8 -26.7 -0.8 -40 -2.4 c -22.1 -5.3 -39.8 -26.5 -39.2 -49.6 c 0 -16.6 0.7 -33.3 2.5 -49.8 c 4.7 -19.3 21.7 -35 41.1 -38.5 c 22.4 -1 44.8 0.5 67.2 1.2 c 42.7 2.2 85.5 3 128.3 4.3 l 344.7 13.2 c 10.2 0.7 20.6 0.4 30.6 2.4 c 21.3 6.4 37.5 27.8 36 50.3 c -0.2 17.3 0.1 34.8 -3.5 51.8 c -6.2 20.4 -26.6 35.9 -48.1 35.5 c -9 0.3 -17.9 -0.1 -26.9 -0.5 z" fill="#fceb0a"/><path d="M 1149.2 464.3 c -14.2 -3 -28.7 -3.4 -43 -5.9 c -3 -5 -1.1 -13.2 -2 -19.4 c -0.9 -50.8 -1.3 -101.7 -7.5 -152.2 c -0.6 -7.8 -2.5 -15.6 -1.5 -23.4 c 3.7 -4.9 10.9 -5.6 16.3 -8 c 12.7 -4.8 26.3 -6.8 39.8 -7.5 c 5 4.1 6.4 11.2 9.7 16.6 c 17.5 34.8 36.8 68.9 60.9 99.7 c 2.6 -1.6 0.8 -11 1.4 -15.6 c -0.1 -30.4 -1.8 -60.7 -3.4 -91.1 c 3.4 -3.7 8.4 -3.8 13 -5 c 10.1 -2.5 20 -5.7 29.6 -9.4 c 7.4 0 3.3 11.4 4.6 16.3 c 0.2 36.1 0.2 72.3 4.3 108.3 c 2.1 24.2 6.7 48.2 9.7 72.3 c -1.3 5.8 -10.1 6.2 -14.9 9.2 c -9.2 3.7 -18.5 7.3 -27.5 11.7 c -32.6 -38.4 -61.4 -80 -86.1 -123.9 c -0.9 -3.3 -4.1 -7.4 -3.3 -1 c 2.4 37.7 3.9 75.5 4.3 113.2 c -1.2 4.6 2.8 14.6 -3.5 15.4 z m 155 -14.9 c -0.5 -54.7 -3 -109.3 -7.6 -163.8 c -0.8 -11.2 -2.9 -22.3 -2.9 -33.5 c 5.2 -3.4 12.9 -3 18.8 -5.7 c 10.2 -1.9 19.7 -6.7 29.9 -8.4 c 2.7 5.9 2.6 12.8 3.7 19.1 c 4.7 41.3 7.8 82.8 9.1 124.3 c 0.2 8.1 0 16.3 1 24.3 c 6.1 1.2 12.6 -0.7 18.8 -1.2 c 16.3 -2.4 32.6 -5.4 49.2 -5.2 c 3.5 4 -1.7 12.1 -1.6 17.7 c -1.5 7.8 -1 16 -3.6 23.5 c -5.9 2.8 -12.9 2.2 -19.3 3.3 c -29.5 3 -59.1 5.6 -88.2 11.3 c -3.6 1.1 -8.6 3.2 -7.3 -2.7 l 0 -1.4 z m -824.4 -198 c -4 -14 -10.5 -27.1 -16.6 -40.4 c 3.1 -2.2 6.7 -3.7 10.1 -5.5 c 4.5 9.2 8.2 18.7 10.7 28.6 c 1.8 -9.7 3.6 -19.6 7.5 -28.6 c 4.4 -0.3 14 2.3 9 8.4 c -5 12.6 -8.6 25.6 -11.8 38.8 c -2.9 -0.3 -6.6 0.8 -8.9 -1.3 z m 28.3 -3 c -8.2 -8.9 -7.1 -22.7 -2.4 -33.1 c 3.2 -7.5 11 -14.9 19.7 -12.2 c 9.5 2.7 12.3 14.1 11.2 22.8 c -0.9 9.9 -5.1 22 -15.7 24.9 c -4.4 0.9 -9.8 1.9 -12.8 -2.4 z m 14.7 -10.5 c 4.6 -5.5 6.1 -14.4 2.4 -20.7 c -5 -6.6 -12.1 1.5 -12.4 7.3 c -2 5.9 0.2 16.2 8.2 14.7 l 1 -0.5 z m 24 8.6 c -8.6 -8.4 -7.5 -22.5 -3 -32.7 c 2.9 -7.9 10.9 -15.1 19.8 -12.8 c 9.9 2.8 12.6 14.9 11.4 23.8 c -1.3 9.6 -5.3 20.9 -15.4 24.1 c -4.3 1.2 -9.5 1.1 -12.8 -2.5 z m 14.9 -11.3 c 4.9 -5.8 6.6 -15.8 0.6 -21.4 c -6.9 -4 -11.7 5.7 -11.8 11.5 c -1.4 5.8 3.8 16.1 10.4 10.6 z m 34.2 8.5 c -2.6 -2.3 -5.5 -7.5 -7.2 -9.2 l -1 11.6 l -8.2 0.6 c -0.6 -14.3 -1.3 -28.6 -2.5 -42.8 c 1.8 -5.8 10.6 -4.8 15.7 -5.3 c 6.2 -0.3 13.3 2.7 14.8 9.3 c 2.4 8.4 -2.4 16.7 -8.6 22 c -3.1 1.8 1.4 2.7 2.6 4 c 4.7 2 7.3 5.8 2.4 9.4 c -3.1 4.7 -4.5 5.1 -8.1 0.3 z m -3.7 -21.1 c 6 -1.7 9.2 -14.1 0.5 -13.9 c -7.6 -1.1 -5.8 9.7 -4 14 c 0.9 1.2 2.4 -0.3 3.5 -0.2 z m 44.2 20.7 c -5.8 -2.7 -0.7 -11.5 -1.8 -16.9 c 0.7 -8.9 -0.1 -18 1.6 -26.8 c 1.4 -3.1 7.7 -4.4 9.9 -3.3 c 2.5 8.5 4.8 17 6.9 25.6 c 3 -4.5 3 -12.7 4.9 -18.4 c 0 -6.5 3.8 -10.1 10.1 -7.2 c 4.8 3.9 2.3 13.2 4.1 19.1 c 0.7 8.1 2.8 16.2 2.7 24.4 c -2.9 3.5 -9.4 5.5 -8.5 -1.1 c -1.4 -7.9 -1.2 -16 -3.2 -23.7 c -2.1 5.7 -2.7 12.5 -4.1 18.7 c 0.4 5.7 -3.4 12.4 -9.5 8.2 l -5.7 -24.5 l -1.6 26.3 c -1 2.2 -4.1 0.2 -5.7 0 z m 44.4 -1 c -1.3 -15.1 -1.3 -30.4 -2.9 -45.5 l 9.8 -3.3 c 0.9 15.9 1.2 31.9 3.8 47.7 c -2.3 1 -9.8 5.2 -10.7 1.1 z m 18.5 -2.4 c -3.2 -3.5 -9.2 -11.9 -1.8 -14 c 3.3 -2.4 6.4 -2 6.2 2.6 c 5.1 9 9.1 -4.6 7.9 -9.5 a 141.6 141.6 0 0 0 -2.1 -23.2 c 2.9 -4.1 11.4 -5.7 10.2 1.9 c 1.5 11.9 3.5 24.6 -0.9 36.2 c -2.4 6.8 -11.2 10.6 -17.6 7.5 l -0.9 -0.7 z" fill="#00afee"/><path d="M 2126.6 656.7 l 28.6 -167.4 c 2.7 -5 11.3 -3.7 16.5 -5.8 c 6.9 -1.4 13.8 -3.2 20.7 -4 c 1.2 24.3 0.7 48.8 2.2 73.1 c 1 6.8 0.7 13.9 3 20.4 c 2.1 -5.8 2.4 -12.3 3.7 -18.4 c 3.9 -22.5 7.1 -45.2 11.8 -67.6 c 11.4 -3.3 23.2 -5.3 34.9 -7.2 c 4.7 1.1 -1.2 10.1 -0.8 13.9 c -11.1 46.8 -20.7 94 -26.2 141.8 c -1.4 6.3 -10.6 5.2 -15.6 7.7 c -6.4 1.7 -12.7 3.8 -19.2 4.7 c -6.4 -14.7 -10.3 -30.5 -16.3 -45.3 c -4.1 -1.9 -2.9 9.6 -4.2 13.1 c -1.5 10.6 -2.6 21.3 -4.5 31.7 c -5.4 3.9 -12.4 4.8 -18.6 7.2 c -5.3 1.4 -10.8 3.8 -16 4.5 c -0.3 -0.8 -0.1 -1.7 0.1 -2.5 z m -88.2 -3.7 c -14.5 -3.2 -23.3 -17.4 -26.7 -30.9 c -7.1 -28.3 -1.1 -58.1 9.7 -84.7 c 9.6 -22.7 23.2 -44.8 43.6 -59.3 c 12.1 -8.6 29.1 -12.4 42.9 -5.7 c 12.4 7.7 18.8 22.2 21.5 36.1 c 3 22.6 0.5 45.8 -7.4 67.2 c -9.2 26.4 -24.6 51.3 -46.7 68.7 c -10.6 7.2 -24 11.3 -36.8 8.5 z m 32.4 -39.5 c 10.9 -4.7 17.5 -15.6 22 -26.1 c 5.8 -15 6.7 -31.7 4.5 -47.5 c -0.8 -6.2 -4.7 -13.4 -11.7 -13.4 c -10.3 -0.3 -17.2 9.1 -22.4 16.6 c -11.1 17 -20.2 37.1 -17.4 57.9 c 1.7 10.1 13.1 16.9 22.8 13.4 c 0.8 -0.3 1.6 -0.6 2.4 -0.9 z M 1793.1 643.3 c 15.9 -43.5 29.9 -87.7 42.5 -132.3 l 6.7 -25.3 l 64.4 -11.3 c 4.9 0.3 -0.2 9.2 0.5 13 c -2.8 21.5 -5.2 43.2 -6.5 64.9 c -1.4 17.9 -1 35.9 -1.6 53.8 c -0.3 10.8 -0.2 21.7 -1.3 32.5 c -15 4.1 -30.1 7.7 -45.3 10.8 c 0.3 -9.2 2.3 -18.2 2.2 -27.4 c -4.6 -0.2 -9.1 1.2 -13.7 1.9 l -4.7 20.2 l -46.4 7.6 l 3.1 -8.3 z m 62 -52.4 c 7.3 -1.7 3.8 -12.3 5.9 -17.9 l 6.6 -62.2 c -2.7 8.4 -4 17.4 -6.3 26 L 1849 590.6 c 1.1 1.8 4.4 0.2 6.2 0.2 z M 1921 649.1 c 1.7 -13.3 3.4 -26.6 4.5 -39.9 c 1.1 -15 1.3 -30.2 2.3 -45.2 c 0.6 -23.6 -0.1 -47.2 1.2 -70.7 c -0.7 -3.1 2.5 -2.6 4.6 -3.3 c 12.5 -2.5 24.8 -6.3 37.4 -8.3 c 3.7 4 -0.9 12.8 -0.6 18.6 l -14.8 117 c -0.2 5.4 1.7 -5.7 2.4 -7.6 l 28.3 -122.7 c 12.7 -2.9 25.5 -5.4 38.4 -7.5 c -1.2 8.8 -4.9 17.1 -7.4 25.6 c -13.8 42.2 -25.8 85 -36.5 128.1 c -0.3 7.6 -8.2 7.5 -13.9 8.7 l -44.6 8.4 c -0.7 0.2 -1.4 -0.6 -1.2 -1.2 z m 339 -1.9 l 18.6 -118.1 c -3.1 -3.4 -11.8 0.8 -17.1 1 c -8.4 3.2 -4.8 -10.1 -6.3 -14.8 l -1.4 -27.8 c 12.3 -0.5 24.4 -2.9 36.6 -4.1 l 56.4 -7.1 l -1.2 42.8 c -9.1 1.4 -18.4 1.2 -27.5 2.8 c -5.1 4.7 -4.1 13.6 -6.3 20 c -6.2 31.2 -11.3 62.6 -15 94.1 c 0.5 3 -2 3.3 -4.3 3.8 c -10.6 2.8 -21 6.2 -31.7 8.4 c -0.7 0.2 -0.9 -0.6 -0.8 -1 z m 71.5 -1 l 27 -159.6 c 12.2 -2.9 24.6 -5.2 37 -7 c -1.7 10.6 -5 20.9 -7.1 31.4 c -5.5 25.1 -10.7 50.2 -14.6 75.5 l 20 -8.7 c 5.7 -30.3 10.5 -60.8 15.7 -91.2 a 433.4 433.4 0 0 1 37.1 -7 c -2.4 15.3 -6.8 30.2 -9.7 45.4 c -7.9 37.1 -14.6 74.4 -19.3 112 c -4.9 4.4 -12.3 4.6 -18.3 7 c -5.2 0.9 -11.9 4.7 -16.2 3.6 c 0.3 -8.1 2.6 -15.9 3.5 -23.9 c -18.4 7.9 -36.4 16.8 -54.9 24.7 c -0.8 -0.4 -0.3 -1.6 -0.2 -2.2 z m 107 0 l 27 -159.6 c 12 -2.8 24.2 -5.1 36.4 -7.2 c 1.7 4 -2.4 10.5 -2.6 15.4 c -6.8 29.8 -13.8 59.6 -18 89.9 c 3.2 1.7 10.6 -3.6 15.4 -5 c 7.6 -1.8 4.8 -11.7 7.1 -17.4 l 12.7 -75.9 c 12.3 -2.5 24.6 -5.5 37.1 -6.9 c -2.2 14.8 -6.4 29.1 -9.3 43.8 c -8.3 38.1 -15.1 76.5 -19.7 115.3 c -11.4 3.3 -22.6 6.9 -34.1 9.7 c -1 -6.1 1.6 -12.6 2.1 -18.9 c 2.6 -8.9 -7.9 -0.6 -11.9 0.2 l -42 18.7 c -0.6 -0.5 -0.1 -1.6 0 -2.3 z m 104.1 -2.5 l 26 -157.7 c 21.3 -5.8 43.2 -12.3 65.5 -9.8 c 9 0.9 19.2 6.5 20.1 16.4 c 2 19.4 -8.5 37.6 -21.1 51.4 c -4.8 5.6 -10.8 10.3 -15 16.3 c 7.3 17.7 15.6 35 24 52.2 c -1.5 5.8 -7.9 9.2 -11.8 13.6 c -7.2 6.7 -14.3 13.5 -21.8 19.9 c -8.5 -20.1 -15.2 -40.8 -23.5 -61 c -3 11 -4 22.6 -5.8 33.9 l -2.6 19.9 l -33.8 9.6 c -0.8 -1.4 -0.2 -3.3 -0.2 -4.8 z m 59.6 -98.9 c 6.5 -5.6 13.6 -12.4 14.7 -21.3 c -1.5 -7 -11.3 -3.4 -16.2 -2.4 c -2 0.8 -5.1 0.5 -4.8 3.5 l -6.1 29.1 c 4.4 -2.6 8.4 -5.7 12.4 -8.9 z m -1263.9 53.4 c -6 -10.5 -10.9 -21.6 -17.1 -32 l -7.4 24.5 c -6.6 -0.7 -14.2 0 -19.4 -4.7 c -0.3 -6.7 3 -13 4.5 -19.5 l 12 -39.4 c -4.4 0 -13.2 0.9 -9.9 -6.9 c 1.8 -6.1 3.2 -14.8 11.1 -15.3 c 12 -3 25 -3.5 36.8 0.6 c 9.4 4.5 17.3 14.1 16 25 c -0.8 12.8 -9.7 24 -21 29.5 c -3.2 4.2 5 10.9 6.2 16 c 2 5.4 7.4 11.5 4.9 17.3 c -4.3 3.2 -11.4 8.1 -16.7 4.9 z m -2.5 -55.6 c 5.1 -2.9 9.9 -10.3 5.4 -15.7 c -5.4 -5.3 -14.2 -4.8 -20.8 -2.6 c 2.8 2.1 8.1 2.3 10.9 5.7 c 0.4 1.8 -1 4.3 -1.3 6.4 c -0.5 3.2 -4.5 11.1 2.1 7.8 c 1.3 -0.4 2.5 -0.9 3.7 -1.5 z m -284 45.1 c -6.5 -10.5 -11.8 -21.6 -17.5 -32.5 l -7.4 24.5 c -6 -0.6 -12.5 -0.2 -17.9 -3.3 c -3.3 -6.1 1.7 -13.3 2.6 -19.7 c 3.8 -13.6 8.5 -26.9 12.3 -40.5 c -3.7 -1.1 -12.9 1.1 -10 -6.4 c 2 -5.3 2.4 -13.3 8.8 -15.1 c 13.3 -3.6 28.2 -4.9 41.1 0.9 c 8.2 4.1 14.5 12.6 13.8 22.1 c 1 12.1 -7.3 22.8 -16.8 29.3 c -5.2 1.4 -6.2 4.7 -2.7 8.7 c 3.6 7.9 9 15.2 10.7 23.8 c -1.5 6 -10 8.4 -15.5 9.3 l -0.7 -0.4 z m -3 -56.1 c 5.1 -2.9 9.9 -10.3 5.4 -15.7 c -5.4 -5.3 -14.2 -4.6 -20.9 -2.6 c 2.8 2.1 8.1 2.3 10.9 5.7 c 0.4 1.8 -1 4.3 -1.3 6.4 c -0.5 3.2 -4.5 11.1 2.1 7.8 c 1.3 -0.4 2.5 -0.9 3.7 -1.5 z m 205.1 56.9 c -6.9 0.2 -14.8 -1.2 -17.4 -8.5 c -3.3 -7.6 0.4 -15.5 2.5 -22.9 c -5.5 -2.8 -3.7 -9.5 -1.8 -14.2 c 1.2 -7.6 10.9 -6.8 11.3 -14.6 c 3.3 -5 -1 -6.4 -4.6 -8.2 c 0.6 -6.3 2.8 -12.7 5.9 -18.2 c 6.2 -2.9 13.5 -1 20.2 -1.2 c 10.2 0.6 20.4 0.9 30.5 2.2 c 4.2 5.8 -0.8 14.7 -3.8 20.5 c -6.3 1.7 -13 0 -19.4 -0.2 c -3.6 0.3 -12.6 -2 -12.9 0.3 c 5.3 1.7 6.7 6.2 5 11.1 c -0.8 2.7 3.7 1 5.4 1.6 c 5.4 0.5 11.4 -0.4 16.3 2.2 c 2.1 5.4 -1.8 11.7 -3.8 16.7 c -4.1 3.9 -10.5 1.7 -15.6 2.2 l -10.2 -0.2 l -3.1 10.7 c 7.8 1.3 16.1 0.2 23.7 2.8 c 3.1 5.2 -1.2 12.9 -4.5 17.3 c -6.2 2.3 -13.1 0.4 -19.6 0.5 l -3.7 -0.2 z M 1190 584.7 c -8.5 -2 -2.8 -11.6 -1.8 -17.1 c 4.4 -15.8 10.3 -31.1 14.8 -46.8 c -5 -2.7 -11.4 -1.2 -16.8 -3.2 c -2.9 -3.3 -4.4 -2.1 -6.9 0.5 c -7.7 0.9 -15.6 -1 -23.3 -0.3 c 5.7 2.3 11.7 6.3 7.7 13.3 c -5 15.7 -9.4 31.6 -14.8 47.2 c -1.4 6.8 -9.8 5.2 -14.9 4.6 c -8.4 0.2 -8.3 -7.7 -5.4 -13.5 c 5 -17.3 11.3 -34.3 16.4 -51.6 c -5.2 -2.5 -11.7 -0.8 -17.3 -2.3 c -5.2 -3.6 -0.8 -11.9 1.3 -16.5 c 3.6 -5.8 11.7 -2 17.3 -2.8 c 11.9 0.6 24 0.6 35.8 2.3 c 3.4 1.2 4.6 4 7.1 0.5 c 15.3 -1.3 30.7 0 45.9 1.1 c 5.3 -0.6 11.2 1.9 8.1 8.1 c -1 4 -2.5 7.9 -3.7 11.8 c -8.5 0 -17 -0.4 -25.5 0.1 c 4.9 2.3 11.5 5.4 8.2 12.1 l -14 45.5 c -0.8 6.9 -7.4 10.4 -13.8 8.2 c -1.5 -0.3 -3 -0.7 -4.5 -1.3 z m -108 -4.8 c -8.2 -1.8 -7.5 -9.9 -4.6 -15.9 c 6.5 -21 12.9 -42 20.4 -62.7 c 1.6 -8.1 10.5 -7.5 16.6 -5.4 c 8 0.5 8 7.7 5.1 13.4 l -19.2 63.6 c -0.4 8.5 -8.6 10.1 -15.4 7.7 c -1 -0.2 -2 -0.5 -2.9 -0.8 z m -115.2 -2.3 c -6.9 0.2 -14.8 -1.2 -17.5 -8.5 c -3.4 -7.7 0.6 -15.8 2.6 -23.3 c -7.1 -1.6 -2.5 -11.8 -0.9 -16.4 c 2.9 -5.2 10.6 -5.4 10.6 -12.9 c 4.8 -6.9 -9.4 -4.5 -4.4 -12 c 2.3 -5.5 2.7 -15.6 10.8 -14.8 c 15 0 30.1 0.9 45.1 2.5 c 4.2 5.8 -0.8 14.7 -3.8 20.5 c -6.3 1.7 -13 0 -19.4 -0.2 c -3.6 0.3 -12.6 -2 -12.9 0.3 c 5.3 1.7 6.7 6.2 5 11.1 c -0.8 2.7 3.7 1 5.4 1.6 c 5.4 0.5 11.4 -0.4 16.3 2.2 c 2.1 5.4 -1.8 11.7 -3.8 16.7 c -4.1 3.9 -10.5 1.7 -15.6 2.2 l -10.2 -0.2 L 971 557.1 c 7.8 1.3 16.1 0.2 23.7 2.8 c 3.1 5.2 -1.2 12.9 -4.5 17.3 c -6.2 2.3 -13.1 0.4 -19.6 0.5 l -3.7 -0.2 z m -57 -2.1 c -6.5 -0.8 -15 1.3 -19.3 -5.1 c -6.1 -7.2 -2.6 -16.9 -0.3 -24.9 c -1.9 -3.7 -4.6 -7.5 -2.1 -12.4 c -0.4 -8.7 9.3 -9.3 11.5 -16.2 c 1.9 -3.5 3.6 -8.4 -2.2 -8.2 c -5 -3.9 1.2 -11.2 2.1 -16.2 c 1.6 -7.4 10.6 -3.7 16 -4.6 c 12 0.3 24.2 -0.1 36.1 1.9 c 4.3 5.6 0 15 -3.7 20.5 c -6 1.9 -12.8 -0.3 -19 -0.2 c -4.8 -0.4 -9.6 -0.3 -14.4 0.1 c 2.7 1.8 8.2 2.4 7.2 6.7 c -3 8.8 8.4 6.5 13.6 6.9 c 6.8 -1.1 10.6 5.2 6.7 10.7 c -1.6 3.1 -2 8.4 -4.7 10.2 h -24.1 c -1.5 3.5 -2.6 7.1 -3.4 10.8 c 7.7 0.5 15.6 -0.2 23 1.8 c 4.1 4.4 -0.2 12.5 -3 16.9 c -5.7 3.5 -13.6 1 -20 1.5 z m -55.1 -3.1 c -7.3 -0.7 -12.1 -6.6 -11.5 -13.8 c -1.9 -12 -2.6 -24.3 -5.5 -36.1 c -3.4 15.4 -6.8 30.8 -12 45.7 c -4 5.6 -13.1 2.5 -18 -0.6 c -3.9 -6.5 1.7 -14.2 2.5 -20.9 c 6.1 -20.5 12.1 -41 19.6 -61 c 4.3 -4.1 11.5 0.4 16.2 2.3 c 6.3 2.4 7.2 9.5 8.8 15.2 c 2.1 6.3 1.8 13.1 3.1 19.5 c 2.5 -4 3 -10.5 4.7 -15.4 c 2.1 -6.9 3.5 -14.4 7.5 -20.5 c 5.9 -1.7 14 1.2 17.6 6.3 c -0.1 5.8 -2.6 11.5 -3.9 17.2 c -4.6 17.2 -10.4 34 -15.6 51 c -1.5 5.4 -0.8 14 -9.1 12.2 c -1.5 -0.2 -3.1 -0.5 -4.6 -0.9 z" fill="#ea018a"/><path d="M 2138.7 880.9 l 28.7 -168.8 c 4.9 -4.3 12.5 -3.8 18.6 -5.8 l 18.6 -3.7 c 1.4 15.4 0.4 31.1 1.2 46.6 c 0.7 15.1 0.9 30.4 3.6 45.3 c 2.3 1.8 2.1 -7.6 3.1 -10 c 4.5 -24.4 7.6 -49.1 13 -73.4 c 4.3 -3.7 11.6 -3.3 17.1 -5 c 6.5 -1.1 12.9 -2.8 19.5 -3.1 c -2.3 15.8 -7 31.2 -10.1 46.9 c -7.6 34.8 -13.7 69.9 -18.2 105.2 c 1.3 8.3 -7.2 8.7 -13.1 10.6 c -7.4 2 -14.7 4.4 -22.2 5.6 c -6.8 -16.1 -11.3 -33.1 -17.7 -49.4 c -2.8 16.6 -5.2 33.4 -7 50.1 l -34.8 10.6 c -0.8 -0.1 -0.4 -1.5 -0.4 -1.8 z m -115.2 -14.5 c 15.8 -43.1 29.5 -87 42.1 -131.2 l 7.2 -26.4 c 22 -4.2 44.2 -8.2 66.3 -11.7 c -2.1 20.1 -5.2 40.1 -6.6 60.2 c -3 34.6 -3.3 69.4 -3.2 104.2 c -15.4 4.1 -30.9 7.9 -46.5 10.9 c 0.1 -9.2 2.3 -18.2 2.2 -27.4 c -6.1 0 -15.4 1.2 -15.3 9.1 c -1.9 5.4 -0.6 14.7 -8.7 13.9 c -13.2 2.4 -26.4 4.9 -39.7 6.6 c -0.1 -2.8 1.4 -5.6 2.2 -8.3 z m 65.5 -53.1 l 9.1 -79.3 l -18.5 78.5 c -1.2 4.5 7.4 0.4 9.5 0.8 z m -136.3 55.6 c 7.4 -49.5 5.2 -99.6 7.4 -149.3 c 0.7 -1.9 -0.9 -5.6 1.8 -5.7 c 13.7 -3.1 27.4 -6.6 41.2 -9.2 c 1.9 4.6 -1.2 11.4 -1.2 16.9 l -14.4 116.1 c 7.9 -30.2 14.3 -60.9 21.4 -91.3 l 8.4 -35.6 c 12.3 -3.4 24.9 -5.7 37.4 -7.9 c 2.7 3.9 -2.8 12.5 -3.7 17.9 c -14.8 44.4 -27.4 89.4 -38.7 134.7 c -0.1 7.9 -7.6 8.6 -13.6 9.5 l -46.1 8.7 c -0.5 -1.5 0 -3.2 0.1 -4.8 z m 363.3 -1.3 c -5.8 -1.4 -11.6 -2.5 -17.3 -4.2 c 5.4 -13.4 11.6 -26.4 18 -39.3 c 5.9 -1.8 13.2 1.5 19.6 1.7 c 8.3 3.1 6.8 -7.2 8.3 -12.5 l 17.7 -102.9 c 11.3 -3.5 23 -5.7 34.7 -7.7 c 4.9 1.6 -1.2 10.4 -0.8 14.7 c -10.1 44.3 -19.2 88.8 -24.8 133.9 c -0.4 6.1 -1.2 12.8 -8.8 12.8 c -9.2 2.7 -18.4 5.6 -27.9 7.4 c -6.3 -1 -12.6 -2.5 -18.9 -3.9 z m 73.3 3.3 l 26.2 -163.7 c 23.8 -4 47.6 -7.3 71.6 -10.3 c 2.4 3.8 0.1 11.7 0.4 17.1 c -0.5 7.7 -0.7 15.5 -1.7 23.2 c -4.4 4.7 -13.1 2.2 -19.1 4 l -20.3 2.6 c -2.2 8 -4.2 16.2 -4.6 24.5 c 11 -1.3 21.8 -4.2 32.7 -6.5 c 2.4 4.6 0.1 11.3 0.4 16.7 l -0.8 14.8 c -12.9 2.7 -25.9 4.8 -38.7 8.2 c -2 5.6 -3.4 11.7 -3.7 17.6 c 13.4 -1.7 26.7 -4.4 40.2 -5.4 c 0 13.5 -1.1 27 -2.5 40.4 c -2.4 4.9 -10.6 1.7 -15.3 3.8 c -21.6 3.3 -42.9 8.7 -64.2 13.5 c -0.5 0.3 -0.7 -0.3 -0.6 -0.6 z m -927.3 -224.5 l 26.5 -158.9 c 4.9 -2.5 11.4 -2.6 17 -4.1 c 7.6 -1.2 15.2 -3.3 22.9 -3.6 c 0.1 5.9 -2.9 12 -3.8 18 c -4.5 19.9 -9.2 39.8 -12.8 59.9 c 2.5 1.6 8 -0.9 11.7 -1.3 c 1.8 -0.9 5.5 0.1 5.8 -2.3 l 11.4 -67.2 c 12.8 -2.9 25.8 -5.3 38.7 -7.3 c 2.4 5.4 -2.7 13.8 -3.2 20.3 c -10.4 45.9 -19.8 92.2 -24.4 139 c -12.4 3.1 -24.7 7.1 -37.3 9.3 c 2 -20.2 6.1 -40.1 8.8 -60.2 c -5.1 -1.1 -10.8 1.7 -16 2.5 c -4.2 3.1 -2.3 11.4 -3.9 16.6 c -1.6 10.4 -2.1 21 -3.9 31.3 c -12.1 4.1 -24.5 7.5 -36.9 10.3 c -0.9 -0.3 -0.5 -1.6 -0.5 -2.3 z m 106.3 1.5 l 26.2 -163.7 c 23.8 -4 47.6 -7.3 71.6 -10.3 c 2.4 3.8 0.1 11.7 0.4 17.1 c -0.5 7.7 -0.7 15.5 -1.7 23.2 c -4.4 4.7 -13.1 2.2 -19.1 4 l -20.3 2.6 c -2.2 8 -4.2 16.2 -4.6 24.5 c 11 -1.3 21.8 -4.2 32.7 -6.5 c 2.4 4.6 0.1 11.3 0.4 16.7 l -0.8 14.8 c -12.9 2.7 -25.9 4.8 -38.7 8.2 c -2 5.6 -3.4 11.7 -3.7 17.6 c 13.4 -1.7 26.7 -4.4 40.2 -5.4 c 0 13.5 -1.1 27 -2.5 40.4 c -2.4 4.9 -10.6 1.7 -15.3 3.8 c -21.6 3.3 -42.9 8.7 -64.2 13.5 c -0.5 0.3 -0.7 -0.3 -0.6 -0.6 z m 114 -0.5 l 18.6 -118.1 c -3.5 -3.3 -12.5 1.2 -18.2 1.4 c -7.7 2.8 -3.5 -9.4 -5.1 -14 c -0.5 -9.5 -1.2 -18.9 -1.2 -28.4 c 30.9 -4.5 62 -7.4 92.9 -11.8 l -1.5 43 c -9.5 1.4 -19.3 1.2 -28.7 3.1 c -3.8 11.4 -5.4 23.5 -7.8 35.3 c -4.8 25.3 -8.6 50.8 -11.8 76.3 c 0.5 7.6 -9.4 6 -14.4 8.5 c -7.3 2 -14.6 4.2 -22.1 5.9 l -0.4 -0.4 z" fill="#110f0f"/><path d="M 2248.4 395.6 c -12 -4.6 -21.9 -14.1 -27.4 -25.7 c -0.7 -1.4 -1.6 -2.8 -2.1 -4.3 l -0.4 -117.9 c 0.2 -9.6 -0.1 -19.3 1.2 -28.9 c 1.4 -8.6 6.6 -16 12.8 -22 c 3.5 -3.5 7.5 -6.5 12 -8.4 c 1.3 -0.5 2.5 -1.6 4 -1.3 l 128.7 0.1 c 7.8 0.2 15.7 -0.1 23.5 0.9 c 5.2 1.1 9.6 4.4 13.6 7.9 c 6.1 5.5 10.6 12.6 13.1 20.4 c 0.5 1.6 1.5 3.2 1.2 5 l -0.5 145.4 c -2.5 4.7 -4.9 9.6 -8.6 13.6 c -4.8 5.7 -10.6 10.6 -17.2 14.1 c -1.1 0.5 -2 1.5 -3.3 1.2 l -135.6 0.1 c -4.9 -0.1 -9.8 0 -14.8 -0.3 z" fill="#ec84b2"/><path d="M 2561.1 400.4 c -8.9 -2 -16.3 -8.4 -21.8 -15.4 c -3.3 -4.2 -5.5 -9.2 -7.9 -14 V 221.7 c 2.8 -5.5 5.3 -11.2 9.5 -15.8 c 4.5 -5.3 10.1 -9.6 16.4 -12.4 c 1.1 -0.5 2.2 -1.3 3.4 -1.5 h 149.7 c 4.7 2.3 9.5 4.5 13.4 8.1 c 5.8 4.9 10.4 11.1 13.6 18 c 0.6 1.4 1.5 2.7 2 4.1 l 0.4 119.9 c -0.1 9.5 0.1 19.1 -1.2 28.5 c -0.5 4.3 -2.6 8.1 -5.1 11.5 c -4.9 7.4 -11.7 13.6 -19.8 17.3 c -1.2 0.5 -2.4 1.4 -3.6 1.7 l -118.5 0.1 c -10.1 -0.1 -20.1 -0.1 -30.2 -0.6 z" fill="#f5d43f"/><path d="M 1931.2 400 c -6.6 -1.9 -12 -6.7 -16.6 -11.6 c -3.9 -4 -6.9 -8.8 -9.1 -13.9 c -0.5 -1.4 -1.7 -2.7 -1.4 -4.2 l 0.2 -150.2 c 2.9 -5.5 5.6 -11.2 9.9 -15.8 c 4.1 -4.6 9.1 -8.4 14.8 -10.7 c 1.3 -0.5 2.5 -1.3 3.8 -1.6 l 123.5 0.1 c 10.2 0.2 20.5 0 30.7 1.4 c 4.2 0.6 8.3 2.4 11.1 5.6 c 5.2 5 10.4 10.3 13.3 17.1 c 0.5 1.2 1.3 2.3 1.6 3.6 v 152.7 c -2.4 5 -4.7 10.1 -8.6 14.2 c -4.5 5.2 -10.1 9.2 -16.4 11.9 c -1.5 0.6 -2.8 1.5 -4.3 1.9 l -119.5 0.1 c -10.9 -0.1 -21.9 0 -32.8 -0.6 l -0.3 0 z m 953.6 -1 c -9 -2 -16.3 -8.3 -21.7 -15.5 c -4.5 -6.2 -7.9 -13.5 -8 -21.2 c -0.7 -15.8 -0.4 -31.6 -0.5 -47.5 l 0.4 -80.3 c 0.2 -5.5 0.1 -11.3 2.4 -16.4 c 4.1 -9.9 11.6 -18.6 21.2 -23.4 c 2.6 -1.4 5.5 -2 8.5 -2 c 22.6 -0.7 45.3 -0.5 67.9 -0.6 l 77.6 0.1 c 4.1 1.8 8.3 3.4 11.7 6.4 c 5.4 4.4 10.6 9.4 13.9 15.6 c 2.8 5 3.5 10.8 3.8 16.4 c 0.7 17.6 0.4 35.3 0.4 52.9 l -0.4 86.2 c -2.8 5.8 -5.5 11.9 -10 16.7 c -5.6 6.2 -12.9 11.3 -21.2 12.8 c -9.3 1 -18.6 0.8 -27.9 0.9 c -36.3 0.1 -72.7 0.1 -109 -0.5 c -3.1 -0.1 -6.1 -0.1 -9.2 -0.4 z" fill="#e66a45"/><path d="M 1612.9 396.6 c -8.1 -1.6 -14.5 -7.3 -19.8 -13.3 c -5.3 -6.4 -9.2 -14.2 -10.1 -22.6 c -0.6 -17.2 -0.4 -34.5 -0.5 -51.7 l 0.9 -84.8 c 0 -3.2 0.4 -6.5 1.8 -9.4 c 4.3 -9.9 11.7 -18.5 20.9 -24.1 c 1.3 -0.8 2.4 -1.7 3.7 -2.3 h 156.9 c 6.1 4.2 12.6 8.2 17.1 14.3 c 3.6 4.6 5.8 10.1 8.4 15.3 V 367.8 c -2.7 5.4 -5.4 11 -9.5 15.6 c -4.6 5.3 -10 10.3 -16.9 12.5 c -7.7 0.7 -15.4 0.6 -23.1 0.8 l -117 0.4 c -4.3 -0.1 -8.5 -0.1 -12.8 -0.5 z" fill="#68b66d"/><path stroke-width="2" stroke="#ffffff" d="M 1959.1 388.1 l -11.9 -0.3 c 0.6 -3.1 1 -6.2 0.5 -9.3 c -0.7 -5.2 -2.2 -10.2 -2.6 -15.5 c -0.1 -3.5 -0.9 -6.9 -2.6 -10 c -1.3 -4.1 -1.3 -8.8 0.3 -12.9 c 1.4 -2 1.4 -4.5 2.1 -6.7 c 1.5 -1.1 3.8 -1.3 5.1 -2.9 c 0.4 -0.6 2.2 -1.2 1.5 -1.7 c -2.1 -1.3 -4.3 -3.3 -7 -2.6 c -2.1 -0.5 -4 -2.1 -6.4 -1.6 c -2.6 0.5 -4.7 -1.1 -6.1 -3.1 c -1.5 -1.5 -4.2 -1.1 -4.1 -4.1 c -0.4 -2.6 -3.3 -3.8 -2.7 -6.7 c 0 -4.7 0.1 -9.4 1 -13.9 c 0.5 -2.7 4.3 -2 4.7 -5 c 1 -3.2 4.8 -1.6 6.7 -3.8 c 1.5 -0.9 3.3 -3.4 4.5 -3.4 c 0.5 2.5 4.9 1.2 7 1.6 c 2.1 1.2 2.2 4.6 4.6 6 c 1.9 1.7 4 3.8 6.7 3.8 c 1.6 1.7 -0.5 4.7 0.8 6.9 c 0.9 2.4 2.3 4.9 1.9 7.6 c -0.1 2.8 -1.7 5.2 -3.2 7.5 c -1.7 2.8 -0.1 6.6 3.3 7 c 2.4 1.4 3.5 4.3 6.6 4.4 c 3.8 2.7 5.5 7.3 7.4 11.4 c 0.8 2.3 2.8 4.2 5 2.2 c 2.5 -1.4 5.2 -2.8 7.1 -4.9 c 0.4 -2.1 -5.8 -1.9 -3 -3.8 c 2.5 -0.5 5.1 1.7 7.4 1 c 2.8 -3.4 4.2 -7.7 6.6 -11.4 c 1.3 0.3 2.2 3.4 3 4.6 c -1.5 3.2 -3.2 6.6 -3.4 10.3 c 1.8 2.3 5.3 1.5 7.2 3.6 c 0.1 1.6 -3.1 -0.6 -4.2 -0.6 c -1.6 -0.8 -4.3 -0.9 -3.1 1.6 c 0.8 2.2 0.2 4.8 -1.8 6.1 c -1.9 1.8 -5.3 0.5 -6.1 3.7 c -0.5 2.5 -4.1 3.7 -3.7 0.1 c 0 -1.8 0.2 -3.5 0.3 -5.3 c -2 1.2 -4.3 1.9 -6 3.6 c -1.4 2.7 0.4 5.6 0.8 8.4 c 2 9.7 3.6 19.4 5.1 29.1 l -29.3 -0.7 z m 300.5 -8 c -1.7 -6.8 -3.8 -13.6 -4.6 -20.6 c -0.5 -2.6 0.7 -5 2 -7.1 c 1 -2.4 0.9 -5.7 4.2 -6 c 3.5 -0.3 4.3 -4.5 1.1 -6.1 c -2 -1.6 -4.6 -1.5 -7 -1.3 c -3.4 0.3 -7.2 -0.4 -9.6 -2.9 c -2 -1.8 -4.1 -3.9 -4.5 -6.6 c -1.6 -2 -3.7 -3.7 -4.1 -6.4 c -0.9 -2.8 0.1 -5.6 1.9 -7.7 c 2 -2.1 0.3 -5 1.6 -7.4 c 1.4 -1.7 1.9 -3.9 0.3 -5.7 c 1.5 -1.5 4.8 -0.7 5.7 -3.2 c 1.1 -3.4 1.4 -7.6 4.8 -9.7 c 3.8 -2.3 8.6 -2.5 12.3 -5.2 c 6.1 -4.1 9.5 -10.8 14.3 -16.2 c 2 -2.8 5.1 -4.6 6.6 -7.7 c 0.9 -2.6 -3.4 -4.5 -0.5 -7 c 1.9 -2.9 3.9 -5.7 6.4 -8.1 c 3.8 -4.8 8 -9.5 10.6 -15.2 c 1 -2.3 1.3 -5.1 -0.2 -7.3 c -0.4 -2.7 1.9 -4.8 2 -7.3 c -1.2 -1 -2.8 1 -4.1 1.6 c -0.9 0.7 -1.7 1.2 -0.9 -0.2 c 1.8 -5.2 5.9 -9.3 10.1 -12.7 c 2.7 -2.3 6.1 -4.1 9.8 -3.9 c 2.7 0.1 5.3 1.2 8 0.8 c 3.2 0.1 5.2 3.2 7.1 5.4 c 2.1 2.9 1 6.7 1 10 c -0.4 3.7 -0.4 7.6 -2.2 10.9 c -0.9 2.9 3.3 3.3 5.1 4.4 c 6.3 3.6 11.4 9.1 15.8 14.8 c 2 2.8 4.1 5.8 4.3 9.4 c 1.3 4.9 4.8 8.7 7.2 13 c 2.6 3.9 4.5 8.4 8.1 11.6 c 3.8 2.8 8.5 3.9 12.3 6.8 c 2.2 1.3 3.3 3.8 5.7 4.9 c 2.6 1.2 5.4 2.2 7.6 4.2 c 5.4 4.4 9.1 10.5 11.1 17.1 c -0.3 2 -3.3 2.8 -2.4 5.4 c 0.3 6 1.1 12.1 -0.1 18.1 c -1 5 -2.5 9.9 -4.6 14.5 c -1.9 3.2 -2.2 -4.9 -4.8 -1.3 c -2 2.7 -3.1 6.2 -5.8 8.5 c -2.7 2.2 -2.4 -3.6 -3 -5.2 c -0.6 -1.3 0.6 -6.2 -1.6 -3.4 c -1.9 3.5 -3 7.5 -5.6 10.6 c -0.8 1.5 -3.5 3.7 -3.3 0.5 c -0.7 -4.5 0.2 -9.2 -1 -13.7 c -1.8 -1.2 -1.9 3.6 -2.4 4.9 c -1.5 8 -2.2 16.3 -5.9 23.6 l -4 8 c -12.4 0.1 -24.8 -0.7 -37.2 -1.3 c 0.6 -4.3 1 -9 4 -12.5 c 1.4 -1.3 1.7 -3.8 -0.9 -3.2 c -5.1 0.3 -9.9 2.4 -15 2.8 c -6.5 1 -13.2 0.5 -19.7 1.3 c 0.3 3.5 2.7 6.5 3.3 9.9 c -0.6 2.8 -4.5 1.8 -6.7 2.3 c -10.5 0.8 -21.1 0.7 -31.7 0.7 l -1 -3.8 z m 64.9 -34 c 2.6 -4.9 3.4 -10.5 3.7 -16 c 0.3 -3.1 -0.3 -6.4 1.4 -9.1 c 1.1 -2.6 3.4 -4.7 4.1 -7.5 c -1.6 -1.8 -4.7 -0.8 -6.9 -0.6 c -3.5 1.5 -3.6 -2.7 -4 -5 c -0.4 -2.3 -1.9 -5.5 -4.8 -4.6 c -4.5 1.6 -7.8 5.5 -11.2 8.7 c -1.7 1.6 -4.4 5 -6.5 2 c -1.8 -2.3 -3.4 -0.1 -2.1 1.9 c 2.7 6.6 0.8 13.8 1.8 20.6 c 0.6 4.2 1.6 8.7 4.4 12.1 c 3.7 2.6 8.3 3 12.5 3.8 c 2.7 0.8 5.2 -0.9 6.1 -3.4 c 0.5 -1 1 -2 1.4 -3 z m 20.4 1.7 c 2.6 -1.1 4.9 -2.7 6.6 -5 c 3 -2.5 6.3 -4.7 10.1 -5.9 c 2.5 -0.3 3.2 -3.5 3.7 -5.5 c 1.1 -4.5 -1.8 -8.6 -4.8 -11.7 c -2.2 -1.9 0.3 -3.3 1.6 -4.6 c 0.5 -1.7 0.2 -4.9 2.9 -3.2 c 1.9 1.4 6.9 0.9 4.3 -2.2 c -1.8 -1.5 -4.3 -4.7 -0.8 -5.9 c 1.9 -1.9 -1.2 -4.4 -0.7 -6.5 c 2.4 -0.8 5.4 1.4 7.6 -0.1 c 0 -3.2 -2.5 -5.9 -4.8 -7.8 c -2.6 -2.9 -3.7 -6.8 -6.2 -9.8 c -3.4 -4.6 -7.6 -8.5 -10.7 -13.4 c -1.5 -2.1 -2.4 -5 -4.9 -6.1 c -2.9 0 -4.5 -2.8 -6.2 -4.8 c -0.1 4.7 0.3 9.4 -0.7 13.9 c -2.5 1.4 -0.8 4.6 0.2 6.7 c 1.4 1.6 1.3 3.8 -1.2 3.8 c -2.6 1.6 -0.2 5.1 0.5 7.2 c 1.9 3.3 3.7 6.8 4.8 10.5 c 1.1 3.5 2.3 7.1 2.8 10.7 c -0.3 2.4 -3.4 3.3 -3.8 5.9 c -2.9 8.5 -7.2 16.4 -10.7 24.6 c -1 2.3 -1.7 5.3 0.2 7.5 c 1.4 2.3 3.9 4.6 6.7 3 c 1.2 -0.4 2.3 -0.9 3.4 -1.4 z m -52 -2.4 c 2.6 -3.5 1.1 -7.9 0.1 -11.7 c -1.8 -6.6 -4.7 -13 -5.9 -19.8 c -0.7 -2.6 1.9 -5.5 0.1 -7.8 c -1.2 -1.2 -2.6 -2.1 -3.8 -3.1 c 2.7 -4.7 5.9 -9.1 9.7 -13 c 3.1 -3.7 6.5 -7.5 7.9 -12.2 c -0.1 -2.5 -1.2 -4.9 -0.8 -7.5 c 0 -3.7 0.8 -7.5 0 -11.1 c -2.3 0.7 -4 3.6 -5.7 5.4 c -1.3 1.6 -3 3.6 -5.1 2.4 c -3.7 1.8 -6.6 4.9 -9.6 7.6 c -6 5.9 -11.9 11.9 -16.7 18.7 c -1.5 1.5 -2 4.3 1 3.8 c 3.7 0.8 5.9 5 9.9 4.8 c 2.5 -1.1 5.1 0.9 3 3.4 c -3.2 2 1.5 4.6 0 6.8 c -1.3 0.8 -5 3.5 -1.7 3.9 c 2.4 -0.2 5.7 -0.8 6.4 2.4 c 1.5 2.8 0.6 6.1 -1.1 8.5 c -2.4 4.2 -6.5 7.7 -6.9 12.8 c -0.2 3 3.2 3.1 5.2 3.8 c 1.1 2 3.2 3.3 5.6 3.8 c 2.6 0.6 6 1.5 7.9 -0.8 a 6.8 6.8 0 0 0 0.6 -0.8 z m -38.6 -51.2 c 1 -1.2 3.7 -5.1 0.3 -4.1 c -2.3 1.3 -4.5 3.4 -5 6 c 0.2 3.9 4 -0.7 4.8 -1.9 z m 4.3 0.1 c 0.6 -1.2 1.6 -4.6 -0.6 -2.3 c -1.5 0.9 -4.7 4.8 -1.1 4.7 c 0.9 -0.5 1.3 -1.5 1.7 -2.4 z m 124.2 -0.5 c 2 -0.2 5.7 -3.2 2.5 -4.4 c -2.8 -0.7 -5.9 -1.5 -8.8 -0.6 c -2 1.5 0.4 5.6 2.5 5.8 c 1.3 -0.1 2.5 -0.6 3.7 -0.9 z m 182.5 88.3 c 3.8 -7.4 8.5 -14.3 12.4 -21.7 c 5 -9.6 10.6 -18.9 16.4 -28.1 c 1.8 -2.7 3.3 -5.6 4.8 -8.4 c 6 -9.6 12 -19.1 17.4 -29.1 c 3.2 -6 7 -11.6 10 -17.7 c 1.4 -1.8 1.4 -6.3 -1.8 -4.1 c -7.2 3.9 -12.7 10.1 -18.9 15.2 c -5.3 4.6 -10.7 9 -15.7 13.9 c 0 1.6 1.7 3.1 2.7 4.6 l 1.6 2.2 c -2 1.5 -4.3 3.1 -4.8 5.8 c -1 2.5 -5.4 1.5 -4.9 5 c -1.1 2.2 -4 2.8 -5.5 4.7 c -2.5 0.1 -4.6 -2.4 -7 -2.5 c -3.8 5 -6.9 10.5 -10 15.9 c -2.4 4 -2.7 8.9 -2.7 13.4 c -0.1 1.4 0 6.2 -2.2 3.7 c -1.4 -3.3 -0.4 -7 0.2 -10.4 c 1.5 -6.1 3.8 -12.1 8.1 -16.7 c 1.9 -2.7 4.1 -5.5 5 -8.8 c -1.2 -2.2 -4.3 -2.3 -6.6 -2.6 c -2.5 -0.2 -6 0.6 -6.3 3.7 c -0.7 2.6 -4.1 1.8 -5.9 3.4 l -4.4 2.5 l 1.2 -19.8 c 2.4 -1 5 -1.9 7.6 -2.2 c 2.4 2 5.4 0.6 8 -0.5 c 5.6 -2.2 11.1 -4.6 16.7 -7 c 2.2 0.9 4.2 2.3 6.5 2.9 c 2.6 -0.6 4.2 -3 6.2 -4.6 c 10.6 -8.9 21.7 -17 32.1 -26.2 c 1.3 -0.8 3.1 -3.1 0.2 -2.8 c -8.6 -0.1 -17.2 1.5 -25.7 2.8 c -2.7 0.7 -6 0.5 -8.2 1.8 c -1.1 2.8 -2.1 6.1 -5.1 7.6 c -5.8 3.3 -12.9 3.2 -19 5.8 c -2.1 1.1 -0.1 4.4 -3 5.3 c -5.2 3.2 -10.2 6.4 -15.1 10 c -1 1.1 -1.1 0.4 -1.1 -0.8 c -0.4 -5.7 -0.9 -11.5 0 -17.2 c 0.8 -2.9 4.1 -3.6 6.4 -4.9 c 2.2 -0.6 5.2 -3.4 7.3 -1.9 c 1 2.5 5.2 1.3 5.6 -1.1 c 0.9 -3.1 0.1 -6.7 2.2 -9.5 c 1.5 -2.2 -0.5 -4.7 -1.3 -6.8 c -2.8 -6.3 -3.4 -13.3 -3.1 -20 c 0.3 -1.9 0.3 -6 2.6 -6 c 1.3 7.4 -0.2 15 1.5 22.4 c 0.7 2.3 1.7 4.8 3.7 6.1 c 2.6 0.2 2.3 -3.6 3.6 -5.1 c 0.2 1.9 1.5 6 3.2 5.9 c -0.3 -1.6 0.4 -3.3 1.8 -1.4 c 1.1 1 3.9 4.2 3.6 0.8 c 0.6 -1.4 -0.2 -4.5 1.1 -5.1 c 2.2 2.4 3.7 5.4 4.5 8.5 c -0.6 3.5 2.9 3.1 5.3 2.7 c 9.4 -1.1 18.9 -2.2 28.2 -4.1 c 3.2 -0.1 2.5 -3.2 3.9 -5 c 1.3 -2.1 -2.8 -5.4 1.2 -6.1 c 3.7 -0.5 1.9 -4.1 0.3 -5.8 c -5.4 -7.1 -9.3 -15.1 -13.5 -22.9 c 2.8 -1.5 5.4 -3.3 8.4 -4.2 c 2.4 2.3 4 5.3 5.9 8 c 1.8 2.7 3.4 5.7 5.8 8 c 0.8 -2.4 0.6 -5 0.7 -7.5 l 0 -12.5 h 12.3 c -0.3 6.7 -1 13.4 -0.6 20.2 c 0.6 2 2.4 -1.9 3.2 -2.7 c 3.4 -4.7 6.3 -9.9 10.3 -14.2 c 2.2 -1.8 4.8 0.6 7 1.3 c 3.5 0.9 -0.5 4 -1.1 5.9 c -5 7.7 -10.4 15.1 -14.4 23.3 c -1.5 2.7 4.3 3.8 1.1 6.3 c 0.6 2.2 2.2 4.4 -0.5 5.9 c 1.9 2.1 0.7 5 1.5 7.3 c 1.9 1.7 -0.3 4.5 1 6.6 c 1.6 3.5 3.7 6.8 5.5 10.3 l 29.1 54.6 c 3.5 6.2 6.7 12.6 10.1 18.8 c 4.6 8.5 9.5 16.9 13.7 25.6 c -3 0.7 -6.1 0.2 -9.1 0.3 c -1.1 0.3 -1.2 -1.2 -1.8 -1.8 c -3.9 -6.9 -8.1 -13.6 -12.4 -20.2 c -1.6 -2.4 -2.4 -5.2 -4.1 -7.5 c -5.6 -8.8 -10.2 -18.2 -15 -27.4 l -21.8 -42.1 c -1 -1.4 -3 -6.2 -4.7 -3.5 c -1 5.3 -0.8 10.7 -1.1 16.1 l -2.3 86.9 h -12.9 c 1.1 -26.1 2.8 -52.3 4.6 -78.4 c 0.3 -6.8 0.9 -13.6 0.3 -20.4 c -0.6 -3 -2.7 1.8 -3.4 2.8 l -15.8 28.8 c -10.7 20.4 -22.7 40 -34.2 60 c -1.6 2.7 -2.9 6.5 -6.5 7 c -3.2 0.3 -6.4 0.4 -9.6 -0.1 c -0.8 -0.1 -0.8 -0.9 -0.5 -1.5 z m -901.9 -1.7 c -3.5 -2.2 -7.6 -3.9 -11.8 -3.9 c -3.3 0.6 -5.5 3.6 -8.8 4.4 c -3.5 -0.4 -1 -4.7 0.4 -6.2 c 1.9 -2.5 -2.9 -4.3 -1.1 -7.2 c 0.5 -2.4 -0.6 -4.6 -1.5 -6.8 c -1.2 -2.5 -0.6 -5.8 -2.4 -7.9 c -2.4 0 -4.8 1.1 -7.2 1.6 c -5.4 1.4 -11.6 3 -17 0.6 c -4.2 -2 -5.9 -6.6 -6.9 -10.8 c -1.1 -4.3 -2.3 -8.7 -2.5 -13.2 c 0.8 -5.1 3.7 -9.6 5.3 -14.4 c 0.5 -2.5 -2.9 -4.9 -5.1 -3.9 c -1.9 2.1 0.5 6.1 -2.6 7.8 c -1.2 -1.7 -2.1 -5 -0.5 -6.9 c 2.2 -1.6 4.4 -3.8 3.5 -6.8 c -0.3 -3 -1.2 -6.5 1.2 -8.8 c 2.6 -3.5 7.5 -3.9 11.3 -2.5 c 3.5 0.8 0.8 -4.8 3.6 -5.9 c 1.2 -3.1 -2.3 -4.7 -3.7 -6.8 c -2.3 -4 0.1 -8.9 3 -12 l 2.7 -3.2 c 2.8 1.4 6.1 2.2 8.2 4.6 c 0.6 2.5 3.9 3.2 4.1 6 c 0.7 2.3 1.2 5.1 -0.7 6.9 c -1.1 3.1 3.5 3.3 4.6 5.5 c 2.5 3.3 3.3 7.9 6.9 10.3 c 3 1.8 3.8 -2.4 2.2 -4.2 c -0.5 -3.3 0.7 -6.5 0.4 -9.8 c 0.2 -3.2 -1.5 -7 0.8 -9.8 c 2.4 -1.8 2.9 -5.2 0.8 -7.4 c -1.5 -1.7 -3.4 -3.7 -2.8 -6.2 c 0.7 -2.5 0.5 -5.4 1.8 -7.6 c 2.3 -1.3 5.2 -1.3 7.7 -1.2 c 3.3 0.1 5.5 3.2 5.9 6.3 c 0.7 3 0.2 6.1 0.9 9 c 1.5 1.3 5.2 1.4 6.3 -0.2 c -1.2 -6.5 -0.6 -13.3 -1.3 -19.9 c -0.2 -2.9 -3.2 -4 -5.6 -4.4 c -6.2 -1.2 -12.5 -2.5 -18.1 -5.4 c -1.5 -2 -3.9 -3 -6.1 -4 c -1.9 -1 -4.8 -1.6 -6.1 -3.1 c 1.4 0.2 5.9 0.3 3.6 -2 c -0.9 -1.2 -5.2 -1.9 -4.5 -3 c 2.6 0.5 4.6 2.5 7.2 2.7 c 1.8 0 -0.6 -4.1 1.4 -1.4 c 0.9 1.8 4.3 4 3 0.6 c 2.3 0.4 2.2 3.9 4 5.2 c 2.2 -0.7 4.8 -0.1 7 0.7 c 6.1 1.8 12.5 3.2 18.8 2.6 c 1.5 -0.2 2.7 -1.1 4 -1.7 c -2.1 -1.9 -4.9 -3.4 -6.2 -6.1 c -1.1 -3.6 -1.1 -7.5 -1.4 -11.3 c -0.3 -3.5 2.7 -6.2 5.5 -7.9 c 2.3 -0.8 5.2 -1 7.3 0.1 c 0.3 2.6 3.6 2.5 3.8 5.3 c 0.9 3.9 2.2 8.1 1.1 12.1 c -0.8 2.9 -4 4.8 -3.9 8 c 0.9 1.8 3.6 -0.7 4.6 1.5 c 3.3 1 6.7 -0.1 10 -0.8 c 5.4 -1.3 10.5 -3.5 16 -4.2 c 2.9 1.2 2.8 -4.4 4.9 -3.5 c 2.1 1.3 4.7 -1.4 7.3 -1 c 1 -0.2 5.1 -1.5 2.3 -0.1 c -1.9 0.4 -3.8 3.1 -0.6 3 c 1.5 0.1 3 0.1 4.5 0.1 c -4.2 1.7 -8.6 3.2 -12.8 5 c -1.9 1.6 -3.1 3.9 -6 3.9 c -6.4 1.8 -12.8 3.9 -19.3 5.5 c -3 0.4 -3 4.3 -1.7 6.3 c 2.2 0.7 4.8 0.4 7.1 1.3 c 2.6 0.8 3.1 3.9 3.9 6.2 c 1.1 2.5 0 4.8 -0.9 7.1 c -0.7 2.1 -1.2 4.9 1.1 6.3 c 4.1 3.3 5.5 8.8 6.5 13.7 c 0.1 1.6 1 6.6 2.6 3.1 c 2.1 -4.9 3.7 -10 5.1 -15.1 c 1.1 -2.8 -2.3 -4.4 -2.5 -7.1 c -0.5 -3.8 0.5 -7.8 2 -11.3 c 0.9 -2.5 3.7 -3.9 6.2 -3.3 c 3.5 0.5 6.9 2.6 8.1 6.1 c 1 2.9 2 6.1 1.6 9.2 c -0.3 3.2 -5.9 0.4 -5.3 3.6 c 1.7 3.4 5.1 5.6 7.1 8.9 c 2.7 4 5.3 8.3 6.5 13 c -0.2 3.3 4.2 3.9 6.4 2.4 c 3.2 -1.3 1.6 -4.2 -0.5 -5.6 c -2 -1.9 -4.2 -4.1 -2.7 -7 c -0.1 -2.3 0.4 -4.6 2.7 -5.5 c 2.8 -2.5 5.1 -6.3 9.1 -6.9 c 1.4 0.3 1.1 2.5 3 2.3 c 2.2 1.7 2.8 4.7 4.2 7 c 0.7 2.1 2.1 6.5 -1 7.1 c -1.9 2.7 1.4 5 2.8 7 c 2.2 3.4 3 7.6 4.8 11.2 c 1.9 4.7 5.1 9 6 14.1 c 0.3 3.7 -1.6 7.2 -3.5 10.2 c -2.4 3.5 -6.8 4.4 -10.7 5 c -2.6 0 -3.1 1.8 -1.8 3.8 c 1.1 3 2.1 6.2 3.8 8.9 c 0.8 2.2 4.5 0.1 4.8 1.1 c -2.4 0.9 0.5 4.8 -2.9 4.3 c -2.4 -0.1 -6.2 -0.3 -5.7 3.1 c -1.6 5.5 -7.5 9.2 -13.2 8.7 c -5.5 -0.1 -10.9 -1.4 -16.4 -1.7 c -1.9 0.6 -1.4 3.8 -3.8 4.4 c -5.3 3.3 -11.7 4.4 -17.8 3.9 c -4.3 -0.7 -8.2 -3 -12.3 -4.4 c -0.4 2.6 0 6.2 -3.2 7.2 c -3 1.1 -6.2 1.7 -9.3 1.7 c 0.4 -0.7 6.2 -2 3 -4 c -1.3 -0.2 -2.3 -0.8 -0.3 -0.7 c 3.5 0.2 -2.4 -3.8 1.5 -3.2 c 2.5 -1.2 2.5 -4.5 3 -6.9 c 1 -6.8 0.4 -13.8 2 -20.5 c 0.4 -2.7 3.7 -4.6 2.8 -7.6 c -1.2 -2.9 -4.2 -5 -4.2 -8.4 c -0.4 -3.8 0.9 -7.7 -0.6 -11.3 c -0.9 -2.2 -5.8 -5 -5.5 -0.8 c -0.1 7.2 0.3 14.5 1 21.7 c 1.7 3.2 -3.5 3.8 -1.8 7 c 0.3 3.1 -3.4 4.1 -5.9 4 c -2.9 0.4 -2.4 4.1 -4 5.9 c -2.2 2 -1 4.8 0.5 6.7 l 3 4.5 c -2.8 3.8 -5.8 7.4 -9.6 10.2 c -3.2 1.7 -1.1 4.9 -0.6 7.5 c 0.4 3.9 -4.3 1.1 -5.9 -0.1 l -0.3 -0.2 z m 64.4 -30.3 c 2.4 -5 3.8 -10.3 4.8 -15.7 c 0.2 -2.7 2.2 -5.6 0.7 -8.2 c -2.5 -2.2 -6 -0.6 -9 -1 c -2.5 -0.1 -3.9 -2.6 -6.4 -3 c -2 -0.4 -6 -1.9 -6.2 1.3 c -0.4 2.9 -1.8 6.3 0.5 8.8 c 3.7 3.9 5.7 9 8 13.8 c 1.1 2.6 2.3 5.3 2.5 8.2 c 1.6 4 3.7 -1.3 4.5 -3 l 0.6 -1.1 z m -52.2 -20.2 c -0.2 -2.9 0.4 -6 -0.8 -8.7 c -2 -2.1 -5.3 -1.3 -7.9 -1.6 c -3 0.5 -1.2 4.5 -2.3 6.6 c -0.9 1.9 -3.2 5.6 0.7 5.8 c 3.2 1.5 5 4.9 8.1 6.7 c 2.9 0.3 1.9 -4.1 2.2 -6.1 l 0 -2.7 z m 1209.5 35.8 c 1.6 -5.1 4.6 -9.8 5.5 -15.1 c 0 -2.4 0.1 -5.9 3 -6.5 c 1.9 -0.5 3.9 0.4 5 1.7 c 1.5 -2.5 4.4 -3 7.1 -2.9 c 6.2 -0.9 11.6 -4.5 16.8 -7.7 c -0.3 -2 -3.8 -2.5 -5.6 -3.3 c -4.4 -0.9 -9.1 -1.3 -13.1 -3.5 c -4 -2.3 -7.9 -4.9 -11.3 -8.2 c -2.4 -1.5 -0.6 -4.5 -1.9 -6.1 c -3 -0.4 -5.6 1.6 -8.2 2.8 c -3.2 1.8 -6.1 4.1 -8.4 7 c -0.8 1.4 -0.4 -0.8 -0.5 -1.4 c -0.1 -3.9 2.5 -7.1 4.2 -10.4 c 2.4 -4 4.4 -8.4 7.8 -11.6 c 3.1 -1.6 5.5 3.2 5.1 5.8 c 0.1 3.1 4.6 0.7 6.4 2.3 c 4.3 1.7 8.2 4.5 12.4 6.4 c 4.9 1.4 10 0.9 15 1.1 h 13.2 c -0.1 -1.5 -1.2 -3.3 -0.1 -4.7 c 3.4 -2.5 7.8 -3 11.3 -5.3 c 3.5 -2 4.8 -6.1 7.8 -8.6 c 1.5 -1.8 5.1 -3 4.5 -5.8 c -1.5 -1.3 -3.8 -1.8 -4.1 -4 c -1.4 -1 -6.4 -0.1 -2.8 -2.3 c -0.9 -1.5 -6.8 1 -4.6 -1.8 c 2 -2.2 4.8 -3.7 7.8 -3.7 c 1.5 -0.4 5.6 -1.7 4.2 -3.5 c -3.2 -1.8 1.2 -2.3 2.5 -2.9 c -1 -3.2 3.4 -2.2 5.3 -2.4 c 4.6 0 9.7 -0.1 13.4 3.2 c 1.7 2 4.6 4.2 5.5 0.3 c 1.3 -2.1 1.6 -4.8 3.4 -6.6 c 3.3 0 3.6 -4 4.3 -6.4 c 1.2 -1.2 3.6 -0.7 3.5 -3.1 c 0.8 -3.2 1.2 -6.5 1.8 -9.8 c -1.7 -1.7 -3.7 -3.1 -5.1 -5 c 2.6 0.3 3.8 3.9 6.7 3 c 2.5 -0.5 6 -0.8 7.2 2 c 0 2.8 2.3 4.7 4.6 5.9 c 1.1 0.5 4.1 3.2 1.1 1.7 c -1.7 -0.9 -3.4 -2 -5.1 -2.9 c -2.6 2.6 -5.6 4.9 -7.8 7.9 c -1.6 1.8 3 3.2 -0.2 4.3 c -1.7 1.6 -1.6 4.4 -3.7 5.8 c -2.2 1.8 -2.4 4.8 -3.6 7.2 c -2.9 6 -6 12 -10 17.3 c -2.3 3 -5.1 5.5 -8.2 7.7 c -4.5 4.2 -6.4 10.3 -9.3 15.5 c -3.6 7.1 -9.6 12.5 -15.4 17.8 c -2.4 2.1 -5.3 4 -8.7 3.7 c -1.9 0.2 -3.2 -2.4 -4.9 -0.3 c -7 5.1 -12.5 12.1 -20.3 15.9 c -4.8 2.5 -10 3.8 -15.4 4.1 l -3.7 0.3 c -0.1 -1.7 0.4 -3.7 -0.8 -5.1 c -2.5 -0.4 -4.9 2.6 -5.3 4.9 c -1.8 3 -4.4 5.5 -7.3 7.6 c -1.5 1.1 -1.5 -1.1 -1.1 -2 z m 121.1 -111.3 c 1.1 -2.9 -2.9 -4.6 -3.7 -1.2 c -2 3 2.8 3.7 3.7 1.2 z m -951.3 90.9 c -3 -2.7 -3.2 -7.1 -5.3 -10.4 c -2.1 -1.3 -5 0.6 -7.3 1 c -7.1 2.2 -14.7 3.2 -22.1 2.9 c -5.1 -0.2 -10.3 -2.2 -13.6 -6.2 l -2 -2.1 l 6.9 -14.4 c 1.2 -2.9 4.6 -2.9 7.1 -2 l 14.9 4.3 c 0 3 -0.4 6.1 -0.1 9.1 c 1.3 2.9 5.4 1.1 4.9 -1.8 c 0.2 -3.6 5.1 -2 6.4 0 c 2.6 1.5 4.6 -1.4 6.8 -2.2 c 2.2 -1 5.3 0.4 7 -1.6 c 0.8 -1.9 2.9 -5.5 0.2 -6.7 c -1.6 0 -4.2 -0.2 -2.6 -2.4 c 1 -2.4 2.6 -5 5.4 -5.7 c 2.8 -0.9 3.1 -3.9 1.5 -6 c 0.4 -2.6 2 -4.9 3.5 -6.9 c 2.6 -1.7 3.4 2.9 5.3 2.7 c 3.2 -1.4 5.5 -4.2 8 -6.4 c -1.9 2.6 -4.1 5 -5.7 7.9 c -1.2 3.2 -0.1 6.7 0.1 10 c 0.8 5.9 1.2 12 3.1 17.8 c 1.6 2 4.5 -1.4 6.3 -2.2 c 2.4 -1.3 2.3 -4.2 2.1 -6.5 l -0.2 -4 c 1.4 2.4 2.1 5.3 4.4 6.9 c 2.4 0.9 4.5 -1.1 6.5 -2.2 c 0.6 -0.1 2 -1.8 1.9 -0.6 c 0.5 7.6 1.1 15.2 -0.2 22.7 c -0.4 3.2 -4 4.2 -6.7 4.5 c -4.2 0.4 -9.1 0.2 -12.4 -2.9 c -0.7 -0.7 -1.4 -1.3 -2.3 -0.5 c -5.8 2.7 -11.9 5.7 -18.5 5.1 c -1.2 -0.2 -2.4 -0.5 -3.3 -1.3 z m -58.1 -24.5 c -1.3 -1.6 -1.3 -4.6 -4.2 -3.8 c -3.8 -0.4 -8 -1.6 -10.4 -4.8 c -2 -4.3 -1.7 -9.3 -1 -13.9 c 0.1 -2.6 3.1 -5.4 1.2 -7.8 c -2.9 -1.5 -6.7 -1 -9.1 -3.5 c -2.7 -2.6 -1.5 -6.8 -0.1 -9.8 c 1 -1.8 3.4 -6.2 -0.3 -6.2 c -3.6 -0.5 -6.7 -2.9 -9.3 -5.3 c -3.7 -3.7 -3.4 -9.7 -1.5 -14.3 c 1.6 -4.3 5 -7.7 8.5 -10.6 c 1.1 -0.6 0.9 -1.3 0.1 -2.1 c -2.2 -3.1 -4.3 -6.5 -4.3 -10.4 c -0.5 -6.8 3.5 -13.4 9.3 -16.8 c 2.3 -1.2 3.9 -3.9 6.8 -3.7 c 5.5 -0.5 11.1 -0.6 16.6 -0.2 c 3.2 0.5 0.2 4.7 0.9 6.9 c 0.1 2.7 -0.6 5.9 0.8 8.3 c 0.9 2.9 -1.3 6.4 1.1 8.8 c 2.5 1.9 6.3 1.5 8.9 -0.1 c 3 -1.8 3.6 -5.5 5 -8.4 c 1.3 -2.3 3.1 -5.1 6.1 -5.1 c 2.4 0.8 4.2 2.9 5.3 5.1 c 0 2.6 -2.5 4.3 -3.3 6.7 c -2.7 5.9 -5.8 12 -5.2 18.7 c 0.2 2.6 0.2 5.4 1.1 7.9 c 2.8 -0.2 4.9 -2.4 7.3 -3.7 c 1.7 -0.8 3.6 -2.6 5.4 -2.4 c -1.5 2.7 -4.2 4.6 -5.6 7.3 c 0.1 2.8 3.8 3.5 6.1 3.8 c 3.7 0.5 7.4 -0.3 10.8 -1.8 c 1.2 -0.6 3.5 -0.8 1.5 0.8 c -2 2.1 -4.8 3.6 -6.3 6.2 c 1.8 1.7 4.9 1.2 7.1 2.3 c 3.4 1.7 -1 4.2 -2.9 4.7 c -1.8 0.3 -3.9 3 -0.7 3.1 c 2.4 0.3 5.8 -0.4 6.9 2.4 c 2.2 1.2 4.9 0.3 7.3 0.3 c 1.3 -0.4 1.4 0.3 1.1 1.4 c -0.3 4.9 -2.1 9.8 -5.1 13.7 c -2.4 1.4 -3.8 3.9 -4.6 6.5 c -0.9 2.2 -2.2 5.7 -5.2 5.1 c 0.7 -2.2 0.3 -5.5 -2.9 -5.2 c -2.5 1.2 -1.8 4.7 -2.7 6.9 c -1.7 2.5 -5.1 0.1 -7.4 -0.3 c -4.1 -1.4 -8.2 -2.7 -12.2 -4.3 c 0.9 -3.7 2.8 -7.1 4.3 -10.6 c 2 -4.1 4 -8.3 4.4 -13 c 0.5 -2 0.3 -6.6 -2.7 -4.1 c -4 1.8 -6.5 5.7 -8.5 9.4 c -2.4 4.3 -4.3 9 -6.5 13.4 c -1.4 2.7 -4.7 0.8 -7 1 c -4.3 -0.3 -8.6 -0.6 -12.8 0.1 c -3.1 1.6 1.5 4.1 2.9 5.2 c 3.3 2 6.7 4.2 10.4 5.1 c 2.8 0.3 -0.6 3.9 -0.8 5.5 c -1.2 2 -1.8 5.1 -3.5 6.4 c -0.5 -0.3 -0.9 -0.7 -1.3 -1.1 z m 100.1 -7.3 c -0.4 -1.8 -2.5 -5 -1.6 -6 c 2.2 1.7 3.7 4.5 3 7.3 c -0.1 0.9 -0.1 2.4 -0.6 0.7 l -0.8 -2 z m -160.7 -35.3 c -1.3 -2.9 3.8 -3.9 3.3 -0.6 c -0.1 1.8 -2.5 1.7 -3.3 0.6 z m 10.3 -8.5 c -1.4 -2.7 0.3 -5.7 2.1 -7.8 c 2.2 -2.5 4.7 1.2 5.3 3.2 c 0.7 2 1.2 5.1 -1.1 6.3 c -2.2 0.6 -5.5 1.1 -6.3 -1.7 z m 1092.1 -2.6 c -6.4 -2.9 -12.9 -5.7 -19 -9.2 c -1.7 -1.5 2.6 0.4 3.2 0.7 c 3.8 1.7 7.4 3.9 11.5 4.8 c 4.8 1.9 9.7 3.9 14.1 6.6 c -0.6 2 -4.4 -0.9 -6.1 -1.3 l -3.7 -1.6 z M 2093 249 c -2.9 -2.6 -5.5 -5.5 -7.8 -8.7 c -1.5 -1.9 -4.5 -2.3 -4.9 -5 c -0.5 -1.6 -0.7 -3.3 -1.1 -5 c -1.3 3.3 -2.4 7.2 -6 8.7 c -2.7 1.6 -4.4 -1.7 -6.1 -3.3 c -1.2 -2 -3 -2.1 -3.7 0.3 c -0.7 1.3 -1.4 2.7 -2.1 4.1 c -1.9 -5.5 -3.4 -11.6 -7.8 -15.7 c -2.3 -2 -4.5 -4.5 -7.4 -5.4 c -4 -0.8 -8.1 0.4 -12 0.1 c -3.2 -1.5 0.1 -5.2 2.7 -3.9 c 2.5 0.2 5.4 2.7 7.6 0.4 c 2.2 -2.6 6 2.1 7.7 -1.8 c 1.5 -2.4 2 -5.2 2.8 -7.8 c 8.6 0.1 17.3 -0.4 25.8 1 c 4.9 0.7 9.5 3.3 12.3 7.4 c 3.7 4.9 4.3 11.2 5 17.1 c 0.8 7.4 0.4 14.9 0.1 22.3 l -5 -4.6 z m -70.1 -2.6 c -0.5 -1.6 0.4 -5.6 1.4 -5.7 c 0 2.3 0.6 5 -0.5 7.2 c -0.6 -0.2 -0.7 -1 -1 -1.4 z m 4.7 -5.1 c 0.4 -3.3 1.3 3.2 0 0.7 l 0 -0.3 z m 963.9 -0.5 c -1.1 -0.7 -2.5 -2.2 -0.3 -1 c 1 0.5 3.4 1.9 2.9 2.9 c -1 -0.5 -1.8 -1.3 -2.6 -2 z m -958 -1.9 c -0.2 -1.1 0.4 -4.6 1 -1.9 c 0.3 0.9 0.7 5.4 -0.8 3.9 c -0.2 -0.6 -0.2 -1.3 -0.3 -2 z m 945.4 -7.8 c -7.3 -6.4 -14.5 -13.1 -21 -20.4 c -1.2 -1.1 -1.1 -2.2 0.3 -0.6 c 7.4 6.8 14.2 14.1 21.7 20.8 c 2.8 2.7 6 5 8.5 8 c -3.4 -2.3 -6.4 -5.1 -9.6 -7.7 z m -1254.4 -5.3 c 0.3 -1 2.4 -3.1 1.4 -0.8 c -0.2 1.4 -3 4.2 -1.6 1.2 z" fill="#ffffff"/><path paint-order="stroke fill markers" d="M 1998.5 324.7 l 6.6 -15.4 l 6.6 2.5 l -7.4 15.7 l -5.9 -2.8 z" fill="url(#A)"/><path d="M 1972.7 390.8 l -24.8 -0.5 c -2.9 0.2 -3.4 -2.3 -2.5 -4.4 c 0.5 -4.2 0.1 -8.5 -1 -12.6 c -0.7 -2.9 -1.8 -5.7 -1.4 -8.8 c 0.4 -3.1 -0.2 -6.4 -1.9 -9 c -2 -4.2 -1.4 -9.1 -1 -13.7 c 0.5 -2.4 2.7 -4.6 2.3 -7.2 c -1.1 -2.2 0.8 -3.8 3 -3.4 c 1.7 -0.4 4.7 -2.3 1.4 -3.1 c -1.7 -0.8 -0.9 2.9 -2.9 1.1 c -1.9 -2.6 -4.8 -2.3 -7.6 -2.3 c -3 0 -4.3 -3.4 -6.7 -4.1 c -2.9 0.8 -3 -3.8 -4.1 -5.7 c -1.5 -1.1 -3.2 -2.3 -2.5 -4.6 c 0.6 -4.2 0.2 -8.4 0.2 -12.6 c 0.5 -2.6 1.5 -5.2 2.9 -7.4 c 0.8 -1.4 3 0.4 3.1 -1.9 c 1.3 -2.3 3.6 -4 6 -5.1 c 3 0.7 4.4 -2.9 6.9 -3.7 c 2.2 -1.1 2.7 2.2 5 1.7 c 1.9 1.9 4.1 0.1 6.1 0.7 c 1.2 2 -2.2 3.3 0.2 5.2 c 1.9 1.4 2.8 4.7 5.7 4.2 c 2.4 -0.5 5.9 2.6 3.6 4.8 c -2.3 2.2 0.4 4.2 1.2 6.5 c 1.4 2.7 2 5.8 0.5 8.6 c -0.9 2.1 -2.3 4 -3.6 5.8 c -0.1 1.7 1.1 5.1 3.2 3 c 3.3 -0.5 1.6 4.8 4.9 3.9 c 3.3 -0.2 4.4 3.5 6.1 5.6 c 1.7 2.2 2.4 4.8 3.5 7.4 c 0.4 3.5 3.3 1.4 5 0.1 c 1.8 -0.6 2.1 -2.2 -0.1 -2.4 c -1.6 -1.6 -0.2 -6.3 2 -6.2 c 2.2 1 4.8 1.2 6.9 2.6 c 1.9 -1.4 2.2 -4.4 3.5 -6.4 c 0.5 -1.5 1.7 -2.6 -0.1 -3.7 c -1.8 -1.9 -2.4 -4.9 -5.6 -4 c -4 -0.5 -8.5 -1.8 -10.4 -5.7 c -2.5 -3.8 -1.7 -8.5 -1.8 -12.8 c 0 -1.6 1.1 -3 1.5 -4.5 c 0.9 -1.7 2.2 -4.6 -1 -4.1 c -3.7 -0.2 -7.7 -2.3 -8.7 -6.1 c -1.5 -4.1 0.1 -8.6 2.7 -11.8 c -0.9 -1.6 -4.3 -0.5 -5.7 -2.3 c -1.9 -1.2 -3.5 -2.9 -5.3 -4.3 c -2.1 -2.6 -4 -5.8 -3.6 -9.3 c 0.7 -2.3 0.5 -5 2 -6.9 c 0.8 -2.8 2.5 -5.3 4.5 -7.4 c 0.9 -1.6 4.5 -3.4 3.4 -5.1 c -2.4 -1.2 -2.5 -4.7 -3.4 -7.1 c -1.1 -3.1 -0.4 -6.5 0.5 -9.6 c 1.4 -3.5 2.8 -7.2 5.8 -9.5 c 1.9 -2 4.4 -3.1 6.5 -4.8 c 1.9 -2.2 5.2 -2.4 7.9 -2.8 c 5.3 -0.7 10.7 -0.2 16 0 c 2.3 -0.4 4.6 1.8 2 3.4 c -2.1 1.8 -2.3 4.6 -0.6 6.7 c -1.4 1.8 -3 5.5 0.5 6.1 c 2.7 0.6 1.1 2.5 -0.2 3.5 c -0.2 1.7 -1.5 7.1 1.7 5.4 c 2.6 0.9 6 0.3 7.3 -2.4 c 1.1 -2.4 1.2 -5.1 2.8 -7.3 c 2 -2 3.9 -4.8 7 -5 c 3 -0.9 4.2 2.4 5.9 4.1 c 0.7 1.9 4 5.2 1.4 6.5 c -2.2 1.5 -3.7 4.1 -4.9 6.5 c -0.6 1.6 -2.8 5.6 -1.9 6.2 c 2.2 -0.7 4.1 -1.5 6 -2.8 c 3.2 -1 1.9 3.3 2.3 5.1 c 0.1 2.5 1.4 5.6 -1.8 6.7 c -1.6 1.1 -3.1 -5.5 -3 -1.6 c 1.1 2.2 -2.6 5.1 -4.4 3.9 c -1.4 -2.6 -0.7 2.5 -0.7 3.4 c 0.6 2.7 3.1 -1.6 4.7 -1.8 c 2.4 -2.2 5.8 -2.8 8.3 -5 c 1.1 -1.4 6 -3.6 5.5 -0.5 c -2.2 2.8 -4.9 5.2 -7.1 8.1 c -1.7 1.6 -4.9 4.5 -0.4 4.4 c 4.5 0.6 9.3 0.7 13.3 -1.7 c 2.4 -0.8 5.1 -3.2 7.7 -2 c -0.8 2.4 -3.8 4.2 -5.4 6.3 c -1 1.4 -4.1 2.6 -3.8 4.2 c 1.8 0.2 3.5 0.6 5.1 1.5 c 0.1 1.9 0.3 3.8 0.2 5.7 c -1 0.6 -3.7 2 -0.9 2 c 2.3 0.4 3.3 3.5 6.2 2.7 c 2.3 -1.1 5.1 -0.2 6 2.2 c -0.3 2.4 -0.6 4.9 -1.4 7.2 c -1.1 2.2 -1.1 4.8 -3 6.8 c -1.2 1.5 -1.2 5.5 -3.7 4.8 c -2.2 -0.9 -0.9 2.9 -2.3 3.9 c -0.9 2.2 -0.8 5.7 -3.8 6 c -2.5 -0.2 -4.2 5.8 -6.1 2.7 c 0.2 -2.5 2 -5.2 1 -7.6 c -2.1 0.9 -1.3 4.9 -2.7 6.8 c -1.7 2.8 -5.5 0.2 -7.9 -0.2 c -2.3 -0.7 -4.5 -1.8 -6.9 -2.5 c -2.3 -0.9 -4.8 -1.3 -7 -2.5 c -2.5 -1.2 0.4 -4.3 0.7 -6.3 c 2.3 -4.8 3.8 -9.9 6.6 -14.5 c 0.1 -1.7 1 -5.1 -0.2 -5.8 c -3 2.3 -6 4.9 -7.4 8.5 c -1.1 2.5 -2.3 4.9 -3.1 7.5 c -1 2.5 -2.3 4.9 -3.6 7.2 c -2.3 2.8 -5.7 -0.4 -8.6 -0.2 c -3.2 -0.1 -6.4 -1.4 -9.6 -0.3 c -1.7 1.3 2.6 2.5 3.6 3.4 c 2.2 1.9 5 2.6 7.7 3.4 c 2.4 0.6 4.4 2.7 2.2 5 l -9 18.8 c -0.7 2.4 -2.5 4.5 -5.1 2.8 c -1.8 -0.6 -6.4 -2.6 -5.8 0.9 c 1.3 0.8 6.1 2 2.8 3.8 c -2.8 1.6 -5.4 3.4 -8.4 4.5 c -1.9 -2 -1.7 -5.2 -3.5 -7.4 c -1.6 -2.8 -3.3 -5.7 -5.8 -7.8 c -2.5 -0.1 -4.7 -1 -5.2 -3.7 c -1.8 -0.5 -5 -0.1 -5.2 -3.1 c -1 -2.7 1.5 -4.4 2.8 -6.3 c 0.3 -2.3 2.4 -4.6 1.3 -6.9 c -0.7 -2.9 -2.7 -5.4 -3.3 -8.2 c 2.1 -2.2 1.5 -4.9 -1.8 -4.8 c -3.4 0.5 -3.7 -3.5 -6.3 -4.8 c -2.3 -1 -0.7 -3.6 -1.3 -5.1 c -1.1 -0.5 -2.7 1.5 -3.6 0.6 c -1.3 -2 -4.2 -0.4 -5.5 -2.5 c -2.5 1 -4 3.5 -5.9 5.4 c -1.5 -1.7 -4.2 0.2 -5.4 1.8 c -0.6 2.2 -2 3.9 -4.2 4.2 c -1.3 2 -1.9 4.4 -2.2 6.7 c 0.2 2.8 1.6 5.4 0.6 8.3 c -0.3 1.7 -1.5 4.6 1.2 4.7 c 1 1.9 1.2 5.7 3 6.5 c 2.1 -2.2 3.5 3 5.6 3.6 c 2.4 1.5 5 -0.8 7.3 0.8 c 1.9 2.4 5 -0.3 7 1.9 c 2.2 1 2.1 3.1 -0.3 3.8 c -2.1 1.3 -5.5 1.2 -4.6 4.6 c -0.7 2.7 -3 4.9 -2.9 7.9 c -0.8 3.7 -0.7 7.9 1.7 11 c 2 3.6 1.7 7.8 1.6 11.7 c 0.2 2.6 1.6 4.8 2.2 7.3 c 1.1 3.6 0.6 7.4 0.6 11.1 c -0.8 2.2 0.3 3.7 2.7 3.3 c 11.7 0.4 23.4 0.7 35 0.8 c 2.1 0.3 4.5 0 3.5 -2.7 c -0.5 -5.9 -1.5 -11.8 -3 -17.5 c -0.6 -3.5 -0.9 -7 -1.9 -10.4 c 0.1 -2.3 -2.5 -5 -0.3 -6.8 c 1.2 -0.9 4.5 -4.1 5 -1.8 c -0.4 2.2 -4.3 1.3 -4.2 3.5 c 0.7 2.7 1 5.4 1.8 8 c 0.8 3.5 0.5 7.2 2.1 10.5 c 1.9 5.8 2.5 12 2.8 18.1 c -1.6 2 -4.9 0.9 -7.3 1.2 a 284.9 284.9 0 0 1 -10.6 -0.1 z m 25.8 -68.9 c 1.7 -2.6 2.9 -5.5 4 -8.3 c 1.5 -1.9 1.5 -4.5 -1.5 -4.7 c -3.7 -1.1 -7.1 -3.1 -10.3 -5.3 c -1.8 -1.2 -3.8 -4 -0.4 -4.3 c 4.1 -1 8.4 0 12.4 0.7 c 2.5 0.5 5.5 2.5 6.3 -1.1 c 1.2 -2.7 2.5 -5.3 3.5 -8.2 c 1.2 -3.2 3.1 -6 4.3 -9.1 c 2 -2.7 4.9 -4.7 7.8 -6.2 c 1.8 1.3 0.5 4.7 0.9 6.8 c 0.2 3 -2.6 5.2 -3.4 8 c -1.2 3 -2.1 6.2 -3.7 9.1 c -1.7 2.1 -2 5.3 1.5 5.3 c 3.4 0.7 6.6 1.9 9.7 3.3 c 2.5 0.3 5.5 2.5 7.6 1 c 1.1 -2.3 1.3 -5 2 -7.3 c 2.2 -0.7 4.7 0.8 3.2 3.2 c -0.1 0.9 -2.3 4.3 0 3.2 c 1.6 -2.1 4.9 -2 5.5 -4.9 c 1.4 -2.2 1.6 -4.8 1.9 -7.2 c 1.7 1.1 3.6 0.5 3.9 -1.7 c 1.2 -3 3.8 -5.4 4.1 -8.8 c 0.2 -2.4 1.2 -5.1 0.2 -7.4 c -2.4 -0.1 -4.6 2.4 -7 1.2 c -1.4 -0.7 -2.3 -2.2 -3.5 -3 c -2.3 -0.2 -4.8 0.1 -7 -0.7 c 1.2 -1.9 4.4 -1.8 6.3 -3 c 1.1 -1.7 1.1 -5.5 -2 -4.8 c -1.7 0.1 -7.6 -0.7 -4.1 -3 c 2.4 -2 4.9 -3.9 6.9 -6.3 c -0.8 -1.6 -3.9 1.3 -5.6 1.6 c -3.9 1.6 -8.5 1.5 -12.5 0.2 c -2 -1 -3.2 -3.1 -1 -4.5 c 1.7 -2.2 3.8 -4.2 5.3 -6.6 c -1.7 -0.5 -3.9 1.7 -5.8 2.2 c -2.2 1.6 -4.3 3.6 -6.9 4.6 c -2.8 -0.2 -1.7 -4.5 -2.5 -6.5 c -0.3 -5.5 1.2 -10.9 3.8 -15.7 c 1.1 -3.2 2.8 -6.3 5.1 -8.7 c 1 -0.7 0.1 -1.6 -0.2 -2.4 c -1.1 -2.3 -2.9 -4.4 -5.1 -5.9 c -3.8 1.3 -7.5 4.3 -8 8.6 c -0.5 2.3 -1.4 4.8 -3.7 5.7 c -2.3 1.5 -5.4 1 -7.8 1.2 c -2.2 -1.6 -2 -4.9 -1.1 -7.2 c 1.5 -1.8 0.3 -3.2 -1.5 -3.8 c -1.7 -2.3 1.1 -4.8 0.6 -7.2 c -1.8 -2.5 1.4 -4.8 0.8 -7 c -2.8 -0.8 -5.9 -0.3 -8.8 -0.6 c -4 0 -8.3 -0.4 -12.2 0.9 c -2.3 1.8 -5 3 -7.3 4.9 c -2.2 1.7 -4.3 3.6 -5.2 6.3 c -1.8 3.8 -3.5 8.3 -2.1 12.5 c 1.2 2.8 1.7 6.4 4.6 7.9 c 0.1 1.9 -3.4 3 -4.4 4.9 c -2.2 2.4 -4.1 5 -5.4 8 c -0.4 2.5 -1.8 5.1 -1.1 7.7 c 1.2 5.4 5.7 9.8 10.9 11.4 c 1.8 0.1 6.4 0.9 3.4 3.3 c -1.4 2.1 -2.8 4.4 -2.9 7 c -0.5 3.3 1.2 7.2 4.7 7.8 c 2.5 0.5 5.2 0.8 7.2 2.3 c -0.5 2.3 -2.4 4.7 -2.8 7.3 c -1.2 5.2 -1.1 11.4 2.7 15.6 c 3 2.4 7.1 2.6 10.7 3.4 c 2.4 0.3 2.5 5.5 4.9 4.6 z m 25.5 -74.3 c 1.2 -2.2 0.8 -5.3 0.3 -7.8 c -2.4 -0.7 -1.7 3.8 -2 5.4 c 0.1 1.1 -0.1 4.1 1.7 2.4 z m -3.7 -2 c -0.5 -0.2 0.2 1.1 0 0 z m 8.9 -1.6 c -0.5 -1.9 0.7 -5.6 -1 -6.4 c -1.9 1.4 -1.4 5.3 -0.6 7.4 c 1 0.7 1.9 0.1 1.6 -1.1 z m -8.1 -1.4 c 0.3 -1.2 -0.5 -2.6 -0.5 -0.5 c -0.1 0.9 -0.4 4.2 0.3 1.6 a 10.1 10.1 0 0 0 0.1 -1.1 z m 238.1 143.5 c -1.8 -1.7 -1.2 -4.9 -1.9 -7.2 c -0.3 -4.1 -1.8 -8 -3 -12 c -0.4 -2.8 -1.4 -5.6 -1.2 -8.5 c 0 -2.6 0.8 -5.4 2.5 -7.3 c 0.6 -2 -1.3 -4.9 2 -5.5 c 1.4 -1.1 6.5 -1.4 3.3 -3.8 c -2.1 -3 -5.3 -0.1 -7.9 -1.3 c -2.5 -0.6 -5.5 0.8 -7.4 -1.8 c -1.5 -1.4 -2.2 -3.4 -4.5 -3.2 c -2.2 -1.6 -0.7 -5.3 -3.1 -6.6 c -3.5 -0.8 -2.5 -4.7 -3.3 -7.3 c -0.7 -2.4 0.9 -4.8 2.3 -6.6 c 1.6 -1.5 1.5 -3.5 -0.1 -4.8 c 0.1 -2.4 4.9 -3.9 2.4 -6.4 c -1.3 -1.4 1.1 -3 1.3 -0.8 c 2.6 2.2 -1.1 4.2 -2.1 6.1 c 0.3 1.8 2.9 3.2 0.7 5 c -1.6 1.9 -3.6 4.2 -3.4 6.9 c 1.2 2.1 -0.1 5.9 3.2 6.2 c 2.8 1 0.8 5.4 3.4 6.5 c 3 -0.1 2.8 4.6 6 4.6 c 2.8 -0.4 5.4 1.5 8 0.9 c 2.3 -1.4 5.7 0.2 6.8 2.4 c 1.2 2.2 0.5 4.3 -2.3 3.9 c -2.2 0.3 -5.1 1.6 -3.8 4.3 c 0.5 1 0 1.7 -0.8 2.3 c -2 1.8 -2.3 4.5 -2 7.1 c 0.3 2.6 0.8 5.2 1.3 7.8 c 1 2.5 1.6 5 1.9 7.7 c 0.8 2.8 1.6 5.5 2.1 8.3 c 1.5 2 4.6 0.9 6.8 1.2 c 8.7 -0.1 17.3 -0.1 25.9 -0.8 c 2.5 -0.2 5.3 0.4 7.6 -0.4 c -0.4 -3.2 -2.3 -6 -3.3 -8.9 c -1 -1.6 -2.3 -4.7 0.9 -3.6 c 5.3 0.6 10.6 0.6 15.9 -0.1 c 3.2 -0.6 6.5 -0.9 9.6 -2.1 c 2.7 -0.8 5.5 -0.6 8.2 -1.3 c 1.9 1.5 -1.7 3.9 -2.6 5.4 c -1.6 2.9 -1 6.4 -2 9.5 c 0.5 2.8 4.8 1 6.9 1.6 l 30.7 0.2 c 2.4 -3.2 3.8 -7 6 -10.5 c 1.5 -3.3 1.9 -6.9 2.4 -10.5 c 1.2 -4.3 0.9 -9 2.6 -13.2 c 0 -1.4 1.8 -3.4 1.7 -0.8 c 0.3 4.5 0.4 9.1 0.1 13.6 c 1.4 2 4.6 -1.4 5.5 -2.9 c 1.9 -3 2.8 -6.4 4.2 -9.5 c 1.2 0.1 0.5 3.3 1.3 4.6 c 0.3 1.9 0.9 7.7 3.6 4.1 c 2 -2.1 4 -4.4 4.7 -7.2 c 0.5 -2 3.1 -3.5 3.3 -0.4 c 0.2 1.6 3.9 2.8 1.2 4 c -1.8 -0.3 -2.8 -5 -3.9 -1.8 c -1.7 3.5 -4.7 6.1 -7.1 9.1 c -2.8 1.5 -2.4 -3.7 -3.2 -5.4 c -1.3 -2.5 -2.2 2.9 -3.4 3.7 c -1.6 2.1 -4.1 4.4 -6.9 4 c -1.6 -0.5 0.1 -5.4 -1.4 -4 c -1.1 2.8 -0.6 5.9 -1.6 8.7 c -1.3 5.5 -5.3 10 -6.7 15.5 c -1.9 1.8 -5.2 0.2 -7.6 0.7 l -33.7 -0.2 c -1.7 -1.6 0.3 -4 0.1 -6 c 0.5 -2.9 0.7 -6.1 2.9 -8.3 c 1.5 -1.4 0.8 -3.1 -1.2 -2 c -5.4 1.5 -10.8 3.5 -16.5 3.8 c -3.9 0.4 -7.8 0.1 -11.7 -0.2 c -0.8 1.5 2.1 4 2.2 6.1 c 0.5 1.9 2.9 5.5 0.9 6.7 c -13 0.4 -25.9 0.2 -38.9 0.5 c -1.3 -0.1 -2.7 0.6 -3.9 0.3 z m 371.9 -0.2 c -3.7 0.6 -2.7 -3.1 -2.6 -5.5 c 0 -3.7 0.3 -7.4 0.7 -11.1 c 0.5 -6.4 0 -12.7 0.8 -19.1 c 0.2 -4.3 0.4 -8.7 1.1 -12.9 c 0.1 -5.4 0.4 -10.8 0.8 -16.2 c 0.4 -6 0.6 -12.1 1.3 -18.1 c 0.2 -4.1 0.5 -8.3 0.3 -12.4 c -2 0.8 -2.3 4.3 -3.9 6 c -2.2 2.9 -3.7 6.3 -5.3 9.5 c -2.1 3.5 -3.6 7.3 -5.8 10.7 c -1.6 2.6 -2.9 5.4 -4.3 8.2 c -2.5 4.2 -5.1 8.4 -7.7 12.6 c -3.5 5.5 -5.8 11.6 -9.3 17 c -2.1 4 -4.8 7.6 -6.8 11.6 c -3.1 5.4 -6.4 10.6 -9.4 16 c -1.1 2.5 -3.7 3.9 -6.4 3.4 c -3.8 -0.3 -7.7 -0.1 -11.5 -0.6 c -2.6 -1.1 1.4 -4 1.5 -5.9 c 2.1 -4 4.7 -7.7 6.9 -11.7 l 12.5 -22.6 c 3.6 -5.4 7.1 -10.8 10.1 -16.5 c 3 -4.4 5.1 -9.4 8.2 -13.8 c 2.4 -4.4 4.6 -8.9 7.5 -13 c 2.8 -4.4 4.9 -9.1 7.5 -13.6 c 1.4 -2.8 3.3 -5.4 4.7 -8.2 c 0.6 -1.7 3.2 -3.7 2.5 -5.2 c -2.3 1.2 -4 3.3 -6.2 4.8 c -3.7 2.9 -7 6.4 -10.7 9.3 c -3.8 3.3 -7.8 6.2 -11.4 9.6 c -1.4 1.5 -5.9 3.8 -2.9 5.8 c 1.3 2 3.5 5.2 0.9 7.1 c -0.8 1.2 -3.2 0.8 -3.4 2.2 c 0 1.8 -0.5 4 -2.5 4.5 c -0.9 0.5 -2.9 -0.2 -2.6 1.4 c 0.3 3.1 -3.3 3.4 -4.5 5.7 c -1.5 2.4 -4.5 2.4 -6.3 0.3 c -1.3 -1.2 -3.6 -2.1 -3.9 0.4 c -1.5 2.2 -2.7 4.6 -4.3 6.7 c -2.1 3.6 -4.3 7.2 -5.5 11.2 c -0.3 3.7 -0.4 7.4 0.1 11 c 0.8 1.2 1.1 3.8 -1 2.5 c -1.1 0.2 -2.2 2.3 -3.2 0.2 c -1.7 -1.9 -1.9 4.5 -3.1 1.3 c 0.6 -2.9 -0.7 -5.7 0.2 -8.6 c 0.7 -4.2 1.2 -8.5 3.2 -12.4 c 2 -4.8 5.4 -8.6 8.2 -12.9 c 0.6 -2 4.7 -4.7 1.5 -6.3 c -2.2 -1.2 -5.2 -0.6 -7.2 0.8 c 0 1.3 1.1 3.4 -1.2 3.7 c -3.8 1.1 -7.4 2.9 -11.1 4.6 c -2.1 1.3 -1.5 -3.4 0.2 -1.8 c 2.2 -0.9 4.2 -2.3 6.4 -3.1 c 2.2 -0.7 5 -1 4.2 -4.1 c 1.2 -2.4 4.7 -1.7 7 -1.9 c 1.6 0 4.5 1.4 4.4 3 c -1.7 3.5 -3.7 7 -6.2 10 c -2.1 3 -4.5 6.1 -5.4 9.7 c -1.5 3.2 -1.6 6.9 -2.3 10.4 c -0.5 2.4 -1.1 6.2 2.5 6.2 c 2.9 -0.8 0.6 -4.5 1.2 -6.6 c -0.1 -3.2 0 -6.7 2 -9.4 c 1.2 -3 2.8 -5.9 4.5 -8.6 c 1.4 -3.1 3.8 -5.5 5.6 -8.3 c 2.4 -1.3 4.3 2.3 6.8 2.2 c 2 -1 3.1 -3.6 5.7 -3.7 c 0.5 -1 0 -2.7 0.7 -3.7 c 1.6 -1.4 5.8 -0.6 4.6 -4.1 c -0.4 -3.2 5.7 -2.2 3.9 -5.8 c -0.1 -2.4 -4.9 -4.5 -2.2 -6.6 c 4.1 -4.2 8.5 -8 13 -11.6 l 11.9 -10.5 c 3.1 -2.1 5.6 -5.1 9 -6.8 c 2.9 0.9 0.6 4.7 -0.4 6.4 c -2.8 5.6 -6.7 10.7 -9.5 16.3 c -1.1 2.4 -2.3 4.8 -3.7 7 c -2.9 4.6 -5.8 9.2 -8.4 14 c -2.2 3.6 -4.6 7.2 -6.6 10.9 c -1.6 2.5 -3.1 5.1 -4.6 7.7 c -2.9 4.7 -6.1 9.3 -8.9 14.1 c -1.2 2.9 -3.1 5.5 -4.3 8.4 c -1.6 3.4 -3.8 6.6 -5.6 9.8 c -2.7 5.3 -6.2 10 -8.8 15.3 c -1.1 3 3.9 1.2 5.4 1.7 c 2.7 -0.5 6.4 0.9 8.5 -1.2 c 1.6 -2.6 3.2 -5.2 4.8 -7.9 c 2.9 -5.2 6 -10.2 9.1 -15.3 l 5.3 -9 c 2.3 -4.4 4.6 -8.8 7.1 -13 c 3.6 -6.4 7.7 -12.5 10.9 -19.1 c 3.6 -6.8 7.6 -13.4 10.8 -20.4 c 2.3 -4.2 4.9 -8.2 7.1 -12.4 c 2.2 -3 1.7 2.4 1.7 3.7 c 0 4.7 0.1 9.5 -0.6 14.2 c -0.8 9.1 -1.2 18.2 -1.9 27.3 c -0.1 6.4 -0.9 12.8 -1.3 19.2 c -0.3 8.9 -0.5 17.9 -1.2 26.8 c 0.2 2.3 -1.1 5.3 0.1 7.2 c 4.5 0.3 9.1 0.2 13.7 -0.1 c 0.4 -4.1 -0.2 -8.3 -0.1 -12.4 l 1.1 -38.4 l 0.9 -45.7 c 0.4 -2.5 -0.6 -5.7 1.1 -7.8 c 2.7 0.2 3.1 4 4.5 6 c 3.5 6.7 7.8 13.1 10.8 20.1 c 5.5 10.5 10.8 21.2 16 32 c 1.4 2.3 2.7 4.6 3.9 7.1 c 2.6 4.7 6 9 8.2 14 c 2.6 4.9 5.9 9.3 8.7 14.1 c 1.4 3.2 3.8 5.8 5.3 9 c 1.1 2.9 4.7 1.5 7.1 1.8 c 1.6 -0.1 5.8 0.7 3.7 -2.1 c -4.2 -9 -9.2 -17.5 -14 -26.1 c -3.3 -6.7 -6.9 -13.3 -10.6 -19.8 l -11.5 -21.1 c -2.8 -6 -6.2 -11.7 -9.2 -17.6 c -1.8 -2.9 -2.8 -6.2 -4.7 -9 c -2.8 -5 -5.3 -10.2 -8.1 -15.2 c -0.7 -2.3 2.4 -4.4 -0.4 -6.4 c -1.5 -1.8 1.6 -4.8 -1.4 -6.1 c -1.1 -1.5 2.6 -2.2 1.4 -4.2 c -1.5 -1.2 -1.5 -2.5 0 -3.7 c 0.7 -2.4 -4.4 -3.5 -1.7 -5.9 c 4.6 -8.6 10.3 -16.5 15.8 -24.6 c 1.7 -1.6 1.8 -3.7 -0.9 -4 c -2.4 -0.5 -5.6 -4.1 -7.6 -1.2 c -1.8 2.2 -3.6 4.5 -5.3 6.8 c -1.2 2.7 -2.9 5.2 -4.5 7.7 c -0.8 1.3 -3.2 4.7 -3 1.1 c 0.1 -6 0.6 -12 0.4 -18 c -1.1 -2.6 -4.7 -1.1 -6.9 -1.4 c -2.3 0.1 -6.3 -0.7 -5.6 2.9 c -0.3 5.6 -0.1 11.3 -0.1 16.9 c -2.1 0.1 -2.1 -3.1 -3.7 -4.1 c -2.3 -3.8 -5 -7.4 -7.1 -11.3 c -2 -0.7 -4.2 1.7 -6.2 2.3 c -1.8 1 -5.1 2.7 -2.6 4.9 c 4.2 6.3 6.6 13.8 11.8 19.5 c 0.9 1.5 4.2 4.3 1.7 5.7 c -2.5 0.2 -5.2 2.8 -2.3 4.8 c 1.7 1.9 -3.3 3.9 -1 6 c -2.9 1.3 -6.2 1.4 -9.3 1.9 c -2.8 0.2 -5.6 0.6 -8.4 1.2 c -2.3 0.4 -4.4 1 -6.8 1 c -3.5 0.3 -6.9 1.5 -10.4 0.9 c -1 -2 -1 -4.8 -2.8 -6.7 c -0.8 -2.4 -2.8 -4.4 -3.3 -6.8 c 2.2 -0.5 3.4 3.3 4.4 5.1 c 0.7 2.3 2.8 4.1 2.4 6.8 c 1.7 2.1 5 -0.3 7.3 -0.3 l 20.7 -3.1 c 3 0.5 4.8 -2.2 5.6 -4.7 c -1.6 -2 -1.9 -5.4 1.1 -6.6 c 3.8 -0.8 -0.9 -3.8 -1.5 -5.6 c -4.5 -6.5 -7 -14.2 -11.4 -20.8 c -0.4 -2.5 3 -3.1 4.4 -4.5 c 2.2 -1.1 4.5 -2.7 6.7 -3.3 c 1.9 2.6 3.3 5.7 5.3 8.2 c 1.3 1.4 1.7 4.3 3.6 4.8 c 0.3 -4.1 -0.1 -8.3 0.7 -12.4 c -0.6 -2.9 1.3 -5.1 4.3 -4.3 c 3.5 0.1 7 -0.1 10.4 0.4 c 1.7 1.8 0 5.3 0.5 7.8 c 0.1 3.5 -0.6 6.9 -0.7 10.3 c 0.5 1.9 2.1 -2.2 2.8 -2.8 l 4.1 -6.7 c 1.8 -2.8 4 -5.3 6.3 -7.6 c 3.3 1.8 6.9 3.3 9.8 5.8 c 0.2 2.4 -1.7 4.6 -2.9 6.6 c -3.1 3.7 -5.6 7.8 -8.1 11.8 c -2.2 2.5 -3.8 5.4 -5.3 8.4 c -2.6 2.2 0.3 3.9 1.1 6.1 c -1.3 1.6 -1.5 3.5 0 5 c -0.7 1.9 -1.6 3.5 -0.4 5.6 c -0.4 1.7 -0.8 3.5 1 4.8 c 2.4 2.3 -2.3 4.9 0.6 7 c 2.4 4.1 4.4 8.5 7 12.6 c 1.2 3.2 3.2 6 4.6 9 c 1.8 3.6 3.6 7.2 5.7 10.5 c 1.2 2.2 1.9 4.7 3.4 6.8 c 1.5 2.4 2.7 4.8 4.1 7.2 c 1.5 2.4 2.5 5 3.8 7.5 c 3.9 8.3 8.8 16 13 24.1 c 2.6 4.5 4.8 9.3 7.7 13.7 c 1.6 3.6 3.8 6.9 5.5 10.5 c 1.4 2.5 2.4 5.3 3.8 7.8 c 0.7 3.4 -4.3 1.5 -6.2 2 c -2.5 -0.6 -6.5 1.1 -8.1 -1.4 c -1.7 -3.2 -3.7 -6.1 -5.4 -9.2 c -1 -2.6 -3.1 -4.7 -4.4 -7.2 c -2.8 -4.2 -5.2 -8.7 -7.6 -13.2 c -3.3 -5.2 -6.5 -10.4 -9.3 -15.8 c -2.9 -5 -5.2 -10.3 -7.8 -15.5 c -1.7 -3.6 -3.3 -7.3 -5.4 -10.7 c -3.8 -6.9 -6.8 -14.1 -10.9 -20.7 c -1.6 -3.1 -3.2 -6.2 -5 -9.2 c -1.3 1.4 -0.3 5.2 -0.7 7.5 l -0.7 30.2 c -0.2 17.1 -0.2 34.2 -1.2 51.2 c 0 4.8 0.5 9.6 0.1 14.4 c -4.8 0.3 -9.7 0.3 -14.5 0.1 z m -965.3 -1.7 c -2.4 -1.5 -4.9 -3 -6.9 -5.1 c -2.6 -0.1 -5.6 -1.9 -8 -0.6 c -2.8 1.7 -5.4 4.8 -9 4.1 c -2.9 -0.4 -3.9 -3.5 -2.8 -5.9 c 1.2 -2 4.2 -3.6 1 -5.4 c -1.8 -1.8 -0.2 -4.1 0.3 -6.1 c -0.7 -1.7 -2.5 -3.1 -2.6 -5.1 c -1.5 -1.4 0.5 -6.6 -2.7 -4.9 c -2.7 0.8 -5.3 1.8 -8.1 2.4 c -3.9 0.4 -7.9 0.5 -11.8 0.1 c -3 -0.6 -4.9 -3.3 -6.9 -5.3 c -1.9 -2.4 -3.1 -5.2 -3.7 -8.2 c -0.9 -2.9 -1.1 -6 -2 -8.9 c -1.3 -5.9 1.9 -11.4 4.3 -16.6 c 1.3 -1.8 1.7 -4.6 -1.1 -4.8 c -0.1 2.5 0.6 5.3 -1.6 7.1 c -0.9 1.9 -6.1 4.4 -5.2 0.7 c 0.7 -2.5 -1.9 -5 -0.3 -7.5 c 1 -2.2 3.1 -3.6 4.6 -5.3 c 0.3 -2.6 -1.4 -5 -0.3 -7.5 c 0.3 -3 1.6 -6.3 4.4 -7.6 c 2.1 -1.4 4.8 -1.7 7.4 -1.5 c 1.9 1.3 2.9 0.6 3.2 -1.5 c 0.2 -1.2 2.4 -2.8 1.3 -3.7 c -1.7 -1.2 -2.9 -2.9 -4.3 -4.4 c -0.1 -3.2 -0.7 -6.5 0.5 -9.6 c 1.1 -2.2 3.5 -3.2 4.5 -5.4 c 1.1 -2.5 3.4 -2 5.7 -1.7 c 1.9 1.5 4 2.5 6.2 3.6 c 1.2 2 2.3 3.9 4.7 4.9 c 1.5 2.3 0.7 5.5 1.1 8.2 c 0 1.6 -2.2 3.1 0.3 4.1 c 2.5 1.1 3.9 3.4 4.8 5.8 c 1 2.3 1.8 5.3 4.2 6.5 c -0.6 -2.1 -1.1 -4.6 -0.6 -7 c 0.9 -2.6 0.8 -5.3 0.3 -7.9 c -0.4 -2.9 -1.1 -6.3 1.1 -8.7 c 2.7 -1.5 3.1 -5.2 -0.1 -6.3 c -0.9 -0.8 -2.6 -1.6 -2.3 -3 c -0.1 -2.1 -0.3 -4.4 1 -6.2 c 1.7 -1.8 -1.5 -4.4 1.4 -5.7 c 2.1 -1.4 4.6 -2.4 7.2 -1.9 c 2.5 -0.5 4.9 0.3 6.6 2.3 c 1.8 0.8 3.6 3.5 2.7 5.4 c -1.7 -1.1 -0.9 -3.8 -3.4 -3.8 c -1.2 -1.7 -2.9 -2.8 -4.8 -2.2 c -2.5 -0.3 -5.5 -0.6 -7.5 1.1 c 0.6 2.4 -1 4.6 -1.7 7 c -0.1 2.5 0.4 5.3 2.9 6.5 c 1.5 1.4 1.7 3.6 1.9 5.6 c -1.5 1.5 -3.7 2.7 -3.6 5.1 c -0.1 3.3 0.6 6.5 0.4 9.8 c -0.1 2.5 -1.2 5 -0.7 7.6 c 2.2 1.6 0.6 6 -2 3.5 c -2.3 -1.5 -3 -4.1 -4.1 -6.3 c -1 -2.3 -1.8 -5 -4.5 -5.9 c -2.5 -0.5 -2.5 -2.7 -0.8 -4.2 c 1.3 -2.6 -0.9 -5.4 -0.5 -8.1 c -1.5 -1.3 -3.5 -1.9 -4 -4.1 c -1.7 -2.4 -4.8 -2.5 -6.9 -4.1 c -2.8 -0.7 -4.2 1.6 -5.7 3.4 c -3.1 2.3 -3.3 6.5 -2.9 10.1 c 0.2 2.9 3.9 3.9 4.7 6.7 c -0.6 2.4 -3.1 4.3 -2.4 6.9 c -1.2 2.2 -3.6 -1.9 -5.7 -0.9 c -3.3 -0.1 -6.7 1.6 -7.9 4.8 c -1.2 2.5 -0.8 5.4 -0.6 8.1 c 1.1 2.1 1 4.4 -1.6 5 c -2.5 1.4 -4.1 4.7 -2.2 7.2 c 0.3 3.9 4.2 -0.6 3.7 -2.7 c 0.2 -1 -0.8 -2.5 0.2 -3.3 c 1.7 -2.5 3 0.6 4.6 1.5 c 2.1 2.6 -1.9 5.5 -2.5 8.2 c -0.8 2.7 -2.6 5.2 -2.4 8.1 c -0.3 4.1 1.2 8.1 1.9 12.1 c 0.8 3.3 1.6 6.9 3.9 9.5 c 1.7 1.8 3.7 3.9 6.4 3.6 c 3 0.3 6 1.3 9 0.4 c 2.6 -0.9 5.2 -1.9 8 -2.3 c 1.9 -0.6 5.9 -3 5.2 1 c 0.4 3.1 1 6.4 3 9 c 1.4 1.8 -0.8 3.7 -0.5 5.7 c -0.3 1.1 1.2 1.6 1.7 2.4 c 2.2 2.3 -2.8 3.6 -2.7 6.1 c -0.2 3.4 4.5 3.3 6.2 1.3 c 1.9 -1.7 4.2 -3.6 7 -2.7 c 2.6 0.6 5.4 0.8 7.6 2.4 c 2.6 1.3 4.6 4.2 7.7 4 c 2.9 -1.5 0.2 -4.7 -0.3 -6.9 c -0.1 -2.6 3.3 -3.8 4.8 -5.7 c 2.6 -2.2 5.4 -4.8 6.3 -8.2 c -0.6 -2.7 -3.6 -4.3 -4.3 -7 c -2.4 -2.5 2.1 -3.9 2.5 -6.2 c 0 -3.3 3.8 -2.6 5.8 -3.9 c 3.1 -0.4 3.2 -3 2.2 -5.4 c 2.5 -0.9 3 -3.5 2.4 -6 c -1.5 -7.2 -0.6 -14.6 -1.3 -21.8 c 2.1 -1.6 5.6 0.3 5.6 3.1 c -0.6 2.5 0.4 5.1 0.3 7.6 c -0.2 1.1 -0.9 2.3 -1 3.3 c 1.3 3 4 5.1 5.4 8.1 c 0.8 2.9 -3.3 3.9 -3.7 6.6 c -1.1 4.4 -0.7 9 -1 13.5 c -0.2 4.4 -0.2 9 -1.8 13.1 c -0.3 2.7 -5.1 -0.8 -3.4 1.9 c 2.6 1.4 -0.7 2.5 -2 1.2 c -2.2 -0.6 -1.7 1.4 -0.6 2.4 c -1.7 1.1 -4.8 -2.8 -1.4 -3.1 c 1.7 0 2.3 -0.4 2 -2.2 c 1.9 -1 4.8 0.1 4.7 -3.2 c 1.6 -7.4 0.8 -15 1.5 -22.5 c 1 -2.3 2.1 -4.7 3.9 -6.6 c 0.8 -2.2 -2.4 -4 -3.2 -6 c -2.1 -1.7 -2.4 -4.7 -0.8 -6.9 c 0 -2.5 -0.4 -5.2 -0.4 -7.8 c -0.2 -2 -2.9 -2.2 -2.1 0.2 c 0.1 5.6 -0.1 11.2 0.7 16.7 c 0.1 2.4 0.5 4.8 0.1 7.1 c 0 1.4 -2.7 1.8 -1.8 3.1 c 1.5 2.3 -0.4 5.1 -2.9 5.3 c -2.4 0.6 -6.2 0.2 -6.3 3.6 c -0.1 2.1 -4 2.3 -1.6 4.4 c 1.1 2.5 3.3 4.4 4 6.9 c 0.1 4 -3.6 6.6 -6.2 9.2 c -1.3 2 -4.9 3.2 -4.3 5.8 c 0.6 2.1 2.4 5 0.3 6.8 c -1.5 1.2 -3.5 1.4 -5.1 0.4 z m 18.6 -6.3 c -2.5 0.6 -3.4 -2.6 -0.7 -3.1 c 1.3 -0.3 2 -0.8 2.1 -2 c 1.7 -0.8 5.5 1.4 2.2 2 c -1.3 0 -5.3 1.1 -2.6 2.2 c 3.6 -0.8 7.9 0.3 10.7 -2.6 c 1.9 -1.4 0.7 -5 2.6 -6 c 2.8 1.1 5.5 2.4 8.3 3.4 c 4.3 1.4 8.8 0.5 13.1 0.2 c 3.7 -0.1 6.4 -3 9.5 -4.7 c 1.2 -2.1 2.5 -4.6 5.4 -3.2 c 4.2 1.5 8.7 1.2 13.1 1.5 c 4.7 0.4 9.4 -1.7 12.1 -5.6 c 2 -1.3 0.4 -5.5 2.6 -5.8 c 2.4 -0.2 7.2 0.2 8 -1.8 c -1.5 -0.4 -3.1 -1.9 -0.9 -2.8 c 1.2 -0.7 1.9 -3.2 -0.2 -1.6 c -2.1 2 -4.5 0.3 -5.4 -2 c -1.4 -2.7 -1.9 -5.9 -3.5 -8.6 c 0 -3 4 -1.4 5.9 -2.5 a 11.3 11.3 0 0 0 6.4 -3.2 c 1.4 -1.8 2.8 -3.9 3.5 -6 c 0.9 -2.6 1.2 -5.4 0.7 -8.1 c -1.8 -4 -3.6 -8.1 -6.1 -11.7 c -1.7 -2.7 -1.6 -6.1 -3.2 -8.9 c -0.4 -2.6 -2.5 -4.1 -4.2 -5.9 c -2.3 -2.7 3.1 -3.5 1.9 -6.2 c 0.4 -2.9 -1.6 -5.1 -1.7 -7.8 c -1.4 -1.7 -2.1 -4 -4.5 -4.5 c -1.3 -2.5 -5.5 -2.8 -6.5 0.1 c -1.5 1.7 -4.1 2.6 -4.6 5.1 c -1.1 1.7 -4.7 0.9 -2.9 3.8 c 0 2.5 -2.2 5.4 0.4 7.2 c 1.1 2.2 6.7 3.9 3.1 6.4 c -1.6 2.7 -5.9 1.7 -6.4 -1.3 c -1.3 -4.4 -3.3 -8.6 -5.5 -12.6 c -1.4 -2.3 -3.5 -4.1 -5.6 -5.9 c -0.8 -1.4 -1.9 -2.5 -2.9 -3.6 c 1.1 -2.4 5.2 -0.9 6.6 -3.1 c 0.5 -2.8 -1.7 -5.1 -1.8 -7.8 c -0.6 -2.7 -1.7 -5.5 -4.3 -6.7 c -2.5 -1 -5.3 -2.4 -8 -1.6 c -2 1 -5.6 2.4 -3.7 5 c -0.8 3.1 -2.9 6.2 -1.9 9.4 c 0 2.7 2.1 4.4 3.6 6.3 c 0 1.3 -1.5 2.2 -2.3 3.3 c -0.3 3 -0.2 6.1 -1.6 8.9 c -1.3 1.4 -1 5.3 -3.1 5 c -1.4 -4.9 -1.8 -10.1 -4.6 -14.5 c -0.7 -2.3 -2.9 -3.5 -4.5 -4.8 c 0.3 -2.5 0.3 -5.3 2 -7.3 c 1.5 -2.5 -1.3 -4.5 -1.2 -7 c 0.5 -3 -3.1 -3.9 -5.3 -4.5 c -2.1 -0.4 -6 0.4 -5.6 -3.1 c -1.1 -3.5 3.4 -3.4 5.6 -4.3 c 3.6 -1.1 7.5 -1.5 10.9 -3.1 c 3 -1.2 6.3 -1.5 9.1 -2.9 c -0.5 -3.4 3.8 -1.7 5.3 -3.6 c 2.8 -1.8 6 -3.2 9.3 -3.1 c -0.4 1.8 -4.2 1.4 -5.8 2.6 c -1.8 1.4 -3.8 2.1 -5.9 2.7 c -1.7 0.5 -0.3 3.7 -3 3.2 c -2.6 0.6 -5 1.6 -7.7 1.8 c -2.5 1.1 -5.1 1.9 -7.7 2.8 c -2.4 1 -4.8 1.8 -7.4 2.3 c -2.9 0.8 -0.5 3.3 1.5 2.7 c 2.6 0.7 5.8 0.6 7.2 3.5 c 1.2 2.2 1.3 4.7 2.3 7 c 0.7 2.7 -1.2 5 -1.9 7.5 c -1.2 2.8 3.1 3.4 3.6 6 c 1.8 2.8 3.2 5.9 3.8 9.2 c 0.2 1.3 0.9 4 1.6 1.3 c 1.2 -2.3 1.5 -4.8 1.5 -7.4 c 0 -2.2 3.4 -3.9 0.5 -5.6 c -1.4 -2.1 -1.9 -4.8 -1.7 -7.4 c -0.4 -2.5 1 -4.6 1.7 -6.8 c -2 -2.6 1.6 -4.3 3.2 -5.8 c 2 -1.9 5 -1 7.3 -0.5 c 2.9 0.9 5.6 2.9 7.1 5.6 c 1.1 2.6 1.5 5.5 2.8 8 c 0.1 2.1 1.5 5.9 -1.3 6.6 c -1.2 0.1 -2.4 0 -3.6 0 c 0.2 2.4 2 4 4 5.2 c 2.1 1.9 4 4.1 5.1 6.8 c 1.3 2.4 2.1 4.9 3.1 7.4 c 0.2 2.4 2 5.9 4.6 3.1 c 1.2 -2.5 -3.8 -3.3 -4.2 -5.9 c -1.8 -2.2 -0.2 -4.8 0.1 -7.1 c -2.4 -3 2.7 -2.9 3.4 -5.1 c 1 -2.3 4.5 -2.6 4.9 -5.3 c 1.1 -3.1 4.7 -2.6 6.9 -1.1 c 1.8 1.6 3.8 3.1 4.9 5.3 c 2.4 1.3 0.6 4.2 2.7 5.8 c 0.2 2.3 1.2 5 0.4 7.1 c -3.3 0.6 -2.6 3.5 0.1 4.5 c 1.9 1.9 2.3 4.9 3.6 7.2 c 0.1 2.3 1 4.5 2.2 6.5 c 2.2 3.4 4.1 7 5.5 10.8 c 0.1 3 0.4 6.1 -0.5 8.9 c -1.5 3.3 -3.4 6.9 -6.7 8.7 c -2.2 1.2 -4.8 1.8 -7.4 2.1 c -3.3 0.3 0 3.1 -0.1 4.8 c 1.1 2 1.5 5.1 3.9 6 c 1.4 -0.4 4.7 -2.2 4.9 0.2 c -0.5 1.1 -4.5 4.1 -1 3.7 c 2.9 -1.3 4.5 4 0.8 3.2 c -3.1 -0.1 -6.2 0.9 -9.3 1.1 c -0.2 1.9 -0.9 3.8 -1.7 5.5 c -2.1 2.2 -4.6 4 -7.3 5.3 c -2.8 0.5 -5.6 1 -8.4 0.6 c -3.1 -0.3 -6.2 -0.2 -9.3 -0.9 c -1.7 -1.2 -4.3 -1.9 -4.6 0.9 c -1.3 2.9 -4.8 3.5 -7.3 5 c -2.7 2.1 -6.3 1.4 -9.5 1.7 c -4.3 0.2 -9 0.3 -12.7 -2.3 c -1.7 -1.7 -3.9 -1.4 -4.1 1.3 c -0.7 3 -3.7 4.1 -6.4 4.3 c -2.5 0.4 -5.1 0.5 -7.7 0.4 z m 1199.4 -8.2 c -2.8 -1.4 -0.5 -4.7 0.1 -6.8 c 0.8 -2.4 2 -4.8 3.2 -7 c 1.5 -2.3 0.6 -5.2 1.8 -7.5 c 0 -1.1 0.8 -5.1 1.5 -2.4 c -1.5 2.5 0 5.3 -1.2 7.8 c -1.5 4.3 -4.2 8.1 -5 12.6 c 0.7 3.1 3.9 0 5.2 -1.2 c 2.3 -2.1 3.8 -5 5.4 -7.6 c 0.7 -1.2 4.5 -4.7 4.2 -1.5 c -1.4 3.1 1.4 4.2 4 3.8 c 3.9 0.1 8 -0.1 11.6 -2 c 2.8 -0.9 5.1 -2.7 7.8 -3.8 c 5.4 -3.7 9.7 -8.8 14.9 -12.8 c 1.3 -1.9 3.7 -3.3 5.1 -0.8 c 0.8 0.3 1.9 -0.1 2.9 -0.1 c 2.9 0.2 5 -2 7.2 -3.7 c 3.4 -2.9 6.9 -5.6 9.9 -8.9 c 2.2 -2.5 3.5 -5.7 5.8 -8.1 c 1 -2.2 1.6 -4.7 3.2 -6.7 c 1.8 -2.8 2.1 -6.6 4.8 -9 c 3.6 -2.6 7.9 -4.6 10.1 -8.6 c 1.9 -2.6 2.9 -5.8 5.2 -8 c 1.7 -2.2 2.1 -5 3.7 -7.3 c 0.9 -2.4 2.6 -4.6 2.5 -7.3 c 1.4 -1.7 4.5 -3 4.1 -6 c 0.5 -1.9 4.7 -2.6 1.7 -4.6 c -1 -2.3 2.9 -4.1 4.1 -5.9 c 1.5 -2 4.1 -3.6 6.2 -1.3 c 6.2 3.5 12.6 6.7 19 9.8 c 3.5 1.9 7.4 3 11 4.6 c 1.4 0.9 6 3.2 4.9 -0.3 c -2.7 -2.1 -6.2 -2.9 -9.2 -4.6 c -2.1 -1.2 -4.5 -1.7 -6.8 -2.5 c -2.2 -1.2 -4.8 -1.7 -7 -2.9 c -3.3 -1.6 -6.7 -2.9 -9.8 -4.8 c -1.6 -1.6 -5.1 -2.2 -4.9 -4.8 c 0.3 -2.9 -3.2 -4.5 -5.5 -4.9 c -1.8 0.1 -2.9 2.9 -4.7 0.8 c -6.4 -4.5 -13.2 -8.4 -18.8 -13.9 c -4.5 -3.8 -9 -7.7 -13.1 -11.9 c -3.6 -3.5 -6.9 -7.2 -10.4 -10.7 c -2.9 -1.5 -1.1 2 0.1 2.9 c 3.4 3.9 7.2 7.3 10.5 11.2 c 4.6 4.3 9.8 7.7 14.3 12.1 c 3.5 3.5 8.1 5.5 11.9 8.5 c 2.4 1 3.8 3.2 5.9 4.7 c 0.3 2.3 -1.3 4.9 -1.5 7.5 c -0.2 2.2 -0.5 5.2 -3.2 3.8 c -1.9 1.2 -1.6 3.5 -1.3 5.3 c -0.6 1.1 -1.9 2.9 -3.2 1.5 c -2.3 1.1 -1.7 4.2 -3 6 c -1 1.9 -2.6 4.7 -4.3 1.6 c -2.4 -1.6 -4.9 -3.2 -7.7 -4 c -4.3 -0.4 -8.6 0.7 -12.9 -0.1 c -2.4 0.1 2.1 3.4 -1.1 2.7 c -1.1 -1.5 -6 -2.7 -3.6 -4.7 c 4.3 0.6 8.7 0.3 13.1 0.4 c 1.9 0 3.8 -0.1 5.6 0 c 2 1.1 4.2 1.6 5.9 3.2 c 1.3 1.3 3.3 3 3.9 0.2 c 0.9 -2.2 0.9 -4.7 2.3 -6.7 c 1.3 -1.2 3.7 1.4 3.2 -1.6 c 0.2 -2.4 1.4 -5.4 4.2 -5.5 c 1.3 -1.9 0.8 -4.8 1.5 -7.1 c -0.6 -2.7 -2.9 -5 -5.3 -6.4 c -2.3 -1.5 -4.3 -3.3 -6.6 -4.6 c -4.3 -2.9 -7.8 -6.6 -11.8 -9.8 c -2.6 -2 -5.1 -4.3 -7.4 -6.6 c -3.6 -3.9 -7.6 -7.4 -11 -11.4 c -0.8 -1.4 -4.7 -4.1 -2.2 -5.1 c 1.4 0.1 3 -0.1 4.3 0.2 c 3.5 3.6 6.6 7.6 10.3 11.1 c 1.5 1.8 3.5 3.2 5 4.9 l 5.4 4.8 c 2.8 2.7 5.6 5.4 8.9 7.5 c 2.2 1.9 5 2.8 7.1 4.7 c 2.1 1.4 4.3 2.9 6.5 4.1 c 2 -1.1 4.9 -2.1 6.8 0.2 c 2.5 0.9 3.6 2.9 3.7 5.5 c 2.5 2.4 5.8 3.8 8.8 5.5 c 2.2 1.1 4.4 2.2 6.7 3 c 2 1.1 4.2 1.7 6.3 2.7 c 2.7 0.9 5.3 2.1 8 3.1 c 2.6 1.2 5.2 2.3 7.8 3.6 c 1.1 1.9 0.8 6.2 -2.5 4.8 c -2.3 -0.9 -4.4 -2.3 -6.9 -2.9 c -2.4 -1 -5 -1.7 -7.2 -3 c -2.5 -1.3 -5 -2.5 -7.6 -3.5 c -2.1 -1.4 -4.5 -2.2 -6.7 -3.5 c -2.9 -1.2 -5.4 -3.1 -8.3 -4.4 c -2.2 1.6 -4.3 3.4 -5.9 5.6 c 2.1 1.9 1.7 5 -1.4 5.4 c -0.4 2.3 -1.4 4.8 -3.7 6 c -1.6 2.1 -1.4 5.2 -3.4 7.1 c -1.5 2.8 -2.8 5.7 -4.3 8.5 c -1.4 2.2 -2.9 4.3 -4.2 6.6 c -1.6 2.5 -3.4 4.9 -5.5 6.9 c -2 1.3 -3.9 3 -6.1 4.1 c -2.1 1.6 -2.2 4.7 -3.6 6.8 l -3.5 6.7 c -1.6 1.8 -2.2 4.3 -3.6 6.3 c -1.4 2 -2.9 4.1 -4.7 5.8 c -3.5 2.1 -6.1 5.4 -9.3 7.8 c -1.6 2.6 -4.5 2.7 -7.1 3.4 c -1.7 0.5 -4.2 0.7 -4.3 -1.5 c -2 1.4 -3.8 3.4 -5.9 4.9 c -2.6 1.6 -3.9 4.5 -6.5 6.1 c -2.3 1.9 -4.5 4 -7.4 5.1 c -2.3 1.5 -4.8 2.3 -7.4 3.2 c -2.4 0.4 -4.8 1 -7.3 1.3 c -2.7 0.1 -5.4 0.4 -8.1 -0.2 c -1.6 -0.6 0.3 -6 -2 -2.8 c -1.9 2.6 -2.9 6 -5.7 7.8 c -1.9 1.1 -3.9 4.5 -6.4 3.1 z m -896.4 -11.9 c -2.8 -0.8 -1.8 -4.8 -0.6 -6.4 c -0.3 2.5 1.3 5.9 4.1 4.1 c 1.5 -1.7 1 -5.8 4.3 -4.8 c 0.9 0 2 0.6 2.3 -0.6 c 1 -2.2 4.8 -2.9 3.6 -5.9 c -1.4 -0.9 -2.4 -3.9 0.3 -2.9 c 2 -0.2 4.8 3 6.1 1.4 c -0.4 -2.9 -4.3 -2.5 -6.3 -3.9 c -3.1 -1.3 -0.2 -4.4 0.5 -6.4 c 1.7 -3.2 2.6 -6.7 4.3 -9.9 c 1.8 -3.9 3.7 -7.8 5.6 -11.6 c 2.3 -1.4 5.1 1.1 7.6 1.2 c 2.4 0.5 4.8 1.3 7.2 1.9 c 3 1.1 6.4 1.4 9.1 3.3 c 0.5 2.6 -1.2 5.2 -1.7 7.8 c -0.2 2 3.3 2.4 2.8 0 c 0.9 -2.1 0.2 -7.4 3.6 -6.6 c 0.7 1.5 1.3 3.6 3.2 2 c 2.5 -1.4 2.2 4.6 4.4 1.9 c 1.6 -2.5 4.2 -2.7 6.8 -2 c 1.5 -0.2 4.9 -0.7 2.6 1.5 c -2.2 1.2 -4.8 0.5 -7.2 0.6 c -1.1 1.3 -2.6 3.5 -4.6 2.5 c -1 -1.4 -2.1 -3.2 -3.9 -1.6 c -1.3 0 -2.5 -4.1 -3.2 -1.3 c -0.5 2.2 -1.5 4.1 -1.7 6.4 c -3.2 0.8 -5.4 -2.3 -3.8 -5.1 c 0.5 -1.9 2.1 -5.4 -0.8 -6.1 c -3.8 -1.3 -7.6 -2.4 -11.5 -3.4 c -2.3 -0.5 -4.9 -0.6 -7 -1.9 c -2.5 0.5 -2.5 4.4 -4 6.2 c -2 3.7 -3.6 7.5 -5.3 11.3 c 0 2.9 3.4 4.5 5.3 6.3 c 4.8 3.7 11.1 3.3 16.8 3 c 4 -0.3 8.2 -0.4 12.1 -1.5 c 3 -1.1 6.1 -2.2 9.2 -2.9 c 3.3 -0.2 2.3 4.3 3.6 6.3 c 1 3.3 4 5.6 7.2 6.6 c 3.1 0 6.1 -1 9.1 -1.8 c 2.4 -1.1 5 -2 7.4 -3 c 1.3 -1.1 3 -2.4 4.1 -0.2 c 2 1.8 4.5 3.4 7.3 3 c 3.2 0.1 6.3 -0.6 9.2 -1.7 c 3.5 -0.4 3.7 -3.9 3.5 -6.6 l 0 -25.9 c -1.6 -1.9 -3.2 -4 -4.8 -6 c -1 1.5 0.9 4.7 1.2 6.8 c 0.5 2.1 3.3 4.9 -0.1 5.9 c -2 1.2 -5.4 4.2 -6.8 0.7 c -1.9 -2 -1.8 -5.5 -4 -7 c -0.1 3.2 0.2 6.4 0.6 9.6 c -1.1 2.2 -3.5 3.3 -5.5 4.6 c -3.2 2.3 -3 -3.1 -3.4 -5.1 c -0.4 -3.6 -1.5 -7 -1.6 -10.6 c -0.4 -3.7 -0.4 -7.5 -1 -11.1 c 1.1 -2.2 2.9 -3.9 4.3 -5.9 c 1.2 -1.7 3.6 -3.5 3.9 -5.2 c -3.8 2.2 -6.5 5.8 -9.7 8.6 c -2.2 -0.1 -3.7 -5 -5.8 -3.5 c -1.6 2.2 -2.8 4.6 -4.1 7 c -1.3 2.1 3.5 4.4 -0.1 5.8 c -2.2 1.6 -5 2.5 -5.9 5.3 l -1.6 3.2 c 1.3 1.4 5.4 0.5 4.7 3.3 c -1 2.6 -2.2 -1.6 -4 -1.1 c -3.9 -0.4 -1.3 -3.9 -0.4 -5.9 c 1.1 -2.7 3.9 -4.3 6.3 -5.8 c 1.3 -1.5 -3.3 -2.3 -0.9 -4.3 c 0.9 -2.4 2.7 -4.2 3.8 -6.5 c 0.8 -1.9 2.5 -5.5 4.9 -3 c 1.7 1.1 3 4.1 4.7 1.3 c 3 -2.6 5.4 -6 9.1 -7.7 c 1.1 -0.7 3.9 -2.3 3.5 0.3 c -3 4.9 -7.4 8.8 -10.4 13.7 c -0.8 2.6 -0.1 5.5 0 8.2 c 0.9 4.8 1.3 9.6 2.2 14.4 c 0.1 4 3.7 1 5.6 0.2 c 1 -2.1 -0.8 -4.7 -0.3 -7.1 c 0 -3.4 -0.2 -6.9 0.2 -10.2 c 1.8 0.3 2.4 4.1 3.3 5.9 c 1.1 2.8 2.2 5.7 3.8 8.4 c 1.8 -0.9 6.2 -1.9 3.7 -4.5 c -1.3 -4 -2 -8.2 -3.1 -12.3 c -0.7 -1.9 1.8 -4.2 2.6 -1.5 c 1.8 3.4 3.9 6.6 6.5 9.4 c 1.3 2.6 0.6 5.5 0.8 8.3 c -0.2 8.2 0.1 16.3 -0.4 24.5 c -0.8 2.4 -3.9 3.4 -6.1 4.5 c -3.6 1.6 -7.7 1.1 -11.5 1.2 c -2.1 -1.2 -4 -2.7 -5.9 -4.1 c -2.5 0.8 -4.7 2.5 -7.1 3.6 c -2.7 1.4 -5.7 1.8 -8.7 2.2 c -2.5 0.8 -4.7 -0.4 -6.7 -1.8 c -2.9 -1.6 -4.3 -4.9 -5.3 -7.9 c 0.3 -2.1 -0.7 -5 -3.2 -3 c -4.4 1.9 -8.8 3.7 -13.6 4.2 c -5 0.5 -10 0.3 -15 0.1 c -3.3 -0.3 -6.4 -1.7 -8.9 -3.8 c -2.1 -0.7 -3.4 -4.7 -5.5 -3.9 c -0.7 1.8 -2.5 4.4 0.8 4.6 c 2.2 0.9 5.1 2.1 5.5 4.7 c -0.8 3.6 -4.2 1.3 -6.4 1.7 c 0.4 2.7 -0.8 4.9 -3.3 6.2 c 0.1 3.5 -3.5 3 -6 3.7 c -1.6 1.7 -3 4.9 -5.9 4 l -0.4 -0.1 z m -264 -3.4 c -0.6 -2.4 -1.6 -4.8 -2.5 -7.1 c -1.1 -3.1 -2 -6.3 -3.7 -9.2 c -1.3 -2.5 -3 -5 -5.3 -6.6 c -1.8 -1.6 -0.9 -3.6 0.4 -5.1 c 0.5 -1.2 -0.8 -2.6 -0.6 -3.9 c 0.6 -1.8 3.4 -0.6 5 -0.9 c 0.8 0.2 2.1 -0.5 2.5 0.5 c 1.1 1.7 2.3 4 4.7 3.5 c 2.9 -0.4 6.1 -1.5 8.7 0.3 c 2.1 1.5 -0.9 4.1 -0.2 6.2 c -0.4 2.7 -0.8 5.3 -1.4 8 c -0.7 2.4 -1 4.9 -2.4 7.1 c -1.2 2.3 -2.6 4.5 -3.6 6.9 c -0.2 0.7 -1.1 1.3 -1.6 0.4 z m 1.5 -3.5 c 1.9 -4.4 4.2 -8.7 4.8 -13.5 c 0.2 -2.5 1.6 -4.9 1.2 -7.5 c 0.2 -1.5 1.8 -3.7 -0.9 -3.8 c -2.8 -0.6 -5.3 2.1 -7.9 1.2 c -2.2 -0.2 -2.2 -2.9 -3.8 -3.9 c -1.6 0.1 -3.3 -0.2 -4.8 0.3 c 0.5 2.1 -0.4 4.1 -0.7 5.9 c 1.6 2.1 3.8 3.8 4.9 6.3 c 1.1 2.1 2.6 4.1 3.3 6.3 c 1 2.9 2.4 5.7 3 8.7 c 0.2 0.8 0.9 0.5 1 -0.2 z m 594.2 1.3 c -3.7 -0.8 -7.4 -1.2 -11.1 -2 c -2.7 -0.4 -4 -3 -5.4 -5 c -1.6 -3.5 -2.2 -7.3 -2.9 -11 c -0.3 -2.6 -0.1 -5.2 0.5 -7.7 c 0.5 -2.8 -0.5 -5.5 -0.9 -8.3 c 0.2 -1.6 -2.9 -4.5 -0.9 -4.9 c 1.8 1.5 4.6 3.9 6.3 0.8 c 3.2 -3.3 6.3 -6.7 9.9 -9.6 c 2 -0.8 6 -2.1 6.9 0.7 c 0.8 2.7 1.3 5.4 1.7 8.1 c 2.2 1 4.7 -1.1 7.1 -0.7 c 1.9 -0.5 4.2 1.1 1.9 2.8 c -2.5 3 -4.9 6.5 -4.7 10.6 c -0.3 4.2 0.1 8.4 -0.6 12.6 c -0.7 2.7 -2 5.1 -3.4 7.4 c -0.9 2.2 -1.6 6.3 -4.5 6.3 z m 1.7 -2.6 c 0.9 -2.3 2.1 -4.4 3 -6.6 c 1.6 -2.7 2.7 -5.7 2.1 -8.8 c -0.4 -4.7 -1.3 -9.9 1.5 -14.1 c 0.4 -1.6 3.8 -4.1 2.5 -5.1 c -2.7 -0.3 -6 1.8 -8.2 -0.1 c -1 -2.7 -0.5 -5.9 -1.9 -8.5 c -2.1 -1.1 -5.5 0.2 -7.1 2 c -2.5 2.7 -5.5 4.8 -7.6 7.9 c -0.7 1.6 -2.5 2.1 -3.6 2.8 c 0.3 3.2 1.4 6.5 0 9.6 c -0.9 5.5 0.4 11.3 2.9 16.2 c 1 2.7 3.2 4.5 6.1 4.5 c 3 0.4 6 0.8 9 1.5 c 0.6 -0.1 1.1 -0.6 1.3 -1.1 z m 81.6 2.1 c 0.7 -2.1 1.5 -4.1 2 -6.3 c 1.4 -3.1 1.9 -6.5 2.7 -9.8 c 0.8 -4.8 0.7 -9.8 -0.4 -14.5 c 0.1 -1.8 -0.4 -5.9 2.1 -5.8 c 0.4 1.5 2.7 2.6 1.5 0.2 c -1.2 -2.4 -1.3 -5.2 -2.6 -7.6 c -2.1 -5.2 -5.9 -9.4 -10.1 -12.9 c -2.1 -1.6 -4.7 -2.1 -7 -3.2 c -2.9 -0.9 -3.2 -4.7 -6 -5.8 l -11.8 -5.6 c -2.4 -1.9 -3.8 -4.7 -5.5 -7.2 c -1.3 -2.8 -3.4 -5.1 -4.5 -7.9 c -1.1 -2.3 -3.1 -4.4 -4.4 -6.7 c -1.5 -1.5 -2.2 -2.9 -1 -4.9 c 0.2 -2.2 -2.2 -3.7 -3.1 -5.6 c -2.6 -2.8 -4.1 -6.3 -6.8 -9 c -4 -4.4 -9 -8.1 -14.8 -9.8 c -2.8 -1.4 1.3 -4.3 1.1 -6.4 c 0.9 -4.3 0.5 -8.8 0.7 -13.1 c 0 -0.9 0.2 -1.8 -0.5 -2.5 c -1.4 -2.5 -3.5 -4.5 -5.5 -6.5 c -2.1 -0.1 -4.1 0 -6.2 -0.1 c -2 -1.5 -4.7 -1 -7.1 -0.9 c -2.9 -0.1 -5.3 1.6 -7.3 3.5 c -2.4 1.6 -4.2 4 -6.7 5.5 c -0.7 -1.3 2.8 -3.2 3.9 -4.5 c 2.3 -1.8 4.3 -4 7 -5.2 c 2.9 -0.7 6.1 -1.5 9 -0.6 c 2.7 2 6.4 -0.2 9.1 1.8 c 2.7 2.7 5.7 5.9 5.7 10 c -0.2 3.3 -0.1 6.5 -0.3 9.8 c -0.4 2.6 -1.3 5 -2.3 7.4 c 1.4 1.6 3.9 2.2 5.7 3.5 c 7.1 3.7 12.4 10.2 16.4 17 c 1.4 2.1 4.5 4.3 2.6 7.1 c -0.2 2.4 2.2 4.3 3.3 6.4 c 1.4 2 1.8 4.5 3.6 6.3 c 2.3 3.6 5.1 6.8 7.3 10.5 c 1.6 2.1 4.8 2.3 6.9 3.7 c 2.6 1.5 5.8 2.1 7.9 4.4 c 1.8 1.7 2.7 4.5 5.5 5 c 2.9 1 5.7 2.3 7.9 4.5 c 2.8 2.9 5 6.3 7.2 9.7 c 2.6 4 3.7 8.7 4.5 13.3 c 0.2 4 -5.4 -2.6 -4.1 2 c 0.4 3 1.5 5.9 1.2 8.9 c -0.1 3.5 -0.5 7 -1.8 10.3 c -0.6 3.5 -2.8 6.4 -3.4 9.8 c -0.2 0.5 -1.5 3.9 -1.8 2 z m -65.3 -3 c -1.6 -2 -2.8 -4.2 -3.9 -6.5 c 0.4 -2.7 2.3 -4.9 3.3 -7.4 c 2.5 -5.6 5.5 -11.1 7.6 -16.9 c 0.7 -2.4 1.5 -4.9 3 -6.9 c 2 -0.5 3.3 -1.3 2.3 -3.6 c -1.5 -4.4 -2.3 -9 -3.8 -13.4 c -1.4 -3 -3.4 -5.7 -4.7 -8.7 c -1 -2 -2.9 -5 0.6 -5.5 c 3.2 -0.4 1.2 -3.8 0.2 -5.5 c -1.3 -1.8 -2.1 -4 0.5 -4.9 c 0.8 -0.5 0.2 -1.7 0.4 -2.5 c 0.1 -3.1 -0.3 -6.2 -0.2 -9.4 c 2 -2.2 2.8 4.2 5 2.9 c 2.5 -1.9 3.3 2.8 4.7 4.1 c 1.8 2.9 3.5 6 6 8.4 c 2.6 2.6 4.8 5.6 7.3 8.2 c 1.7 1.7 1.6 4.2 2.5 6.2 c 1.6 2.3 4.5 3.4 5.7 6 c 0.9 1.2 2.1 3.9 -0.6 3.3 c -2.1 0.4 -7.2 -2.2 -5.9 2 c 0.3 1.6 2.5 5 -0.6 4.8 c -1.1 0.8 -1.5 1.9 -0.5 2.9 c 0.8 1.7 1.9 3.2 3.5 4 c -0.8 2.4 -4.8 1.6 -6.4 0.2 c -2.3 0.1 -0.1 4.6 -2.9 5 c -2.8 2.4 0.2 5.1 1.9 7 c 1.8 1.9 2.6 4.5 2.9 7 c 0.1 2.4 -1.7 4.4 -2.9 6.3 c -1.3 0.4 -3 -0.4 -3.7 1.5 c -1.7 1.9 -4.9 1.4 -6.6 3.5 c -2.1 1.9 -3.2 5.1 -6.3 5.5 c -2.3 1.3 -4.7 2.3 -7.2 3 c -0.6 0.2 -1.1 -0.3 -1.5 -0.6 z m 6.1 -2.7 c 2.4 -0.9 4.5 -2.1 6.1 -4.1 c 1.8 -1.9 3.8 -3.7 6.3 -4.6 c 2.8 -0.2 3.3 -4.6 6.4 -3.3 c 1.8 -2.5 1.2 -5.9 0.3 -8.6 c -1.1 -2.3 -3.7 -3.4 -4.3 -6 c -1.1 -2.9 1.7 -4.7 2.9 -6.8 c -0.4 -1.8 1.1 -6.3 3.2 -3.4 c 1.4 1.9 3 0.9 1.4 -0.9 c -1.7 -2 -1.8 -5 1 -5.4 c -0.4 -2.7 -2.5 -5.9 0.6 -7.9 c 1.4 -1.2 5.1 2.1 5.4 -0.3 c -1.6 -2.8 -4.8 -4.5 -6.1 -7.5 c -0.1 -2.9 -2.4 -4.7 -4.2 -6.7 l -7.1 -8.7 c -2.4 -3.1 -4.3 -6.5 -6.6 -9.7 c -1.4 0.4 -2.9 1.5 -4.1 -0.2 c -0.5 2.1 0 4.4 0 6.6 c 0.2 1 -1 1.4 -1.5 2.1 c -1.1 0.5 -0.8 1.3 -0.2 2.2 c 1 2.1 2.3 4.2 2.4 6.5 c -1.1 1.9 -5.3 1.8 -3.2 4.7 c 1.5 3.6 3.9 6.7 5.5 10.2 c 0.7 2.8 1.6 5.5 2.5 8.2 c 1.2 2.6 2 5.3 2.4 8.1 c -0.5 2.9 -5.3 0.5 -5.3 4.1 c -1.1 2.6 -1.5 5.4 -2.9 7.9 c -1.7 4.1 -3.7 8 -5.8 11.9 c -1 2.4 -2.6 4.7 -3.1 7.3 c 0.7 2.1 1.4 5.7 3.9 5.8 c 1.4 -0.3 2.8 -0.9 4.1 -1.5 z m -57.2 0.9 c -2 -1.3 -5.5 -0.5 -6.4 -3.3 c -0.6 -2.8 -5.4 0.3 -5.6 -3.5 c -1.2 -3 1.1 -5.8 2.8 -8 c 1.6 -2.1 3.3 -4.2 4.5 -6.5 c 0.8 -2.2 2.5 -4.8 1.1 -7.1 c -1.6 -0.9 -1.8 -2.5 -2 -3.9 c -1.9 0 -5.5 2.2 -6.4 0.3 c 0.9 -1.9 5.8 -3.9 2.9 -5.9 c -2.8 -2.5 2.1 -4.8 0.8 -7.8 c -2.1 -1.6 -5.4 1.4 -7.5 -0.5 c -1.2 -2.1 -3.1 -3.6 -5.7 -4.1 c -2.6 0.3 -2.8 -2 -1.4 -3.7 c 0.9 -2.5 3.9 -4 4.8 -6.6 c 2.3 -2.9 5.3 -5.3 7.9 -8 c 4.2 -4 8.2 -8.2 12.7 -12 c 1.3 -0.3 2.5 2.4 3.7 0.2 c 2.3 -2 4.1 -4.4 6.1 -6.7 c 2.7 -1.1 1.5 3.7 1.6 5.3 c -0.4 3 -0.6 6.1 -0.5 9.1 c 0.6 1.1 2.6 2.3 1.6 3.6 c -1.9 1.4 -2.4 3.9 -4 5.7 c -1.7 3.5 -4.7 6.2 -7.4 8.9 c -2.7 1.9 0.8 -1.8 1.5 -2.5 c 2.3 -2.2 4.1 -4.9 5.7 -7.6 c 0.6 -2.3 3.6 -4.3 1.5 -6.6 c -0.9 -2.3 0.1 -4.7 0.1 -7.1 c -0.2 -1.9 1.2 -5.3 0.1 -6.3 c -2.7 2.2 -4.9 5.1 -7.7 7.2 c -2.6 -2.4 -4.7 1.1 -6.6 2.7 c -4.6 4.6 -9.2 9 -14 13.4 c -1.8 2.8 -4.3 5.1 -6.2 7.8 c -1.2 2.8 4 2.2 5.4 3.6 c 0.8 2.3 2.7 3.3 5 2.3 c 2.6 -0.9 6.1 0.8 4.5 3.9 c -1 2 -2.1 4 0.1 5.8 c 1.5 2.2 -3.4 3.9 -2.2 5.3 c 1.5 -0.1 5.5 -3.9 4.8 -0.3 c -0.3 2.6 3.7 4.3 2.6 7.2 c -1.2 4.6 -4.2 8.4 -7.2 12 c -1.5 1.8 -2.4 4.2 -1.2 6.5 c 0.3 3.5 5.1 -1.2 5.1 2.9 c 1.4 1.9 4.2 1.9 6.2 2.8 c 2.7 1.9 4.8 -1.3 4.9 -3.8 c 0.6 -3.9 -1.4 -7.4 -2.3 -11.1 c -0.8 -2.7 -1.2 -5.6 -2.4 -8.1 c -1.2 -3.2 -2.1 -6.5 -2.7 -9.8 c 0.1 -2 3.2 -5 0.1 -6.1 c -2.2 -0.8 -4.8 -3.1 -2.4 -5.3 c 1.7 -2 2.7 -4.4 4.4 -6.3 c 1.6 -0.6 -1.2 2.5 -1.3 3.4 c -0.9 1.4 -2.6 3.3 -1.9 4.9 c 1.4 1.3 3.1 2.4 4.2 4 c -0.6 2.5 -1.7 5.2 -0.8 7.8 c 0.7 2.6 1 5.3 2.1 7.8 c 0.9 2.5 1.6 5 2.4 7.4 c 0.9 3.1 3.4 6 2.8 9.4 c -0.2 2.4 -0.8 4.9 -2.8 6.5 c -1.3 2 -3.5 1.2 -5.3 0.6 z m 611.2 -3 c -1.2 -2.1 -5.5 0.1 -5.9 -2.1 c 2.3 -0.9 4.8 -0.3 7.1 0 c 2.7 -1.4 5.8 -0.7 8.7 -1.3 c 2.9 -0.7 5.5 -2.1 8 -3.6 c 0.9 -0.8 4.8 -2.7 1.7 -3 c -2.9 0.1 -5.7 -0.4 -8.5 -1 c -5.7 -2 -10.7 -5.7 -15 -10 c -1.6 -1.8 -5.5 -2.9 -5.1 -5.6 c 1.6 -0.9 0.8 -3 -0.8 -1.2 c -3.2 2.5 -7.4 3.5 -10.3 6.5 c -1.6 1.6 -4.1 5 -5.9 1.7 c -1.1 -3 0.8 -6 2.1 -8.6 c 2 -3.5 3.9 -7.1 6.1 -10.4 c 1.7 -2 1.9 -4.7 3.6 -6.7 c 1.3 -2.5 4.2 -1.2 6 -0.1 c 1.8 1.7 2.9 4.3 4.6 5.8 c 2.7 0.1 4.6 2.6 7.3 3 c 2.2 0.9 3.9 2.9 6.2 3.7 c 2.1 2 5.1 2.1 7.9 2.2 c 3.8 0.2 7.5 -1.2 11.3 -0.9 c 2.7 0 5.5 0.2 8.2 0.1 c -0.1 -1.9 -1.2 -4.7 2 -5 c 3.3 -0.8 6.7 -1.5 9.8 -3 c 2.2 -1.2 3.4 -3.3 5.3 -4.8 c 2.3 -2.4 4.7 -4.6 6.6 -7.3 c -0.9 -2 -5.4 0.5 -3.9 -2.3 c 1.1 -3 -5.2 1.1 -5 -2.2 c 1.8 -1.6 -0.1 -2.2 -1.5 -1.2 c -1.3 0.4 -3.4 1.4 -2.2 -1 c 1.7 -1.9 4.9 -0.9 7.2 -1 c 0.8 0.7 -2.8 2.8 0.1 2.6 c 1.9 0 4.2 -0.1 4.2 2.2 c 1.9 0.6 5.8 2.8 2.3 4.5 c -3.1 2 -5.2 5 -7.6 7.6 c -1.5 2.2 -3.4 3.9 -5.8 5.1 c -3 1.5 -6.5 1.7 -9.5 3.3 c -1 1.8 1.9 4.9 -1.6 4.9 c -3.9 0.5 -7.8 0.2 -11.6 -0.3 c -2.5 0.7 -5.1 0.8 -7.7 0.6 c -2.9 -0.2 -6 -0.3 -8.4 -2.1 c -3.6 -1.8 -6.7 -4.5 -10.6 -5.7 c -1.2 -1.3 -3 -1.7 -3.8 0.1 c -2.2 0.4 -2.6 -1.8 -1.4 -3.1 a 9.2 9.2 0 0 0 -4.9 -5.3 c -3.4 -1.2 -3.3 3.5 -4.9 5.3 c -1.8 2.7 -3.8 5.3 -5.1 8.3 c -1.5 3.1 -4.3 5.9 -3.9 9.6 c 0.9 3.3 3.6 -1.4 4.9 -2.3 c 3 -2.6 7 -3.6 10.1 -6 c 1.8 -1.2 5 0 2.6 2.1 c -2 2.6 2.5 4.1 3.8 5.9 c 3.3 2.9 7.1 5.3 11 7.4 c 5 2.4 10.9 1.3 15.8 4.1 c 2.2 1.7 -2.8 2.1 -3.6 3.7 c -2.2 1.4 -4.5 2.6 -6.8 3.8 c -3.4 1.9 -7.4 1.2 -11.1 1.9 c -0.4 1.6 -0.7 2.6 -2.3 0.9 z m -4.1 -38.7 c -0.5 -1.7 -0.3 2 0 0 z m -1220.4 32.3 c -2.7 -2.3 -5 -5.3 -8.4 -6.7 c -2.6 -1.8 1.6 -4.5 1 -7 c -0.2 -2.3 -0.3 -5.8 3.1 -4.5 c 2.2 0.6 5.5 0.2 6.6 2.5 c -0.5 5.2 -0.1 10.4 -0.6 15.6 c -0.3 0.9 -1.2 0.7 -1.7 0.1 z m 0.6 -8.7 v -6.8 c -2.1 -0.2 -4.1 -0.8 -6.2 -1.3 c -0.9 1.9 0.4 4.6 -0.9 6.6 c -2.5 2.3 1.5 3.2 2.9 4.5 c 1.6 0.9 2.8 3.6 4.1 3.9 c 0.1 -2.3 0.1 -4.6 0.1 -6.9 z m 872.9 -5.3 c -0.6 -5.6 -0.3 -11.2 -0.2 -16.8 c -0.2 -3 4 -2.7 5.9 -4 c 2.1 0 4.9 -2.8 6.5 -1.1 c 0.1 3.5 3.9 0.3 5.7 0.1 c 5 -2.1 9.8 -4.5 14.7 -6.6 c 2.6 -1.2 5.2 0.7 7.4 1.9 c 2 1.9 3.9 -2.6 5.8 -3.4 c 5.2 -4.7 11 -8.9 16.5 -13.3 c 5.1 -3.7 9.6 -8.3 14.7 -12.1 c 1.3 -2.3 -3.2 -0.9 -4.4 -0.8 c -5.6 1 -11.2 1.4 -16.8 2.6 c -2.7 0.6 -5.6 0.5 -8.2 1.5 c -1.9 1.7 -2.3 4.6 -4.1 6.5 c -1.6 2.3 -4.1 3.4 -6.7 4.1 c -2.5 0.9 -5 1.5 -7.7 1.6 c -2.1 0.9 -6 -0.1 -6.8 2 c 1.5 1.9 1.2 4.4 -1.5 4.8 c -3.2 2 -6.4 4 -9.7 5.8 c -2.4 1.4 -4.7 3.1 -6.9 4.7 c -3.1 2.2 -4.7 -1.5 -4.2 -4.1 l -0.3 -18.5 c 1.8 -1.3 4.5 -1.8 6.5 -3 c 3.1 -1.4 6.1 -3.2 9.3 -4.3 c 2.7 -2 1.5 2.8 3.2 3.2 c 1.9 -1.9 1.2 -5 1.8 -7.5 c 0 -2.2 3.9 -4.2 1.6 -6.1 c -2.3 -2.1 -2.4 -5.5 -3.3 -8.3 c -1.3 -5.7 -1.4 -11.6 -0.6 -17.4 c 0 -0.7 1.1 -4.1 1 -1.8 c -0.1 3.6 -0.5 7.2 -0.1 10.8 c 0.3 4.3 1.1 8.6 2.7 12.7 c 0.6 2.5 5.4 4.2 2 6.5 c -1.7 2 -2.2 4.4 -2 6.9 c 0.3 2.4 -2.1 6.5 -4.7 4.9 c -0.7 -1.4 -0.8 -4.4 -2.8 -2.2 c -4.1 2.3 -8.3 4.5 -12.7 6.1 c -0.4 6.6 -0.2 13.2 0.3 19.8 c 0.9 2.8 3.7 -1.5 5.3 -2.1 c 4.3 -3 9 -5.6 13.4 -8.4 c 1.5 -1.2 -1.8 -4.2 1.3 -4.5 c 3.9 -1.2 7.9 -2 11.9 -2.8 c 2.9 -1.1 6.2 -1.3 8.4 -3.7 c 1.7 -1.7 2.9 -3.8 3.5 -6.1 c 0.2 -1.1 1 -1.3 2 -1.4 c 6.3 -1.1 12.7 -2.2 19.1 -2.9 c 4.5 -0.7 9 -1.7 13.5 -0.9 c 0 1.7 -2.7 3.1 -3.9 4.5 c -4 3 -7.6 6.4 -11.5 9.4 c -2.2 1.7 -4.4 3.5 -6.7 5.1 l -10.3 8.5 c -2.2 1.9 -4.3 4.2 -6.8 5.8 c -2.1 -0.8 -4.2 -2.7 -6.7 -2.8 c -2.7 -0.1 -4.8 2 -7.4 2.5 c -3.2 0.7 -5.7 3.2 -9 3.9 c -2.1 0.4 -5.2 3.2 -6.8 1.2 c -1.7 -2.3 -5 0.2 -7.2 0.6 c -3.3 -0.1 -3 3.7 -2.8 6 c -0.1 3.7 -0.7 7.4 -0.5 11.2 c -0.1 0.5 -0.4 3.7 -0.7 2.8 l -0.2 -1 z M 2240.5 301.1 c 1 -1.4 2.9 -2 4.4 -2.9 c 1.2 -3.3 2.1 -6.8 4.3 -9.6 c 1.4 -2 4 -2.7 6.2 -3.3 c 2.5 -0.9 5.3 -0.7 7.4 -2.4 c 1.8 -1.7 3.7 -3.2 5.3 -5.1 c 3.1 -3.4 5.3 -7.6 8.6 -10.9 c 1.6 -2.3 3.8 -4.1 5.5 -6.3 c 0.6 -2.1 -3.2 -3.6 -0.8 -5.7 c 0.3 -1 2.7 -3.6 1.4 -1 c -2.6 2.3 3.1 3.8 1.3 6.3 c -2.2 2.9 -5 5.3 -7.3 8.3 c -2.9 3.5 -5.4 7.4 -8.4 10.9 c -2.3 2.1 -4.5 4.4 -7.2 6.1 c -2.7 0.6 -5.4 1.2 -8 2 c -2.9 0.5 -4.5 2.4 -5.3 5.1 c -0.9 2.4 -1.2 5 -1.9 7.4 c -1.5 0.5 -3.2 0.4 -4.6 1 c -0.2 0.2 -0.9 0.6 -1 0.2 z m 10.1 -4.5 c -2.6 -1.2 1.1 -4.7 2.7 -5.6 c 1.1 -1.2 3.8 -1.2 1.8 0.7 c -1.9 1.1 -2 5.7 -4.6 4.9 z m 2.1 -2.8 c 1.6 -2.7 -3.7 1.6 -0.4 0.5 l 0.2 -0.2 z m 2.9 1.9 c -0.2 -1.7 2.4 -3.9 3.5 -4.3 c -0.7 1.6 -0.8 5.3 -3.5 4.3 z m 122.4 -1.6 c -0.9 -1.5 -4.2 -5.7 -0.4 -5.4 c 2.6 0.4 6 -0.7 7.9 1.5 c 1.5 2.9 -3.5 2.7 -5.1 3.6 c -0.8 0.3 -1.6 1 -2.4 0.3 z m 2.7 -2.2 c 0.9 -0.4 4.6 -0.6 1.7 -1.2 c -1.6 -0.1 -6.7 -1.3 -3.9 1.5 c 0.7 0.3 1.5 -0.1 2.2 -0.3 z m 566.9 -9 c 0.4 -1.3 1.1 0.5 0 0 z m 1.4 -1.6 c 1.8 -1.7 0.5 1.2 0 0 z m -1012.4 -0.4 c -3.6 -1.1 -2.9 -5.7 -0.4 -7.6 c 2 -2 5.5 -0.1 5.4 2.7 c 0.9 2.6 -0.3 5.4 -3.4 5.1 c -0.6 0.1 -1.1 -0.1 -1.7 -0.3 z m 3.3 -2 c 1.8 -2 -1.4 -6.2 -3.7 -4.1 c -2.8 2.2 1.5 5.5 3.7 4.1 z m 1011.2 0.9 c 1.1 -0.6 0.4 0.9 0 0 z m 2.7 -0.4 c -3.3 -0.4 1.6 -2.5 2.9 -1.7 c 1.2 0.3 3.4 -0.9 1.1 -1.3 c -1.2 -0.8 -4 -4.2 -0.7 -3.8 c 0.9 0.1 5 -0.7 3.6 0.6 c -1.5 -0.4 -3.5 1 -1.3 1.9 c 2.2 0.2 3.1 2.2 0.6 2.8 c -1.7 1.7 -4 1.7 -6.2 1.4 z m -1005.8 -5.3 c -3.6 -0.6 -4.8 -4.4 -4.1 -7.5 c 0.3 -2.5 2.4 -4.2 2.8 -6.6 c 1.8 -2.6 4.9 -1.8 6.9 0.1 c 2 1.6 3.2 4.3 3.2 6.8 c 0.3 3.1 -1.5 6.8 -4.8 7.2 c -1.3 0.2 -2.7 0.2 -4 0 z m 5.1 -2.3 c 2.4 -1.3 2.7 -4.7 1.4 -7 c -1 -2.1 -3.1 -5.6 -5.8 -4.4 c -2.6 2.3 -4.9 6.5 -2.6 9.7 c 1.7 1.7 4.6 2.8 6.9 1.6 z m -288.6 -1.8 c -0.4 -2.8 -0.4 -5.7 -0.8 -8.5 c 1.1 -3.2 2.1 2.2 2.1 3.4 c -0.2 1.4 0.2 5.7 2.2 3.5 c -0.2 -2.4 -1 -4.7 -0.8 -7.2 c -0.1 -4.4 0.1 -8.9 -0.3 -13.3 c -3.1 -0.7 -6.3 -1.2 -9.4 -2 c -4.7 -0.6 -9.1 -3.1 -13.8 -3.6 c -1.4 -0.7 0.2 -3.1 -1.5 -3.2 c -3.1 -0.8 -5.7 -2.9 -8.7 -3.6 c -1.9 -0.3 -6.6 -2.7 -3.4 -4.5 c 1.5 0.1 3.8 -0.8 1.4 -1.9 c -2.6 -0.2 -2.1 -4.3 0.4 -3.8 c 1.5 1.3 3.8 2.4 5.6 3 c 0.1 -2 -3.4 -4.7 -1 -6.7 c 1.5 -0.4 3.2 1.4 1 1.9 c -0.8 2.2 4 5.2 1.4 6.6 c -1.4 -1.7 -4.3 -1.1 -6 -3 c -0.8 -1 -3.7 -0.8 -1.9 0.5 c 1.7 1.7 4.4 2.3 6.2 4 c -0.7 2.6 -5.8 -1.6 -6.6 1.4 c 1.8 1.1 4.6 1 6.6 2.2 c 2.3 1.6 5.1 2.1 7.5 3.5 c -0.7 2.8 3.1 2.4 4.8 3.4 a 56.5 56.5 0 0 0 11.6 3.1 c 2.4 0.7 5.3 0.9 7.5 1.8 c 0.5 7 -0.1 14.1 1.1 21 c 0 0.9 0.6 2.6 -1 2.1 c -1.3 0 -2.8 0.3 -4 -0.2 z m 919.1 -10.1 c -1.1 -1.7 -3.1 -3.9 -3.8 -0.7 c -2.1 -0.9 -0.9 -5 -3.3 -5.5 c -1 1.5 -0.7 6.1 -3.4 4.9 c -2.5 -2.6 -3.5 -6.3 -4.2 -9.7 c -0.6 -4.7 -1 -9.6 0.2 -14.3 c 0 -1.6 2.4 -5.6 -0.9 -4.4 c -1 -0.3 -3.2 2.7 -2.9 0.8 c 0.2 -2.1 4.2 -3.6 5.7 -2.1 c -0.7 5.6 -1.3 11.2 -0.9 16.8 c 0.2 3.9 1.3 7.8 3.4 11.2 c 2.2 0.2 1.4 -5.9 4 -5 c 2.1 0.8 1.3 5.8 4.1 3.5 c 1.6 0.3 1.8 3.1 3.5 1.5 c 0.5 1 0.6 5.6 -1.4 2.9 z m -484.7 -3.3 c -3.3 -1.5 -5.2 -4.7 -8.1 -6.8 c -2.6 -1.3 -4.8 -3.5 -5.9 -6.2 c -0.8 -2.8 -3.7 -3 -5.7 -4.2 c -1.3 -3 -2.5 1.1 -4.6 0.6 c -2.1 0.6 -4.1 3.5 -6.1 0.9 c -1.6 -0.8 -3.7 -5.2 -4.8 -1.7 c -1.4 2.6 -2.4 6 -4.3 7.8 c -2.2 -1 -0.4 -4.7 -0.9 -6.7 c -0.5 -4.7 -2.6 -9.1 -5.2 -13 c -2.4 -3.4 -6 -5.7 -9.7 -7.4 c -1 -0.7 -2.1 0.4 -3.1 0.5 c -2.5 0.4 -5.1 1.7 -7.4 2.1 c -2.2 -1.4 -3.2 -4.4 -2.8 -6.9 c 1.2 -1.9 3.1 -4 5.5 -4.1 c 2.3 0.2 4.2 3.2 6.4 2.2 c 1.7 -1.1 3.4 -5.5 5.1 -1.9 c 2.5 2.6 4.3 -2 4.5 -4.1 c 0.3 -1.4 0.4 -4.2 2.4 -3.9 c 7.8 0 15.5 -0.3 23.3 0.1 c 4.9 0.4 9.9 1.9 13.6 5.3 c 2.3 1.4 3.8 3.9 5.3 6.1 c 1.7 3.2 3.1 6.7 3.2 10.5 c 0.6 10 1.1 20 0.8 30 c 0 1.1 -0.8 1.6 -1.7 0.9 z m 0 -2.7 c 0.3 -2.3 -0.2 -4.8 -0.1 -7.2 c -0.2 -7.6 -0.3 -15.3 -1 -22.9 c -0.8 -4.7 -3 -9.2 -6.6 -12.4 c -2.4 -2.6 -5.5 -4.6 -9 -5.1 c -3.8 -1.4 -8 -0.8 -12 -1 c -4.9 0.1 -9.9 -0.3 -14.8 0.1 c -2.7 0.9 -1.7 4.8 -3.3 6.7 c -0.9 3.2 -4.5 2.3 -6.5 1.1 c -1.7 2 -4.3 3.2 -6.7 1.4 c -2.1 -1.2 -4.9 -1.3 -6.7 0.6 c -0.9 1.7 0.3 6.3 3 4.7 c 2.8 -1.1 6 -1.5 9 -1.4 c 4.1 0.8 7.5 3.8 10.2 6.9 c 2.1 2.2 3 5.1 4.3 7.7 c 1.3 2.1 1.1 5.9 2.5 7.2 c 1.8 -1.8 2.1 -5.5 4.1 -6.6 c 1.9 2 3.5 5.3 6.3 5.9 c 2.2 -1.6 6.1 -1.2 6.1 -4.8 c 0.3 -1.1 1.2 -5.2 1.8 -2 c 0.1 2.2 -0.3 5.9 2.9 5.5 c 3.1 0.3 3.7 4 5.1 6.1 c 2 1.3 4 2.6 5.6 4.4 c 2 1.5 3 4.2 5.4 5.2 l 0.2 -0.1 l 0.3 -0.3 z m 904.1 0.8 c -1.4 -1.5 0.7 -1.4 1.5 -0.8 c -0.4 -0.8 -1.9 -3.1 0.4 -2.5 c 2.5 1.3 0.1 5 -2 3.3 z m -964.4 -0.4 c 0.7 -1 0.6 1 0 0 z m 245 -2.8 c 0.9 -1.2 2 -4.6 3.4 -3.9 c -0.7 1.2 -2.4 4.1 -3.4 3.9 z m 3.5 -4.8 c 0.1 -2 2.9 -0.8 0 0 z m 2 -2.1 c 1.9 -2.9 4.8 -5.1 6.3 -8.2 c 1.5 -2.4 4.1 -4.3 4.4 -7.2 c 0.8 -3.1 -3 -5.4 -0.8 -8.4 c 0.5 -1.3 1.3 -3.5 -0.9 -1.9 c -2.8 2.2 -2.2 -2.6 -1.2 -3.9 c 0.1 -1.8 2 -4.3 3 -4.9 c -1.1 2.1 -2.3 4.5 -2.6 6.8 c 1.4 2.1 4 -3.4 5.1 -1.3 c -1.2 2.3 -2.5 4.8 -2.9 7.4 c 2.1 0.4 1.4 2.8 1.5 4.6 c -0.1 1 0.1 2.1 -0.1 3 c -2.3 2.2 -4 4.8 -5.6 7.6 c -1.7 2.2 -3.5 4.4 -5.5 6.3 c -0.2 0.1 -0.9 0.6 -1 0 z m -256.4 -0.8 c -1.4 -2.7 -1.4 -5.9 -1.7 -8.9 c 1.1 -1.3 3.6 -3.2 4.7 -0.9 c -0.1 2.7 1.4 5.3 1.8 7.8 c -1.3 0.7 -3.3 2.6 -4.7 2 z m 2.2 -2.4 c 0.7 -2 -0.1 -5.2 -1.6 -6.5 c -2.1 1.5 -0.5 4.7 -0.1 6.7 c 0.4 0.6 1.3 0.3 1.7 -0.2 z m -366 -3.2 c -3.8 -0.9 -7.8 -1 -11.5 -2.3 c -2.6 -0.5 -5.2 -1.5 -7.6 -2.5 c -1.3 1.1 -2.7 1.6 -3 -0.6 c -1 -0.9 -1.9 -5.1 -3.4 -2.9 c 0.3 3.1 -2.3 -1 -2.7 -2 c -0.8 -0.6 -1.8 -3.3 -0.1 -1.5 c 0.7 1.8 2.2 2.1 3 0.3 c 2.4 0.8 2.7 3.4 4.1 5.1 c 1.2 0.7 3 -0.8 4.3 0.7 c 2.3 1 4.7 1.5 7.2 2.1 c 2.4 0.7 5 1.2 7.4 1.6 c 2.6 0.3 5.2 1.4 7.8 0.2 c -0.9 -1.9 -4.2 -3 -4.7 -5.6 c -1.2 -3.4 -1.3 -7 -1.3 -10.5 c -0.3 -2.2 -1.6 -4.5 0.8 -6.1 c 0.7 -2.7 3.7 -2.8 4.6 -5.3 c 2.7 -0.5 5.4 -1.4 7.8 0.3 c 2.9 0.7 -1.6 1.9 -2.4 0.5 c -2.1 1.1 -4.8 0.3 -6 2.9 c -1.9 1 -4.2 3.5 -3.6 5.7 c 0.9 2.8 0.4 5.8 0.6 8.6 c 0 2.5 0.7 5.2 2.9 6.7 c 2.9 1.1 4 3.7 0.3 4.6 c -1.3 1 -3.1 0.5 -4.6 0.1 z m 20.4 -0.1 c -1.6 -1.2 -3.7 -1 -5.2 -2 c -1 -0.9 0.6 -1.4 1 -2.1 c 1.2 -1.4 2.4 -2.9 3.3 -4.6 l -0.3 -11.8 c -1.5 -0.6 -1.1 -4.7 0.2 -2.1 c 0.9 2.3 1.6 4.6 1.5 7.1 c 0 2.6 0.2 5.3 -0.3 7.9 c -0.7 1.8 -3.5 3.5 -3.4 4.9 c 2.5 0.6 5 1.6 7.7 1.1 c 2.5 -0.2 5 -1 7.4 -1.7 c 2.6 -1.1 5.4 -1.4 8 -2.4 c 2 -1.2 4.4 -1.8 6.5 -1.7 c 1.6 -1.3 2.3 -5.6 4.8 -4.3 c 0.5 2 3.1 -0.9 1.8 1.5 c -0.3 1.4 -3 3.7 -2.2 0.8 c -1.5 -1.6 -2.6 2.6 -3.7 3.5 c -0.5 3 -3.2 -1 -4.9 1.1 c -3.3 1.4 -6.9 1.7 -10.1 3.3 c -3.8 0.7 -7.5 2.5 -11.5 1.8 l -0.4 -0.1 l -0.3 -0.1 z m 43.7 -6.5 c -1.2 -2.1 -5.9 1.6 -6.4 -0.9 c 1.5 -1 4 -3.2 5.5 -2.4 c -3.2 1.6 2.9 0.9 2.5 3.1 c 0.3 1.2 -1.5 1.3 -1.6 0.3 z m -8.9 -2.9 c -0.1 -2.4 3.7 -4.4 2.4 -6.5 c -3 -1.1 2.7 -2.7 2 0.4 c 0.3 1.6 -2.9 3.8 -1.7 4.8 c 2.3 -0.5 4.3 -3.1 6.7 -2.8 c 1.3 0.7 0.8 3.1 -0.6 2.9 c 1.9 -2.5 -1.7 -1.7 -2.8 -0.6 c -1.8 0.4 -4.5 2.4 -6 1.9 z m -1.1 -3.2 c 0.3 -0.6 2.3 -4.4 1.8 -1.7 c -0.6 0.2 -1.4 3.7 -1.8 1.7 z m -84.3 -1.3 c 0.6 -2.1 0.6 2.4 0 0 z m 45.4 -11 c -0.5 -0.7 -0.4 -3 0.3 -1.1 c 1.7 0.4 0.9 1.7 -0.3 1.1 z"/>
</svg>