<svg xmlns="http://www.w3.org/2000/svg" width="3543" height="1111" xmlns:v="https://vecta.io/nano"><defs><linearGradient id="A" x1="2001.476" y1="326.003" x2="2009.04" y2="310.584" gradientUnits="userSpaceOnUse"><stop offset=".158" stop-color="#fff"/><stop offset=".939" stop-color="#fff" stop-opacity="0"/></linearGradient></defs><path d="M340 545.7c-16.2-4.9-29.9-19.8-30.2-37.2-3.4-45.3-5.2-90.7-7.7-136.1l-8.9-173.7c-.3-9.5-1.2-19.6 3.6-28.2 6.9-14.2 22-24 37.9-24.1l101.8-5.5 868.9-45.4 110-4.9c17.7 1.2 33.7 15.2 37.3 32.5l10.5 184.2 6.7 142c.9 18.1-12.9 34.9-29.8 40.1-17.1 2.8-34.6 2.7-51.9 3.9l-624.2 33-97.9 4.8-297.6 15.4c-9.4 0-19.1 1.6-28.3-.7z" fill="#faf4f7"/><path d="M3095 618.1c-12.7.4-24.4 6.1-36.2 10L2935 672.7c-207.1 79.8-417.9 149.7-626.8 224.8-15.5 5.7-31.3 10.7-46.2 17.7-11.3 6.8-19.3 18.6-22.9 31.1-1.1 9.8-2 20.1 1.9 29.5 5.2 14.2 9.6 28.7 16.2 42.3 10.6 18.8 34.3 29.3 55.2 23.5 12.5-3.6 24.6-8.7 36.9-12.8L2837 853.7l288-103.4c21.3-8 35.7-31.6 31.7-54.2-4.7-16.8-10.3-33.4-16.9-49.5-8.1-16.9-26.2-27.9-44.8-28.4z" fill="#ea018a"/><path d="M400.5 505.1c-24.8-2.5-46.4-22.1-52.1-46.3-.8-5.8-5.3-13.1-1.9-18.2 12.9-4.2 25.4-9.8 37.7-15.7 4-2.6 9.4-3.2 7.9 3.3 1.2 10.4 5 21.5 13.3 28.3 5.9 5.1 15.3 3.1 21-1.3 9.3-8.4 10.8-21.7 12.5-33.4 3.6-31.6.9-63.5-4.9-94.7-1.3-9.1-3.7-18-5-27.1-.1-6.9 9.3-7.3 14.1-10.1 10-3.2 20-7.8 30.7-7.9 6.7 1.6 4.1 12.1 6.7 17.5 3.3 17.9 7.2 35.7 9.4 53.8 1.8 21 3.2 42.2 1.3 63.3-2.6 25.5-10.5 52.2-30.1 69.9-13.9 12.8-33 18.7-51.6 19.3-3-.1-6-.5-8.9-.7zM566 491.5c-21.5-5.3-38.4-22.2-47-42.2-6.3-13.5-9.2-28.3-8.8-43.2 0-16.5 2.6-32.9 7.9-48.5 4.3-15.9 13.9-29.8 23.7-42.9 5.4-7.3 12.1-13.4 18.5-19.7-14.7-.1-29.3-3.1-43.7-6-23.4-5.6-47.2-14.1-64.8-31.2-11-10.4-17-26.9-12-41.6 6-17.6 21.5-29.9 37-39 29.1-16.4 62.2-24.4 95.1-28.3 23.1-1.6 46.4-2 69.5-.2 29 3.8 58.6 10.6 83.3 26.9 13.3 8.8 25.3 22.4 25.4 39.2.2 16.7-11.3 30.8-23.7 40.6-10.9 8.8-23.7 14.8-36.2 21 3.9 4 8.5 9 6.5 15.1-2.6 7.8-10.7 11.4-17.4 15.1 1.7 7.2 9.9.8 14.7 1.1 5.4-.5 13.3.5 9.8-7.5-.1-6-3.5-12.7-.9-18.4 5.3-3.5 11.7-4.6 17.6-7.3 12.9-4.3 26.6-6.1 40.1-6.6 15.5 32.5 32.3 64.6 53 94.3 5.5 7.7 10.5 15.8 16.8 22.9 1.4-9.5.5-19.3.6-29-.3-26.1-2.4-52.1-2.7-78.2 3-5.8 12.7-4.5 18.3-7.1 8.7-2 16.9-6 25.5-8.1 3 4.5 1.1 13.2 2 19.4.8 34.5.5 69.2 4.6 103.6 2.4 22.2 5 44.4 9 66.4.8 3.7 1.3 8.5-3.2 8.5-5.2 8.1-10.9 18.2-21.4 19.4-13.3.8-25.6-7.6-31.6-19.1-3.4-5.4-9-9.2-12.6-14.7-19.6-26-37.8-53.2-54.2-81.4-3-3.5-4.6-12.5-8.4-12.8 2.5 33.4 3.5 67 4.8 100.5.2 10.1 1.1 20.3.2 30.4-4.6 3.5-12.2-1.6-18-1-9.1-1.3-18.2-2.1-27.3-3-6.4-3-3.5-12-4.4-17.8-.2-36.3-.9-72.6-3.1-108.8l-.7-7.9-15.4.1c.8 15.4.6 30.9-2.4 46.1-4.7 25.8-15.1 51.5-33.9 70.4-16.4 17.7-39.1 29.3-63.1 31.8-9 1-18.3 1.7-27-1.3zm44.8-54.9c9.9-4.1 17.5-12.6 23-21.6 9.5-17.6 12.9-38.6 9.3-58.3-2.2-13.9-13.9-26.3-28.3-27.2-9.3-1.4-19.2.7-26.5 6.8-12.1 9.7-19.4 24.3-23.6 38.9-2.8 13.6-2.7 28.2 1.8 41.5 3.8 12.1 15.1 20.9 27.6 21.9 5.6.6 11.3-.3 16.7-1.9zM768.3 343c8-.3 10-11.3 1.2-12.3-6.2-1.3-13.9-1-18.4 4-3 6.3 6.1 9.5 11.1 9.2 2.1 0 4.1-.4 6.1-1zm-60.4-4c8.4-1.5 18.5-4.5 21.8-13.2.6-7.1-7.3-10.9-13.2-12.4-12.1-2.7-25.7-1.9-36.4 4.8-6.2 3-8.3 11.7-1.8 15.6 8.3 6.2 19.7 6.7 29.5 5.2zM651 307.1c12.5-1.7 26-4.2 35.5-13.1 4.7-4.2 4.9-12.5-.8-16-4-4.4-14-5.8-16.5-7.8 4.1 0 8.3 1.8 12.3 2 18.2-8.7 37.3-18 49.5-34.8 4.4-5.9 7.4-13.1 6.6-20.6.4-6.7-.6-13.6-4.6-19.2-10.7-16.6-29.4-25.6-47.4-32-25.2-8.5-52-12.1-78.6-11.4-20.1.2-40.3.7-59.9 5.3-24.9 5.4-49.9 13.3-71.1 27.8-8.6 7-17.2 14.6-22.6 24.5-5.8 11.5-4.5 25.9 3.2 36.1 12.2 16.5 32.1 25.1 51.1 31.2 20 6.3 40.8 9.4 61.8 9.6l22.6.6c6.3-7.7 14.5-14.2 24.3-16.5 2.6-.8 5.8-.7 1.2.9-7.3 3.2-16.7 7.1-18.4 15.9-.2 6.5 6.6 10.3 11.7 12.9 12.6 5.3 26.7 6.3 40.2 4.6zm347.5 167.1c-12 7.3-26.3 14.3-40.7 10.4-7.3-2.6-13.3-7.9-19.9-11.9-6-4.1-12.2-7.8-18-12.2-7.6-7.7-14.5-16.4-18.2-26.7-9.9-26.7-7.7-56.4.6-83.2 12-38 40.4-70.7 77-86.8 12.8-5.6 26.6-9.5 40.7-9.1 11.7.1 23.8-1.4 34.9 3.3 6 .8 8.4 4.9 5.9 10.5-2.6 13-2.6 26.3-4.9 39.3-11.1-4.8-23.5-4.5-35.3-4-14.1.6-27.5 6.4-39.4 13.6-19.4 12.8-35.9 32.6-39.1 56.3-2.6 15.6-.2 33.8 12.5 44.7 9.1 8 22.4 10.2 33.8 6.3 10.2-2.8 19.8-8 26.5-16.3 2.6-2.4 8.9-11.2.9-7.9-14.5 3.3-28.8 7.8-43.2 10.8-1.7-6-.5-12.6-.8-18.9.2-7.1 0-14.4 1-21.4 11.4-4.3 23.4-6.8 35-10.4 22.9-6.6 46.1-12 69.2-17.9 4.2-1.9 8-.4 6.1 4.7-1.7 11.6-1.3 23.4-3 35-1.9 6.6-12.1 2.3-14.9 8.8-1.7 11.8-7.3 22.7-12.6 33.3-7.6 14.7-19.6 26.7-33.2 35.9-6.5 3.6-14 4.8-18.4 11.6-.8.8-1.6 1.7-2.5 2.3z" fill="#110f0f"/><path d="M1901 918.9c-17.9-2-34.8-14.2-41-31.3l-46-112.2-83.4-204.9-14.5-85.9c4.3-8.3 11.7-14.9 19.7-19.5 15.6-6.9 31.4-13.5 47.5-19.1 15.4-3.1 32.3.8 44 11.6 9.8 8.6 14.4 21 18.9 32.8l59.6 145.7 55.2 135.6 26.7 97.2c.9 6.2-4.8 12.9-8.6 18-6.5 8.2-15.8 13.4-25.5 16.9-14.1 5.5-27.7 12.5-42.7 15.1-3.3.4-6.6.4-9.9 0zm1005.4-36.7l28.7-168.8c4.9-4.3 12.5-3.8 18.6-5.8l18.6-3.7c1.4 15.4.4 31.1 1.2 46.6.7 15.1.9 30.4 3.6 45.3 2.3 1.8 2.1-7.6 3.1-10 4.5-24.4 7.6-49.1 13-73.4 4.3-3.7 11.6-3.3 17.1-5 6.5-1.1 12.9-2.8 19.5-3.1-2.3 15.8-7 31.2-10.1 46.9-7.6 34.8-13.7 69.9-18.2 105.2 1.3 8.3-7.2 8.7-13.1 10.6-7.4 2-14.7 4.4-22.2 5.6-6.8-16.1-11.3-33.1-17.7-49.4-2.8 16.6-5.2 33.4-7 50.1l-34.8 10.6c-.8-.1-.4-1.5-.4-1.8zm125.4-5.4c-7.2-1.1-13-8.1-11.5-15.5 2.4-14.2 16.3-24 29.9-26.1 9.2-1.7 20.6 5.3 19.5 15.5-1.6 14.4-15.8 23.9-29.2 26.2-2.9.4-5.8.5-8.7-.1zm-303.3-6.6c7.4-49.5 5.2-99.6 7.4-149.3.7-1.9-.9-5.6 1.8-5.7 13.7-3.1 27.4-6.6 41.2-9.2 1.9 4.6-1.2 11.4-1.2 16.9L2763.3 839c7.9-30.2 14.3-60.9 21.4-91.3l8.4-35.6c12.3-3.4 24.9-5.7 37.4-7.9 2.7 3.9-2.8 12.5-3.7 17.9-14.8 44.4-27.4 89.4-38.7 134.8-.1 7.9-7.6 8.6-13.7 9.5l-46.1 8.7c-.4-1.5 0-3.2.1-4.8zm-175.6-78l13.7-81.1c12.2-2.9 24.6-5.2 37-7-3 17.7-8 35-11.4 52.6-4.5 21.2-8.4 42.5-12.1 63.9 12.9-2.1 25.7-4.4 38.6-5.9l-3.5 43c-17.6 1.4-34.8 5.6-52 9.5l-23.3 5.7c3.9-27 8.6-53.8 13-80.8zm69.2 80l26.2-163.7c23.8-4 47.6-7.3 71.6-10.3 2.4 3.8.1 11.7.4 17.1-.5 7.7-.7 15.5-1.7 23.2-4.4 4.7-13.1 2.2-19.1 4l-20.3 2.6c-2.2 8-4.2 16.2-4.6 24.5 11-1.3 21.8-4.2 32.7-6.5 2.4 4.6.1 11.3.4 16.7l-.8 14.8c-12.9 2.7-25.9 4.8-38.7 8.2-2 5.6-3.4 11.7-3.7 17.6 13.4-1.7 26.7-4.4 40.2-5.4 0 13.5-1.1 27-2.5 40.4-2.4 4.9-10.6 1.7-15.3 3.8-21.6 3.3-42.9 8.7-64.2 13.5-.5.3-.7-.3-.6-.6zm191 0l26.2-163.7c23.8-4 47.6-7.3 71.6-10.3 2.4 3.8.1 11.7.4 17.1-.5 7.7-.7 15.5-1.7 23.2-4.4 4.7-13.1 2.2-19.1 4l-20.3 2.6c-2.2 8-4.2 16.2-4.6 24.5 11-1.3 21.8-4.2 32.7-6.5 2.4 4.6.1 11.3.4 16.7l-.8 14.8c-12.9 2.7-25.9 4.8-38.7 8.2-2 5.6-3.4 11.7-3.7 17.6 13.4-1.7 26.7-4.4 40.2-5.4 0 13.5-1.1 27-2.5 40.4-2.4 4.9-10.6 1.7-15.3 3.8-21.6 3.3-42.9 8.7-64.2 13.5-.5.3-.7-.3-.6-.6zm242.3-61.2c-4.9-.9-15.9 1.6-11.7-6.4l29.8-111.1c5.2-.6 11.6 1.6 17.2 2.2 9.2 1.6 18.5 2.9 27.6 5-.1 6.1-5.3 11.9-7.6 17.7-14.3 26.9-26.4 54.9-35.5 83.9-1 6.2-4.7 11.3-11.6 9.1l-8.3-.3zM1337.5 617l-170.2-6-322.7-12c-13.3-.8-26.7-.8-40-2.4-22.1-5.3-39.8-26.5-39.2-49.6 0-16.6.7-33.3 2.5-49.8 4.7-19.3 21.7-35 41.1-38.5 22.4-1 44.8.5 67.2 1.2 42.7 2.2 85.5 3 128.3 4.3l344.7 13.2c10.2.7 20.6.4 30.6 2.4 21.3 6.4 37.5 27.8 36 50.3-.2 17.3.1 34.8-3.5 51.8-6.2 20.4-26.6 35.9-48.1 35.5-9 .3-17.9-.1-26.9-.5z" fill="#fceb0a"/><path d="M1149.2 464.3c-14.2-3-28.7-3.4-43-5.9-3-5-1.1-13.2-2-19.4-.9-50.8-1.3-101.7-7.5-152.2-.6-7.8-2.5-15.6-1.5-23.4 3.7-4.9 10.9-5.6 16.3-8 12.7-4.8 26.3-6.8 39.8-7.5 5 4.1 6.4 11.2 9.7 16.6 17.5 34.8 36.8 68.9 60.9 99.7 2.6-1.6.8-11 1.4-15.6-.1-30.4-1.8-60.7-3.4-91.1 3.4-3.7 8.4-3.8 13-5 10.1-2.5 20-5.7 29.6-9.4 7.4 0 3.3 11.4 4.6 16.3.2 36.1.2 72.3 4.3 108.3 2.1 24.2 6.7 48.2 9.7 72.3-1.3 5.8-10.1 6.2-14.9 9.2-9.2 3.7-18.5 7.3-27.5 11.7-32.6-38.4-61.4-80-86.1-123.9-.9-3.3-4.1-7.4-3.3-1 2.4 37.7 3.9 75.5 4.3 113.2-1.2 4.6 2.8 14.6-3.5 15.4zm155-14.9c-.5-54.7-3-109.3-7.6-163.8-.8-11.2-2.9-22.3-2.9-33.5 5.2-3.4 12.9-3 18.8-5.7 10.2-1.9 19.7-6.7 29.9-8.4 2.7 5.9 2.6 12.8 3.7 19.1 4.7 41.3 7.8 82.8 9.1 124.3.2 8.1 0 16.3 1 24.3 6.1 1.2 12.6-.7 18.8-1.2 16.3-2.4 32.6-5.4 49.2-5.2 3.5 4-1.7 12.1-1.6 17.7-1.5 7.8-1 16-3.6 23.5-5.9 2.8-12.9 2.2-19.3 3.3-29.5 3-59.1 5.6-88.2 11.3-3.6 1.1-8.6 3.2-7.3-2.7V451zm-824.4-198c-4-14-10.5-27.1-16.6-40.4 3.1-2.2 6.7-3.7 10.1-5.5 4.5 9.2 8.2 18.7 10.7 28.6 1.8-9.7 3.6-19.6 7.5-28.6 4.4-.3 14 2.3 9 8.4-5 12.6-8.6 25.6-11.8 38.8-2.9-.3-6.6.8-8.9-1.3zm28.3-3c-8.2-8.9-7.1-22.7-2.4-33.1 3.2-7.5 11-14.9 19.7-12.2 9.5 2.7 12.3 14.1 11.2 22.8-.9 9.9-5.1 22-15.7 24.9-4.4.9-9.8 1.9-12.8-2.4zm14.7-10.5c4.6-5.5 6.1-14.4 2.4-20.7-5-6.6-12.1 1.5-12.4 7.3-2 5.9.2 16.2 8.2 14.7l1-.5zm24 8.6c-8.6-8.4-7.5-22.5-3-32.7 2.9-7.9 10.9-15.1 19.8-12.8 9.9 2.8 12.6 14.9 11.4 23.8-1.3 9.6-5.3 20.9-15.4 24.1-4.3 1.2-9.5 1.1-12.8-2.5zm14.9-11.3c4.9-5.8 6.6-15.8.6-21.4-6.9-4-11.7 5.7-11.8 11.5-1.4 5.8 3.8 16.1 10.4 10.6zm34.2 8.5c-2.6-2.3-5.5-7.5-7.2-9.2l-1 11.6-8.2.6c-.6-14.3-1.3-28.6-2.5-42.8 1.8-5.8 10.6-4.8 15.7-5.3 6.2-.3 13.3 2.7 14.8 9.3 2.4 8.4-2.4 16.7-8.6 22-3.1 1.8 1.4 2.7 2.6 4 4.7 2 7.3 5.8 2.4 9.4-3.1 4.7-4.5 5.1-8.1.3zm-3.7-21.1c6-1.7 9.2-14.1.5-13.9-7.6-1.1-5.8 9.7-4 14 .9 1.2 2.4-.3 3.5-.2zm44.2 20.7c-5.8-2.7-.7-11.5-1.8-16.9.7-8.9-.1-18 1.6-26.8 1.4-3.1 7.7-4.4 9.9-3.3a568.49 568.49 0 0 1 6.9 25.6c3-4.5 3-12.7 4.9-18.4 0-6.5 3.8-10.1 10.1-7.2 4.8 3.9 2.3 13.2 4.1 19.1.7 8.1 2.8 16.2 2.7 24.4-2.9 3.5-9.4 5.5-8.5-1.1-1.4-7.9-1.2-16-3.2-23.7-2.1 5.7-2.7 12.5-4.1 18.7.4 5.7-3.4 12.4-9.5 8.2l-5.7-24.5-1.6 26.3c-1 2.2-4.1.2-5.7 0zm44.4-1c-1.3-15.1-1.3-30.4-2.9-45.5l9.8-3.3c.9 15.9 1.2 31.9 3.8 47.7-2.3 1-9.8 5.2-10.7 1.1zm18.5-2.4c-3.2-3.5-9.2-11.9-1.8-14 3.3-2.4 6.4-2 6.2 2.6 5.1 9 9.1-4.6 7.9-9.5a141.6 141.6 0 0 0-2.1-23.2c2.9-4.1 11.4-5.7 10.2 1.9 1.5 11.9 3.5 24.6-.9 36.2-2.4 6.8-11.2 10.6-17.6 7.5l-.9-.7z" fill="#00afee"/><path d="M2126.6 656.7l28.6-167.4c2.7-5 11.3-3.7 16.5-5.8 6.9-1.4 13.8-3.2 20.7-4 1.2 24.3.7 48.8 2.2 73.1 1 6.8.7 13.9 3 20.4 2.1-5.8 2.4-12.3 3.7-18.4 3.9-22.5 7.1-45.2 11.8-67.6 11.4-3.3 23.2-5.3 34.9-7.2 4.7 1.1-1.2 10.1-.8 13.9-11.1 46.8-20.7 94-26.2 141.8-1.4 6.3-10.6 5.2-15.6 7.7-6.4 1.7-12.7 3.8-19.2 4.7-6.4-14.7-10.3-30.5-16.3-45.3-4.1-1.9-2.9 9.6-4.2 13.1-1.5 10.6-2.6 21.3-4.5 31.7-5.4 3.9-12.4 4.8-18.6 7.2-5.3 1.4-10.8 3.8-16 4.5-.3-.8-.1-1.7.1-2.5zm-88.2-3.7c-14.5-3.2-23.3-17.4-26.7-30.9-7.1-28.3-1.1-58.1 9.7-84.7 9.6-22.7 23.2-44.8 43.6-59.3 12.1-8.6 29.1-12.4 42.9-5.7 12.4 7.7 18.8 22.2 21.5 36.1 3 22.6.5 45.8-7.4 67.2-9.2 26.4-24.6 51.3-46.7 68.7-10.6 7.2-24 11.3-36.8 8.5zm32.4-39.5c10.9-4.7 17.5-15.6 22-26.1 5.8-15 6.7-31.7 4.5-47.5-.8-6.2-4.7-13.4-11.7-13.4-10.3-.3-17.2 9.1-22.4 16.6-11.1 17-20.2 37.1-17.4 57.9 1.7 10.1 13.1 16.9 22.8 13.4l2.4-.9zm-277.7 29.8c15.9-43.5 29.9-87.7 42.5-132.3l6.7-25.3 64.4-11.3c4.9.3-.2 9.2.5 13-2.8 21.5-5.2 43.2-6.5 64.9-1.4 17.9-1 35.9-1.6 53.8-.3 10.8-.2 21.7-1.3 32.5a709.54 709.54 0 0 1-45.3 10.8c.3-9.2 2.3-18.2 2.2-27.4-4.6-.2-9.1 1.2-13.7 1.9l-4.7 20.2-46.4 7.6 3.1-8.3zm62-52.4c7.3-1.7 3.8-12.3 5.9-17.9l6.6-62.2c-2.7 8.4-4 17.4-6.3 26l-12.3 53.8c1.1 1.8 4.4.2 6.2.2zm65.9 58.2l4.5-39.9c1.1-15 1.3-30.2 2.3-45.2.6-23.6-.1-47.2 1.2-70.7-.7-3.1 2.5-2.6 4.6-3.3 12.5-2.5 24.8-6.3 37.4-8.3 3.7 4-.9 12.8-.6 18.6l-14.8 117c-.2 5.4 1.7-5.7 2.4-7.6l28.3-122.7a619.79 619.79 0 0 1 38.4-7.5c-1.2 8.8-4.9 17.1-7.4 25.6-13.8 42.2-25.8 85-36.5 128.1-.3 7.6-8.2 7.5-13.9 8.7l-44.6 8.4c-.7.2-1.4-.6-1.2-1.2zm339-1.9l18.6-118.1c-3.1-3.4-11.8.8-17.1 1-8.4 3.2-4.8-10.1-6.3-14.8l-1.4-27.8c12.3-.5 24.4-2.9 36.6-4.1l56.4-7.1-1.2 42.8c-9.1 1.4-18.4 1.2-27.5 2.8-5.1 4.7-4.1 13.6-6.3 20-6.2 31.2-11.3 62.6-15 94.1.5 3-2 3.3-4.3 3.8-10.6 2.8-21 6.2-31.7 8.4-.7.2-.9-.6-.8-1zm71.5-1l27-159.6c12.2-2.9 24.6-5.2 37-7-1.7 10.6-5 20.9-7.1 31.4-5.5 25.1-10.7 50.2-14.6 75.5l20-8.7 15.7-91.2a433.4 433.4 0 0 1 37.1-7c-2.4 15.3-6.8 30.2-9.7 45.4-7.9 37.1-14.6 74.4-19.3 112-4.9 4.4-12.3 4.6-18.3 7-5.2.9-11.9 4.7-16.2 3.6.3-8.1 2.6-15.9 3.5-23.9-18.4 7.9-36.4 16.8-54.9 24.7-.8-.4-.3-1.6-.2-2.2zm107 0l27-159.6c12-2.8 24.2-5.1 36.4-7.2 1.7 4-2.4 10.5-2.6 15.4-6.8 29.8-13.8 59.6-18 89.9 3.2 1.7 10.6-3.6 15.4-5 7.6-1.8 4.8-11.7 7.1-17.4l12.7-75.9c12.3-2.5 24.6-5.5 37.1-6.9-2.2 14.8-6.4 29.1-9.3 43.8-8.3 38.1-15.1 76.5-19.7 115.3-11.4 3.3-22.6 6.9-34.1 9.7-1-6.1 1.6-12.6 2.1-18.9 2.6-8.9-7.9-.6-11.9.2l-42 18.7c-.6-.5-.1-1.6 0-2.3zm104.1-2.5l26-157.7c21.3-5.8 43.2-12.3 65.5-9.8 9 .9 19.2 6.5 20.1 16.4 2 19.4-8.5 37.6-21.1 51.4-4.8 5.6-10.8 10.3-15 16.3 7.3 17.7 15.6 35 24 52.2-1.5 5.8-7.9 9.2-11.8 13.6-7.2 6.7-14.3 13.5-21.8 19.9-8.5-20.1-15.2-40.8-23.5-61-3 11-4 22.6-5.8 33.9l-2.6 19.9-33.8 9.6c-.8-1.4-.2-3.3-.2-4.8zm59.6-98.9c6.5-5.6 13.6-12.4 14.7-21.3-1.5-7-11.3-3.4-16.2-2.4-2 .8-5.1.5-4.8 3.5l-6.1 29.1c4.4-2.6 8.4-5.7 12.4-8.9zm-1263.9 53.4c-6-10.5-10.9-21.6-17.1-32l-7.4 24.5c-6.6-.7-14.2 0-19.4-4.7-.3-6.7 3-13 4.5-19.5l12-39.4c-4.4 0-13.2.9-9.9-6.9 1.8-6.1 3.2-14.8 11.1-15.3 12-3 25-3.5 36.8.6 9.4 4.5 17.3 14.1 16 25-.8 12.8-9.7 24-21 29.5-3.2 4.2 5 10.9 6.2 16 2 5.4 7.4 11.5 4.9 17.3-4.3 3.2-11.4 8.1-16.7 4.9zm-2.5-55.6c5.1-2.9 9.9-10.3 5.4-15.7-5.4-5.3-14.2-4.8-20.8-2.6 2.8 2.1 8.1 2.3 10.9 5.7.4 1.8-1 4.3-1.3 6.4-.5 3.2-4.5 11.1 2.1 7.8 1.3-.4 2.5-.9 3.7-1.5zm-284 45.1c-6.5-10.5-11.8-21.6-17.5-32.5l-7.4 24.5c-6-.6-12.5-.2-17.9-3.3-3.3-6.1 1.7-13.3 2.6-19.7 3.8-13.6 8.5-26.9 12.3-40.5-3.7-1.1-12.9 1.1-10-6.4 2-5.3 2.4-13.3 8.8-15.1 13.3-3.6 28.2-4.9 41.1.9 8.2 4.1 14.5 12.6 13.8 22.1 1 12.1-7.3 22.8-16.8 29.3-5.2 1.4-6.2 4.7-2.7 8.7 3.6 7.9 9 15.2 10.7 23.8-1.5 6-10 8.4-15.5 9.3l-.7-.4zm-3-56.1c5.1-2.9 9.9-10.3 5.4-15.7-5.4-5.3-14.2-4.6-20.9-2.6 2.8 2.1 8.1 2.3 10.9 5.7.4 1.8-1 4.3-1.3 6.4-.5 3.2-4.5 11.1 2.1 7.8 1.3-.4 2.5-.9 3.7-1.5zm205.1 56.9c-6.9.2-14.8-1.2-17.4-8.5-3.3-7.6.4-15.5 2.5-22.9-5.5-2.8-3.7-9.5-1.8-14.2 1.2-7.6 10.9-6.8 11.3-14.6 3.3-5-1-6.4-4.6-8.2.6-6.3 2.8-12.7 5.9-18.2 6.2-2.9 13.5-1 20.2-1.2 10.2.6 20.4.9 30.5 2.2 4.2 5.8-.8 14.7-3.8 20.5-6.3 1.7-13 0-19.4-.2-3.6.3-12.6-2-12.9.3 5.3 1.7 6.7 6.2 5 11.1-.8 2.7 3.7 1 5.4 1.6 5.4.5 11.4-.4 16.3 2.2 2.1 5.4-1.8 11.7-3.8 16.7-4.1 3.9-10.5 1.7-15.6 2.2l-10.2-.2-3.1 10.7c7.8 1.3 16.1.2 23.7 2.8 3.1 5.2-1.2 12.9-4.5 17.3-6.2 2.3-13.1.4-19.6.5l-3.7-.2zm-63.9-3.8c-8.5-2-2.8-11.6-1.8-17.1 4.4-15.8 10.3-31.1 14.8-46.8-5-2.7-11.4-1.2-16.8-3.2-2.9-3.3-4.4-2.1-6.9.5-7.7.9-15.6-1-23.3-.3 5.7 2.3 11.7 6.3 7.7 13.3l-14.8 47.2c-1.4 6.8-9.8 5.2-14.9 4.6-8.4.2-8.3-7.7-5.4-13.5 5-17.3 11.3-34.3 16.4-51.6-5.2-2.5-11.7-.8-17.3-2.3-5.2-3.6-.8-11.9 1.3-16.5 3.6-5.8 11.7-2 17.3-2.8 11.9.6 24 .6 35.8 2.3 3.4 1.2 4.6 4 7.1.5 15.3-1.3 30.7 0 45.9 1.1 5.3-.6 11.2 1.9 8.1 8.1-1 4-2.5 7.9-3.7 11.8-8.5 0-17-.4-25.5.1 4.9 2.3 11.5 5.4 8.2 12.1l-14 45.5c-.8 6.9-7.4 10.4-13.8 8.2-1.5-.3-3-.7-4.5-1.3zm-108-4.8c-8.2-1.8-7.5-9.9-4.6-15.9 6.5-21 12.9-42 20.4-62.7 1.6-8.1 10.5-7.5 16.6-5.4 8 .5 8 7.7 5.1 13.4l-19.2 63.6c-.4 8.5-8.6 10.1-15.4 7.7-1-.2-2-.5-2.9-.8zm-115.2-2.3c-6.9.2-14.8-1.2-17.5-8.5-3.4-7.7.6-15.8 2.6-23.3-7.1-1.6-2.5-11.8-.9-16.4 2.9-5.2 10.6-5.4 10.6-12.9 4.8-6.9-9.4-4.5-4.4-12 2.3-5.5 2.7-15.6 10.8-14.8 15 0 30.1.9 45.1 2.5 4.2 5.8-.8 14.7-3.8 20.5-6.3 1.7-13 0-19.4-.2-3.6.3-12.6-2-12.9.3 5.3 1.7 6.7 6.2 5 11.1-.8 2.7 3.7 1 5.4 1.6 5.4.5 11.4-.4 16.3 2.2 2.1 5.4-1.8 11.7-3.8 16.7-4.1 3.9-10.5 1.7-15.6 2.2l-10.2-.2-3.1 10.7c7.8 1.3 16.1.2 23.7 2.8 3.1 5.2-1.2 12.9-4.5 17.3-6.2 2.3-13.1.4-19.6.5l-3.7-.2zm-57-2.1c-6.5-.8-15 1.3-19.3-5.1-6.1-7.2-2.6-16.9-.3-24.9-1.9-3.7-4.6-7.5-2.1-12.4-.4-8.7 9.3-9.3 11.5-16.2 1.9-3.5 3.6-8.4-2.2-8.2-5-3.9 1.2-11.2 2.1-16.2 1.6-7.4 10.6-3.7 16-4.6 12 .3 24.2-.1 36.1 1.9 4.3 5.6 0 15-3.7 20.5-6 1.9-12.8-.3-19-.2-4.8-.4-9.6-.3-14.4.1 2.7 1.8 8.2 2.4 7.2 6.7-3 8.8 8.4 6.5 13.6 6.9 6.8-1.1 10.6 5.2 6.7 10.7-1.6 3.1-2 8.4-4.7 10.2h-24.1c-1.5 3.5-2.6 7.1-3.4 10.8 7.7.5 15.6-.2 23 1.8 4.1 4.4-.2 12.5-3 16.9-5.7 3.5-13.6 1-20 1.5zm-55.1-3.1c-7.3-.7-12.1-6.6-11.5-13.8-1.9-12-2.6-24.3-5.5-36.1-3.4 15.4-6.8 30.8-12 45.7-4 5.6-13.1 2.5-18-.6-3.9-6.5 1.7-14.2 2.5-20.9 6.1-20.5 12.1-41 19.6-61 4.3-4.1 11.5.4 16.2 2.3 6.3 2.4 7.2 9.5 8.8 15.2 2.1 6.3 1.8 13.1 3.1 19.5 2.5-4 3-10.5 4.7-15.4 2.1-6.9 3.5-14.4 7.5-20.5 5.9-1.7 14 1.2 17.6 6.3-.1 5.8-2.6 11.5-3.9 17.2-4.6 17.2-10.4 34-15.6 51-1.5 5.4-.8 14-9.1 12.2-1.5-.2-3.1-.5-4.6-.9z" fill="#ea018a"/><path d="M2138.7 880.9l28.7-168.8c4.9-4.3 12.5-3.8 18.6-5.8l18.6-3.7c1.4 15.4.4 31.1 1.2 46.6.7 15.1.9 30.4 3.6 45.3 2.3 1.8 2.1-7.6 3.1-10 4.5-24.4 7.6-49.1 13-73.4 4.3-3.7 11.6-3.3 17.1-5 6.5-1.1 12.9-2.8 19.5-3.1-2.3 15.8-7 31.2-10.1 46.9-7.6 34.8-13.7 69.9-18.2 105.2 1.3 8.3-7.2 8.7-13.1 10.6-7.4 2-14.7 4.4-22.2 5.6-6.8-16.1-11.3-33.1-17.7-49.4-2.8 16.6-5.2 33.4-7 50.1l-34.8 10.6c-.8-.1-.4-1.5-.4-1.8zm-115.2-14.5c15.8-43.1 29.5-87 42.1-131.2l7.2-26.4 66.3-11.7c-2.1 20.1-5.2 40.1-6.6 60.2-3 34.6-3.3 69.4-3.2 104.2-15.4 4.1-30.9 7.9-46.5 10.9.1-9.2 2.3-18.2 2.2-27.4-6.1 0-15.4 1.2-15.3 9.1-1.9 5.4-.6 14.7-8.7 13.9-13.2 2.4-26.4 4.9-39.7 6.6-.1-2.8 1.4-5.6 2.2-8.3zm65.5-53.1l9.1-79.3-18.5 78.5c-1.2 4.5 7.4.4 9.5.8zm-136.3 55.6c7.4-49.5 5.2-99.6 7.4-149.3.7-1.9-.9-5.6 1.8-5.7 13.7-3.1 27.4-6.6 41.2-9.2 1.9 4.6-1.2 11.4-1.2 16.9l-14.4 116.1c7.9-30.2 14.3-60.9 21.4-91.3l8.4-35.6c12.3-3.4 24.9-5.7 37.4-7.9 2.7 3.9-2.8 12.5-3.7 17.9-14.8 44.4-27.4 89.4-38.7 134.7-.1 7.9-7.6 8.6-13.6 9.5l-46.1 8.7c-.5-1.5 0-3.2.1-4.8zm363.3-1.3c-5.8-1.4-11.6-2.5-17.3-4.2 5.4-13.4 11.6-26.4 18-39.3 5.9-1.8 13.2 1.5 19.6 1.7 8.3 3.1 6.8-7.2 8.3-12.5l17.7-102.9c11.3-3.5 23-5.7 34.7-7.7 4.9 1.6-1.2 10.4-.8 14.7-10.1 44.3-19.2 88.8-24.8 133.9-.4 6.1-1.2 12.8-8.8 12.8-9.2 2.7-18.4 5.6-27.9 7.4-6.3-1-12.6-2.5-18.9-3.9zm73.3 3.3l26.2-163.7c23.8-4 47.6-7.3 71.6-10.3 2.4 3.8.1 11.7.4 17.1-.5 7.7-.7 15.5-1.7 23.2-4.4 4.7-13.1 2.2-19.1 4l-20.3 2.6c-2.2 8-4.2 16.2-4.6 24.5 11-1.3 21.8-4.2 32.7-6.5 2.4 4.6.1 11.3.4 16.7l-.8 14.8c-12.9 2.7-25.9 4.8-38.7 8.2-2 5.6-3.4 11.7-3.7 17.6 13.4-1.7 26.7-4.4 40.2-5.4 0 13.5-1.1 27-2.5 40.4-2.4 4.9-10.6 1.7-15.3 3.8-21.6 3.3-42.9 8.7-64.2 13.5-.5.3-.7-.3-.6-.6zM1462 646.4l26.5-158.9c4.9-2.5 11.4-2.6 17-4.1 7.6-1.2 15.2-3.3 22.9-3.6.1 5.9-2.9 12-3.8 18-4.5 19.9-9.2 39.8-12.8 59.9 2.5 1.6 8-.9 11.7-1.3 1.8-.9 5.5.1 5.8-2.3l11.4-67.2c12.8-2.9 25.8-5.3 38.7-7.3 2.4 5.4-2.7 13.8-3.2 20.3-10.4 45.9-19.8 92.2-24.4 139-12.4 3.1-24.7 7.1-37.3 9.3 2-20.2 6.1-40.1 8.8-60.2-5.1-1.1-10.8 1.7-16 2.5-4.2 3.1-2.3 11.4-3.9 16.6-1.6 10.4-2.1 21-3.9 31.3-12.1 4.1-24.5 7.5-36.9 10.3-.9-.3-.5-1.6-.5-2.3zm106.3 1.5l26.2-163.7c23.8-4 47.6-7.3 71.6-10.3 2.4 3.8.1 11.7.4 17.1-.5 7.7-.7 15.5-1.7 23.2-4.4 4.7-13.1 2.2-19.1 4l-20.3 2.6c-2.2 8-4.2 16.2-4.6 24.5 11-1.3 21.8-4.2 32.7-6.5 2.4 4.6.1 11.3.4 16.7l-.8 14.8c-12.9 2.7-25.9 4.8-38.7 8.2-2 5.6-3.4 11.7-3.7 17.6 13.4-1.7 26.7-4.4 40.2-5.4 0 13.5-1.1 27-2.5 40.4-2.4 4.9-10.6 1.7-15.3 3.8-21.6 3.3-42.9 8.7-64.2 13.5-.5.3-.7-.3-.6-.6zm114-.5l18.6-118.1c-3.5-3.3-12.5 1.2-18.2 1.4-7.7 2.8-3.5-9.4-5.1-14-.5-9.5-1.2-18.9-1.2-28.4 30.9-4.5 62-7.4 92.9-11.8l-1.5 43c-9.5 1.4-19.3 1.2-28.7 3.1-3.8 11.4-5.4 23.5-7.8 35.3-4.8 25.3-8.6 50.8-11.8 76.3.5 7.6-9.4 6-14.4 8.5-7.3 2-14.6 4.2-22.1 5.9l-.4-.4z" fill="#110f0f"/><path d="M2248.4 395.6c-12-4.6-21.9-14.1-27.4-25.7-.7-1.4-1.6-2.8-2.1-4.3l-.4-117.9c.2-9.6-.1-19.3 1.2-28.9 1.4-8.6 6.6-16 12.8-22 3.5-3.5 7.5-6.5 12-8.4 1.3-.5 2.5-1.6 4-1.3l128.7.1c7.8.2 15.7-.1 23.5.9 5.2 1.1 9.6 4.4 13.6 7.9 6.1 5.5 10.6 12.6 13.1 20.4.5 1.6 1.5 3.2 1.2 5l-.5 145.4c-2.5 4.7-4.9 9.6-8.6 13.6-4.8 5.7-10.6 10.6-17.2 14.1-1.1.5-2 1.5-3.3 1.2l-135.6.1c-4.9-.1-9.8 0-14.8-.3z" fill="#ec84b2"/><path d="M2561.1 400.4c-8.9-2-16.3-8.4-21.8-15.4-3.3-4.2-5.5-9.2-7.9-14V221.7c2.8-5.5 5.3-11.2 9.5-15.8 4.5-5.3 10.1-9.6 16.4-12.4 1.1-.5 2.2-1.3 3.4-1.5h149.7c4.7 2.3 9.5 4.5 13.4 8.1 5.8 4.9 10.4 11.1 13.6 18 .6 1.4 1.5 2.7 2 4.1l.4 119.9c-.1 9.5.1 19.1-1.2 28.5-.5 4.3-2.6 8.1-5.1 11.5-4.9 7.4-11.7 13.6-19.8 17.3-1.2.5-2.4 1.4-3.6 1.7l-118.5.1c-10.1-.1-20.1-.1-30.2-.6z" fill="#f5d43f"/><path d="M1931.2 400c-6.6-1.9-12-6.7-16.6-11.6-3.9-4-6.9-8.8-9.1-13.9-.5-1.4-1.7-2.7-1.4-4.2l.2-150.2c2.9-5.5 5.6-11.2 9.9-15.8 4.1-4.6 9.1-8.4 14.8-10.7 1.3-.5 2.5-1.3 3.8-1.6l123.5.1c10.2.2 20.5 0 30.7 1.4 4.2.6 8.3 2.4 11.1 5.6 5.2 5 10.4 10.3 13.3 17.1.5 1.2 1.3 2.3 1.6 3.6v152.7c-2.4 5-4.7 10.1-8.6 14.2-4.5 5.2-10.1 9.2-16.4 11.9-1.5.6-2.8 1.5-4.3 1.9l-119.5.1c-10.9-.1-21.9 0-32.8-.6h-.3zm953.6-1c-9-2-16.3-8.3-21.7-15.5-4.5-6.2-7.9-13.5-8-21.2-.7-15.8-.4-31.6-.5-47.5l.4-80.3c.2-5.5.1-11.3 2.4-16.4 4.1-9.9 11.6-18.6 21.2-23.4 2.6-1.4 5.5-2 8.5-2 22.6-.7 45.3-.5 67.9-.6l77.6.1c4.1 1.8 8.3 3.4 11.7 6.4 5.4 4.4 10.6 9.4 13.9 15.6 2.8 5 3.5 10.8 3.8 16.4.7 17.6.4 35.3.4 52.9l-.4 86.2c-2.8 5.8-5.5 11.9-10 16.7-5.6 6.2-12.9 11.3-21.2 12.8-9.3 1-18.6.8-27.9.9-36.3.1-72.7.1-109-.5-3.1-.1-6.1-.1-9.2-.4z" fill="#e66a45"/><path d="M1612.9 396.6c-8.1-1.6-14.5-7.3-19.8-13.3-5.3-6.4-9.2-14.2-10.1-22.6-.6-17.2-.4-34.5-.5-51.7l.9-84.8c0-3.2.4-6.5 1.8-9.4 4.3-9.9 11.7-18.5 20.9-24.1 1.3-.8 2.4-1.7 3.7-2.3h156.9c6.1 4.2 12.6 8.2 17.1 14.3 3.6 4.6 5.8 10.1 8.4 15.3v149.8c-2.7 5.4-5.4 11-9.5 15.6-4.6 5.3-10 10.3-16.9 12.5-7.7.7-15.4.6-23.1.8l-117 .4c-4.3-.1-8.5-.1-12.8-.5z" fill="#68b66d"/><path stroke-width="2" stroke="#fff" d="M1959.1 388.1l-11.9-.3c.6-3.1 1-6.2.5-9.3-.7-5.2-2.2-10.2-2.6-15.5-.1-3.5-.9-6.9-2.6-10-1.3-4.1-1.3-8.8.3-12.9 1.4-2 1.4-4.5 2.1-6.7 1.5-1.1 3.8-1.3 5.1-2.9.4-.6 2.2-1.2 1.5-1.7-2.1-1.3-4.3-3.3-7-2.6-2.1-.5-4-2.1-6.4-1.6-2.6.5-4.7-1.1-6.1-3.1-1.5-1.5-4.2-1.1-4.1-4.1-.4-2.6-3.3-3.8-2.7-6.7 0-4.7.1-9.4 1-13.9.5-2.7 4.3-2 4.7-5 1-3.2 4.8-1.6 6.7-3.8 1.5-.9 3.3-3.4 4.5-3.4.5 2.5 4.9 1.2 7 1.6 2.1 1.2 2.2 4.6 4.6 6 1.9 1.7 4 3.8 6.7 3.8 1.6 1.7-.5 4.7.8 6.9.9 2.4 2.3 4.9 1.9 7.6-.1 2.8-1.7 5.2-3.2 7.5-1.7 2.8-.1 6.6 3.3 7 2.4 1.4 3.5 4.3 6.6 4.4 3.8 2.7 5.5 7.3 7.4 11.4.8 2.3 2.8 4.2 5 2.2 2.5-1.4 5.2-2.8 7.1-4.9.4-2.1-5.8-1.9-3-3.8 2.5-.5 5.1 1.7 7.4 1 2.8-3.4 4.2-7.7 6.6-11.4 1.3.3 2.2 3.4 3 4.6-1.5 3.2-3.2 6.6-3.4 10.3 1.8 2.3 5.3 1.5 7.2 3.6.1 1.6-3.1-.6-4.2-.6-1.6-.8-4.3-.9-3.1 1.6.8 2.2.2 4.8-1.8 6.1-1.9 1.8-5.3.5-6.1 3.7-.5 2.5-4.1 3.7-3.7.1 0-1.8.2-3.5.3-5.3-2 1.2-4.3 1.9-6 3.6-1.4 2.7.4 5.6.8 8.4 2 9.7 3.6 19.4 5.1 29.1l-29.3-.7zm300.5-8c-1.7-6.8-3.8-13.6-4.6-20.6-.5-2.6.7-5 2-7.1 1-2.4.9-5.7 4.2-6 3.5-.3 4.3-4.5 1.1-6.1-2-1.6-4.6-1.5-7-1.3-3.4.3-7.2-.4-9.6-2.9-2-1.8-4.1-3.9-4.5-6.6-1.6-2-3.7-3.7-4.1-6.4-.9-2.8.1-5.6 1.9-7.7 2-2.1.3-5 1.6-7.4 1.4-1.7 1.9-3.9.3-5.7 1.5-1.5 4.8-.7 5.7-3.2 1.1-3.4 1.4-7.6 4.8-9.7 3.8-2.3 8.6-2.5 12.3-5.2 6.1-4.1 9.5-10.8 14.3-16.2 2-2.8 5.1-4.6 6.6-7.7.9-2.6-3.4-4.5-.5-7 1.9-2.9 3.9-5.7 6.4-8.1 3.8-4.8 8-9.5 10.6-15.2 1-2.3 1.3-5.1-.2-7.3-.4-2.7 1.9-4.8 2-7.3-1.2-1-2.8 1-4.1 1.6-.9.7-1.7 1.2-.9-.2 1.8-5.2 5.9-9.3 10.1-12.7 2.7-2.3 6.1-4.1 9.8-3.9 2.7.1 5.3 1.2 8 .8 3.2.1 5.2 3.2 7.1 5.4 2.1 2.9 1 6.7 1 10-.4 3.7-.4 7.6-2.2 10.9-.9 2.9 3.3 3.3 5.1 4.4 6.3 3.6 11.4 9.1 15.8 14.8 2 2.8 4.1 5.8 4.3 9.4 1.3 4.9 4.8 8.7 7.2 13 2.6 3.9 4.5 8.4 8.1 11.6 3.8 2.8 8.5 3.9 12.3 6.8 2.2 1.3 3.3 3.8 5.7 4.9 2.6 1.2 5.4 2.2 7.6 4.2 5.4 4.4 9.1 10.5 11.1 17.1-.3 2-3.3 2.8-2.4 5.4.3 6 1.1 12.1-.1 18.1-1 5-2.5 9.9-4.6 14.5-1.9 3.2-2.2-4.9-4.8-1.3-2 2.7-3.1 6.2-5.8 8.5-2.7 2.2-2.4-3.6-3-5.2-.6-1.3.6-6.2-1.6-3.4-1.9 3.5-3 7.5-5.6 10.6-.8 1.5-3.5 3.7-3.3.5-.7-4.5.2-9.2-1-13.7-1.8-1.2-1.9 3.6-2.4 4.9-1.5 8-2.2 16.3-5.9 23.6l-4 8c-12.4.1-24.8-.7-37.2-1.3.6-4.3 1-9 4-12.5 1.4-1.3 1.7-3.8-.9-3.2-5.1.3-9.9 2.4-15 2.8-6.5 1-13.2.5-19.7 1.3.3 3.5 2.7 6.5 3.3 9.9-.6 2.8-4.5 1.8-6.7 2.3-10.5.8-21.1.7-31.7.7l-1-3.8zm64.9-34c2.6-4.9 3.4-10.5 3.7-16 .3-3.1-.3-6.4 1.4-9.1 1.1-2.6 3.4-4.7 4.1-7.5-1.6-1.8-4.7-.8-6.9-.6-3.5 1.5-3.6-2.7-4-5s-1.9-5.5-4.8-4.6c-4.5 1.6-7.8 5.5-11.2 8.7-1.7 1.6-4.4 5-6.5 2-1.8-2.3-3.4-.1-2.1 1.9 2.7 6.6.8 13.8 1.8 20.6.6 4.2 1.6 8.7 4.4 12.1 3.7 2.6 8.3 3 12.5 3.8 2.7.8 5.2-.9 6.1-3.4.5-1 1-2 1.4-3zm20.4 1.7c2.6-1.1 4.9-2.7 6.6-5 3-2.5 6.3-4.7 10.1-5.9 2.5-.3 3.2-3.5 3.7-5.5 1.1-4.5-1.8-8.6-4.8-11.7-2.2-1.9.3-3.3 1.6-4.6.5-1.7.2-4.9 2.9-3.2 1.9 1.4 6.9.9 4.3-2.2-1.8-1.5-4.3-4.7-.8-5.9 1.9-1.9-1.2-4.4-.7-6.5 2.4-.8 5.4 1.4 7.6-.1 0-3.2-2.5-5.9-4.8-7.8-2.6-2.9-3.7-6.8-6.2-9.8-3.4-4.6-7.6-8.5-10.7-13.4-1.5-2.1-2.4-5-4.9-6.1-2.9 0-4.5-2.8-6.2-4.8-.1 4.7.3 9.4-.7 13.9-2.5 1.4-.8 4.6.2 6.7 1.4 1.6 1.3 3.8-1.2 3.8-2.6 1.6-.2 5.1.5 7.2 1.9 3.3 3.7 6.8 4.8 10.5 1.1 3.5 2.3 7.1 2.8 10.7-.3 2.4-3.4 3.3-3.8 5.9-2.9 8.5-7.2 16.4-10.7 24.6-1 2.3-1.7 5.3.2 7.5 1.4 2.3 3.9 4.6 6.7 3 1.2-.4 2.3-.9 3.4-1.4zm-52-2.4c2.6-3.5 1.1-7.9.1-11.7-1.8-6.6-4.7-13-5.9-19.8-.7-2.6 1.9-5.5.1-7.8-1.2-1.2-2.6-2.1-3.8-3.1 2.7-4.7 5.9-9.1 9.7-13 3.1-3.7 6.5-7.5 7.9-12.2-.1-2.5-1.2-4.9-.8-7.5 0-3.7.8-7.5 0-11.1-2.3.7-4 3.6-5.7 5.4-1.3 1.6-3 3.6-5.1 2.4-3.7 1.8-6.6 4.9-9.6 7.6-6 5.9-11.9 11.9-16.7 18.7-1.5 1.5-2 4.3 1 3.8 3.7.8 5.9 5 9.9 4.8 2.5-1.1 5.1.9 3 3.4-3.2 2 1.5 4.6 0 6.8-1.3.8-5 3.5-1.7 3.9 2.4-.2 5.7-.8 6.4 2.4 1.5 2.8.6 6.1-1.1 8.5-2.4 4.2-6.5 7.7-6.9 12.8-.2 3 3.2 3.1 5.2 3.8 1.1 2 3.2 3.3 5.6 3.8 2.6.6 6 1.5 7.9-.8a6.8 6.8 0 0 0 .6-.8zm-38.6-51.2c1-1.2 3.7-5.1.3-4.1-2.3 1.3-4.5 3.4-5 6 .2 3.9 4-.7 4.8-1.9zm4.3.1c.6-1.2 1.6-4.6-.6-2.3-1.5.9-4.7 4.8-1.1 4.7.9-.5 1.3-1.5 1.7-2.4zm124.2-.5c2-.2 5.7-3.2 2.5-4.4-2.8-.7-5.9-1.5-8.8-.6-2 1.5.4 5.6 2.5 5.8 1.3-.1 2.5-.6 3.7-.9zm182.5 88.3c3.8-7.4 8.5-14.3 12.4-21.7 5-9.6 10.6-18.9 16.4-28.1 1.8-2.7 3.3-5.6 4.8-8.4 6-9.6 12-19.1 17.4-29.1 3.2-6 7-11.6 10-17.7 1.4-1.8 1.4-6.3-1.8-4.1-7.2 3.9-12.7 10.1-18.9 15.2-5.3 4.6-10.7 9-15.7 13.9 0 1.6 1.7 3.1 2.7 4.6l1.6 2.2c-2 1.5-4.3 3.1-4.8 5.8-1 2.5-5.4 1.5-4.9 5-1.1 2.2-4 2.8-5.5 4.7-2.5.1-4.6-2.4-7-2.5-3.8 5-6.9 10.5-10 15.9-2.4 4-2.7 8.9-2.7 13.4-.1 1.4 0 6.2-2.2 3.7-1.4-3.3-.4-7 .2-10.4 1.5-6.1 3.8-12.1 8.1-16.7 1.9-2.7 4.1-5.5 5-8.8-1.2-2.2-4.3-2.3-6.6-2.6-2.5-.2-6 .6-6.3 3.7-.7 2.6-4.1 1.8-5.9 3.4l-4.4 2.5 1.2-19.8c2.4-1 5-1.9 7.6-2.2 2.4 2 5.4.6 8-.5 5.6-2.2 11.1-4.6 16.7-7 2.2.9 4.2 2.3 6.5 2.9 2.6-.6 4.2-3 6.2-4.6 10.6-8.9 21.7-17 32.1-26.2 1.3-.8 3.1-3.1.2-2.8-8.6-.1-17.2 1.5-25.7 2.8-2.7.7-6 .5-8.2 1.8-1.1 2.8-2.1 6.1-5.1 7.6-5.8 3.3-12.9 3.2-19 5.8-2.1 1.1-.1 4.4-3 5.3-5.2 3.2-10.2 6.4-15.1 10-1 1.1-1.1.4-1.1-.8-.4-5.7-.9-11.5 0-17.2.8-2.9 4.1-3.6 6.4-4.9 2.2-.6 5.2-3.4 7.3-1.9 1 2.5 5.2 1.3 5.6-1.1.9-3.1.1-6.7 2.2-9.5 1.5-2.2-.5-4.7-1.3-6.8-2.8-6.3-3.4-13.3-3.1-20 .3-1.9.3-6 2.6-6 1.3 7.4-.2 15 1.5 22.4.7 2.3 1.7 4.8 3.7 6.1 2.6.2 2.3-3.6 3.6-5.1.2 1.9 1.5 6 3.2 5.9-.3-1.6.4-3.3 1.8-1.4 1.1 1 3.9 4.2 3.6.8.6-1.4-.2-4.5 1.1-5.1 2.2 2.4 3.7 5.4 4.5 8.5-.6 3.5 2.9 3.1 5.3 2.7 9.4-1.1 18.9-2.2 28.2-4.1 3.2-.1 2.5-3.2 3.9-5 1.3-2.1-2.8-5.4 1.2-6.1 3.7-.5 1.9-4.1.3-5.8-5.4-7.1-9.3-15.1-13.5-22.9 2.8-1.5 5.4-3.3 8.4-4.2 2.4 2.3 4 5.3 5.9 8 1.8 2.7 3.4 5.7 5.8 8 .8-2.4.6-5 .7-7.5v-12.5h12.3c-.3 6.7-1 13.4-.6 20.2.6 2 2.4-1.9 3.2-2.7 3.4-4.7 6.3-9.9 10.3-14.2 2.2-1.8 4.8.6 7 1.3 3.5.9-.5 4-1.1 5.9-5 7.7-10.4 15.1-14.4 23.3-1.5 2.7 4.3 3.8 1.1 6.3.6 2.2 2.2 4.4-.5 5.9 1.9 2.1.7 5 1.5 7.3 1.9 1.7-.3 4.5 1 6.6 1.6 3.5 3.7 6.8 5.5 10.3l29.1 54.6c3.5 6.2 6.7 12.6 10.1 18.8 4.6 8.5 9.5 16.9 13.7 25.6-3 .7-6.1.2-9.1.3-1.1.3-1.2-1.2-1.8-1.8-3.9-6.9-8.1-13.6-12.4-20.2-1.6-2.4-2.4-5.2-4.1-7.5-5.6-8.8-10.2-18.2-15-27.4l-21.8-42.1c-1-1.4-3-6.2-4.7-3.5-1 5.3-.8 10.7-1.1 16.1l-2.3 86.9h-12.9c1.1-26.1 2.8-52.3 4.6-78.4.3-6.8.9-13.6.3-20.4-.6-3-2.7 1.8-3.4 2.8l-15.8 28.8c-10.7 20.4-22.7 40-34.2 60-1.6 2.7-2.9 6.5-6.5 7-3.2.3-6.4.4-9.6-.1-.8-.1-.8-.9-.5-1.5zm-901.9-1.7c-3.5-2.2-7.6-3.9-11.8-3.9-3.3.6-5.5 3.6-8.8 4.4-3.5-.4-1-4.7.4-6.2 1.9-2.5-2.9-4.3-1.1-7.2.5-2.4-.6-4.6-1.5-6.8-1.2-2.5-.6-5.8-2.4-7.9-2.4 0-4.8 1.1-7.2 1.6-5.4 1.4-11.6 3-17 .6-4.2-2-5.9-6.6-6.9-10.8-1.1-4.3-2.3-8.7-2.5-13.2.8-5.1 3.7-9.6 5.3-14.4.5-2.5-2.9-4.9-5.1-3.9-1.9 2.1.5 6.1-2.6 7.8-1.2-1.7-2.1-5-.5-6.9 2.2-1.6 4.4-3.8 3.5-6.8-.3-3-1.2-6.5 1.2-8.8 2.6-3.5 7.5-3.9 11.3-2.5 3.5.8.8-4.8 3.6-5.9 1.2-3.1-2.3-4.7-3.7-6.8-2.3-4 .1-8.9 3-12l2.7-3.2c2.8 1.4 6.1 2.2 8.2 4.6.6 2.5 3.9 3.2 4.1 6 .7 2.3 1.2 5.1-.7 6.9-1.1 3.1 3.5 3.3 4.6 5.5 2.5 3.3 3.3 7.9 6.9 10.3 3 1.8 3.8-2.4 2.2-4.2-.5-3.3.7-6.5.4-9.8.2-3.2-1.5-7 .8-9.8 2.4-1.8 2.9-5.2.8-7.4-1.5-1.7-3.4-3.7-2.8-6.2.7-2.5.5-5.4 1.8-7.6 2.3-1.3 5.2-1.3 7.7-1.2 3.3.1 5.5 3.2 5.9 6.3.7 3 .2 6.1.9 9 1.5 1.3 5.2 1.4 6.3-.2-1.2-6.5-.6-13.3-1.3-19.9-.2-2.9-3.2-4-5.6-4.4-6.2-1.2-12.5-2.5-18.1-5.4-1.5-2-3.9-3-6.1-4-1.9-1-4.8-1.6-6.1-3.1 1.4.2 5.9.3 3.6-2-.9-1.2-5.2-1.9-4.5-3 2.6.5 4.6 2.5 7.2 2.7 1.8 0-.6-4.1 1.4-1.4.9 1.8 4.3 4 3 .6 2.3.4 2.2 3.9 4 5.2 2.2-.7 4.8-.1 7 .7 6.1 1.8 12.5 3.2 18.8 2.6 1.5-.2 2.7-1.1 4-1.7-2.1-1.9-4.9-3.4-6.2-6.1-1.1-3.6-1.1-7.5-1.4-11.3-.3-3.5 2.7-6.2 5.5-7.9 2.3-.8 5.2-1 7.3.1.3 2.6 3.6 2.5 3.8 5.3.9 3.9 2.2 8.1 1.1 12.1-.8 2.9-4 4.8-3.9 8 .9 1.8 3.6-.7 4.6 1.5 3.3 1 6.7-.1 10-.8 5.4-1.3 10.5-3.5 16-4.2 2.9 1.2 2.8-4.4 4.9-3.5 2.1 1.3 4.7-1.4 7.3-1 1-.2 5.1-1.5 2.3-.1-1.9.4-3.8 3.1-.6 3 1.5.1 3 .1 4.5.1-4.2 1.7-8.6 3.2-12.8 5-1.9 1.6-3.1 3.9-6 3.9-6.4 1.8-12.8 3.9-19.3 5.5-3 .4-3 4.3-1.7 6.3 2.2.7 4.8.4 7.1 1.3 2.6.8 3.1 3.9 3.9 6.2 1.1 2.5 0 4.8-.9 7.1-.7 2.1-1.2 4.9 1.1 6.3 4.1 3.3 5.5 8.8 6.5 13.7.1 1.6 1 6.6 2.6 3.1 2.1-4.9 3.7-10 5.1-15.1 1.1-2.8-2.3-4.4-2.5-7.1-.5-3.8.5-7.8 2-11.3.9-2.5 3.7-3.9 6.2-3.3 3.5.5 6.9 2.6 8.1 6.1 1 2.9 2 6.1 1.6 9.2-.3 3.2-5.9.4-5.3 3.6 1.7 3.4 5.1 5.6 7.1 8.9 2.7 4 5.3 8.3 6.5 13-.2 3.3 4.2 3.9 6.4 2.4 3.2-1.3 1.6-4.2-.5-5.6-2-1.9-4.2-4.1-2.7-7-.1-2.3.4-4.6 2.7-5.5 2.8-2.5 5.1-6.3 9.1-6.9 1.4.3 1.1 2.5 3 2.3 2.2 1.7 2.8 4.7 4.2 7 .7 2.1 2.1 6.5-1 7.1-1.9 2.7 1.4 5 2.8 7 2.2 3.4 3 7.6 4.8 11.2 1.9 4.7 5.1 9 6 14.1.3 3.7-1.6 7.2-3.5 10.2-2.4 3.5-6.8 4.4-10.7 5-2.6 0-3.1 1.8-1.8 3.8 1.1 3 2.1 6.2 3.8 8.9.8 2.2 4.5.1 4.8 1.1-2.4.9.5 4.8-2.9 4.3-2.4-.1-6.2-.3-5.7 3.1-1.6 5.5-7.5 9.2-13.2 8.7-5.5-.1-10.9-1.4-16.4-1.7-1.9.6-1.4 3.8-3.8 4.4-5.3 3.3-11.7 4.4-17.8 3.9-4.3-.7-8.2-3-12.3-4.4-.4 2.6 0 6.2-3.2 7.2-3 1.1-6.2 1.7-9.3 1.7.4-.7 6.2-2 3-4-1.3-.2-2.3-.8-.3-.7 3.5.2-2.4-3.8 1.5-3.2 2.5-1.2 2.5-4.5 3-6.9 1-6.8.4-13.8 2-20.5.4-2.7 3.7-4.6 2.8-7.6-1.2-2.9-4.2-5-4.2-8.4-.4-3.8.9-7.7-.6-11.3-.9-2.2-5.8-5-5.5-.8-.1 7.2.3 14.5 1 21.7 1.7 3.2-3.5 3.8-1.8 7 .3 3.1-3.4 4.1-5.9 4-2.9.4-2.4 4.1-4 5.9-2.2 2-1 4.8.5 6.7l3 4.5c-2.8 3.8-5.8 7.4-9.6 10.2-3.2 1.7-1.1 4.9-.6 7.5.4 3.9-4.3 1.1-5.9-.1l-.3-.2zm64.4-30.3c2.4-5 3.8-10.3 4.8-15.7.2-2.7 2.2-5.6.7-8.2-2.5-2.2-6-.6-9-1-2.5-.1-3.9-2.6-6.4-3-2-.4-6-1.9-6.2 1.3-.4 2.9-1.8 6.3.5 8.8 3.7 3.9 5.7 9 8 13.8 1.1 2.6 2.3 5.3 2.5 8.2 1.6 4 3.7-1.3 4.5-3l.6-1.1zm-52.2-20.2c-.2-2.9.4-6-.8-8.7-2-2.1-5.3-1.3-7.9-1.6-3 .5-1.2 4.5-2.3 6.6-.9 1.9-3.2 5.6.7 5.8 3.2 1.5 5 4.9 8.1 6.7 2.9.3 1.9-4.1 2.2-6.1v-2.7zm1209.5 35.8c1.6-5.1 4.6-9.8 5.5-15.1 0-2.4.1-5.9 3-6.5 1.9-.5 3.9.4 5 1.7 1.5-2.5 4.4-3 7.1-2.9 6.2-.9 11.6-4.5 16.8-7.7-.3-2-3.8-2.5-5.6-3.3-4.4-.9-9.1-1.3-13.1-3.5-4-2.3-7.9-4.9-11.3-8.2-2.4-1.5-.6-4.5-1.9-6.1-3-.4-5.6 1.6-8.2 2.8-3.2 1.8-6.1 4.1-8.4 7-.8 1.4-.4-.8-.5-1.4-.1-3.9 2.5-7.1 4.2-10.4 2.4-4 4.4-8.4 7.8-11.6 3.1-1.6 5.5 3.2 5.1 5.8.1 3.1 4.6.7 6.4 2.3 4.3 1.7 8.2 4.5 12.4 6.4 4.9 1.4 10 .9 15 1.1h13.2c-.1-1.5-1.2-3.3-.1-4.7 3.4-2.5 7.8-3 11.3-5.3 3.5-2 4.8-6.1 7.8-8.6 1.5-1.8 5.1-3 4.5-5.8-1.5-1.3-3.8-1.8-4.1-4-1.4-1-6.4-.1-2.8-2.3-.9-1.5-6.8 1-4.6-1.8 2-2.2 4.8-3.7 7.8-3.7 1.5-.4 5.6-1.7 4.2-3.5-3.2-1.8 1.2-2.3 2.5-2.9-1-3.2 3.4-2.2 5.3-2.4 4.6 0 9.7-.1 13.4 3.2 1.7 2 4.6 4.2 5.5.3 1.3-2.1 1.6-4.8 3.4-6.6 3.3 0 3.6-4 4.3-6.4 1.2-1.2 3.6-.7 3.5-3.1.8-3.2 1.2-6.5 1.8-9.8-1.7-1.7-3.7-3.1-5.1-5 2.6.3 3.8 3.9 6.7 3 2.5-.5 6-.8 7.2 2 0 2.8 2.3 4.7 4.6 5.9 1.1.5 4.1 3.2 1.1 1.7-1.7-.9-3.4-2-5.1-2.9-2.6 2.6-5.6 4.9-7.8 7.9-1.6 1.8 3 3.2-.2 4.3-1.7 1.6-1.6 4.4-3.7 5.8-2.2 1.8-2.4 4.8-3.6 7.2-2.9 6-6 12-10 17.3-2.3 3-5.1 5.5-8.2 7.7-4.5 4.2-6.4 10.3-9.3 15.5-3.6 7.1-9.6 12.5-15.4 17.8-2.4 2.1-5.3 4-8.7 3.7-1.9.2-3.2-2.4-4.9-.3-7 5.1-12.5 12.1-20.3 15.9-4.8 2.5-10 3.8-15.4 4.1l-3.7.3c-.1-1.7.4-3.7-.8-5.1-2.5-.4-4.9 2.6-5.3 4.9-1.8 3-4.4 5.5-7.3 7.6-1.5 1.1-1.5-1.1-1.1-2zm121.1-111.3c1.1-2.9-2.9-4.6-3.7-1.2-2 3 2.8 3.7 3.7 1.2zm-951.3 90.9c-3-2.7-3.2-7.1-5.3-10.4-2.1-1.3-5 .6-7.3 1-7.1 2.2-14.7 3.2-22.1 2.9-5.1-.2-10.3-2.2-13.6-6.2l-2-2.1 6.9-14.4c1.2-2.9 4.6-2.9 7.1-2l14.9 4.3c0 3-.4 6.1-.1 9.1 1.3 2.9 5.4 1.1 4.9-1.8.2-3.6 5.1-2 6.4 0 2.6 1.5 4.6-1.4 6.8-2.2 2.2-1 5.3.4 7-1.6.8-1.9 2.9-5.5.2-6.7-1.6 0-4.2-.2-2.6-2.4 1-2.4 2.6-5 5.4-5.7 2.8-.9 3.1-3.9 1.5-6 .4-2.6 2-4.9 3.5-6.9 2.6-1.7 3.4 2.9 5.3 2.7 3.2-1.4 5.5-4.2 8-6.4-1.9 2.6-4.1 5-5.7 7.9-1.2 3.2-.1 6.7.1 10 .8 5.9 1.2 12 3.1 17.8 1.6 2 4.5-1.4 6.3-2.2 2.4-1.3 2.3-4.2 2.1-6.5l-.2-4c1.4 2.4 2.1 5.3 4.4 6.9 2.4.9 4.5-1.1 6.5-2.2.6-.1 2-1.8 1.9-.6.5 7.6 1.1 15.2-.2 22.7-.4 3.2-4 4.2-6.7 4.5-4.2.4-9.1.2-12.4-2.9-.7-.7-1.4-1.3-2.3-.5-5.8 2.7-11.9 5.7-18.5 5.1-1.2-.2-2.4-.5-3.3-1.3zm-58.1-24.5c-1.3-1.6-1.3-4.6-4.2-3.8-3.8-.4-8-1.6-10.4-4.8-2-4.3-1.7-9.3-1-13.9.1-2.6 3.1-5.4 1.2-7.8-2.9-1.5-6.7-1-9.1-3.5-2.7-2.6-1.5-6.8-.1-9.8 1-1.8 3.4-6.2-.3-6.2-3.6-.5-6.7-2.9-9.3-5.3-3.7-3.7-3.4-9.7-1.5-14.3 1.6-4.3 5-7.7 8.5-10.6 1.1-.6.9-1.3.1-2.1-2.2-3.1-4.3-6.5-4.3-10.4-.5-6.8 3.5-13.4 9.3-16.8 2.3-1.2 3.9-3.9 6.8-3.7 5.5-.5 11.1-.6 16.6-.2 3.2.5.2 4.7.9 6.9.1 2.7-.6 5.9.8 8.3.9 2.9-1.3 6.4 1.1 8.8 2.5 1.9 6.3 1.5 8.9-.1 3-1.8 3.6-5.5 5-8.4 1.3-2.3 3.1-5.1 6.1-5.1 2.4.8 4.2 2.9 5.3 5.1 0 2.6-2.5 4.3-3.3 6.7-2.7 5.9-5.8 12-5.2 18.7.2 2.6.2 5.4 1.1 7.9 2.8-.2 4.9-2.4 7.3-3.7 1.7-.8 3.6-2.6 5.4-2.4-1.5 2.7-4.2 4.6-5.6 7.3.1 2.8 3.8 3.5 6.1 3.8 3.7.5 7.4-.3 10.8-1.8 1.2-.6 3.5-.8 1.5.8-2 2.1-4.8 3.6-6.3 6.2 1.8 1.7 4.9 1.2 7.1 2.3 3.4 1.7-1 4.2-2.9 4.7-1.8.3-3.9 3-.7 3.1 2.4.3 5.8-.4 6.9 2.4 2.2 1.2 4.9.3 7.3.3 1.3-.4 1.4.3 1.1 1.4-.3 4.9-2.1 9.8-5.1 13.7-2.4 1.4-3.8 3.9-4.6 6.5-.9 2.2-2.2 5.7-5.2 5.1.7-2.2.3-5.5-2.9-5.2-2.5 1.2-1.8 4.7-2.7 6.9-1.7 2.5-5.1.1-7.4-.3-4.1-1.4-8.2-2.7-12.2-4.3.9-3.7 2.8-7.1 4.3-10.6 2-4.1 4-8.3 4.4-13 .5-2 .3-6.6-2.7-4.1-4 1.8-6.5 5.7-8.5 9.4-2.4 4.3-4.3 9-6.5 13.4-1.4 2.7-4.7.8-7 1-4.3-.3-8.6-.6-12.8.1-3.1 1.6 1.5 4.1 2.9 5.2 3.3 2 6.7 4.2 10.4 5.1 2.8.3-.6 3.9-.8 5.5-1.2 2-1.8 5.1-3.5 6.4-.5-.3-.9-.7-1.3-1.1zm100.1-7.3c-.4-1.8-2.5-5-1.6-6 2.2 1.7 3.7 4.5 3 7.3-.1.9-.1 2.4-.6.7l-.8-2zm-160.7-35.3c-1.3-2.9 3.8-3.9 3.3-.6-.1 1.8-2.5 1.7-3.3.6zm10.3-8.5c-1.4-2.7.3-5.7 2.1-7.8 2.2-2.5 4.7 1.2 5.3 3.2.7 2 1.2 5.1-1.1 6.3-2.2.6-5.5 1.1-6.3-1.7zm1092.1-2.6c-6.4-2.9-12.9-5.7-19-9.2-1.7-1.5 2.6.4 3.2.7 3.8 1.7 7.4 3.9 11.5 4.8 4.8 1.9 9.7 3.9 14.1 6.6-.6 2-4.4-.9-6.1-1.3l-3.7-1.6zM2093 249c-2.9-2.6-5.5-5.5-7.8-8.7-1.5-1.9-4.5-2.3-4.9-5-.5-1.6-.7-3.3-1.1-5-1.3 3.3-2.4 7.2-6 8.7-2.7 1.6-4.4-1.7-6.1-3.3-1.2-2-3-2.1-3.7.3-.7 1.3-1.4 2.7-2.1 4.1-1.9-5.5-3.4-11.6-7.8-15.7-2.3-2-4.5-4.5-7.4-5.4-4-.8-8.1.4-12 .1-3.2-1.5.1-5.2 2.7-3.9 2.5.2 5.4 2.7 7.6.4 2.2-2.6 6 2.1 7.7-1.8 1.5-2.4 2-5.2 2.8-7.8 8.6.1 17.3-.4 25.8 1 4.9.7 9.5 3.3 12.3 7.4 3.7 4.9 4.3 11.2 5 17.1.8 7.4.4 14.9.1 22.3l-5-4.6zm-70.1-2.6c-.5-1.6.4-5.6 1.4-5.7 0 2.3.6 5-.5 7.2-.6-.2-.7-1-1-1.4zm4.7-5.1c.4-3.3 1.3 3.2 0 .7v-.3zm963.9-.5c-1.1-.7-2.5-2.2-.3-1 1 .5 3.4 1.9 2.9 2.9-1-.5-1.8-1.3-2.6-2zm-958-1.9c-.2-1.1.4-4.6 1-1.9.3.9.7 5.4-.8 3.9-.2-.6-.2-1.3-.3-2zm945.4-7.8c-7.3-6.4-14.5-13.1-21-20.4-1.2-1.1-1.1-2.2.3-.6 7.4 6.8 14.2 14.1 21.7 20.8 2.8 2.7 6 5 8.5 8-3.4-2.3-6.4-5.1-9.6-7.7zm-1254.4-5.3c.3-1 2.4-3.1 1.4-.8-.2 1.4-3 4.2-1.6 1.2z" fill="#fff"/><path paint-order="stroke fill markers" d="M1998.5 324.7l6.6-15.4 6.6 2.5-7.4 15.7-5.9-2.8z" fill="url(#A)"/><path d="M1972.7 390.8l-24.8-.5c-2.9.2-3.4-2.3-2.5-4.4.5-4.2.1-8.5-1-12.6-.7-2.9-1.8-5.7-1.4-8.8s-.2-6.4-1.9-9c-2-4.2-1.4-9.1-1-13.7.5-2.4 2.7-4.6 2.3-7.2-1.1-2.2.8-3.8 3-3.4 1.7-.4 4.7-2.3 1.4-3.1-1.7-.8-.9 2.9-2.9 1.1-1.9-2.6-4.8-2.3-7.6-2.3-3 0-4.3-3.4-6.7-4.1-2.9.8-3-3.8-4.1-5.7-1.5-1.1-3.2-2.3-2.5-4.6.6-4.2.2-8.4.2-12.6.5-2.6 1.5-5.2 2.9-7.4.8-1.4 3 .4 3.1-1.9 1.3-2.3 3.6-4 6-5.1 3 .7 4.4-2.9 6.9-3.7 2.2-1.1 2.7 2.2 5 1.7 1.9 1.9 4.1.1 6.1.7 1.2 2-2.2 3.3.2 5.2 1.9 1.4 2.8 4.7 5.7 4.2 2.4-.5 5.9 2.6 3.6 4.8s.4 4.2 1.2 6.5c1.4 2.7 2 5.8.5 8.6-.9 2.1-2.3 4-3.6 5.8-.1 1.7 1.1 5.1 3.2 3 3.3-.5 1.6 4.8 4.9 3.9 3.3-.2 4.4 3.5 6.1 5.6 1.7 2.2 2.4 4.8 3.5 7.4.4 3.5 3.3 1.4 5 .1 1.8-.6 2.1-2.2-.1-2.4-1.6-1.6-.2-6.3 2-6.2 2.2 1 4.8 1.2 6.9 2.6 1.9-1.4 2.2-4.4 3.5-6.4.5-1.5 1.7-2.6-.1-3.7-1.8-1.9-2.4-4.9-5.6-4-4-.5-8.5-1.8-10.4-5.7-2.5-3.8-1.7-8.5-1.8-12.8 0-1.6 1.1-3 1.5-4.5.9-1.7 2.2-4.6-1-4.1-3.7-.2-7.7-2.3-8.7-6.1-1.5-4.1.1-8.6 2.7-11.8-.9-1.6-4.3-.5-5.7-2.3-1.9-1.2-3.5-2.9-5.3-4.3-2.1-2.6-4-5.8-3.6-9.3.7-2.3.5-5 2-6.9.8-2.8 2.5-5.3 4.5-7.4.9-1.6 4.5-3.4 3.4-5.1-2.4-1.2-2.5-4.7-3.4-7.1-1.1-3.1-.4-6.5.5-9.6 1.4-3.5 2.8-7.2 5.8-9.5 1.9-2 4.4-3.1 6.5-4.8 1.9-2.2 5.2-2.4 7.9-2.8 5.3-.7 10.7-.2 16 0 2.3-.4 4.6 1.8 2 3.4-2.1 1.8-2.3 4.6-.6 6.7-1.4 1.8-3 5.5.5 6.1 2.7.6 1.1 2.5-.2 3.5-.2 1.7-1.5 7.1 1.7 5.4 2.6.9 6 .3 7.3-2.4 1.1-2.4 1.2-5.1 2.8-7.3 2-2 3.9-4.8 7-5 3-.9 4.2 2.4 5.9 4.1.7 1.9 4 5.2 1.4 6.5-2.2 1.5-3.7 4.1-4.9 6.5-.6 1.6-2.8 5.6-1.9 6.2 2.2-.7 4.1-1.5 6-2.8 3.2-1 1.9 3.3 2.3 5.1.1 2.5 1.4 5.6-1.8 6.7-1.6 1.1-3.1-5.5-3-1.6 1.1 2.2-2.6 5.1-4.4 3.9-1.4-2.6-.7 2.5-.7 3.4.6 2.7 3.1-1.6 4.7-1.8 2.4-2.2 5.8-2.8 8.3-5 1.1-1.4 6-3.6 5.5-.5-2.2 2.8-4.9 5.2-7.1 8.1-1.7 1.6-4.9 4.5-.4 4.4 4.5.6 9.3.7 13.3-1.7 2.4-.8 5.1-3.2 7.7-2-.8 2.4-3.8 4.2-5.4 6.3-1 1.4-4.1 2.6-3.8 4.2 1.8.2 3.5.6 5.1 1.5.1 1.9.3 3.8.2 5.7-1 .6-3.7 2-.9 2 2.3.4 3.3 3.5 6.2 2.7 2.3-1.1 5.1-.2 6 2.2-.3 2.4-.6 4.9-1.4 7.2-1.1 2.2-1.1 4.8-3 6.8-1.2 1.5-1.2 5.5-3.7 4.8-2.2-.9-.9 2.9-2.3 3.9-.9 2.2-.8 5.7-3.8 6-2.5-.2-4.2 5.8-6.1 2.7.2-2.5 2-5.2 1-7.6-2.1.9-1.3 4.9-2.7 6.8-1.7 2.8-5.5.2-7.9-.2-2.3-.7-4.5-1.8-6.9-2.5-2.3-.9-4.8-1.3-7-2.5-2.5-1.2.4-4.3.7-6.3 2.3-4.8 3.8-9.9 6.6-14.5.1-1.7 1-5.1-.2-5.8-3 2.3-6 4.9-7.4 8.5-1.1 2.5-2.3 4.9-3.1 7.5-1 2.5-2.3 4.9-3.6 7.2-2.3 2.8-5.7-.4-8.6-.2-3.2-.1-6.4-1.4-9.6-.3-1.7 1.3 2.6 2.5 3.6 3.4 2.2 1.9 5 2.6 7.7 3.4 2.4.6 4.4 2.7 2.2 5l-9 18.8c-.7 2.4-2.5 4.5-5.1 2.8-1.8-.6-6.4-2.6-5.8.9 1.3.8 6.1 2 2.8 3.8-2.8 1.6-5.4 3.4-8.4 4.5-1.9-2-1.7-5.2-3.5-7.4-1.6-2.8-3.3-5.7-5.8-7.8-2.5-.1-4.7-1-5.2-3.7-1.8-.5-5-.1-5.2-3.1-1-2.7 1.5-4.4 2.8-6.3.3-2.3 2.4-4.6 1.3-6.9-.7-2.9-2.7-5.4-3.3-8.2 2.1-2.2 1.5-4.9-1.8-4.8-3.4.5-3.7-3.5-6.3-4.8-2.3-1-.7-3.6-1.3-5.1-1.1-.5-2.7 1.5-3.6.6-1.3-2-4.2-.4-5.5-2.5-2.5 1-4 3.5-5.9 5.4-1.5-1.7-4.2.2-5.4 1.8-.6 2.2-2 3.9-4.2 4.2-1.3 2-1.9 4.4-2.2 6.7.2 2.8 1.6 5.4.6 8.3-.3 1.7-1.5 4.6 1.2 4.7 1 1.9 1.2 5.7 3 6.5 2.1-2.2 3.5 3 5.6 3.6 2.4 1.5 5-.8 7.3.8 1.9 2.4 5-.3 7 1.9 2.2 1 2.1 3.1-.3 3.8-2.1 1.3-5.5 1.2-4.6 4.6-.7 2.7-3 4.9-2.9 7.9-.8 3.7-.7 7.9 1.7 11 2 3.6 1.7 7.8 1.6 11.7.2 2.6 1.6 4.8 2.2 7.3 1.1 3.6.6 7.4.6 11.1-.8 2.2.3 3.7 2.7 3.3l35 .8c2.1.3 4.5 0 3.5-2.7-.5-5.9-1.5-11.8-3-17.5-.6-3.5-.9-7-1.9-10.4.1-2.3-2.5-5-.3-6.8 1.2-.9 4.5-4.1 5-1.8-.4 2.2-4.3 1.3-4.2 3.5.7 2.7 1 5.4 1.8 8 .8 3.5.5 7.2 2.1 10.5 1.9 5.8 2.5 12 2.8 18.1-1.6 2-4.9.9-7.3 1.2a284.9 284.9 0 0 1-10.6-.1zm25.8-68.9c1.7-2.6 2.9-5.5 4-8.3 1.5-1.9 1.5-4.5-1.5-4.7-3.7-1.1-7.1-3.1-10.3-5.3-1.8-1.2-3.8-4-.4-4.3 4.1-1 8.4 0 12.4.7 2.5.5 5.5 2.5 6.3-1.1 1.2-2.7 2.5-5.3 3.5-8.2 1.2-3.2 3.1-6 4.3-9.1 2-2.7 4.9-4.7 7.8-6.2 1.8 1.3.5 4.7.9 6.8.2 3-2.6 5.2-3.4 8-1.2 3-2.1 6.2-3.7 9.1-1.7 2.1-2 5.3 1.5 5.3 3.4.7 6.6 1.9 9.7 3.3 2.5.3 5.5 2.5 7.6 1 1.1-2.3 1.3-5 2-7.3 2.2-.7 4.7.8 3.2 3.2-.1.9-2.3 4.3 0 3.2 1.6-2.1 4.9-2 5.5-4.9 1.4-2.2 1.6-4.8 1.9-7.2 1.7 1.1 3.6.5 3.9-1.7 1.2-3 3.8-5.4 4.1-8.8.2-2.4 1.2-5.1.2-7.4-2.4-.1-4.6 2.4-7 1.2-1.4-.7-2.3-2.2-3.5-3-2.3-.2-4.8.1-7-.7 1.2-1.9 4.4-1.8 6.3-3 1.1-1.7 1.1-5.5-2-4.8-1.7.1-7.6-.7-4.1-3 2.4-2 4.9-3.9 6.9-6.3-.8-1.6-3.9 1.3-5.6 1.6-3.9 1.6-8.5 1.5-12.5.2-2-1-3.2-3.1-1-4.5 1.7-2.2 3.8-4.2 5.3-6.6-1.7-.5-3.9 1.7-5.8 2.2-2.2 1.6-4.3 3.6-6.9 4.6-2.8-.2-1.7-4.5-2.5-6.5-.3-5.5 1.2-10.9 3.8-15.7 1.1-3.2 2.8-6.3 5.1-8.7 1-.7.1-1.6-.2-2.4-1.1-2.3-2.9-4.4-5.1-5.9-3.8 1.3-7.5 4.3-8 8.6-.5 2.3-1.4 4.8-3.7 5.7-2.3 1.5-5.4 1-7.8 1.2-2.2-1.6-2-4.9-1.1-7.2 1.5-1.8.3-3.2-1.5-3.8-1.7-2.3 1.1-4.8.6-7.2-1.8-2.5 1.4-4.8.8-7-2.8-.8-5.9-.3-8.8-.6-4 0-8.3-.4-12.2.9-2.3 1.8-5 3-7.3 4.9-2.2 1.7-4.3 3.6-5.2 6.3-1.8 3.8-3.5 8.3-2.1 12.5 1.2 2.8 1.7 6.4 4.6 7.9.1 1.9-3.4 3-4.4 4.9-2.2 2.4-4.1 5-5.4 8-.4 2.5-1.8 5.1-1.1 7.7 1.2 5.4 5.7 9.8 10.9 11.4 1.8.1 6.4.9 3.4 3.3-1.4 2.1-2.8 4.4-2.9 7-.5 3.3 1.2 7.2 4.7 7.8 2.5.5 5.2.8 7.2 2.3-.5 2.3-2.4 4.7-2.8 7.3-1.2 5.2-1.1 11.4 2.7 15.6 3 2.4 7.1 2.6 10.7 3.4 2.4.3 2.5 5.5 4.9 4.6zm25.5-74.3c1.2-2.2.8-5.3.3-7.8-2.4-.7-1.7 3.8-2 5.4.1 1.1-.1 4.1 1.7 2.4zm-3.7-2c-.5-.2.2 1.1 0 0zm8.9-1.6c-.5-1.9.7-5.6-1-6.4-1.9 1.4-1.4 5.3-.6 7.4 1 .7 1.9.1 1.6-1.1zm-8.1-1.4c.3-1.2-.5-2.6-.5-.5-.1.9-.4 4.2.3 1.6a10.1 10.1 0 0 0 .1-1.1zm238.1 143.5c-1.8-1.7-1.2-4.9-1.9-7.2-.3-4.1-1.8-8-3-12-.4-2.8-1.4-5.6-1.2-8.5 0-2.6.8-5.4 2.5-7.3.6-2-1.3-4.9 2-5.5 1.4-1.1 6.5-1.4 3.3-3.8-2.1-3-5.3-.1-7.9-1.3-2.5-.6-5.5.8-7.4-1.8-1.5-1.4-2.2-3.4-4.5-3.2-2.2-1.6-.7-5.3-3.1-6.6-3.5-.8-2.5-4.7-3.3-7.3-.7-2.4.9-4.8 2.3-6.6 1.6-1.5 1.5-3.5-.1-4.8.1-2.4 4.9-3.9 2.4-6.4-1.3-1.4 1.1-3 1.3-.8 2.6 2.2-1.1 4.2-2.1 6.1.3 1.8 2.9 3.2.7 5-1.6 1.9-3.6 4.2-3.4 6.9 1.2 2.1-.1 5.9 3.2 6.2 2.8 1 .8 5.4 3.4 6.5 3-.1 2.8 4.6 6 4.6 2.8-.4 5.4 1.5 8 .9 2.3-1.4 5.7.2 6.8 2.4 1.2 2.2.5 4.3-2.3 3.9-2.2.3-5.1 1.6-3.8 4.3.5 1 0 1.7-.8 2.3-2 1.8-2.3 4.5-2 7.1s.8 5.2 1.3 7.8c1 2.5 1.6 5 1.9 7.7.8 2.8 1.6 5.5 2.1 8.3 1.5 2 4.6.9 6.8 1.2 8.7-.1 17.3-.1 25.9-.8 2.5-.2 5.3.4 7.6-.4-.4-3.2-2.3-6-3.3-8.9-1-1.6-2.3-4.7.9-3.6 5.3.6 10.6.6 15.9-.1 3.2-.6 6.5-.9 9.6-2.1 2.7-.8 5.5-.6 8.2-1.3 1.9 1.5-1.7 3.9-2.6 5.4-1.6 2.9-1 6.4-2 9.5.5 2.8 4.8 1 6.9 1.6l30.7.2c2.4-3.2 3.8-7 6-10.5 1.5-3.3 1.9-6.9 2.4-10.5 1.2-4.3.9-9 2.6-13.2 0-1.4 1.8-3.4 1.7-.8.3 4.5.4 9.1.1 13.6 1.4 2 4.6-1.4 5.5-2.9 1.9-3 2.8-6.4 4.2-9.5 1.2.1.5 3.3 1.3 4.6.3 1.9.9 7.7 3.6 4.1 2-2.1 4-4.4 4.7-7.2.5-2 3.1-3.5 3.3-.4.2 1.6 3.9 2.8 1.2 4-1.8-.3-2.8-5-3.9-1.8-1.7 3.5-4.7 6.1-7.1 9.1-2.8 1.5-2.4-3.7-3.2-5.4-1.3-2.5-2.2 2.9-3.4 3.7-1.6 2.1-4.1 4.4-6.9 4-1.6-.5.1-5.4-1.4-4-1.1 2.8-.6 5.9-1.6 8.7-1.3 5.5-5.3 10-6.7 15.5-1.9 1.8-5.2.2-7.6.7l-33.7-.2c-1.7-1.6.3-4 .1-6 .5-2.9.7-6.1 2.9-8.3 1.5-1.4.8-3.1-1.2-2-5.4 1.5-10.8 3.5-16.5 3.8-3.9.4-7.8.1-11.7-.2-.8 1.5 2.1 4 2.2 6.1.5 1.9 2.9 5.5.9 6.7-13 .4-25.9.2-38.9.5-1.3-.1-2.7.6-3.9.3zm371.9-.2c-3.7.6-2.7-3.1-2.6-5.5 0-3.7.3-7.4.7-11.1.5-6.4 0-12.7.8-19.1.2-4.3.4-8.7 1.1-12.9.1-5.4.4-10.8.8-16.2.4-6 .6-12.1 1.3-18.1.2-4.1.5-8.3.3-12.4-2 .8-2.3 4.3-3.9 6-2.2 2.9-3.7 6.3-5.3 9.5-2.1 3.5-3.6 7.3-5.8 10.7-1.6 2.6-2.9 5.4-4.3 8.2l-7.7 12.6c-3.5 5.5-5.8 11.6-9.3 17-2.1 4-4.8 7.6-6.8 11.6l-9.4 16c-1.1 2.5-3.7 3.9-6.4 3.4-3.8-.3-7.7-.1-11.5-.6-2.6-1.1 1.4-4 1.5-5.9 2.1-4 4.7-7.7 6.9-11.7l12.5-22.6c3.6-5.4 7.1-10.8 10.1-16.5 3-4.4 5.1-9.4 8.2-13.8 2.4-4.4 4.6-8.9 7.5-13 2.8-4.4 4.9-9.1 7.5-13.6 1.4-2.8 3.3-5.4 4.7-8.2.6-1.7 3.2-3.7 2.5-5.2-2.3 1.2-4 3.3-6.2 4.8-3.7 2.9-7 6.4-10.7 9.3-3.8 3.3-7.8 6.2-11.4 9.6-1.4 1.5-5.9 3.8-2.9 5.8 1.3 2 3.5 5.2.9 7.1-.8 1.2-3.2.8-3.4 2.2 0 1.8-.5 4-2.5 4.5-.9.5-2.9-.2-2.6 1.4.3 3.1-3.3 3.4-4.5 5.7-1.5 2.4-4.5 2.4-6.3.3-1.3-1.2-3.6-2.1-3.9.4-1.5 2.2-2.7 4.6-4.3 6.7-2.1 3.6-4.3 7.2-5.5 11.2-.3 3.7-.4 7.4.1 11 .8 1.2 1.1 3.8-1 2.5-1.1.2-2.2 2.3-3.2.2-1.7-1.9-1.9 4.5-3.1 1.3.6-2.9-.7-5.7.2-8.6.7-4.2 1.2-8.5 3.2-12.4 2-4.8 5.4-8.6 8.2-12.9.6-2 4.7-4.7 1.5-6.3-2.2-1.2-5.2-.6-7.2.8 0 1.3 1.1 3.4-1.2 3.7-3.8 1.1-7.4 2.9-11.1 4.6-2.1 1.3-1.5-3.4.2-1.8 2.2-.9 4.2-2.3 6.4-3.1 2.2-.7 5-1 4.2-4.1 1.2-2.4 4.7-1.7 7-1.9 1.6 0 4.5 1.4 4.4 3-1.7 3.5-3.7 7-6.2 10-2.1 3-4.5 6.1-5.4 9.7-1.5 3.2-1.6 6.9-2.3 10.4-.5 2.4-1.1 6.2 2.5 6.2 2.9-.8.6-4.5 1.2-6.6-.1-3.2 0-6.7 2-9.4 1.2-3 2.8-5.9 4.5-8.6 1.4-3.1 3.8-5.5 5.6-8.3 2.4-1.3 4.3 2.3 6.8 2.2 2-1 3.1-3.6 5.7-3.7.5-1 0-2.7.7-3.7 1.6-1.4 5.8-.6 4.6-4.1-.4-3.2 5.7-2.2 3.9-5.8-.1-2.4-4.9-4.5-2.2-6.6 4.1-4.2 8.5-8 13-11.6l11.9-10.5c3.1-2.1 5.6-5.1 9-6.8 2.9.9.6 4.7-.4 6.4-2.8 5.6-6.7 10.7-9.5 16.3-1.1 2.4-2.3 4.8-3.7 7-2.9 4.6-5.8 9.2-8.4 14-2.2 3.6-4.6 7.2-6.6 10.9-1.6 2.5-3.1 5.1-4.6 7.7-2.9 4.7-6.1 9.3-8.9 14.1-1.2 2.9-3.1 5.5-4.3 8.4-1.6 3.4-3.8 6.6-5.6 9.8-2.7 5.3-6.2 10-8.8 15.3-1.1 3 3.9 1.2 5.4 1.7 2.7-.5 6.4.9 8.5-1.2l4.8-7.9c2.9-5.2 6-10.2 9.1-15.3l5.3-9c2.3-4.4 4.6-8.8 7.1-13 3.6-6.4 7.7-12.5 10.9-19.1 3.6-6.8 7.6-13.4 10.8-20.4 2.3-4.2 4.9-8.2 7.1-12.4 2.2-3 1.7 2.4 1.7 3.7 0 4.7.1 9.5-.6 14.2-.8 9.1-1.2 18.2-1.9 27.3-.1 6.4-.9 12.8-1.3 19.2-.3 8.9-.5 17.9-1.2 26.8.2 2.3-1.1 5.3.1 7.2 4.5.3 9.1.2 13.7-.1.4-4.1-.2-8.3-.1-12.4l1.1-38.4.9-45.7c.4-2.5-.6-5.7 1.1-7.8 2.7.2 3.1 4 4.5 6 3.5 6.7 7.8 13.1 10.8 20.1 5.5 10.5 10.8 21.2 16 32 1.4 2.3 2.7 4.6 3.9 7.1 2.6 4.7 6 9 8.2 14 2.6 4.9 5.9 9.3 8.7 14.1 1.4 3.2 3.8 5.8 5.3 9 1.1 2.9 4.7 1.5 7.1 1.8 1.6-.1 5.8.7 3.7-2.1-4.2-9-9.2-17.5-14-26.1-3.3-6.7-6.9-13.3-10.6-19.8l-11.5-21.1c-2.8-6-6.2-11.7-9.2-17.6-1.8-2.9-2.8-6.2-4.7-9-2.8-5-5.3-10.2-8.1-15.2-.7-2.3 2.4-4.4-.4-6.4-1.5-1.8 1.6-4.8-1.4-6.1-1.1-1.5 2.6-2.2 1.4-4.2-1.5-1.2-1.5-2.5 0-3.7.7-2.4-4.4-3.5-1.7-5.9 4.6-8.6 10.3-16.5 15.8-24.6 1.7-1.6 1.8-3.7-.9-4-2.4-.5-5.6-4.1-7.6-1.2-1.8 2.2-3.6 4.5-5.3 6.8-1.2 2.7-2.9 5.2-4.5 7.7-.8 1.3-3.2 4.7-3 1.1.1-6 .6-12 .4-18-1.1-2.6-4.7-1.1-6.9-1.4-2.3.1-6.3-.7-5.6 2.9-.3 5.6-.1 11.3-.1 16.9-2.1.1-2.1-3.1-3.7-4.1-2.3-3.8-5-7.4-7.1-11.3-2-.7-4.2 1.7-6.2 2.3-1.8 1-5.1 2.7-2.6 4.9 4.2 6.3 6.6 13.8 11.8 19.5.9 1.5 4.2 4.3 1.7 5.7-2.5.2-5.2 2.8-2.3 4.8 1.7 1.9-3.3 3.9-1 6-2.9 1.3-6.2 1.4-9.3 1.9a60.68 60.68 0 0 0-8.4 1.2c-2.3.4-4.4 1-6.8 1-3.5.3-6.9 1.5-10.4.9-1-2-1-4.8-2.8-6.7-.8-2.4-2.8-4.4-3.3-6.8 2.2-.5 3.4 3.3 4.4 5.1.7 2.3 2.8 4.1 2.4 6.8 1.7 2.1 5-.3 7.3-.3l20.7-3.1c3 .5 4.8-2.2 5.6-4.7-1.6-2-1.9-5.4 1.1-6.6 3.8-.8-.9-3.8-1.5-5.6-4.5-6.5-7-14.2-11.4-20.8-.4-2.5 3-3.1 4.4-4.5 2.2-1.1 4.5-2.7 6.7-3.3 1.9 2.6 3.3 5.7 5.3 8.2 1.3 1.4 1.7 4.3 3.6 4.8.3-4.1-.1-8.3.7-12.4-.6-2.9 1.3-5.1 4.3-4.3 3.5.1 7-.1 10.4.4 1.7 1.8 0 5.3.5 7.8.1 3.5-.6 6.9-.7 10.3.5 1.9 2.1-2.2 2.8-2.8l4.1-6.7c1.8-2.8 4-5.3 6.3-7.6 3.3 1.8 6.9 3.3 9.8 5.8.2 2.4-1.7 4.6-2.9 6.6-3.1 3.7-5.6 7.8-8.1 11.8-2.2 2.5-3.8 5.4-5.3 8.4-2.6 2.2.3 3.9 1.1 6.1-1.3 1.6-1.5 3.5 0 5-.7 1.9-1.6 3.5-.4 5.6-.4 1.7-.8 3.5 1 4.8 2.4 2.3-2.3 4.9.6 7 2.4 4.1 4.4 8.5 7 12.6 1.2 3.2 3.2 6 4.6 9 1.8 3.6 3.6 7.2 5.7 10.5 1.2 2.2 1.9 4.7 3.4 6.8 1.5 2.4 2.7 4.8 4.1 7.2 1.5 2.4 2.5 5 3.8 7.5 3.9 8.3 8.8 16 13 24.1 2.6 4.5 4.8 9.3 7.7 13.7 1.6 3.6 3.8 6.9 5.5 10.5 1.4 2.5 2.4 5.3 3.8 7.8.7 3.4-4.3 1.5-6.2 2-2.5-.6-6.5 1.1-8.1-1.4-1.7-3.2-3.7-6.1-5.4-9.2-1-2.6-3.1-4.7-4.4-7.2-2.8-4.2-5.2-8.7-7.6-13.2-3.3-5.2-6.5-10.4-9.3-15.8-2.9-5-5.2-10.3-7.8-15.5-1.7-3.6-3.3-7.3-5.4-10.7-3.8-6.9-6.8-14.1-10.9-20.7-1.6-3.1-3.2-6.2-5-9.2-1.3 1.4-.3 5.2-.7 7.5l-.7 30.2c-.2 17.1-.2 34.2-1.2 51.2 0 4.8.5 9.6.1 14.4-4.8.3-9.7.3-14.5.1zm-965.3-1.7c-2.4-1.5-4.9-3-6.9-5.1-2.6-.1-5.6-1.9-8-.6-2.8 1.7-5.4 4.8-9 4.1-2.9-.4-3.9-3.5-2.8-5.9 1.2-2 4.2-3.6 1-5.4-1.8-1.8-.2-4.1.3-6.1-.7-1.7-2.5-3.1-2.6-5.1-1.5-1.4.5-6.6-2.7-4.9-2.7.8-5.3 1.8-8.1 2.4-3.9.4-7.9.5-11.8.1-3-.6-4.9-3.3-6.9-5.3-1.9-2.4-3.1-5.2-3.7-8.2-.9-2.9-1.1-6-2-8.9-1.3-5.9 1.9-11.4 4.3-16.6 1.3-1.8 1.7-4.6-1.1-4.8-.1 2.5.6 5.3-1.6 7.1-.9 1.9-6.1 4.4-5.2.7.7-2.5-1.9-5-.3-7.5 1-2.2 3.1-3.6 4.6-5.3.3-2.6-1.4-5-.3-7.5.3-3 1.6-6.3 4.4-7.6 2.1-1.4 4.8-1.7 7.4-1.5 1.9 1.3 2.9.6 3.2-1.5.2-1.2 2.4-2.8 1.3-3.7-1.7-1.2-2.9-2.9-4.3-4.4-.1-3.2-.7-6.5.5-9.6 1.1-2.2 3.5-3.2 4.5-5.4 1.1-2.5 3.4-2 5.7-1.7 1.9 1.5 4 2.5 6.2 3.6 1.2 2 2.3 3.9 4.7 4.9 1.5 2.3.7 5.5 1.1 8.2 0 1.6-2.2 3.1.3 4.1 2.5 1.1 3.9 3.4 4.8 5.8 1 2.3 1.8 5.3 4.2 6.5-.6-2.1-1.1-4.6-.6-7 .9-2.6.8-5.3.3-7.9-.4-2.9-1.1-6.3 1.1-8.7 2.7-1.5 3.1-5.2-.1-6.3-.9-.8-2.6-1.6-2.3-3-.1-2.1-.3-4.4 1-6.2 1.7-1.8-1.5-4.4 1.4-5.7 2.1-1.4 4.6-2.4 7.2-1.9 2.5-.5 4.9.3 6.6 2.3 1.8.8 3.6 3.5 2.7 5.4-1.7-1.1-.9-3.8-3.4-3.8-1.2-1.7-2.9-2.8-4.8-2.2-2.5-.3-5.5-.6-7.5 1.1.6 2.4-1 4.6-1.7 7-.1 2.5.4 5.3 2.9 6.5 1.5 1.4 1.7 3.6 1.9 5.6-1.5 1.5-3.7 2.7-3.6 5.1-.1 3.3.6 6.5.4 9.8-.1 2.5-1.2 5-.7 7.6 2.2 1.6.6 6-2 3.5-2.3-1.5-3-4.1-4.1-6.3-1-2.3-1.8-5-4.5-5.9-2.5-.5-2.5-2.7-.8-4.2 1.3-2.6-.9-5.4-.5-8.1-1.5-1.3-3.5-1.9-4-4.1-1.7-2.4-4.8-2.5-6.9-4.1-2.8-.7-4.2 1.6-5.7 3.4-3.1 2.3-3.3 6.5-2.9 10.1.2 2.9 3.9 3.9 4.7 6.7-.6 2.4-3.1 4.3-2.4 6.9-1.2 2.2-3.6-1.9-5.7-.9-3.3-.1-6.7 1.6-7.9 4.8-1.2 2.5-.8 5.4-.6 8.1 1.1 2.1 1 4.4-1.6 5-2.5 1.4-4.1 4.7-2.2 7.2.3 3.9 4.2-.6 3.7-2.7.2-1-.8-2.5.2-3.3 1.7-2.5 3 .6 4.6 1.5 2.1 2.6-1.9 5.5-2.5 8.2-.8 2.7-2.6 5.2-2.4 8.1-.3 4.1 1.2 8.1 1.9 12.1.8 3.3 1.6 6.9 3.9 9.5 1.7 1.8 3.7 3.9 6.4 3.6 3 .3 6 1.3 9 .4 2.6-.9 5.2-1.9 8-2.3 1.9-.6 5.9-3 5.2 1 .4 3.1 1 6.4 3 9 1.4 1.8-.8 3.7-.5 5.7-.3 1.1 1.2 1.6 1.7 2.4 2.2 2.3-2.8 3.6-2.7 6.1-.2 3.4 4.5 3.3 6.2 1.3 1.9-1.7 4.2-3.6 7-2.7 2.6.6 5.4.8 7.6 2.4 2.6 1.3 4.6 4.2 7.7 4 2.9-1.5.2-4.7-.3-6.9-.1-2.6 3.3-3.8 4.8-5.7 2.6-2.2 5.4-4.8 6.3-8.2-.6-2.7-3.6-4.3-4.3-7-2.4-2.5 2.1-3.9 2.5-6.2 0-3.3 3.8-2.6 5.8-3.9 3.1-.4 3.2-3 2.2-5.4 2.5-.9 3-3.5 2.4-6-1.5-7.2-.6-14.6-1.3-21.8 2.1-1.6 5.6.3 5.6 3.1-.6 2.5.4 5.1.3 7.6-.2 1.1-.9 2.3-1 3.3 1.3 3 4 5.1 5.4 8.1.8 2.9-3.3 3.9-3.7 6.6-1.1 4.4-.7 9-1 13.5-.2 4.4-.2 9-1.8 13.1-.3 2.7-5.1-.8-3.4 1.9 2.6 1.4-.7 2.5-2 1.2-2.2-.6-1.7 1.4-.6 2.4-1.7 1.1-4.8-2.8-1.4-3.1 1.7 0 2.3-.4 2-2.2 1.9-1 4.8.1 4.7-3.2 1.6-7.4.8-15 1.5-22.5 1-2.3 2.1-4.7 3.9-6.6.8-2.2-2.4-4-3.2-6-2.1-1.7-2.4-4.7-.8-6.9 0-2.5-.4-5.2-.4-7.8-.2-2-2.9-2.2-2.1.2.1 5.6-.1 11.2.7 16.7.1 2.4.5 4.8.1 7.1 0 1.4-2.7 1.8-1.8 3.1 1.5 2.3-.4 5.1-2.9 5.3-2.4.6-6.2.2-6.3 3.6-.1 2.1-4 2.3-1.6 4.4 1.1 2.5 3.3 4.4 4 6.9.1 4-3.6 6.6-6.2 9.2-1.3 2-4.9 3.2-4.3 5.8.6 2.1 2.4 5 .3 6.8-1.5 1.2-3.5 1.4-5.1.4zm18.6-6.3c-2.5.6-3.4-2.6-.7-3.1 1.3-.3 2-.8 2.1-2 1.7-.8 5.5 1.4 2.2 2-1.3 0-5.3 1.1-2.6 2.2 3.6-.8 7.9.3 10.7-2.6 1.9-1.4.7-5 2.6-6 2.8 1.1 5.5 2.4 8.3 3.4 4.3 1.4 8.8.5 13.1.2 3.7-.1 6.4-3 9.5-4.7 1.2-2.1 2.5-4.6 5.4-3.2 4.2 1.5 8.7 1.2 13.1 1.5 4.7.4 9.4-1.7 12.1-5.6 2-1.3.4-5.5 2.6-5.8 2.4-.2 7.2.2 8-1.8-1.5-.4-3.1-1.9-.9-2.8 1.2-.7 1.9-3.2-.2-1.6-2.1 2-4.5.3-5.4-2-1.4-2.7-1.9-5.9-3.5-8.6 0-3 4-1.4 5.9-2.5a11.3 11.3 0 0 0 6.4-3.2c1.4-1.8 2.8-3.9 3.5-6 .9-2.6 1.2-5.4.7-8.1-1.8-4-3.6-8.1-6.1-11.7-1.7-2.7-1.6-6.1-3.2-8.9-.4-2.6-2.5-4.1-4.2-5.9-2.3-2.7 3.1-3.5 1.9-6.2.4-2.9-1.6-5.1-1.7-7.8-1.4-1.7-2.1-4-4.5-4.5-1.3-2.5-5.5-2.8-6.5.1-1.5 1.7-4.1 2.6-4.6 5.1-1.1 1.7-4.7.9-2.9 3.8 0 2.5-2.2 5.4.4 7.2 1.1 2.2 6.7 3.9 3.1 6.4-1.6 2.7-5.9 1.7-6.4-1.3-1.3-4.4-3.3-8.6-5.5-12.6-1.4-2.3-3.5-4.1-5.6-5.9-.8-1.4-1.9-2.5-2.9-3.6 1.1-2.4 5.2-.9 6.6-3.1.5-2.8-1.7-5.1-1.8-7.8-.6-2.7-1.7-5.5-4.3-6.7-2.5-1-5.3-2.4-8-1.6-2 1-5.6 2.4-3.7 5-.8 3.1-2.9 6.2-1.9 9.4 0 2.7 2.1 4.4 3.6 6.3 0 1.3-1.5 2.2-2.3 3.3-.3 3-.2 6.1-1.6 8.9-1.3 1.4-1 5.3-3.1 5-1.4-4.9-1.8-10.1-4.6-14.5-.7-2.3-2.9-3.5-4.5-4.8.3-2.5.3-5.3 2-7.3 1.5-2.5-1.3-4.5-1.2-7 .5-3-3.1-3.9-5.3-4.5-2.1-.4-6 .4-5.6-3.1-1.1-3.5 3.4-3.4 5.6-4.3 3.6-1.1 7.5-1.5 10.9-3.1 3-1.2 6.3-1.5 9.1-2.9-.5-3.4 3.8-1.7 5.3-3.6 2.8-1.8 6-3.2 9.3-3.1-.4 1.8-4.2 1.4-5.8 2.6-1.8 1.4-3.8 2.1-5.9 2.7-1.7.5-.3 3.7-3 3.2-2.6.6-5 1.6-7.7 1.8-2.5 1.1-5.1 1.9-7.7 2.8-2.4 1-4.8 1.8-7.4 2.3-2.9.8-.5 3.3 1.5 2.7 2.6.7 5.8.6 7.2 3.5 1.2 2.2 1.3 4.7 2.3 7 .7 2.7-1.2 5-1.9 7.5-1.2 2.8 3.1 3.4 3.6 6 1.8 2.8 3.2 5.9 3.8 9.2.2 1.3.9 4 1.6 1.3 1.2-2.3 1.5-4.8 1.5-7.4 0-2.2 3.4-3.9.5-5.6-1.4-2.1-1.9-4.8-1.7-7.4-.4-2.5 1-4.6 1.7-6.8-2-2.6 1.6-4.3 3.2-5.8 2-1.9 5-1 7.3-.5 2.9.9 5.6 2.9 7.1 5.6 1.1 2.6 1.5 5.5 2.8 8 .1 2.1 1.5 5.9-1.3 6.6-1.2.1-2.4 0-3.6 0 .2 2.4 2 4 4 5.2 2.1 1.9 4 4.1 5.1 6.8 1.3 2.4 2.1 4.9 3.1 7.4.2 2.4 2 5.9 4.6 3.1 1.2-2.5-3.8-3.3-4.2-5.9-1.8-2.2-.2-4.8.1-7.1-2.4-3 2.7-2.9 3.4-5.1 1-2.3 4.5-2.6 4.9-5.3 1.1-3.1 4.7-2.6 6.9-1.1 1.8 1.6 3.8 3.1 4.9 5.3 2.4 1.3.6 4.2 2.7 5.8.2 2.3 1.2 5 .4 7.1-3.3.6-2.6 3.5.1 4.5 1.9 1.9 2.3 4.9 3.6 7.2.1 2.3 1 4.5 2.2 6.5 2.2 3.4 4.1 7 5.5 10.8.1 3 .4 6.1-.5 8.9-1.5 3.3-3.4 6.9-6.7 8.7-2.2 1.2-4.8 1.8-7.4 2.1-3.3.3 0 3.1-.1 4.8 1.1 2 1.5 5.1 3.9 6 1.4-.4 4.7-2.2 4.9.2-.5 1.1-4.5 4.1-1 3.7 2.9-1.3 4.5 4 .8 3.2-3.1-.1-6.2.9-9.3 1.1-.2 1.9-.9 3.8-1.7 5.5a25.3 25.3 0 0 1-7.3 5.3c-2.8.5-5.6 1-8.4.6-3.1-.3-6.2-.2-9.3-.9-1.7-1.2-4.3-1.9-4.6.9-1.3 2.9-4.8 3.5-7.3 5-2.7 2.1-6.3 1.4-9.5 1.7-4.3.2-9 .3-12.7-2.3-1.7-1.7-3.9-1.4-4.1 1.3-.7 3-3.7 4.1-6.4 4.3-2.5.4-5.1.5-7.7.4zm1199.4-8.2c-2.8-1.4-.5-4.7.1-6.8.8-2.4 2-4.8 3.2-7 1.5-2.3.6-5.2 1.8-7.5 0-1.1.8-5.1 1.5-2.4-1.5 2.5 0 5.3-1.2 7.8-1.5 4.3-4.2 8.1-5 12.6.7 3.1 3.9 0 5.2-1.2 2.3-2.1 3.8-5 5.4-7.6.7-1.2 4.5-4.7 4.2-1.5-1.4 3.1 1.4 4.2 4 3.8 3.9.1 8-.1 11.6-2 2.8-.9 5.1-2.7 7.8-3.8 5.4-3.7 9.7-8.8 14.9-12.8 1.3-1.9 3.7-3.3 5.1-.8.8.3 1.9-.1 2.9-.1 2.9.2 5-2 7.2-3.7 3.4-2.9 6.9-5.6 9.9-8.9 2.2-2.5 3.5-5.7 5.8-8.1 1-2.2 1.6-4.7 3.2-6.7 1.8-2.8 2.1-6.6 4.8-9 3.6-2.6 7.9-4.6 10.1-8.6 1.9-2.6 2.9-5.8 5.2-8 1.7-2.2 2.1-5 3.7-7.3.9-2.4 2.6-4.6 2.5-7.3 1.4-1.7 4.5-3 4.1-6 .5-1.9 4.7-2.6 1.7-4.6-1-2.3 2.9-4.1 4.1-5.9 1.5-2 4.1-3.6 6.2-1.3 6.2 3.5 12.6 6.7 19 9.8 3.5 1.9 7.4 3 11 4.6 1.4.9 6 3.2 4.9-.3-2.7-2.1-6.2-2.9-9.2-4.6-2.1-1.2-4.5-1.7-6.8-2.5-2.2-1.2-4.8-1.7-7-2.9-3.3-1.6-6.7-2.9-9.8-4.8-1.6-1.6-5.1-2.2-4.9-4.8.3-2.9-3.2-4.5-5.5-4.9-1.8.1-2.9 2.9-4.7.8-6.4-4.5-13.2-8.4-18.8-13.9-4.5-3.8-9-7.7-13.1-11.9-3.6-3.5-6.9-7.2-10.4-10.7-2.9-1.5-1.1 2 .1 2.9 3.4 3.9 7.2 7.3 10.5 11.2 4.6 4.3 9.8 7.7 14.3 12.1 3.5 3.5 8.1 5.5 11.9 8.5 2.4 1 3.8 3.2 5.9 4.7.3 2.3-1.3 4.9-1.5 7.5-.2 2.2-.5 5.2-3.2 3.8-1.9 1.2-1.6 3.5-1.3 5.3-.6 1.1-1.9 2.9-3.2 1.5-2.3 1.1-1.7 4.2-3 6-1 1.9-2.6 4.7-4.3 1.6-2.4-1.6-4.9-3.2-7.7-4-4.3-.4-8.6.7-12.9-.1-2.4.1 2.1 3.4-1.1 2.7-1.1-1.5-6-2.7-3.6-4.7 4.3.6 8.7.3 13.1.4 1.9 0 3.8-.1 5.6 0 2 1.1 4.2 1.6 5.9 3.2 1.3 1.3 3.3 3 3.9.2.9-2.2.9-4.7 2.3-6.7 1.3-1.2 3.7 1.4 3.2-1.6.2-2.4 1.4-5.4 4.2-5.5 1.3-1.9.8-4.8 1.5-7.1-.6-2.7-2.9-5-5.3-6.4-2.3-1.5-4.3-3.3-6.6-4.6-4.3-2.9-7.8-6.6-11.8-9.8-2.6-2-5.1-4.3-7.4-6.6-3.6-3.9-7.6-7.4-11-11.4-.8-1.4-4.7-4.1-2.2-5.1 1.4.1 3-.1 4.3.2 3.5 3.6 6.6 7.6 10.3 11.1 1.5 1.8 3.5 3.2 5 4.9l5.4 4.8c2.8 2.7 5.6 5.4 8.9 7.5 2.2 1.9 5 2.8 7.1 4.7 2.1 1.4 4.3 2.9 6.5 4.1 2-1.1 4.9-2.1 6.8.2 2.5.9 3.6 2.9 3.7 5.5 2.5 2.4 5.8 3.8 8.8 5.5 2.2 1.1 4.4 2.2 6.7 3 2 1.1 4.2 1.7 6.3 2.7 2.7.9 5.3 2.1 8 3.1 2.6 1.2 5.2 2.3 7.8 3.6 1.1 1.9.8 6.2-2.5 4.8-2.3-.9-4.4-2.3-6.9-2.9-2.4-1-5-1.7-7.2-3-2.5-1.3-5-2.5-7.6-3.5-2.1-1.4-4.5-2.2-6.7-3.5-2.9-1.2-5.4-3.1-8.3-4.4-2.2 1.6-4.3 3.4-5.9 5.6 2.1 1.9 1.7 5-1.4 5.4-.4 2.3-1.4 4.8-3.7 6-1.6 2.1-1.4 5.2-3.4 7.1-1.5 2.8-2.8 5.7-4.3 8.5-1.4 2.2-2.9 4.3-4.2 6.6-1.6 2.5-3.4 4.9-5.5 6.9-2 1.3-3.9 3-6.1 4.1-2.1 1.6-2.2 4.7-3.6 6.8l-3.5 6.7c-1.6 1.8-2.2 4.3-3.6 6.3s-2.9 4.1-4.7 5.8c-3.5 2.1-6.1 5.4-9.3 7.8-1.6 2.6-4.5 2.7-7.1 3.4-1.7.5-4.2.7-4.3-1.5-2 1.4-3.8 3.4-5.9 4.9-2.6 1.6-3.9 4.5-6.5 6.1-2.3 1.9-4.5 4-7.4 5.1-2.3 1.5-4.8 2.3-7.4 3.2-2.4.4-4.8 1-7.3 1.3-2.7.1-5.4.4-8.1-.2-1.6-.6.3-6-2-2.8-1.9 2.6-2.9 6-5.7 7.8-1.9 1.1-3.9 4.5-6.4 3.1zm-896.4-11.9c-2.8-.8-1.8-4.8-.6-6.4-.3 2.5 1.3 5.9 4.1 4.1 1.5-1.7 1-5.8 4.3-4.8.9 0 2 .6 2.3-.6 1-2.2 4.8-2.9 3.6-5.9-1.4-.9-2.4-3.9.3-2.9 2-.2 4.8 3 6.1 1.4-.4-2.9-4.3-2.5-6.3-3.9-3.1-1.3-.2-4.4.5-6.4 1.7-3.2 2.6-6.7 4.3-9.9 1.8-3.9 3.7-7.8 5.6-11.6 2.3-1.4 5.1 1.1 7.6 1.2 2.4.5 4.8 1.3 7.2 1.9 3 1.1 6.4 1.4 9.1 3.3.5 2.6-1.2 5.2-1.7 7.8-.2 2 3.3 2.4 2.8 0 .9-2.1.2-7.4 3.6-6.6.7 1.5 1.3 3.6 3.2 2 2.5-1.4 2.2 4.6 4.4 1.9 1.6-2.5 4.2-2.7 6.8-2 1.5-.2 4.9-.7 2.6 1.5-2.2 1.2-4.8.5-7.2.6-1.1 1.3-2.6 3.5-4.6 2.5-1-1.4-2.1-3.2-3.9-1.6-1.3 0-2.5-4.1-3.2-1.3-.5 2.2-1.5 4.1-1.7 6.4-3.2.8-5.4-2.3-3.8-5.1.5-1.9 2.1-5.4-.8-6.1-3.8-1.3-7.6-2.4-11.5-3.4-2.3-.5-4.9-.6-7-1.9-2.5.5-2.5 4.4-4 6.2-2 3.7-3.6 7.5-5.3 11.3 0 2.9 3.4 4.5 5.3 6.3 4.8 3.7 11.1 3.3 16.8 3 4-.3 8.2-.4 12.1-1.5 3-1.1 6.1-2.2 9.2-2.9 3.3-.2 2.3 4.3 3.6 6.3 1 3.3 4 5.6 7.2 6.6 3.1 0 6.1-1 9.1-1.8 2.4-1.1 5-2 7.4-3 1.3-1.1 3-2.4 4.1-.2 2 1.8 4.5 3.4 7.3 3 3.2.1 6.3-.6 9.2-1.7 3.5-.4 3.7-3.9 3.5-6.6v-25.9c-1.6-1.9-3.2-4-4.8-6-1 1.5.9 4.7 1.2 6.8.5 2.1 3.3 4.9-.1 5.9-2 1.2-5.4 4.2-6.8.7-1.9-2-1.8-5.5-4-7-.1 3.2.2 6.4.6 9.6-1.1 2.2-3.5 3.3-5.5 4.6-3.2 2.3-3-3.1-3.4-5.1-.4-3.6-1.5-7-1.6-10.6-.4-3.7-.4-7.5-1-11.1 1.1-2.2 2.9-3.9 4.3-5.9 1.2-1.7 3.6-3.5 3.9-5.2-3.8 2.2-6.5 5.8-9.7 8.6-2.2-.1-3.7-5-5.8-3.5-1.6 2.2-2.8 4.6-4.1 7-1.3 2.1 3.5 4.4-.1 5.8-2.2 1.6-5 2.5-5.9 5.3l-1.6 3.2c1.3 1.4 5.4.5 4.7 3.3-1 2.6-2.2-1.6-4-1.1-3.9-.4-1.3-3.9-.4-5.9 1.1-2.7 3.9-4.3 6.3-5.8 1.3-1.5-3.3-2.3-.9-4.3.9-2.4 2.7-4.2 3.8-6.5.8-1.9 2.5-5.5 4.9-3 1.7 1.1 3 4.1 4.7 1.3 3-2.6 5.4-6 9.1-7.7 1.1-.7 3.9-2.3 3.5.3-3 4.9-7.4 8.8-10.4 13.7-.8 2.6-.1 5.5 0 8.2.9 4.8 1.3 9.6 2.2 14.4.1 4 3.7 1 5.6.2 1-2.1-.8-4.7-.3-7.1 0-3.4-.2-6.9.2-10.2 1.8.3 2.4 4.1 3.3 5.9 1.1 2.8 2.2 5.7 3.8 8.4 1.8-.9 6.2-1.9 3.7-4.5-1.3-4-2-8.2-3.1-12.3-.7-1.9 1.8-4.2 2.6-1.5 1.8 3.4 3.9 6.6 6.5 9.4 1.3 2.6.6 5.5.8 8.3-.2 8.2.1 16.3-.4 24.5-.8 2.4-3.9 3.4-6.1 4.5-3.6 1.6-7.7 1.1-11.5 1.2-2.1-1.2-4-2.7-5.9-4.1-2.5.8-4.7 2.5-7.1 3.6-2.7 1.4-5.7 1.8-8.7 2.2-2.5.8-4.7-.4-6.7-1.8-2.9-1.6-4.3-4.9-5.3-7.9.3-2.1-.7-5-3.2-3-4.4 1.9-8.8 3.7-13.6 4.2-5 .5-10 .3-15 .1-3.3-.3-6.4-1.7-8.9-3.8-2.1-.7-3.4-4.7-5.5-3.9-.7 1.8-2.5 4.4.8 4.6 2.2.9 5.1 2.1 5.5 4.7-.8 3.6-4.2 1.3-6.4 1.7.4 2.7-.8 4.9-3.3 6.2.1 3.5-3.5 3-6 3.7-1.6 1.7-3 4.9-5.9 4l-.4-.1zm-264-3.4c-.6-2.4-1.6-4.8-2.5-7.1-1.1-3.1-2-6.3-3.7-9.2-1.3-2.5-3-5-5.3-6.6-1.8-1.6-.9-3.6.4-5.1.5-1.2-.8-2.6-.6-3.9.6-1.8 3.4-.6 5-.9.8.2 2.1-.5 2.5.5 1.1 1.7 2.3 4 4.7 3.5 2.9-.4 6.1-1.5 8.7.3 2.1 1.5-.9 4.1-.2 6.2-.4 2.7-.8 5.3-1.4 8-.7 2.4-1 4.9-2.4 7.1-1.2 2.3-2.6 4.5-3.6 6.9-.2.7-1.1 1.3-1.6.4zm1.5-3.5c1.9-4.4 4.2-8.7 4.8-13.5.2-2.5 1.6-4.9 1.2-7.5.2-1.5 1.8-3.7-.9-3.8-2.8-.6-5.3 2.1-7.9 1.2-2.2-.2-2.2-2.9-3.8-3.9-1.6.1-3.3-.2-4.8.3.5 2.1-.4 4.1-.7 5.9 1.6 2.1 3.8 3.8 4.9 6.3 1.1 2.1 2.6 4.1 3.3 6.3 1 2.9 2.4 5.7 3 8.7.2.8.9.5 1-.2zm594.2 1.3c-3.7-.8-7.4-1.2-11.1-2-2.7-.4-4-3-5.4-5-1.6-3.5-2.2-7.3-2.9-11-.3-2.6-.1-5.2.5-7.7.5-2.8-.5-5.5-.9-8.3.2-1.6-2.9-4.5-.9-4.9 1.8 1.5 4.6 3.9 6.3.8 3.2-3.3 6.3-6.7 9.9-9.6 2-.8 6-2.1 6.9.7.8 2.7 1.3 5.4 1.7 8.1 2.2 1 4.7-1.1 7.1-.7 1.9-.5 4.2 1.1 1.9 2.8-2.5 3-4.9 6.5-4.7 10.6-.3 4.2.1 8.4-.6 12.6-.7 2.7-2 5.1-3.4 7.4-.9 2.2-1.6 6.3-4.5 6.3zm1.7-2.6c.9-2.3 2.1-4.4 3-6.6 1.6-2.7 2.7-5.7 2.1-8.8-.4-4.7-1.3-9.9 1.5-14.1.4-1.6 3.8-4.1 2.5-5.1-2.7-.3-6 1.8-8.2-.1-1-2.7-.5-5.9-1.9-8.5-2.1-1.1-5.5.2-7.1 2-2.5 2.7-5.5 4.8-7.6 7.9-.7 1.6-2.5 2.1-3.6 2.8.3 3.2 1.4 6.5 0 9.6-.9 5.5.4 11.3 2.9 16.2 1 2.7 3.2 4.5 6.1 4.5 3 .4 6 .8 9 1.5.6-.1 1.1-.6 1.3-1.1zm81.6 2.1c.7-2.1 1.5-4.1 2-6.3 1.4-3.1 1.9-6.5 2.7-9.8.8-4.8.7-9.8-.4-14.5.1-1.8-.4-5.9 2.1-5.8.4 1.5 2.7 2.6 1.5.2s-1.3-5.2-2.6-7.6c-2.1-5.2-5.9-9.4-10.1-12.9-2.1-1.6-4.7-2.1-7-3.2-2.9-.9-3.2-4.7-6-5.8l-11.8-5.6c-2.4-1.9-3.8-4.7-5.5-7.2-1.3-2.8-3.4-5.1-4.5-7.9-1.1-2.3-3.1-4.4-4.4-6.7-1.5-1.5-2.2-2.9-1-4.9.2-2.2-2.2-3.7-3.1-5.6-2.6-2.8-4.1-6.3-6.8-9-4-4.4-9-8.1-14.8-9.8-2.8-1.4 1.3-4.3 1.1-6.4.9-4.3.5-8.8.7-13.1 0-.9.2-1.8-.5-2.5-1.4-2.5-3.5-4.5-5.5-6.5-2.1-.1-4.1 0-6.2-.1-2-1.5-4.7-1-7.1-.9-2.9-.1-5.3 1.6-7.3 3.5-2.4 1.6-4.2 4-6.7 5.5-.7-1.3 2.8-3.2 3.9-4.5 2.3-1.8 4.3-4 7-5.2 2.9-.7 6.1-1.5 9-.6 2.7 2 6.4-.2 9.1 1.8 2.7 2.7 5.7 5.9 5.7 10-.2 3.3-.1 6.5-.3 9.8-.4 2.6-1.3 5-2.3 7.4 1.4 1.6 3.9 2.2 5.7 3.5 7.1 3.7 12.4 10.2 16.4 17 1.4 2.1 4.5 4.3 2.6 7.1-.2 2.4 2.2 4.3 3.3 6.4 1.4 2 1.8 4.5 3.6 6.3 2.3 3.6 5.1 6.8 7.3 10.5 1.6 2.1 4.8 2.3 6.9 3.7 2.6 1.5 5.8 2.1 7.9 4.4 1.8 1.7 2.7 4.5 5.5 5 2.9 1 5.7 2.3 7.9 4.5 2.8 2.9 5 6.3 7.2 9.7 2.6 4 3.7 8.7 4.5 13.3.2 4-5.4-2.6-4.1 2 .4 3 1.5 5.9 1.2 8.9-.1 3.5-.5 7-1.8 10.3-.6 3.5-2.8 6.4-3.4 9.8-.2.5-1.5 3.9-1.8 2zm-65.3-3c-1.6-2-2.8-4.2-3.9-6.5.4-2.7 2.3-4.9 3.3-7.4 2.5-5.6 5.5-11.1 7.6-16.9.7-2.4 1.5-4.9 3-6.9 2-.5 3.3-1.3 2.3-3.6-1.5-4.4-2.3-9-3.8-13.4-1.4-3-3.4-5.7-4.7-8.7-1-2-2.9-5 .6-5.5 3.2-.4 1.2-3.8.2-5.5-1.3-1.8-2.1-4 .5-4.9.8-.5.2-1.7.4-2.5.1-3.1-.3-6.2-.2-9.4 2-2.2 2.8 4.2 5 2.9 2.5-1.9 3.3 2.8 4.7 4.1 1.8 2.9 3.5 6 6 8.4 2.6 2.6 4.8 5.6 7.3 8.2 1.7 1.7 1.6 4.2 2.5 6.2 1.6 2.3 4.5 3.4 5.7 6 .9 1.2 2.1 3.9-.6 3.3-2.1.4-7.2-2.2-5.9 2 .3 1.6 2.5 5-.6 4.8-1.1.8-1.5 1.9-.5 2.9.8 1.7 1.9 3.2 3.5 4-.8 2.4-4.8 1.6-6.4.2-2.3.1-.1 4.6-2.9 5-2.8 2.4.2 5.1 1.9 7 1.8 1.9 2.6 4.5 2.9 7 .1 2.4-1.7 4.4-2.9 6.3-1.3.4-3-.4-3.7 1.5-1.7 1.9-4.9 1.4-6.6 3.5-2.1 1.9-3.2 5.1-6.3 5.5a32.27 32.27 0 0 1-7.2 3c-.6.2-1.1-.3-1.5-.6zm6.1-2.7c2.4-.9 4.5-2.1 6.1-4.1 1.8-1.9 3.8-3.7 6.3-4.6 2.8-.2 3.3-4.6 6.4-3.3 1.8-2.5 1.2-5.9.3-8.6-1.1-2.3-3.7-3.4-4.3-6-1.1-2.9 1.7-4.7 2.9-6.8-.4-1.8 1.1-6.3 3.2-3.4 1.4 1.9 3 .9 1.4-.9-1.7-2-1.8-5 1-5.4-.4-2.7-2.5-5.9.6-7.9 1.4-1.2 5.1 2.1 5.4-.3-1.6-2.8-4.8-4.5-6.1-7.5-.1-2.9-2.4-4.7-4.2-6.7l-7.1-8.7c-2.4-3.1-4.3-6.5-6.6-9.7-1.4.4-2.9 1.5-4.1-.2-.5 2.1 0 4.4 0 6.6.2 1-1 1.4-1.5 2.1-1.1.5-.8 1.3-.2 2.2 1 2.1 2.3 4.2 2.4 6.5-1.1 1.9-5.3 1.8-3.2 4.7 1.5 3.6 3.9 6.7 5.5 10.2.7 2.8 1.6 5.5 2.5 8.2a29.03 29.03 0 0 1 2.4 8.1c-.5 2.9-5.3.5-5.3 4.1-1.1 2.6-1.5 5.4-2.9 7.9-1.7 4.1-3.7 8-5.8 11.9-1 2.4-2.6 4.7-3.1 7.3.7 2.1 1.4 5.7 3.9 5.8 1.4-.3 2.8-.9 4.1-1.5zm-57.2.9c-2-1.3-5.5-.5-6.4-3.3-.6-2.8-5.4.3-5.6-3.5-1.2-3 1.1-5.8 2.8-8 1.6-2.1 3.3-4.2 4.5-6.5.8-2.2 2.5-4.8 1.1-7.1-1.6-.9-1.8-2.5-2-3.9-1.9 0-5.5 2.2-6.4.3.9-1.9 5.8-3.9 2.9-5.9-2.8-2.5 2.1-4.8.8-7.8-2.1-1.6-5.4 1.4-7.5-.5-1.2-2.1-3.1-3.6-5.7-4.1-2.6.3-2.8-2-1.4-3.7.9-2.5 3.9-4 4.8-6.6 2.3-2.9 5.3-5.3 7.9-8 4.2-4 8.2-8.2 12.7-12 1.3-.3 2.5 2.4 3.7.2 2.3-2 4.1-4.4 6.1-6.7 2.7-1.1 1.5 3.7 1.6 5.3-.4 3-.6 6.1-.5 9.1.6 1.1 2.6 2.3 1.6 3.6-1.9 1.4-2.4 3.9-4 5.7-1.7 3.5-4.7 6.2-7.4 8.9-2.7 1.9.8-1.8 1.5-2.5 2.3-2.2 4.1-4.9 5.7-7.6.6-2.3 3.6-4.3 1.5-6.6-.9-2.3.1-4.7.1-7.1-.2-1.9 1.2-5.3.1-6.3-2.7 2.2-4.9 5.1-7.7 7.2-2.6-2.4-4.7 1.1-6.6 2.7a442.76 442.76 0 0 1-14 13.4c-1.8 2.8-4.3 5.1-6.2 7.8-1.2 2.8 4 2.2 5.4 3.6.8 2.3 2.7 3.3 5 2.3 2.6-.9 6.1.8 4.5 3.9-1 2-2.1 4 .1 5.8 1.5 2.2-3.4 3.9-2.2 5.3 1.5-.1 5.5-3.9 4.8-.3-.3 2.6 3.7 4.3 2.6 7.2-1.2 4.6-4.2 8.4-7.2 12-1.5 1.8-2.4 4.2-1.2 6.5.3 3.5 5.1-1.2 5.1 2.9 1.4 1.9 4.2 1.9 6.2 2.8 2.7 1.9 4.8-1.3 4.9-3.8.6-3.9-1.4-7.4-2.3-11.1-.8-2.7-1.2-5.6-2.4-8.1-1.2-3.2-2.1-6.5-2.7-9.8.1-2 3.2-5 .1-6.1-2.2-.8-4.8-3.1-2.4-5.3 1.7-2 2.7-4.4 4.4-6.3 1.6-.6-1.2 2.5-1.3 3.4-.9 1.4-2.6 3.3-1.9 4.9 1.4 1.3 3.1 2.4 4.2 4-.6 2.5-1.7 5.2-.8 7.8.7 2.6 1 5.3 2.1 7.8.9 2.5 1.6 5 2.4 7.4.9 3.1 3.4 6 2.8 9.4-.2 2.4-.8 4.9-2.8 6.5-1.3 2-3.5 1.2-5.3.6zm611.2-3c-1.2-2.1-5.5.1-5.9-2.1 2.3-.9 4.8-.3 7.1 0 2.7-1.4 5.8-.7 8.7-1.3 2.9-.7 5.5-2.1 8-3.6.9-.8 4.8-2.7 1.7-3-2.9.1-5.7-.4-8.5-1-5.7-2-10.7-5.7-15-10-1.6-1.8-5.5-2.9-5.1-5.6 1.6-.9.8-3-.8-1.2-3.2 2.5-7.4 3.5-10.3 6.5-1.6 1.6-4.1 5-5.9 1.7-1.1-3 .8-6 2.1-8.6 2-3.5 3.9-7.1 6.1-10.4 1.7-2 1.9-4.7 3.6-6.7 1.3-2.5 4.2-1.2 6-.1 1.8 1.7 2.9 4.3 4.6 5.8 2.7.1 4.6 2.6 7.3 3 2.2.9 3.9 2.9 6.2 3.7 2.1 2 5.1 2.1 7.9 2.2 3.8.2 7.5-1.2 11.3-.9 2.7 0 5.5.2 8.2.1-.1-1.9-1.2-4.7 2-5 3.3-.8 6.7-1.5 9.8-3 2.2-1.2 3.4-3.3 5.3-4.8 2.3-2.4 4.7-4.6 6.6-7.3-.9-2-5.4.5-3.9-2.3 1.1-3-5.2 1.1-5-2.2 1.8-1.6-.1-2.2-1.5-1.2-1.3.4-3.4 1.4-2.2-1 1.7-1.9 4.9-.9 7.2-1 .8.7-2.8 2.8.1 2.6 1.9 0 4.2-.1 4.2 2.2 1.9.6 5.8 2.8 2.3 4.5-3.1 2-5.2 5-7.6 7.6-1.5 2.2-3.4 3.9-5.8 5.1-3 1.5-6.5 1.7-9.5 3.3-1 1.8 1.9 4.9-1.6 4.9-3.9.5-7.8.2-11.6-.3-2.5.7-5.1.8-7.7.6-2.9-.2-6-.3-8.4-2.1-3.6-1.8-6.7-4.5-10.6-5.7-1.2-1.3-3-1.7-3.8.1-2.2.4-2.6-1.8-1.4-3.1a9.2 9.2 0 0 0-4.9-5.3c-3.4-1.2-3.3 3.5-4.9 5.3-1.8 2.7-3.8 5.3-5.1 8.3-1.5 3.1-4.3 5.9-3.9 9.6.9 3.3 3.6-1.4 4.9-2.3 3-2.6 7-3.6 10.1-6 1.8-1.2 5 0 2.6 2.1-2 2.6 2.5 4.1 3.8 5.9 3.3 2.9 7.1 5.3 11 7.4 5 2.4 10.9 1.3 15.8 4.1 2.2 1.7-2.8 2.1-3.6 3.7-2.2 1.4-4.5 2.6-6.8 3.8-3.4 1.9-7.4 1.2-11.1 1.9-.4 1.6-.7 2.6-2.3.9zm-4.1-38.7c-.5-1.7-.3 2 0 0zm-1220.4 32.3c-2.7-2.3-5-5.3-8.4-6.7-2.6-1.8 1.6-4.5 1-7-.2-2.3-.3-5.8 3.1-4.5 2.2.6 5.5.2 6.6 2.5-.5 5.2-.1 10.4-.6 15.6-.3.9-1.2.7-1.7.1zm.6-8.7V322c-2.1-.2-4.1-.8-6.2-1.3-.9 1.9.4 4.6-.9 6.6-2.5 2.3 1.5 3.2 2.9 4.5 1.6.9 2.8 3.6 4.1 3.9.1-2.3.1-4.6.1-6.9zm872.9-5.3c-.6-5.6-.3-11.2-.2-16.8-.2-3 4-2.7 5.9-4 2.1 0 4.9-2.8 6.5-1.1.1 3.5 3.9.3 5.7.1 5-2.1 9.8-4.5 14.7-6.6 2.6-1.2 5.2.7 7.4 1.9 2 1.9 3.9-2.6 5.8-3.4 5.2-4.7 11-8.9 16.5-13.3 5.1-3.7 9.6-8.3 14.7-12.1 1.3-2.3-3.2-.9-4.4-.8-5.6 1-11.2 1.4-16.8 2.6-2.7.6-5.6.5-8.2 1.5-1.9 1.7-2.3 4.6-4.1 6.5-1.6 2.3-4.1 3.4-6.7 4.1-2.5.9-5 1.5-7.7 1.6-2.1.9-6-.1-6.8 2 1.5 1.9 1.2 4.4-1.5 4.8-3.2 2-6.4 4-9.7 5.8-2.4 1.4-4.7 3.1-6.9 4.7-3.1 2.2-4.7-1.5-4.2-4.1l-.3-18.5c1.8-1.3 4.5-1.8 6.5-3 3.1-1.4 6.1-3.2 9.3-4.3 2.7-2 1.5 2.8 3.2 3.2 1.9-1.9 1.2-5 1.8-7.5 0-2.2 3.9-4.2 1.6-6.1-2.3-2.1-2.4-5.5-3.3-8.3-1.3-5.7-1.4-11.6-.6-17.4 0-.7 1.1-4.1 1-1.8-.1 3.6-.5 7.2-.1 10.8.3 4.3 1.1 8.6 2.7 12.7.6 2.5 5.4 4.2 2 6.5-1.7 2-2.2 4.4-2 6.9.3 2.4-2.1 6.5-4.7 4.9-.7-1.4-.8-4.4-2.8-2.2-4.1 2.3-8.3 4.5-12.7 6.1-.4 6.6-.2 13.2.3 19.8.9 2.8 3.7-1.5 5.3-2.1 4.3-3 9-5.6 13.4-8.4 1.5-1.2-1.8-4.2 1.3-4.5 3.9-1.2 7.9-2 11.9-2.8 2.9-1.1 6.2-1.3 8.4-3.7 1.7-1.7 2.9-3.8 3.5-6.1.2-1.1 1-1.3 2-1.4 6.3-1.1 12.7-2.2 19.1-2.9 4.5-.7 9-1.7 13.5-.9 0 1.7-2.7 3.1-3.9 4.5-4 3-7.6 6.4-11.5 9.4-2.2 1.7-4.4 3.5-6.7 5.1l-10.3 8.5c-2.2 1.9-4.3 4.2-6.8 5.8-2.1-.8-4.2-2.7-6.7-2.8-2.7-.1-4.8 2-7.4 2.5-3.2.7-5.7 3.2-9 3.9-2.1.4-5.2 3.2-6.8 1.2-1.7-2.3-5 .2-7.2.6-3.3-.1-3 3.7-2.8 6-.1 3.7-.7 7.4-.5 11.2-.1.5-.4 3.7-.7 2.8l-.2-1zm-305.7-22.4c1-1.4 2.9-2 4.4-2.9 1.2-3.3 2.1-6.8 4.3-9.6 1.4-2 4-2.7 6.2-3.3 2.5-.9 5.3-.7 7.4-2.4 1.8-1.7 3.7-3.2 5.3-5.1 3.1-3.4 5.3-7.6 8.6-10.9 1.6-2.3 3.8-4.1 5.5-6.3.6-2.1-3.2-3.6-.8-5.7.3-1 2.7-3.6 1.4-1-2.6 2.3 3.1 3.8 1.3 6.3-2.2 2.9-5 5.3-7.3 8.3-2.9 3.5-5.4 7.4-8.4 10.9-2.3 2.1-4.5 4.4-7.2 6.1-2.7.6-5.4 1.2-8 2-2.9.5-4.5 2.4-5.3 5.1-.9 2.4-1.2 5-1.9 7.4-1.5.5-3.2.4-4.6 1-.2.2-.9.6-1 .2zm10.1-4.5c-2.6-1.2 1.1-4.7 2.7-5.6 1.1-1.2 3.8-1.2 1.8.7-1.9 1.1-2 5.7-4.6 4.9zm2.1-2.8c1.6-2.7-3.7 1.6-.4.5l.2-.2zm2.9 1.9c-.2-1.7 2.4-3.9 3.5-4.3-.7 1.6-.8 5.3-3.5 4.3zm122.4-1.6c-.9-1.5-4.2-5.7-.4-5.4 2.6.4 6-.7 7.9 1.5 1.5 2.9-3.5 2.7-5.1 3.6-.8.3-1.6 1-2.4.3zm2.7-2.2c.9-.4 4.6-.6 1.7-1.2-1.6-.1-6.7-1.3-3.9 1.5.7.3 1.5-.1 2.2-.3zm566.9-9c.4-1.3 1.1.5 0 0zm1.4-1.6c1.8-1.7.5 1.2 0 0zm-1012.4-.4c-3.6-1.1-2.9-5.7-.4-7.6 2-2 5.5-.1 5.4 2.7.9 2.6-.3 5.4-3.4 5.1-.6.1-1.1-.1-1.7-.3zm3.3-2c1.8-2-1.4-6.2-3.7-4.1-2.8 2.2 1.5 5.5 3.7 4.1zm1011.2.9c1.1-.6.4.9 0 0zm2.7-.4c-3.3-.4 1.6-2.5 2.9-1.7 1.2.3 3.4-.9 1.1-1.3-1.2-.8-4-4.2-.7-3.8.9.1 5-.7 3.6.6-1.5-.4-3.5 1-1.3 1.9 2.2.2 3.1 2.2.6 2.8-1.7 1.7-4 1.7-6.2 1.4zM1948 274.1c-3.6-.6-4.8-4.4-4.1-7.5.3-2.5 2.4-4.2 2.8-6.6 1.8-2.6 4.9-1.8 6.9.1 2 1.6 3.2 4.3 3.2 6.8.3 3.1-1.5 6.8-4.8 7.2a13.41 13.41 0 0 1-4 0zm5.1-2.3c2.4-1.3 2.7-4.7 1.4-7-1-2.1-3.1-5.6-5.8-4.4-2.6 2.3-4.9 6.5-2.6 9.7 1.7 1.7 4.6 2.8 6.9 1.6zm-288.6-1.8c-.4-2.8-.4-5.7-.8-8.5 1.1-3.2 2.1 2.2 2.1 3.4-.2 1.4.2 5.7 2.2 3.5-.2-2.4-1-4.7-.8-7.2-.1-4.4.1-8.9-.3-13.3-3.1-.7-6.3-1.2-9.4-2-4.7-.6-9.1-3.1-13.8-3.6-1.4-.7.2-3.1-1.5-3.2-3.1-.8-5.7-2.9-8.7-3.6-1.9-.3-6.6-2.7-3.4-4.5 1.5.1 3.8-.8 1.4-1.9-2.6-.2-2.1-4.3.4-3.8 1.5 1.3 3.8 2.4 5.6 3 .1-2-3.4-4.7-1-6.7 1.5-.4 3.2 1.4 1 1.9-.8 2.2 4 5.2 1.4 6.6-1.4-1.7-4.3-1.1-6-3-.8-1-3.7-.8-1.9.5 1.7 1.7 4.4 2.3 6.2 4-.7 2.6-5.8-1.6-6.6 1.4 1.8 1.1 4.6 1 6.6 2.2 2.3 1.6 5.1 2.1 7.5 3.5-.7 2.8 3.1 2.4 4.8 3.4a56.5 56.5 0 0 0 11.6 3.1c2.4.7 5.3.9 7.5 1.8.5 7-.1 14.1 1.1 21 0 .9.6 2.6-1 2.1-1.3 0-2.8.3-4-.2zm919.1-10.1c-1.1-1.7-3.1-3.9-3.8-.7-2.1-.9-.9-5-3.3-5.5-1 1.5-.7 6.1-3.4 4.9-2.5-2.6-3.5-6.3-4.2-9.7-.6-4.7-1-9.6.2-14.3 0-1.6 2.4-5.6-.9-4.4-1-.3-3.2 2.7-2.9.8.2-2.1 4.2-3.6 5.7-2.1-.7 5.6-1.3 11.2-.9 16.8.2 3.9 1.3 7.8 3.4 11.2 2.2.2 1.4-5.9 4-5 2.1.8 1.3 5.8 4.1 3.5 1.6.3 1.8 3.1 3.5 1.5.5 1 .6 5.6-1.4 2.9zm-484.7-3.3c-3.3-1.5-5.2-4.7-8.1-6.8-2.6-1.3-4.8-3.5-5.9-6.2-.8-2.8-3.7-3-5.7-4.2-1.3-3-2.5 1.1-4.6.6-2.1.6-4.1 3.5-6.1.9-1.6-.8-3.7-5.2-4.8-1.7-1.4 2.6-2.4 6-4.3 7.8-2.2-1-.4-4.7-.9-6.7-.5-4.7-2.6-9.1-5.2-13-2.4-3.4-6-5.7-9.7-7.4-1-.7-2.1.4-3.1.5-2.5.4-5.1 1.7-7.4 2.1-2.2-1.4-3.2-4.4-2.8-6.9 1.2-1.9 3.1-4 5.5-4.1 2.3.2 4.2 3.2 6.4 2.2 1.7-1.1 3.4-5.5 5.1-1.9 2.5 2.6 4.3-2 4.5-4.1.3-1.4.4-4.2 2.4-3.9 7.8 0 15.5-.3 23.3.1 4.9.4 9.9 1.9 13.6 5.3 2.3 1.4 3.8 3.9 5.3 6.1 1.7 3.2 3.1 6.7 3.2 10.5.6 10 1.1 20 .8 30 0 1.1-.8 1.6-1.7.9zm0-2.7c.3-2.3-.2-4.8-.1-7.2-.2-7.6-.3-15.3-1-22.9-.8-4.7-3-9.2-6.6-12.4-2.4-2.6-5.5-4.6-9-5.1-3.8-1.4-8-.8-12-1-4.9.1-9.9-.3-14.8.1-2.7.9-1.7 4.8-3.3 6.7-.9 3.2-4.5 2.3-6.5 1.1-1.7 2-4.3 3.2-6.7 1.4-2.1-1.2-4.9-1.3-6.7.6-.9 1.7.3 6.3 3 4.7 2.8-1.1 6-1.5 9-1.4 4.1.8 7.5 3.8 10.2 6.9 2.1 2.2 3 5.1 4.3 7.7 1.3 2.1 1.1 5.9 2.5 7.2 1.8-1.8 2.1-5.5 4.1-6.6 1.9 2 3.5 5.3 6.3 5.9 2.2-1.6 6.1-1.2 6.1-4.8.3-1.1 1.2-5.2 1.8-2 .1 2.2-.3 5.9 2.9 5.5 3.1.3 3.7 4 5.1 6.1 2 1.3 4 2.6 5.6 4.4 2 1.5 3 4.2 5.4 5.2l.2-.1.3-.3zm904.1.8c-1.4-1.5.7-1.4 1.5-.8-.4-.8-1.9-3.1.4-2.5 2.5 1.3.1 5-2 3.3zm-964.4-.4c.7-1 .6 1 0 0zm245-2.8c.9-1.2 2-4.6 3.4-3.9-.7 1.2-2.4 4.1-3.4 3.9zm3.5-4.8c.1-2 2.9-.8 0 0zm2-2.1c1.9-2.9 4.8-5.1 6.3-8.2 1.5-2.4 4.1-4.3 4.4-7.2.8-3.1-3-5.4-.8-8.4.5-1.3 1.3-3.5-.9-1.9-2.8 2.2-2.2-2.6-1.2-3.9.1-1.8 2-4.3 3-4.9-1.1 2.1-2.3 4.5-2.6 6.8 1.4 2.1 4-3.4 5.1-1.3-1.2 2.3-2.5 4.8-2.9 7.4 2.1.4 1.4 2.8 1.5 4.6-.1 1 .1 2.1-.1 3-2.3 2.2-4 4.8-5.6 7.6-1.7 2.2-3.5 4.4-5.5 6.3-.2.1-.9.6-1 0zm-256.4-.8c-1.4-2.7-1.4-5.9-1.7-8.9 1.1-1.3 3.6-3.2 4.7-.9-.1 2.7 1.4 5.3 1.8 7.8-1.3.7-3.3 2.6-4.7 2zm2.2-2.4c.7-2-.1-5.2-1.6-6.5-2.1 1.5-.5 4.7-.1 6.7.4.6 1.3.3 1.7-.2zm-366-3.2c-3.8-.9-7.8-1-11.5-2.3-2.6-.5-5.2-1.5-7.6-2.5-1.3 1.1-2.7 1.6-3-.6-1-.9-1.9-5.1-3.4-2.9.3 3.1-2.3-1-2.7-2-.8-.6-1.8-3.3-.1-1.5.7 1.8 2.2 2.1 3 .3 2.4.8 2.7 3.4 4.1 5.1 1.2.7 3-.8 4.3.7 2.3 1 4.7 1.5 7.2 2.1 2.4.7 5 1.2 7.4 1.6 2.6.3 5.2 1.4 7.8.2-.9-1.9-4.2-3-4.7-5.6-1.2-3.4-1.3-7-1.3-10.5-.3-2.2-1.6-4.5.8-6.1.7-2.7 3.7-2.8 4.6-5.3 2.7-.5 5.4-1.4 7.8.3 2.9.7-1.6 1.9-2.4.5-2.1 1.1-4.8.3-6 2.9-1.9 1-4.2 3.5-3.6 5.7.9 2.8.4 5.8.6 8.6 0 2.5.7 5.2 2.9 6.7 2.9 1.1 4 3.7.3 4.6-1.3 1-3.1.5-4.6.1zm20.4-.1c-1.6-1.2-3.7-1-5.2-2-1-.9.6-1.4 1-2.1 1.2-1.4 2.4-2.9 3.3-4.6l-.3-11.8c-1.5-.6-1.1-4.7.2-2.1.9 2.3 1.6 4.6 1.5 7.1 0 2.6.2 5.3-.3 7.9-.7 1.8-3.5 3.5-3.4 4.9 2.5.6 5 1.6 7.7 1.1 2.5-.2 5-1 7.4-1.7 2.6-1.1 5.4-1.4 8-2.4 2-1.2 4.4-1.8 6.5-1.7 1.6-1.3 2.3-5.6 4.8-4.3.5 2 3.1-.9 1.8 1.5-.3 1.4-3 3.7-2.2.8-1.5-1.6-2.6 2.6-3.7 3.5-.5 3-3.2-1-4.9 1.1-3.3 1.4-6.9 1.7-10.1 3.3-3.8.7-7.5 2.5-11.5 1.8l-.4-.1-.3-.1zm43.7-6.5c-1.2-2.1-5.9 1.6-6.4-.9 1.5-1 4-3.2 5.5-2.4-3.2 1.6 2.9.9 2.5 3.1.3 1.2-1.5 1.3-1.6.3zm-8.9-2.9c-.1-2.4 3.7-4.4 2.4-6.5-3-1.1 2.7-2.7 2 .4.3 1.6-2.9 3.8-1.7 4.8 2.3-.5 4.3-3.1 6.7-2.8 1.3.7.8 3.1-.6 2.9 1.9-2.5-1.7-1.7-2.8-.6-1.8.4-4.5 2.4-6 1.9zm-1.1-3.2c.3-.6 2.3-4.4 1.8-1.7-.6.2-1.4 3.7-1.8 1.7zm-84.3-1.3c.6-2.1.6 2.4 0 0zm45.4-11c-.5-.7-.4-3 .3-1.1 1.7.4.9 1.7-.3 1.1z"/></svg>