<?xml version="1.0" encoding="UTF-8"?>
<!DOCTYPE svg PUBLIC "-//W3C//DTD SVG 1.1//EN" "http://www.w3.org/Graphics/SVG/1.1/DTD/svg11.dtd">
<svg xmlns="http://www.w3.org/2000/svg" version="1.1" width="4794px" height="2196px" style="shape-rendering:geometricPrecision; text-rendering:geometricPrecision; image-rendering:optimizeQuality; fill-rule:evenodd; clip-rule:evenodd" xmlns:xlink="http://www.w3.org/1999/xlink">
<g><path style="opacity:1" fill="#020202" d="M 4486.5,13.5 C 4507.5,13.3334 4528.5,13.5 4549.5,14C 4584.71,17.8378 4615.71,31.1711 4642.5,54C 4658.52,68.3438 4672.69,84.1772 4685,101.5C 4699.84,125.027 4708.51,150.694 4711,178.5C 4733.03,598.165 4755.03,1017.83 4777,1437.5C 4788.69,1525.61 4757.19,1593.11 4682.5,1640C 4659.5,1652.92 4634.83,1660.25 4608.5,1662C 4580.14,1663.32 4551.81,1664.98 4523.5,1667C 4549.99,1709.67 4560.82,1756.17 4556,1806.5C 4554.17,1867.55 4551.5,1928.55 4548,1989.5C 4541.61,2021.27 4528.95,2050.27 4510,2076.5C 4504.96,2081.88 4500.29,2087.54 4496,2093.5C 4482.17,2106 4468.33,2118.5 4454.5,2131C 4445.28,2135.87 4436.28,2141.2 4427.5,2147C 4398.68,2160.44 4368.35,2167.6 4336.5,2168.5C 4237.5,2164.76 4138.5,2161.09 4039.5,2157.5C 4030.5,2157.81 4021.5,2158.14 4012.5,2158.5C 3376.17,2134.99 2739.83,2111.49 2103.5,2088C 2055.26,2084.37 2013.26,2066.37 1977.5,2034C 1961.84,2019.02 1947.68,2002.85 1935,1985.5C 1929.01,1974.2 1923.01,1962.86 1917,1951.5C 1906.7,1924.14 1901.86,1895.81 1902.5,1866.5C 1903.07,1845.49 1903.73,1824.49 1904.5,1803.5C 1371.16,1831.21 837.831,1859.04 304.5,1887C 213.887,1898.61 145.387,1865.44 99,1787.5C 88.3161,1766.77 81.9827,1744.77 80,1721.5C 57.93,1302.17 35.93,882.837 14,463.5C 2.31291,375.394 33.8129,307.894 108.5,261C 131.505,248.082 156.171,240.749 182.5,239C 1617.34,164.122 3052.01,88.9558 4486.5,13.5 Z"/></g>
<g><path style="opacity:0.999" fill="#fefefe" d="M 3488.5,1532.5 C 3489.17,1531.73 3490.01,1531.07 3491,1530.5C 3491.68,1485.48 3491.01,1440.48 3489,1395.5C 3484.97,1285.47 3480.3,1175.47 3475,1065.5C 3473.33,1043.14 3471.5,1020.81 3469.5,998.5C 3471.29,998.215 3472.95,998.548 3474.5,999.5C 3477.5,1008.51 3481.34,1017.18 3486,1025.5C 3511.2,1070.02 3537.2,1114.02 3564,1157.5C 3627.33,1256.51 3695.33,1352.17 3768,1444.5C 3788.12,1468.96 3808.62,1493.13 3829.5,1517C 3831.17,1517.67 3832.83,1517.67 3834.5,1517C 3836.17,1515.33 3837.83,1513.67 3839.5,1512C 3845.5,1510 3851.5,1508 3857.5,1506C 3864.47,1501.32 3872.14,1497.99 3880.5,1496C 3883.36,1495.07 3885.69,1493.4 3887.5,1491C 3896.98,1489.62 3905.65,1486.29 3913.5,1481C 3920.64,1479.07 3927.64,1476.73 3934.5,1474C 3936.46,1473.05 3938.12,1471.71 3939.5,1470C 3946.63,1468.47 3953.63,1466.47 3960.5,1464C 3963.13,1463.11 3965.3,1461.61 3967,1459.5C 3973.89,1457.54 3980.73,1455.37 3987.5,1453C 3991.96,1451.02 3995.79,1448.19 3999,1444.5C 4000.02,1426.99 3998.68,1409.66 3995,1392.5C 3993.88,1385.19 3991.88,1378.19 3989,1371.5C 3987.31,1343.62 3983.98,1315.96 3979,1288.5C 3978.58,1287.33 3977.91,1286.33 3977,1285.5C 3973.25,1252.47 3969.25,1219.47 3965,1186.5C 3964.34,1181.48 3964.5,1176.48 3965.5,1171.5C 3958.57,1130.45 3954.07,1089.11 3952,1047.5C 3948.51,985.856 3945.51,924.19 3943,862.5C 3942.15,830.968 3942.65,799.468 3944.5,768C 3943.59,764.544 3942.93,761.044 3942.5,757.5C 3943.66,720.171 3943.5,682.838 3942,645.5C 3938.51,641.953 3934.34,640.786 3929.5,642C 3904.03,653.046 3878.03,662.713 3851.5,671C 3834.85,674.106 3818.52,678.439 3802.5,684C 3793.51,685.406 3784.51,686.74 3775.5,688C 3762.6,690.723 3755.6,698.557 3754.5,711.5C 3760.47,809.78 3765.3,908.113 3769,1006.5C 3769.67,1049.17 3769.67,1091.83 3769,1134.5C 3768,1135.5 3767,1136.5 3766,1137.5C 3721.44,1077.4 3679.11,1015.73 3639,952.5C 3609.32,902.482 3580.65,851.816 3553,800.5C 3543.39,781.623 3534.06,762.623 3525,743.5C 3520.75,737.335 3516.75,731.002 3513,724.5C 3511.46,717.227 3509.13,710.227 3506,703.5C 3499.59,690.344 3492.92,677.344 3486,664.5C 3483.76,663.863 3481.42,663.53 3479,663.5C 3448.36,665.446 3417.86,668.613 3387.5,673C 3368.62,678.473 3349.62,683.806 3330.5,689C 3321.43,691.128 3313.1,694.795 3305.5,700C 3298.33,700.93 3291.33,702.596 3284.5,705C 3281.85,706.153 3279.85,707.987 3278.5,710.5C 3267.32,710.93 3258.16,715.264 3251,723.5C 3249.3,725.9 3248.47,728.567 3248.5,731.5C 3257.98,791.735 3265.31,852.235 3270.5,913C 3270.4,916.692 3270.07,920.359 3269.5,924C 3274.75,966.346 3278.25,1008.85 3280,1051.5C 3283.03,1116.67 3284.53,1181.83 3284.5,1247C 3286.18,1251.6 3287.02,1256.43 3287,1261.5C 3291.31,1333 3291.48,1404.5 3287.5,1476C 3287.31,1479.26 3287.97,1482.26 3289.5,1485C 3288.39,1491.8 3288.22,1498.63 3289,1505.5C 3298.33,1509.96 3308.16,1512.79 3318.5,1514C 3341.62,1514.62 3364.62,1516.62 3387.5,1520C 3407.47,1522.81 3427.47,1525.48 3447.5,1528C 3455.03,1529.21 3462.36,1530.71 3469.5,1532.5C 3300.17,1526.07 3130.84,1519.73 2961.5,1513.5C 3031.63,1463.17 3082.13,1397.5 3113,1316.5C 3122.92,1290.41 3130.59,1263.74 3136,1236.5C 3142.22,1230.14 3149.72,1225.97 3158.5,1224C 3169.64,1221.2 3180.97,1219.7 3192.5,1219.5C 3194.6,1215.08 3195.77,1210.42 3196,1205.5C 3198.72,1162.48 3201.72,1119.48 3205,1076.5C 3205.99,1066.74 3207.49,1057.08 3209.5,1047.5C 3208.35,1045.85 3207.02,1044.35 3205.5,1043C 3196.61,1041.44 3188.61,1043.44 3181.5,1049C 3163.08,1049.82 3145.42,1053.82 3128.5,1061C 3118.35,1061.8 3108.35,1063.47 3098.5,1066C 3097.83,1066.67 3097.17,1067.33 3096.5,1068C 3076.68,1071.79 3057.35,1077.12 3038.5,1084C 3028.05,1084.89 3017.71,1086.56 3007.5,1089C 3004.29,1089.27 3001.62,1090.61 2999.5,1093C 2984.64,1096.05 2969.97,1100.05 2955.5,1105C 2945.8,1106.79 2936.13,1108.79 2926.5,1111C 2921.43,1112.08 2916.76,1114.08 2912.5,1117C 2902.79,1118.61 2893.12,1120.61 2883.5,1123C 2873.77,1127.75 2863.44,1130.75 2852.5,1132C 2846.85,1133.22 2841.52,1135.22 2836.5,1138C 2827.92,1140.37 2819.25,1142.37 2810.5,1144C 2803.8,1145.85 2797.47,1148.52 2791.5,1152C 2780.96,1152.8 2770.96,1155.47 2761.5,1160C 2760.3,1160.9 2759.47,1162.07 2759,1163.5C 2758.67,1199.17 2758.33,1234.83 2758,1270.5C 2756.63,1287.49 2755.96,1304.49 2756,1321.5C 2757.91,1325.01 2760.74,1326.18 2764.5,1325C 2769.42,1322.8 2774.42,1320.8 2779.5,1319C 2836.93,1303.39 2894.6,1288.56 2952.5,1274.5C 2952.01,1282.78 2949.51,1290.44 2945,1297.5C 2925.32,1322.85 2901.15,1342.68 2872.5,1357C 2871.94,1358.68 2870.94,1360.01 2869.5,1361C 2858.58,1364.46 2847.92,1368.46 2837.5,1373C 2821.11,1376.48 2804.78,1380.15 2788.5,1384C 2716.95,1383.44 2669.78,1349.28 2647,1281.5C 2640.53,1261.52 2637.36,1241.02 2637.5,1220C 2638.04,1143.34 2663.21,1076.17 2713,1018.5C 2744.6,981.891 2781.77,952.391 2824.5,930C 2858.65,912.27 2894.65,899.603 2932.5,892C 2964.8,889.714 2997.13,888.714 3029.5,889C 3041.61,892.515 3053.94,895.182 3066.5,897C 3077,900.168 3087.33,903.501 3097.5,907C 3098.52,904.929 3099.36,902.762 3100,900.5C 3100.81,894.136 3101.81,887.803 3103,881.5C 3105.07,829.925 3111.4,778.925 3122,728.5C 3122.67,725.167 3122.67,721.833 3122,718.5C 3121.17,716.333 3119.67,714.833 3117.5,714C 3113.78,713.612 3110.11,712.945 3106.5,712C 3104.25,711.376 3102.58,710.043 3101.5,708C 3095.38,707.177 3089.38,705.843 3083.5,704C 3081.16,703.163 3079.16,701.829 3077.5,700C 3061.5,697.133 3045.5,694.133 3029.5,691C 3007.17,690.333 2984.83,690.333 2962.5,691C 2941.92,693.294 2921.26,694.961 2900.5,696C 2879.4,699.775 2858.73,705.108 2838.5,712C 2836,713.08 2833.67,714.414 2831.5,716C 2824.44,717.01 2817.44,718.344 2810.5,720C 2758.84,741.962 2710.84,770.295 2666.5,805C 2662.46,808.7 2658.8,812.7 2655.5,817C 2650.9,819.27 2646.57,821.937 2642.5,825C 2601.68,865.242 2565.51,909.075 2534,956.5C 2525.32,976.853 2515.32,996.519 2504,1015.5C 2503.28,1020.4 2501.94,1025.06 2500,1029.5C 2499,1031.17 2497.67,1032.5 2496,1033.5C 2489.8,1053.42 2482.8,1073.09 2475,1092.5C 2471.95,1111.46 2467.62,1130.12 2462,1148.5C 2459.11,1177.43 2455.61,1206.26 2451.5,1235C 2451.74,1236.98 2452.41,1238.82 2453.5,1240.5C 2451.97,1266.51 2452.47,1292.51 2455,1318.5C 2458.9,1341.99 2463.57,1365.33 2469,1388.5C 2477.9,1414.63 2489.23,1439.63 2503,1463.5C 2511.62,1475.95 2520.78,1487.95 2530.5,1499.5C 2495.15,1498.39 2459.82,1497.06 2424.5,1495.5C 2422.94,1486.19 2421.44,1476.85 2420,1467.5C 2418.7,1462.65 2417.04,1457.98 2415,1453.5C 2413.33,1432.8 2411.33,1412.14 2409,1391.5C 2408.19,1385.14 2407.19,1378.8 2406,1372.5C 2405.74,1370.38 2404.74,1368.72 2403,1367.5C 2398.56,1331.86 2394.39,1296.2 2390.5,1260.5C 2390.73,1257.65 2391.07,1254.82 2391.5,1252C 2389.06,1239.2 2386.89,1226.36 2385,1213.5C 2378.39,1143.33 2373.72,1073 2371,1002.5C 2370.38,910.434 2369.54,818.434 2368.5,726.5C 2366.9,726.688 2365.56,726.188 2364.5,725C 2361.17,724.333 2357.83,724.333 2354.5,725C 2331.77,734.538 2308.77,743.205 2285.5,751C 2276.45,754.182 2267.12,756.182 2257.5,757C 2247.41,760.956 2237.07,764.29 2226.5,767C 2217.09,767.826 2207.75,769.16 2198.5,771C 2190.82,773.412 2185.32,778.246 2182,785.5C 2181.33,794.167 2181.33,802.833 2182,811.5C 2187.48,901.782 2191.81,992.116 2195,1082.5C 2195.67,1127.17 2195.67,1171.83 2195,1216.5C 2194.31,1217.36 2193.48,1218.02 2192.5,1218.5C 2145.72,1156.96 2101.88,1093.29 2061,1027.5C 2035.16,983.158 2009.83,938.491 1985,893.5C 1972.79,870.414 1961.12,847.081 1950,823.5C 1945.94,817.764 1942.27,811.764 1939,805.5C 1931.87,784.747 1922.71,764.913 1911.5,746C 1879.08,747.675 1846.74,750.675 1814.5,755C 1790.14,761.512 1765.8,768.512 1741.5,776C 1738.2,777.318 1735.2,779.152 1732.5,781.5C 1726.21,783.191 1719.88,784.691 1713.5,786C 1709.43,787.361 1706.1,789.695 1703.5,793C 1692.36,793.153 1683.53,797.653 1677,806.5C 1676.02,808.366 1675.52,810.366 1675.5,812.5C 1679.92,842.435 1683.92,872.435 1687.5,902.5C 1655.87,902.541 1625.2,907.874 1595.5,918.5C 1592.06,913.255 1588.39,908.255 1584.5,903.5C 1594.56,898.632 1604.56,893.466 1614.5,888C 1628.18,880.062 1640.02,869.895 1650,857.5C 1662.64,838.434 1662.64,819.434 1650,800.5C 1643.76,793.593 1636.93,787.427 1629.5,782C 1652.35,771.51 1675.02,760.51 1697.5,749C 1743.44,725.083 1784.27,694.25 1820,656.5C 1843.9,630.372 1860.23,600.039 1869,565.5C 1876.24,528.747 1870.57,494.08 1852,461.5C 1835.85,434.667 1815.35,411.501 1790.5,392C 1751.8,363.312 1709.8,340.312 1664.5,323C 1613.97,303.491 1561.97,289.158 1508.5,280C 1336.57,251.518 1165.91,257.184 996.5,297C 910.396,316.926 829.396,349.592 753.5,395C 718.735,416.753 687.902,443.253 661,474.5C 638.322,501.53 623.988,532.53 618,567.5C 614.759,600.067 620.759,630.733 636,659.5C 654.188,690.028 677.688,715.862 706.5,737C 759.252,774.063 816.918,801.396 879.5,819C 954.474,840.606 1030.81,853.773 1108.5,858.5C 1098.36,867.136 1088.02,875.636 1077.5,884C 1062.93,898.568 1049.1,913.734 1036,929.5C 1017,957.167 998,984.833 979,1012.5C 980.179,1019.48 977.679,1024.48 971.5,1027.5C 964.078,1046.34 955.578,1064.68 946,1082.5C 945.388,1093.23 942.388,1103.23 937,1112.5C 912.428,1185.51 903.095,1260.51 909,1337.5C 910.447,1354.86 912.113,1372.19 914,1389.5C 922.476,1421.26 933.143,1452.26 946,1482.5C 955.347,1499.2 964.681,1515.87 974,1532.5C 992.022,1555.2 1011.52,1576.7 1032.5,1597C 1051.5,1608.67 1070.5,1620.33 1089.5,1632C 1115.23,1639.93 1141.23,1646.93 1167.5,1653C 1174,1653.17 1180.5,1653.33 1187,1653.5C 1291.09,1652.81 1383.26,1619.64 1463.5,1554C 1490.53,1529.32 1515.03,1502.48 1537,1473.5C 1605.75,1368.18 1640.59,1252.52 1641.5,1126.5C 1641.44,1102.48 1640.78,1078.48 1639.5,1054.5C 1660.21,1056.04 1680.87,1055.71 1701.5,1053.5C 1707.17,1145.1 1710.51,1236.77 1711.5,1328.5C 1711.56,1329.74 1712.06,1330.74 1713,1331.5C 1714.28,1363.5 1715.61,1395.5 1717,1427.5C 1718.48,1472.25 1717.32,1516.92 1713.5,1561.5C 1715.73,1568.05 1716.07,1574.72 1714.5,1581.5C 1714.29,1584.01 1714.95,1586.18 1716.5,1588C 1722.81,1591.16 1729.48,1593.16 1736.5,1594C 1753.16,1595.27 1769.83,1596.6 1786.5,1598C 1810.42,1601.66 1834.42,1604.66 1858.5,1607C 1875.3,1609.21 1891.8,1612.71 1908,1617.5C 1911.26,1616.37 1914.26,1614.7 1917,1612.5C 1917.26,1576.5 1916.93,1540.5 1916,1504.5C 1911.17,1384.83 1906.17,1265.16 1901,1145.5C 1899.2,1126.85 1897.7,1108.18 1896.5,1089.5C 1896.5,1086.5 1896.5,1083.5 1896.5,1080.5C 1898.17,1080.5 1899.83,1080.5 1901.5,1080.5C 1903.59,1089.68 1907.09,1098.35 1912,1106.5C 1939.54,1154.69 1967.87,1202.36 1997,1249.5C 2049.61,1330.59 2105.11,1409.59 2163.5,1486.5C 2125.69,1481.52 2088.69,1485.02 2052.5,1497C 2045.61,1500.28 2038.61,1503.28 2031.5,1506C 1988.82,1529.35 1955.32,1562.18 1931,1604.5C 1926.99,1613.87 1922.99,1623.2 1919,1632.5C 1916.78,1641.27 1914.45,1649.93 1912,1658.5C 1910.34,1667.09 1909.34,1675.75 1909,1684.5C 1907.75,1717.17 1906.58,1749.83 1905.5,1782.5C 1368.52,1810.82 831.522,1838.99 294.5,1867C 230.282,1873.61 177.448,1852.44 136,1803.5C 114.989,1776.49 102.989,1745.82 100,1711.5C 77.3433,1285.02 55.1766,858.523 33.5,432C 35.2986,355.039 71.2986,301.039 141.5,270C 152.28,266.184 163.28,263.184 174.5,261C 224.782,257.301 275.115,254.301 325.5,252C 1715.84,179.368 3106.17,106.702 4496.5,34C 4572.96,27.4792 4631.13,56.6458 4671,121.5C 4682.16,142.48 4688.83,164.813 4691,188.5C 4713.03,608.165 4735.03,1027.83 4757,1447.5C 4763.6,1522.45 4735.44,1579.95 4672.5,1620C 4652.84,1631 4631.84,1638 4609.5,1641C 4575.18,1643.67 4540.85,1645.17 4506.5,1645.5C 4471.04,1601.43 4425.37,1574.93 4369.5,1566C 4075.67,1554.86 3782.01,1543.7 3488.5,1532.5 Z"/></g>
<g><path style="opacity:1" fill="#1d1b01" d="M 1584.5,903.5 C 1497.86,934.331 1409.86,938.831 1320.5,917C 1298.24,911.149 1277.91,901.482 1259.5,888C 1250.18,880.694 1243.18,871.694 1238.5,861C 1195.14,860.949 1151.81,860.115 1108.5,858.5C 1030.81,853.773 954.474,840.606 879.5,819C 816.918,801.396 759.252,774.063 706.5,737C 677.688,715.862 654.188,690.028 636,659.5C 620.759,630.733 614.759,600.067 618,567.5C 623.988,532.53 638.322,501.53 661,474.5C 687.902,443.253 718.735,416.753 753.5,395C 829.396,349.592 910.396,316.926 996.5,297C 1165.91,257.184 1336.57,251.518 1508.5,280C 1561.97,289.158 1613.97,303.491 1664.5,323C 1709.8,340.312 1751.8,363.312 1790.5,392C 1815.35,411.501 1835.85,434.667 1852,461.5C 1870.57,494.08 1876.24,528.747 1869,565.5C 1860.23,600.039 1843.9,630.372 1820,656.5C 1784.27,694.25 1743.44,725.083 1697.5,749C 1675.02,760.51 1652.35,771.51 1629.5,782C 1636.93,787.427 1643.76,793.593 1650,800.5C 1662.64,819.434 1662.64,838.434 1650,857.5C 1640.02,869.895 1628.18,880.062 1614.5,888C 1604.56,893.466 1594.56,898.632 1584.5,903.5 Z"/></g>
<g><path style="opacity:1" fill="#fefefe" d="M 1525.5,752.5 C 1516.34,751.36 1507,750.86 1497.5,751C 1503.32,752.458 1509.32,753.291 1515.5,753.5C 1544.19,756.672 1571.52,764.505 1597.5,777C 1612.92,784.75 1623.76,796.584 1630,812.5C 1630.69,818.882 1630.36,825.215 1629,831.5C 1622.78,845.388 1613.28,856.555 1600.5,865C 1574.05,880.708 1545.72,891.708 1515.5,898C 1460.93,908.974 1406.26,909.307 1351.5,899C 1330.95,894.817 1311.61,887.483 1293.5,877C 1279.45,869.296 1270.28,857.796 1266,842.5C 1264.4,833.598 1265.73,825.265 1270,817.5C 1279.25,804.588 1290.75,794.088 1304.5,786C 1322.85,775.774 1342.18,768.107 1362.5,763C 1347.84,763.277 1333.5,765.611 1319.5,770C 1299.02,778.25 1280.02,788.917 1262.5,802C 1252.52,810.642 1244.85,820.976 1239.5,833C 1149.28,836.468 1059.95,829.468 971.5,812C 922.107,801.39 874.107,786.39 827.5,767C 788.074,750.128 752.408,727.461 720.5,699C 691.842,672.859 673.675,640.692 666,602.5C 662.711,566.989 670.711,534.323 690,504.5C 714.296,469.87 744.129,441.036 779.5,418C 843.407,377.685 912.074,348.018 985.5,329C 1110.68,296.046 1238.01,283.38 1367.5,291C 1457.99,296.232 1545.99,313.899 1631.5,344C 1675.29,360.056 1715.63,382.056 1752.5,410C 1778.97,431.13 1799.47,456.963 1814,487.5C 1827.8,524.649 1826.47,561.316 1810,597.5C 1797.98,621.193 1782.48,642.359 1763.5,661C 1732.49,689.679 1698.16,713.679 1660.5,733C 1637.55,745.112 1613.89,755.612 1589.5,764.5C 1568.45,758.823 1547.12,754.823 1525.5,752.5 Z"/></g>
<g><path style="opacity:1" fill="#08aeef" d="M 1735.5,439.5 C 1738.17,439.5 1740.83,439.5 1743.5,439.5C 1750.62,473.604 1754.95,508.104 1756.5,543C 1757.48,569.645 1751.98,594.812 1740,618.5C 1724.21,641.075 1703.04,648.575 1676.5,641C 1654.29,628.415 1643.62,609.248 1644.5,583.5C 1656.16,579.192 1667.16,573.525 1677.5,566.5C 1678.48,566.977 1679.31,567.643 1680,568.5C 1680.22,577.586 1682.22,586.253 1686,594.5C 1694.17,604.1 1701.84,603.767 1709,593.5C 1711.27,588.36 1712.94,583.027 1714,577.5C 1716.87,555.539 1717.2,533.539 1715,511.5C 1711.56,491.884 1708.9,472.218 1707,452.5C 1711.29,449.605 1715.79,447.105 1720.5,445C 1725.72,443.429 1730.72,441.596 1735.5,439.5 Z"/></g>
<g><path style="opacity:1" fill="#0baeef" d="M 1618.5,447.5 C 1619.82,447.33 1620.99,447.663 1622,448.5C 1621.67,496.965 1624.01,545.299 1629,593.5C 1631.62,609.766 1633.79,625.933 1635.5,642C 1621.26,643.852 1607.43,647.352 1594,652.5C 1593.23,652.355 1592.56,652.022 1592,651.5C 1590.45,587.621 1586.45,523.954 1580,460.5C 1592.58,455.03 1605.41,450.697 1618.5,447.5 Z"/></g>
<g><path style="opacity:1" fill="#09aeef" d="M 1508.5,451.5 C 1521.99,453.118 1535.33,455.618 1548.5,459C 1550,460.491 1550.84,462.324 1551,464.5C 1553.82,520.042 1560.48,575.042 1571,629.5C 1564.11,636.033 1556.28,641.2 1547.5,645C 1543.69,646.881 1539.69,648.047 1535.5,648.5C 1529.68,606.983 1525.18,565.316 1522,523.5C 1511.64,560.947 1503.98,598.947 1499,637.5C 1498.84,639.676 1498,641.509 1496.5,643C 1485.97,644.72 1475.47,644.887 1465,643.5C 1459.88,607.247 1452.22,571.581 1442,536.5C 1440.96,575.201 1439.29,613.867 1437,652.5C 1436.44,653.022 1435.77,653.355 1435,653.5C 1424.18,648.83 1413.01,645.497 1401.5,643.5C 1407.91,593.388 1410.41,543.054 1409,492.5C 1407.9,484.146 1407.24,475.813 1407,467.5C 1418.05,462.482 1429.55,458.649 1441.5,456C 1444.88,455.176 1448.22,455.343 1451.5,456.5C 1455.1,466.117 1458.6,475.784 1462,485.5C 1469.89,513.964 1476.89,542.631 1483,571.5C 1487.74,544.448 1492.74,517.448 1498,490.5C 1501.05,477.42 1504.55,464.42 1508.5,451.5 Z"/></g>
<g><path style="opacity:1" fill="#07aeef" d="M 1230.5,466.5 C 1282.44,463.779 1305.27,488.112 1299,539.5C 1293.03,564.293 1279.2,583.293 1257.5,596.5C 1268.24,606.393 1280.24,614.56 1293.5,621C 1295.59,622.041 1297.25,623.541 1298.5,625.5C 1290.47,639.908 1280.3,652.574 1268,663.5C 1265.84,662.015 1263.68,660.515 1261.5,659C 1247.22,643.561 1233.89,627.395 1221.5,610.5C 1221.63,622.227 1221.46,634.227 1221,646.5C 1220.83,650.211 1220.33,653.878 1219.5,657.5C 1208.8,661.161 1197.8,662.328 1186.5,661C 1185.23,660.691 1184.07,660.191 1183,659.5C 1184.87,600.392 1181.7,541.559 1173.5,483C 1173.79,481.11 1174.79,479.777 1176.5,479C 1193.75,470.958 1211.75,466.792 1230.5,466.5 Z"/></g>
<g><path style="opacity:1" fill="#05aeef" d="M 1100.5,473.5 C 1126.11,472.216 1145.27,482.549 1158,504.5C 1166.53,520.066 1170.03,536.732 1168.5,554.5C 1169.07,587.902 1159.91,618.236 1141,645.5C 1124.24,665.8 1102.74,674.966 1076.5,673C 1062.74,669.203 1051.9,661.37 1044,649.5C 1030.31,626.316 1025.31,601.316 1029,574.5C 1031.77,548.841 1040.44,525.508 1055,504.5C 1066.49,488.525 1081.65,478.192 1100.5,473.5 Z"/></g>
<g><path style="opacity:1" fill="#06aeef" d="M 946.5,481.5 C 972.04,480.184 991.207,490.518 1004,512.5C 1012.14,527.626 1015.64,543.793 1014.5,561C 1015.42,595.477 1005.92,626.644 986,654.5C 965.622,678.548 940.456,686.048 910.5,677C 898.132,668.958 888.965,658.125 883,644.5C 867.017,596.072 873.684,551.072 903,509.5C 914.591,495.366 929.091,486.032 946.5,481.5 Z"/></g>
<g><path style="opacity:1" fill="#06aeef" d="M 831.5,492.5 C 846.88,495.46 861.713,500.127 876,506.5C 876.667,508.167 876.667,509.833 876,511.5C 852.168,566.663 834.168,623.663 822,682.5C 810.586,683.902 799.086,684.402 787.5,684C 770.753,626.347 748.086,571.18 719.5,518.5C 719.833,517.5 720.167,516.5 720.5,515.5C 732.545,508.107 745.045,501.774 758,496.5C 759.711,496.439 761.044,497.106 762,498.5C 780.839,535.684 794.506,574.684 803,615.5C 807.723,573.385 817.223,532.385 831.5,492.5 Z"/></g>
<g><path style="opacity:1" fill="#fefefe" d="M 1228.5,507.5 C 1235.18,507.789 1241.84,508.289 1248.5,509C 1256.1,510.938 1260.6,515.772 1262,523.5C 1262.58,538.834 1256.42,550.667 1243.5,559C 1236.08,563.418 1228.08,565.918 1219.5,566.5C 1218.57,547.47 1217.24,528.47 1215.5,509.5C 1220.03,509.23 1224.36,508.563 1228.5,507.5 Z"/></g>
<g><path style="opacity:1" fill="#fdfefe" d="M 1097.5,523.5 C 1113.78,521.888 1124.28,528.888 1129,544.5C 1133.26,566.034 1130.59,586.701 1121,606.5C 1113.98,619.727 1103.14,624.894 1088.5,622C 1078.93,617.062 1073.1,609.229 1071,598.5C 1066.4,575.813 1070.4,554.813 1083,535.5C 1087.15,530.503 1091.98,526.503 1097.5,523.5 Z"/></g>
<g><path style="opacity:1" fill="#fefefe" d="M 943.5,531.5 C 959.782,529.888 970.282,536.888 975,552.5C 979.35,575.394 976.017,597.061 965,617.5C 956.2,630.102 944.7,633.602 930.5,628C 923.115,622.747 918.615,615.58 917,606.5C 912.066,581.825 917.066,559.492 932,539.5C 935.464,536.195 939.297,533.528 943.5,531.5 Z"/></g>
<g><path style="opacity:1" fill="#01adef" d="M 4237.5,623.5 C 4243.7,622.285 4248.87,623.952 4253,628.5C 4254.05,659.592 4258.22,690.258 4265.5,720.5C 4273.55,817.747 4281.72,915.08 4290,1012.5C 4290.77,1021.69 4290.6,1030.86 4289.5,1040C 4290.41,1043.82 4291.25,1047.65 4292,1051.5C 4296.65,1135.1 4299.15,1218.77 4299.5,1302.5C 4301.4,1302.43 4303.23,1302.77 4305,1303.5C 4348.05,1294.27 4391.55,1288.11 4435.5,1285C 4451.91,1280.61 4468.57,1277.61 4485.5,1276C 4514.02,1274.11 4542.52,1271.94 4571,1269.5C 4577.1,1268.45 4580.93,1270.79 4582.5,1276.5C 4577.5,1291.67 4573.83,1307.17 4571.5,1323C 4569.94,1325.29 4568.77,1327.79 4568,1330.5C 4567,1340.48 4566.17,1350.48 4565.5,1360.5C 4564.42,1361.67 4563.58,1363 4563,1364.5C 4560.24,1382.38 4558.91,1400.38 4559,1418.5C 4557.34,1426.82 4554.51,1434.65 4550.5,1442C 4464.84,1450.73 4379.17,1459.4 4293.5,1468C 4259.47,1474.52 4225.14,1478.86 4190.5,1481C 4166.41,1488.55 4141.74,1492.88 4116.5,1494C 4110.17,1496.83 4103.83,1499.67 4097.5,1502.5C 4095.5,1500.83 4093.5,1499.17 4091.5,1497.5C 4091.54,1261.35 4081.04,1025.68 4060,790.5C 4059.25,783.636 4057.75,776.969 4055.5,770.5C 4056.09,768.727 4056.42,766.894 4056.5,765C 4054.93,747.799 4053.09,730.633 4051,713.5C 4049.77,702.521 4049.43,691.521 4050,680.5C 4054.65,677.055 4059.81,674.555 4065.5,673C 4078.68,669.803 4092.01,667.47 4105.5,666C 4108.72,663.223 4112.38,661.223 4116.5,660C 4126.73,657.462 4137.06,655.462 4147.5,654C 4161.25,647.975 4175.59,643.642 4190.5,641C 4206.24,634.996 4221.91,629.163 4237.5,623.5 Z"/></g>
<g><path style="opacity:1" fill="#01adef" d="M 3488.5,1532.5 C 3482.17,1532.5 3475.83,1532.5 3469.5,1532.5C 3462.36,1530.71 3455.03,1529.21 3447.5,1528C 3427.47,1525.48 3407.47,1522.81 3387.5,1520C 3364.62,1516.62 3341.62,1514.62 3318.5,1514C 3308.16,1512.79 3298.33,1509.96 3289,1505.5C 3288.22,1498.63 3288.39,1491.8 3289.5,1485C 3287.97,1482.26 3287.31,1479.26 3287.5,1476C 3291.48,1404.5 3291.31,1333 3287,1261.5C 3287.02,1256.43 3286.18,1251.6 3284.5,1247C 3284.53,1181.83 3283.03,1116.67 3280,1051.5C 3278.25,1008.85 3274.75,966.346 3269.5,924C 3270.07,920.359 3270.4,916.692 3270.5,913C 3265.31,852.235 3257.98,791.735 3248.5,731.5C 3248.47,728.567 3249.3,725.9 3251,723.5C 3258.16,715.264 3267.32,710.93 3278.5,710.5C 3279.85,707.987 3281.85,706.153 3284.5,705C 3291.33,702.596 3298.33,700.93 3305.5,700C 3313.1,694.795 3321.43,691.128 3330.5,689C 3349.62,683.806 3368.62,678.473 3387.5,673C 3417.86,668.613 3448.36,665.446 3479,663.5C 3481.42,663.53 3483.76,663.863 3486,664.5C 3492.92,677.344 3499.59,690.344 3506,703.5C 3509.13,710.227 3511.46,717.227 3513,724.5C 3516.75,731.002 3520.75,737.335 3525,743.5C 3534.06,762.623 3543.39,781.623 3553,800.5C 3580.65,851.816 3609.32,902.482 3639,952.5C 3679.11,1015.73 3721.44,1077.4 3766,1137.5C 3767,1136.5 3768,1135.5 3769,1134.5C 3769.67,1091.83 3769.67,1049.17 3769,1006.5C 3765.3,908.113 3760.47,809.78 3754.5,711.5C 3755.6,698.557 3762.6,690.723 3775.5,688C 3784.51,686.74 3793.51,685.406 3802.5,684C 3818.52,678.439 3834.85,674.106 3851.5,671C 3878.03,662.713 3904.03,653.046 3929.5,642C 3934.34,640.786 3938.51,641.953 3942,645.5C 3943.5,682.838 3943.66,720.171 3942.5,757.5C 3942.93,761.044 3943.59,764.544 3944.5,768C 3942.65,799.468 3942.15,830.968 3943,862.5C 3945.51,924.19 3948.51,985.856 3952,1047.5C 3954.07,1089.11 3958.57,1130.45 3965.5,1171.5C 3964.5,1176.48 3964.34,1181.48 3965,1186.5C 3969.25,1219.47 3973.25,1252.47 3977,1285.5C 3977.91,1286.33 3978.58,1287.33 3979,1288.5C 3983.98,1315.96 3987.31,1343.62 3989,1371.5C 3991.88,1378.19 3993.88,1385.19 3995,1392.5C 3998.68,1409.66 4000.02,1426.99 3999,1444.5C 3995.79,1448.19 3991.96,1451.02 3987.5,1453C 3980.73,1455.37 3973.89,1457.54 3967,1459.5C 3965.3,1461.61 3963.13,1463.11 3960.5,1464C 3953.63,1466.47 3946.63,1468.47 3939.5,1470C 3938.12,1471.71 3936.46,1473.05 3934.5,1474C 3927.64,1476.73 3920.64,1479.07 3913.5,1481C 3905.65,1486.29 3896.98,1489.62 3887.5,1491C 3885.69,1493.4 3883.36,1495.07 3880.5,1496C 3872.14,1497.99 3864.47,1501.32 3857.5,1506C 3851.5,1508 3845.5,1510 3839.5,1512C 3837.83,1513.67 3836.17,1515.33 3834.5,1517C 3832.83,1517.67 3831.17,1517.67 3829.5,1517C 3808.62,1493.13 3788.12,1468.96 3768,1444.5C 3695.33,1352.17 3627.33,1256.51 3564,1157.5C 3537.2,1114.02 3511.2,1070.02 3486,1025.5C 3481.34,1017.18 3477.5,1008.51 3474.5,999.5C 3472.95,998.548 3471.29,998.215 3469.5,998.5C 3471.5,1020.81 3473.33,1043.14 3475,1065.5C 3480.3,1175.47 3484.97,1285.47 3489,1395.5C 3491.01,1440.48 3491.68,1485.48 3491,1530.5C 3490.01,1531.07 3489.17,1531.73 3488.5,1532.5 Z"/></g>
<g><path style="opacity:1" fill="#231f20" d="M 2961.5,1513.5 C 2893.5,1511.04 2825.5,1508.54 2757.5,1506C 2741.32,1505.27 2725.16,1505.44 2709,1506.5C 2649.5,1504.08 2590,1501.75 2530.5,1499.5C 2520.78,1487.95 2511.62,1475.95 2503,1463.5C 2489.23,1439.63 2477.9,1414.63 2469,1388.5C 2463.57,1365.33 2458.9,1341.99 2455,1318.5C 2452.47,1292.51 2451.97,1266.51 2453.5,1240.5C 2452.41,1238.82 2451.74,1236.98 2451.5,1235C 2455.61,1206.26 2459.11,1177.43 2462,1148.5C 2467.62,1130.12 2471.95,1111.46 2475,1092.5C 2482.8,1073.09 2489.8,1053.42 2496,1033.5C 2497.67,1032.5 2499,1031.17 2500,1029.5C 2501.94,1025.06 2503.28,1020.4 2504,1015.5C 2515.32,996.519 2525.32,976.853 2534,956.5C 2565.51,909.075 2601.68,865.242 2642.5,825C 2646.57,821.937 2650.9,819.27 2655.5,817C 2658.8,812.7 2662.46,808.7 2666.5,805C 2710.84,770.295 2758.84,741.962 2810.5,720C 2817.44,718.344 2824.44,717.01 2831.5,716C 2833.67,714.414 2836,713.08 2838.5,712C 2858.73,705.108 2879.4,699.775 2900.5,696C 2921.26,694.961 2941.92,693.294 2962.5,691C 2984.83,690.333 3007.17,690.333 3029.5,691C 3045.5,694.133 3061.5,697.133 3077.5,700C 3079.16,701.829 3081.16,703.163 3083.5,704C 3089.38,705.843 3095.38,707.177 3101.5,708C 3102.58,710.043 3104.25,711.376 3106.5,712C 3110.11,712.945 3113.78,713.612 3117.5,714C 3119.67,714.833 3121.17,716.333 3122,718.5C 3122.67,721.833 3122.67,725.167 3122,728.5C 3111.4,778.925 3105.07,829.925 3103,881.5C 3101.81,887.803 3100.81,894.136 3100,900.5C 3099.36,902.762 3098.52,904.929 3097.5,907C 3087.33,903.501 3077,900.168 3066.5,897C 3053.94,895.182 3041.61,892.515 3029.5,889C 2997.13,888.714 2964.8,889.714 2932.5,892C 2894.65,899.603 2858.65,912.27 2824.5,930C 2781.77,952.391 2744.6,981.891 2713,1018.5C 2663.21,1076.17 2638.04,1143.34 2637.5,1220C 2637.36,1241.02 2640.53,1261.52 2647,1281.5C 2669.78,1349.28 2716.95,1383.44 2788.5,1384C 2804.78,1380.15 2821.11,1376.48 2837.5,1373C 2847.92,1368.46 2858.58,1364.46 2869.5,1361C 2870.94,1360.01 2871.94,1358.68 2872.5,1357C 2901.15,1342.68 2925.32,1322.85 2945,1297.5C 2949.51,1290.44 2952.01,1282.78 2952.5,1274.5C 2894.6,1288.56 2836.93,1303.39 2779.5,1319C 2774.42,1320.8 2769.42,1322.8 2764.5,1325C 2760.74,1326.18 2757.91,1325.01 2756,1321.5C 2755.96,1304.49 2756.63,1287.49 2758,1270.5C 2758.33,1234.83 2758.67,1199.17 2759,1163.5C 2759.47,1162.07 2760.3,1160.9 2761.5,1160C 2770.96,1155.47 2780.96,1152.8 2791.5,1152C 2797.47,1148.52 2803.8,1145.85 2810.5,1144C 2819.25,1142.37 2827.92,1140.37 2836.5,1138C 2841.52,1135.22 2846.85,1133.22 2852.5,1132C 2863.44,1130.75 2873.77,1127.75 2883.5,1123C 2893.12,1120.61 2902.79,1118.61 2912.5,1117C 2916.76,1114.08 2921.43,1112.08 2926.5,1111C 2936.13,1108.79 2945.8,1106.79 2955.5,1105C 2969.97,1100.05 2984.64,1096.05 2999.5,1093C 3001.62,1090.61 3004.29,1089.27 3007.5,1089C 3017.71,1086.56 3028.05,1084.89 3038.5,1084C 3057.35,1077.12 3076.68,1071.79 3096.5,1068C 3097.17,1067.33 3097.83,1066.67 3098.5,1066C 3108.35,1063.47 3118.35,1061.8 3128.5,1061C 3145.42,1053.82 3163.08,1049.82 3181.5,1049C 3188.61,1043.44 3196.61,1041.44 3205.5,1043C 3207.02,1044.35 3208.35,1045.85 3209.5,1047.5C 3207.49,1057.08 3205.99,1066.74 3205,1076.5C 3201.72,1119.48 3198.72,1162.48 3196,1205.5C 3195.77,1210.42 3194.6,1215.08 3192.5,1219.5C 3180.97,1219.7 3169.64,1221.2 3158.5,1224C 3149.72,1225.97 3142.22,1230.14 3136,1236.5C 3130.59,1263.74 3122.92,1290.41 3113,1316.5C 3082.13,1397.5 3031.63,1463.17 2961.5,1513.5 Z"/></g>
<g><path style="opacity:1" fill="#231f20" d="M 2424.5,1495.5 C 2337.5,1492.38 2250.5,1489.38 2163.5,1486.5C 2105.11,1409.59 2049.61,1330.59 1997,1249.5C 1967.87,1202.36 1939.54,1154.69 1912,1106.5C 1907.09,1098.35 1903.59,1089.68 1901.5,1080.5C 1899.74,1079.54 1897.74,1079.21 1895.5,1079.5C 1895.19,1083.04 1895.52,1086.38 1896.5,1089.5C 1897.7,1108.18 1899.2,1126.85 1901,1145.5C 1906.17,1265.16 1911.17,1384.83 1916,1504.5C 1916.93,1540.5 1917.26,1576.5 1917,1612.5C 1914.26,1614.7 1911.26,1616.37 1908,1617.5C 1891.8,1612.71 1875.3,1609.21 1858.5,1607C 1834.42,1604.66 1810.42,1601.66 1786.5,1598C 1769.83,1596.6 1753.16,1595.27 1736.5,1594C 1729.48,1593.16 1722.81,1591.16 1716.5,1588C 1714.95,1586.18 1714.29,1584.01 1714.5,1581.5C 1716.07,1574.72 1715.73,1568.05 1713.5,1561.5C 1717.32,1516.92 1718.48,1472.25 1717,1427.5C 1715.61,1395.5 1714.28,1363.5 1713,1331.5C 1712.06,1330.74 1711.56,1329.74 1711.5,1328.5C 1710.51,1236.77 1707.17,1145.1 1701.5,1053.5C 1680.87,1055.71 1660.21,1056.04 1639.5,1054.5C 1640.78,1078.48 1641.44,1102.48 1641.5,1126.5C 1640.59,1252.52 1605.75,1368.18 1537,1473.5C 1515.03,1502.48 1490.53,1529.32 1463.5,1554C 1383.26,1619.64 1291.09,1652.81 1187,1653.5C 1180.5,1653.33 1174,1653.17 1167.5,1653C 1141.23,1646.93 1115.23,1639.93 1089.5,1632C 1070.5,1620.33 1051.5,1608.67 1032.5,1597C 1011.52,1576.7 992.022,1555.2 974,1532.5C 964.681,1515.87 955.347,1499.2 946,1482.5C 933.143,1452.26 922.476,1421.26 914,1389.5C 912.113,1372.19 910.447,1354.86 909,1337.5C 903.095,1260.51 912.428,1185.51 937,1112.5C 942.388,1103.23 945.388,1093.23 946,1082.5C 955.578,1064.68 964.078,1046.34 971.5,1027.5C 977.679,1024.48 980.179,1019.48 979,1012.5C 998,984.833 1017,957.167 1036,929.5C 1049.1,913.734 1062.93,898.568 1077.5,884C 1088.02,875.636 1098.36,867.136 1108.5,858.5C 1151.81,860.115 1195.14,860.949 1238.5,861C 1243.18,871.694 1250.18,880.694 1259.5,888C 1277.91,901.482 1298.24,911.149 1320.5,917C 1409.86,938.831 1497.86,934.331 1584.5,903.5C 1588.39,908.255 1592.06,913.255 1595.5,918.5C 1625.2,907.874 1655.87,902.541 1687.5,902.5C 1683.92,872.435 1679.92,842.435 1675.5,812.5C 1675.52,810.366 1676.02,808.366 1677,806.5C 1683.53,797.653 1692.36,793.153 1703.5,793C 1706.1,789.695 1709.43,787.361 1713.5,786C 1719.88,784.691 1726.21,783.191 1732.5,781.5C 1735.2,779.152 1738.2,777.318 1741.5,776C 1765.8,768.512 1790.14,761.512 1814.5,755C 1846.74,750.675 1879.08,747.675 1911.5,746C 1922.71,764.913 1931.87,784.747 1939,805.5C 1942.27,811.764 1945.94,817.764 1950,823.5C 1961.12,847.081 1972.79,870.414 1985,893.5C 2009.83,938.491 2035.16,983.158 2061,1027.5C 2101.88,1093.29 2145.72,1156.96 2192.5,1218.5C 2193.48,1218.02 2194.31,1217.36 2195,1216.5C 2195.67,1171.83 2195.67,1127.17 2195,1082.5C 2191.81,992.116 2187.48,901.782 2182,811.5C 2181.33,802.833 2181.33,794.167 2182,785.5C 2185.32,778.246 2190.82,773.412 2198.5,771C 2207.75,769.16 2217.09,767.826 2226.5,767C 2237.07,764.29 2247.41,760.956 2257.5,757C 2267.12,756.182 2276.45,754.182 2285.5,751C 2308.77,743.205 2331.77,734.538 2354.5,725C 2357.83,724.333 2361.17,724.333 2364.5,725C 2365.56,726.188 2366.9,726.688 2368.5,726.5C 2369.54,818.434 2370.38,910.434 2371,1002.5C 2373.72,1073 2378.39,1143.33 2385,1213.5C 2386.89,1226.36 2389.06,1239.2 2391.5,1252C 2391.07,1254.82 2390.73,1257.65 2390.5,1260.5C 2394.39,1296.2 2398.56,1331.86 2403,1367.5C 2404.74,1368.72 2405.74,1370.38 2406,1372.5C 2407.19,1378.8 2408.19,1385.14 2409,1391.5C 2411.33,1412.14 2413.33,1432.8 2415,1453.5C 2417.04,1457.98 2418.7,1462.65 2420,1467.5C 2421.44,1476.85 2422.94,1486.19 2424.5,1495.5 Z"/></g>
<g><path style="opacity:1" fill="#817c4e" d="M 1525.5,752.5 C 1521.96,752.187 1518.62,752.521 1515.5,753.5C 1509.32,753.291 1503.32,752.458 1497.5,751C 1507,750.86 1516.34,751.36 1525.5,752.5 Z"/></g>
<g><path style="opacity:1" fill="#231f20" d="M 768.5,801.5 C 772.224,801.05 774.391,802.717 775,806.5C 778.394,819.263 781.06,832.263 783,845.5C 784.275,847.717 785.275,850.051 786,852.5C 791.393,880.461 796.393,908.461 801,936.5C 804.258,954.402 808.258,972.069 813,989.5C 815.539,1007.76 817.539,1026.1 819,1044.5C 819.915,1045.33 820.581,1046.33 821,1047.5C 824.529,1062.01 827.196,1076.67 829,1091.5C 832.144,1154.35 835.311,1217.18 838.5,1280C 836.422,1293.47 834.589,1306.97 833,1320.5C 832.331,1338.89 830.998,1357.23 829,1375.5C 822.214,1418.31 811.214,1459.98 796,1500.5C 740.13,1636.05 638.63,1702.89 491.5,1701C 473.251,1700.9 455.251,1698.9 437.5,1695C 436.005,1693.84 434.505,1692.67 433,1691.5C 412.084,1687.19 392.584,1679.36 374.5,1668C 360.559,1659.06 346.892,1649.72 333.5,1640C 305.333,1612.49 283.499,1580.66 268,1544.5C 256.404,1512.05 248.737,1478.72 245,1444.5C 248.06,1441.39 251.56,1438.89 255.5,1437C 262.5,1435.33 269.5,1433.67 276.5,1432C 278.156,1430.17 280.156,1428.84 282.5,1428C 290.173,1425.83 297.839,1423.66 305.5,1421.5C 307.607,1418.94 310.274,1417.11 313.5,1416C 319.262,1414.23 325.095,1412.73 331,1411.5C 337.318,1406.49 344.485,1402.99 352.5,1401C 359.257,1395.72 366.924,1392.38 375.5,1391C 382.079,1385.88 389.412,1382.04 397.5,1379.5C 398.748,1377.54 400.415,1376.04 402.5,1375C 406.142,1373.73 409.808,1372.56 413.5,1371.5C 417.123,1365.19 422.456,1363.02 429.5,1365C 431.624,1366.12 433.457,1367.62 435,1369.5C 434.912,1403.48 442.245,1435.82 457,1466.5C 459,1467.17 460.333,1468.5 461,1470.5C 461.895,1474.21 462.895,1477.88 464,1481.5C 476.307,1496.16 491.14,1507.32 508.5,1515C 520.849,1515.49 533.182,1515.16 545.5,1514C 551.674,1512.83 557.34,1510.5 562.5,1507C 576.883,1495.62 588.717,1482.12 598,1466.5C 606.103,1445.29 612.769,1423.62 618,1401.5C 619.819,1391.59 620.819,1381.59 621,1371.5C 623.454,1362.68 625.121,1353.68 626,1344.5C 634.435,1214.06 624.768,1085.06 597,957.5C 594.842,935.042 590.508,913.042 584,891.5C 583.259,881.831 582.925,872.164 583,862.5C 594.08,852.958 606.747,846.292 621,842.5C 630.016,836.785 639.849,833.285 650.5,832C 651.5,831 652.5,830 653.5,829C 661.529,825.659 669.863,823.326 678.5,822C 682.167,820.333 685.833,818.667 689.5,817C 698.959,815.007 708.459,813.173 718,811.5C 722.76,808.37 727.927,806.203 733.5,805C 745.255,803.231 756.921,802.065 768.5,801.5 Z"/></g>
<g><path style="opacity:1" fill="#fdfdfe" d="M 1664.5,923.5 C 1685.62,922.746 1706.62,923.913 1727.5,927C 1741.62,929.865 1754.96,934.865 1767.5,942C 1795.39,961.591 1796.72,982.925 1771.5,1006C 1757.25,1016.2 1741.58,1023.54 1724.5,1028C 1694.39,1034.86 1664.06,1036.19 1633.5,1032C 1610.37,1028.98 1590.54,1019.48 1574,1003.5C 1564.12,989.801 1564.12,976.135 1574,962.5C 1588.78,947.017 1606.62,936.517 1627.5,931C 1639.88,927.982 1652.21,925.482 1664.5,923.5 Z"/></g>
<g><path style="opacity:1" fill="#fefefe" d="M 1296.5,991.5 C 1345.78,988.393 1386.28,1005.73 1418,1043.5C 1423.85,1053.86 1429.18,1064.52 1434,1075.5C 1450.15,1131.01 1451.81,1187.01 1439,1243.5C 1429.52,1287.78 1411.86,1328.45 1386,1365.5C 1375.23,1378.27 1363.73,1390.44 1351.5,1402C 1345.34,1406.58 1339.01,1410.91 1332.5,1415C 1313.18,1423.26 1293.18,1429.26 1272.5,1433C 1235.31,1434.84 1201.98,1424.5 1172.5,1402C 1155.24,1385.07 1142.41,1365.23 1134,1342.5C 1101.78,1233.15 1121.78,1134.49 1194,1046.5C 1198.95,1041.43 1203.78,1036.26 1208.5,1031C 1219.19,1022.97 1229.85,1014.97 1240.5,1007C 1250.74,1002.81 1261.08,998.807 1271.5,995C 1279.51,994.435 1287.51,993.769 1295.5,993C 1296.06,992.617 1296.39,992.117 1296.5,991.5 Z"/></g>
<g><path style="opacity:1" fill="#fcfcfc" d="M 1913.5,995.5 C 1930.68,993.808 1947.02,996.641 1962.5,1004C 1975.68,1011.99 1977.84,1022.16 1969,1034.5C 1959.82,1043.01 1948.99,1048.17 1936.5,1050C 1917.97,1053.78 1900.3,1051.45 1883.5,1043C 1867.27,1030.34 1867.61,1018 1884.5,1006C 1893.75,1000.98 1903.42,997.476 1913.5,995.5 Z"/></g>
<g><path style="opacity:1" fill="#828486" d="M 1901.5,1080.5 C 1899.83,1080.5 1898.17,1080.5 1896.5,1080.5C 1896.5,1083.5 1896.5,1086.5 1896.5,1089.5C 1895.52,1086.38 1895.19,1083.04 1895.5,1079.5C 1897.74,1079.21 1899.74,1079.54 1901.5,1080.5 Z"/></g>
<g><path style="opacity:1" fill="#fefbdf" d="M 2124.5,1505.5 C 2121.27,1506.41 2117.94,1506.75 2114.5,1506.5C 2113.83,1506.5 2113.17,1506.5 2112.5,1506.5C 2115.66,1505.68 2119,1505.01 2122.5,1504.5C 2123.42,1504.54 2124.08,1504.88 2124.5,1505.5 Z"/></g>
<g><path style="opacity:0.999" fill="#fdeb07" d="M 2124.5,1505.5 C 2305.83,1512.52 2487.16,1519.36 2668.5,1526C 2685.34,1526.28 2702.17,1526.78 2719,1527.5C 2725.49,1527.04 2731.99,1526.71 2738.5,1526.5C 3276.53,1545.48 3814.53,1565.14 4352.5,1585.5C 4358.53,1587.55 4364.86,1588.55 4371.5,1588.5C 4374.58,1588.92 4377.58,1589.58 4380.5,1590.5C 4386.58,1592.94 4392.91,1594.94 4399.5,1596.5C 4400.79,1596.26 4401.79,1596.6 4402.5,1597.5C 4409.66,1601.57 4417.33,1604.9 4425.5,1607.5C 4428.7,1608.93 4431.7,1610.6 4434.5,1612.5C 4434.97,1613.91 4435.97,1614.57 4437.5,1614.5C 4438.49,1614.33 4439.16,1614.66 4439.5,1615.5C 4443.3,1619.24 4447.64,1622.24 4452.5,1624.5C 4452.97,1625.91 4453.97,1626.57 4455.5,1626.5C 4457.83,1628.5 4460.17,1630.5 4462.5,1632.5C 4463.87,1634.86 4465.87,1636.53 4468.5,1637.5C 4469.17,1637.5 4469.5,1637.83 4469.5,1638.5C 4472.5,1642.17 4475.83,1645.5 4479.5,1648.5C 4481.83,1651.17 4484.17,1653.83 4486.5,1656.5C 4487.42,1659.09 4489.09,1661.09 4491.5,1662.5C 4493.5,1664.83 4495.5,1667.17 4497.5,1669.5C 4497.43,1671.03 4498.09,1672.03 4499.5,1672.5C 4501.9,1674.3 4503.57,1676.63 4504.5,1679.5C 4504.65,1681.97 4505.65,1683.97 4507.5,1685.5C 4510.27,1688.71 4512.27,1692.38 4513.5,1696.5C 4515.93,1702.36 4518.6,1708.02 4521.5,1713.5C 4523.62,1716.87 4524.96,1720.53 4525.5,1724.5C 4526.18,1728.72 4527.18,1732.89 4528.5,1737C 4528.84,1738.03 4529.5,1738.53 4530.5,1738.5C 4530.5,1738.83 4530.5,1739.17 4530.5,1739.5C 4529.52,1741.6 4529.85,1743.6 4531.5,1745.5C 4531.5,1746.17 4531.5,1746.83 4531.5,1747.5C 4531.45,1750.37 4531.78,1753.21 4532.5,1756C 4532.68,1757.38 4533.35,1758.21 4534.5,1758.5C 4535.39,1761.74 4535.39,1764.9 4534.5,1768C 4535.17,1768.33 4535.83,1768.67 4536.5,1769C 4534.8,1837.45 4532.13,1905.95 4528.5,1974.5C 4526.66,1976 4526.32,1977.66 4527.5,1979.5C 4526.06,1985.13 4524.73,1990.79 4523.5,1996.5C 4522.88,1996.61 4522.38,1996.94 4522,1997.5C 4520.67,2001.81 4519.51,2006.14 4518.5,2010.5C 4518.5,2010.83 4518.5,2011.17 4518.5,2011.5C 4517.66,2011.84 4517.33,2012.51 4517.5,2013.5C 4517.1,2016.71 4516.1,2019.71 4514.5,2022.5C 4510.83,2027.17 4508.17,2032.5 4506.5,2038.5C 4506.61,2039.12 4506.94,2039.62 4507.5,2040C 4505.81,2041.25 4504.47,2042.75 4503.5,2044.5C 4501.75,2045.66 4500.75,2047.33 4500.5,2049.5C 4499.62,2049.37 4498.96,2049.7 4498.5,2050.5C 4495.78,2054.87 4493.11,2059.2 4490.5,2063.5C 4488.61,2067.78 4485.61,2071.78 4481.5,2075.5C 4479.41,2076.58 4478.08,2078.25 4477.5,2080.5C 4477.5,2081.17 4477.17,2081.5 4476.5,2081.5C 4472.56,2083.77 4469.23,2086.77 4466.5,2090.5C 4464.83,2092.83 4462.83,2094.83 4460.5,2096.5C 4457.19,2098.15 4454.52,2100.48 4452.5,2103.5C 4452.5,2104.17 4452.17,2104.5 4451.5,2104.5C 4451.57,2104.06 4451.4,2103.73 4451,2103.5C 4448,2105.73 4445.17,2108.07 4442.5,2110.5C 4442.5,2111.17 4442.17,2111.5 4441.5,2111.5C 4439.97,2111.43 4438.97,2112.09 4438.5,2113.5C 4434.37,2116.4 4430.04,2119.07 4425.5,2121.5C 4425.57,2121.06 4425.4,2120.73 4425,2120.5C 4422.93,2121.1 4421.76,2122.44 4421.5,2124.5C 4416.49,2126.65 4411.15,2128.99 4405.5,2131.5C 4401.27,2131.78 4397.27,2132.94 4393.5,2135C 4392.24,2135.42 4391.58,2136.25 4391.5,2137.5C 4382.61,2140.29 4373.28,2142.63 4363.5,2144.5C 4362.5,2143.17 4361.5,2143.17 4360.5,2144.5C 4353.28,2146.25 4345.95,2147.25 4338.5,2147.5C 4336.17,2146.17 4333.83,2146.17 4331.5,2147.5C 4229.66,2144.14 4127.82,2140.47 4026,2136.5C 4021.42,2136.7 4016.92,2137.36 4012.5,2138.5C 3379.52,2114.74 2746.52,2091.24 2113.5,2068C 2102.91,2067.89 2092.58,2066.39 2082.5,2063.5C 2078.26,2061.08 2073.6,2059.42 2068.5,2058.5C 2067.58,2058.54 2066.92,2058.88 2066.5,2059.5C 2049.66,2054.58 2033.99,2047.25 2019.5,2037.5C 2019.63,2036.62 2019.3,2035.96 2018.5,2035.5C 2017.31,2034.35 2016.31,2034.35 2015.5,2035.5C 2013.77,2034.97 2012.44,2033.97 2011.5,2032.5C 2011.63,2031.62 2011.3,2030.96 2010.5,2030.5C 2009.31,2029.35 2008.31,2029.35 2007.5,2030.5C 2001.43,2024.95 1995.1,2019.62 1988.5,2014.5C 1983.63,2008.11 1978.3,2002.11 1972.5,1996.5C 1971.17,1995.83 1970.17,1994.83 1969.5,1993.5C 1969.57,1991.97 1968.91,1990.97 1967.5,1990.5C 1966.83,1990.5 1966.5,1990.17 1966.5,1989.5C 1965.92,1987.25 1964.59,1985.58 1962.5,1984.5C 1959.07,1981.4 1956.4,1977.73 1954.5,1973.5C 1954.35,1971.03 1953.35,1969.03 1951.5,1967.5C 1948.73,1964.29 1946.73,1960.62 1945.5,1956.5C 1943.59,1950.41 1940.92,1944.75 1937.5,1939.5C 1935.77,1935.98 1934.44,1932.31 1933.5,1928.5C 1932.97,1924.25 1931.97,1920.08 1930.5,1916C 1930.16,1914.97 1929.5,1914.47 1928.5,1914.5C 1927.59,1913.04 1927.59,1911.7 1928.5,1910.5C 1928.66,1907.81 1928.5,1905.15 1928,1902.5C 1927.88,1900.56 1927.05,1899.23 1925.5,1898.5C 1924.1,1893.99 1923.77,1889.49 1924.5,1885C 1923.12,1878.96 1922.45,1872.79 1922.5,1866.5C 1924.71,1807.48 1927.04,1748.48 1929.5,1689.5C 1930.74,1682.6 1932.08,1675.6 1933.5,1668.5C 1933.32,1664.88 1933.99,1661.54 1935.5,1658.5C 1937.16,1653.27 1938.82,1647.94 1940.5,1642.5C 1940.39,1641.88 1940.06,1641.38 1939.5,1641C 1941.13,1638.58 1942.46,1636.08 1943.5,1633.5C 1946.72,1627.39 1949.72,1621.05 1952.5,1614.5C 1952.66,1612.85 1953.33,1611.51 1954.5,1610.5C 1956.59,1608.66 1957.92,1606.33 1958.5,1603.5C 1962.31,1599.22 1965.65,1594.56 1968.5,1589.5C 1969.6,1588.6 1969.6,1587.77 1968.5,1587C 1970.61,1585.28 1972.61,1583.44 1974.5,1581.5C 1980.5,1575.17 1986.5,1568.83 1992.5,1562.5C 1994.83,1559.5 1997.5,1556.83 2000.5,1554.5C 2006.12,1550.88 2011.45,1546.88 2016.5,1542.5C 2017.26,1540.74 2018.6,1539.74 2020.5,1539.5C 2022.03,1539.57 2023.03,1538.91 2023.5,1537.5C 2025.7,1535.9 2028.03,1534.57 2030.5,1533.5C 2035,1531.42 2039.33,1529.08 2043.5,1526.5C 2044.87,1526.66 2046.21,1526.49 2047.5,1526C 2055.14,1522.19 2062.81,1518.69 2070.5,1515.5C 2079.73,1513.61 2088.73,1511.28 2097.5,1508.5C 2098.5,1508.5 2099.5,1508.5 2100.5,1508.5C 2105.43,1508.77 2110.1,1508.1 2114.5,1506.5C 2117.94,1506.75 2121.27,1506.41 2124.5,1505.5 Z"/></g>
<g><path style="opacity:1" fill="#fef284" d="M 2112.5,1506.5 C 2113.17,1506.5 2113.83,1506.5 2114.5,1506.5C 2110.1,1508.1 2105.43,1508.77 2100.5,1508.5C 2104.24,1507.01 2108.24,1506.34 2112.5,1506.5 Z"/></g>
<g><path style="opacity:1" fill="#fff7bd" d="M 2097.5,1508.5 C 2088.73,1511.28 2079.73,1513.61 2070.5,1515.5C 2078.81,1512.53 2087.31,1509.86 2096,1507.5C 2096.38,1508.06 2096.88,1508.39 2097.5,1508.5 Z"/></g>
<g><path style="opacity:1" fill="#fff5a3" d="M 2070.5,1515.5 C 2062.81,1518.69 2055.14,1522.19 2047.5,1526C 2046.21,1526.49 2044.87,1526.66 2043.5,1526.5C 2051.99,1521.02 2060.99,1517.35 2070.5,1515.5 Z"/></g>
<g><path style="opacity:1" fill="#fefad9" d="M 2043.5,1526.5 C 2039.33,1529.08 2035,1531.42 2030.5,1533.5C 2034.01,1530.49 2037.84,1527.82 2042,1525.5C 2042.38,1526.06 2042.88,1526.39 2043.5,1526.5 Z"/></g>
<g><path style="opacity:1" fill="#fef9cd" d="M 2023.5,1537.5 C 2023.03,1538.91 2022.03,1539.57 2020.5,1539.5C 2020.97,1538.09 2021.97,1537.43 2023.5,1537.5 Z"/></g>
<g><path style="opacity:1" fill="#fffad7" d="M 2016.5,1542.5 C 2011.45,1546.88 2006.12,1550.88 2000.5,1554.5C 2005.14,1550.03 2009.97,1545.7 2015,1541.5C 2015.38,1542.06 2015.88,1542.39 2016.5,1542.5 Z"/></g>
<g><path style="opacity:1" fill="#fffad7" d="M 1992.5,1562.5 C 1986.5,1568.83 1980.5,1575.17 1974.5,1581.5C 1976.7,1577.12 1979.53,1573.12 1983,1569.5C 1985.78,1566.54 1988.95,1564.2 1992.5,1562.5 Z"/></g>
<g><path style="opacity:1" fill="#fff7b8" d="M 4352.5,1585.5 C 4359.11,1585.61 4365.44,1586.61 4371.5,1588.5C 4364.86,1588.55 4358.53,1587.55 4352.5,1585.5 Z"/></g>
<g><path style="opacity:1" fill="#fff9d0" d="M 4380.5,1590.5 C 4384.55,1591.01 4388.55,1591.85 4392.5,1593C 4395.28,1593.52 4397.61,1594.69 4399.5,1596.5C 4392.91,1594.94 4386.58,1592.94 4380.5,1590.5 Z"/></g>
<g><path style="opacity:1" fill="#fef9d1" d="M 1968.5,1589.5 C 1965.65,1594.56 1962.31,1599.22 1958.5,1603.5C 1960.88,1598.05 1964.21,1593.39 1968.5,1589.5 Z"/></g>
<g><path style="opacity:1" fill="#fff8c1" d="M 4402.5,1597.5 C 4410.73,1599.68 4418.39,1603.02 4425.5,1607.5C 4417.33,1604.9 4409.66,1601.57 4402.5,1597.5 Z"/></g>
<g><path style="opacity:1" fill="#fffbe0" d="M 1958.5,1603.5 C 1957.92,1606.33 1956.59,1608.66 1954.5,1610.5C 1955.08,1607.67 1956.41,1605.34 1958.5,1603.5 Z"/></g>
<g><path style="opacity:1" fill="#fff9cc" d="M 4434.5,1612.5 C 4436.03,1612.43 4437.03,1613.09 4437.5,1614.5C 4435.97,1614.57 4434.97,1613.91 4434.5,1612.5 Z"/></g>
<g><path style="opacity:1" fill="#e50d7e" d="M 2197.5,1615.5 C 2221.17,1618 2243.5,1624.83 2264.5,1636C 2268.33,1638.5 2271.5,1641.67 2274,1645.5C 2282.68,1665.23 2289.68,1685.56 2295,1706.5C 2298.52,1735.44 2301.52,1764.44 2304,1793.5C 2305.61,1772.79 2309.28,1752.45 2315,1732.5C 2324.12,1698.46 2334.46,1664.8 2346,1631.5C 2354.02,1623.45 2363.52,1621.29 2374.5,1625C 2387.52,1628.89 2400.19,1633.56 2412.5,1639C 2418.71,1643.42 2422.04,1649.42 2422.5,1657C 2400.63,1752.29 2372.46,1845.79 2338,1937.5C 2337.06,1940.76 2336.56,1944.1 2336.5,1947.5C 2338.17,1953.71 2338.67,1960.05 2338,1966.5C 2336.75,1969.38 2334.58,1971.21 2331.5,1972C 2303.96,1977.78 2278.63,1972.78 2255.5,1957C 2251.24,1952.64 2248.4,1947.48 2247,1941.5C 2246,1935.83 2245,1930.17 2244,1924.5C 2237.24,1869.45 2230.24,1814.45 2223,1759.5C 2211.57,1827.33 2194.57,1893.67 2172,1958.5C 2168.99,1962.52 2165.16,1965.35 2160.5,1967C 2139.37,1967.86 2119.37,1963.53 2100.5,1954C 2092.57,1946.67 2090.41,1937.83 2094,1927.5C 2116,1853.5 2138,1779.5 2160,1705.5C 2168.08,1677.25 2177.75,1649.59 2189,1622.5C 2191.46,1619.52 2194.3,1617.19 2197.5,1615.5 Z"/></g>
<g><path style="opacity:1" fill="#fff9d0" d="M 4439.5,1615.5 C 4443.61,1617.39 4447.61,1619.55 4451.5,1622C 4452.25,1622.67 4452.59,1623.5 4452.5,1624.5C 4447.64,1622.24 4443.3,1619.24 4439.5,1615.5 Z"/></g>
<g><path style="opacity:1" fill="#fffad9" d="M 1952.5,1614.5 C 1949.72,1621.05 1946.72,1627.39 1943.5,1633.5C 1945.24,1626.37 1948.24,1620.04 1952.5,1614.5 Z"/></g>
<g><path style="opacity:1" fill="#fefce6" d="M 4452.5,1624.5 C 4454.03,1624.43 4455.03,1625.09 4455.5,1626.5C 4453.97,1626.57 4452.97,1625.91 4452.5,1624.5 Z"/></g>
<g><path style="opacity:1" fill="#e50c7e" d="M 2487.5,1629.5 C 2502.5,1629.33 2517.5,1629.5 2532.5,1630C 2578.46,1633.05 2624.46,1635.38 2670.5,1637C 2688.13,1639.07 2693.96,1648.57 2688,1665.5C 2682.9,1684.13 2676.24,1702.13 2668,1719.5C 2666.5,1721 2665,1722.5 2663.5,1724C 2648.83,1724.67 2634.17,1724.67 2619.5,1724C 2615.81,1723.44 2612.15,1722.77 2608.5,1722C 2587.31,1721.18 2566.14,1720.01 2545,1718.5C 2539.33,1718.25 2533.83,1719.09 2528.5,1721C 2536.5,1724.67 2544.5,1728.33 2552.5,1732C 2558.92,1735.34 2561.75,1740.51 2561,1747.5C 2557.88,1755.99 2555.38,1764.66 2553.5,1773.5C 2575.49,1774.5 2597.49,1775.33 2619.5,1776C 2627.14,1776.47 2634.47,1778.14 2641.5,1781C 2645.07,1783.82 2647.07,1787.48 2647.5,1792C 2644.74,1804.27 2641.58,1816.44 2638,1828.5C 2634.67,1836.5 2631.33,1844.5 2628,1852.5C 2626.01,1856.49 2622.84,1858.99 2618.5,1860C 2587.48,1859.83 2556.48,1859.17 2525.5,1858C 2518.75,1872.17 2514.08,1887 2511.5,1902.5C 2535.8,1903.99 2560.14,1904.82 2584.5,1905C 2592.14,1905.47 2599.47,1907.14 2606.5,1910C 2612.05,1914.62 2613.89,1920.45 2612,1927.5C 2608.34,1939.81 2604.68,1952.14 2601,1964.5C 2595.15,1982.18 2582.98,1989.18 2564.5,1985.5C 2529.14,1984.6 2493.81,1983.1 2458.5,1981C 2449.11,1978.29 2441.28,1973.13 2435,1965.5C 2421.16,1950.49 2415.83,1932.82 2419,1912.5C 2423.7,1893.38 2428.86,1874.38 2434.5,1855.5C 2426.92,1855.42 2422.09,1851.76 2420,1844.5C 2419.33,1839.17 2419.33,1833.83 2420,1828.5C 2422.33,1819.16 2424.67,1809.83 2427,1800.5C 2429.63,1787.22 2436.8,1777.39 2448.5,1771C 2453.15,1770.5 2457.82,1770.33 2462.5,1770.5C 2469.35,1754.28 2475.02,1737.62 2479.5,1720.5C 2472.16,1719.42 2465.16,1717.25 2458.5,1714C 2453.77,1711.04 2451.94,1706.88 2453,1701.5C 2457.89,1678.83 2465.56,1657.16 2476,1636.5C 2479.23,1632.98 2483.06,1630.65 2487.5,1629.5 Z"/></g>
<g><path style="opacity:1" fill="#fff6b3" d="M 4462.5,1632.5 C 4465.11,1633.44 4467.11,1635.11 4468.5,1637.5C 4465.87,1636.53 4463.87,1634.86 4462.5,1632.5 Z"/></g>
<g><path style="opacity:1" fill="#e50c7e" d="M 2732.5,1638.5 C 2747.5,1638.33 2762.5,1638.5 2777.5,1639C 2823.46,1642.05 2869.46,1644.38 2915.5,1646C 2933.13,1648.07 2938.96,1657.57 2933,1674.5C 2927.9,1693.13 2921.24,1711.13 2913,1728.5C 2911.5,1730 2910,1731.5 2908.5,1733C 2893.83,1733.67 2879.17,1733.67 2864.5,1733C 2860.85,1732.23 2857.19,1731.56 2853.5,1731C 2832.31,1730.18 2811.14,1729.01 2790,1727.5C 2784.33,1727.25 2778.83,1728.09 2773.5,1730C 2781.5,1733.67 2789.5,1737.33 2797.5,1741C 2803.92,1744.34 2806.75,1749.51 2806,1756.5C 2802.88,1764.99 2800.38,1773.66 2798.5,1782.5C 2820.49,1783.5 2842.49,1784.33 2864.5,1785C 2872.14,1785.47 2879.47,1787.14 2886.5,1790C 2890.07,1792.82 2892.07,1796.48 2892.5,1801C 2889.74,1813.27 2886.58,1825.44 2883,1837.5C 2879.67,1845.5 2876.33,1853.5 2873,1861.5C 2871.01,1865.49 2867.84,1867.99 2863.5,1869C 2832.48,1868.83 2801.48,1868.17 2770.5,1867C 2763.75,1881.17 2759.08,1896 2756.5,1911.5C 2780.8,1912.99 2805.14,1913.82 2829.5,1914C 2837.05,1914.78 2844.38,1916.44 2851.5,1919C 2857.05,1923.62 2858.89,1929.45 2857,1936.5C 2853.34,1948.81 2849.68,1961.14 2846,1973.5C 2840.15,1991.18 2827.98,1998.18 2809.5,1994.5C 2774.14,1993.6 2738.81,1992.1 2703.5,1990C 2694.11,1987.29 2686.28,1982.13 2680,1974.5C 2666.01,1959.53 2660.68,1941.86 2664,1921.5C 2668.7,1902.38 2673.86,1883.38 2679.5,1864.5C 2671.92,1864.42 2667.09,1860.76 2665,1853.5C 2664.33,1848.17 2664.33,1842.83 2665,1837.5C 2667.33,1828.16 2669.67,1818.83 2672,1809.5C 2674.63,1796.22 2681.8,1786.39 2693.5,1780C 2698.15,1779.5 2702.82,1779.33 2707.5,1779.5C 2714.35,1763.28 2720.02,1746.62 2724.5,1729.5C 2717.16,1728.42 2710.16,1726.25 2703.5,1723C 2698.77,1720.04 2696.94,1715.88 2698,1710.5C 2702.89,1687.83 2710.56,1666.16 2721,1645.5C 2724.23,1641.98 2728.06,1639.65 2732.5,1638.5 Z"/></g>
<g><path style="opacity:1" fill="#fefbe0" d="M 4469.5,1638.5 C 4473.83,1640.83 4477.17,1644.17 4479.5,1648.5C 4475.83,1645.5 4472.5,1642.17 4469.5,1638.5 Z"/></g>
<g><path style="opacity:1" fill="#e50c7e" d="M 3033.5,1646.5 C 3054.25,1646.88 3074.92,1648.38 3095.5,1651C 3134.87,1659.05 3163.04,1681.21 3180,1717.5C 3193.07,1770.54 3179.57,1815.71 3139.5,1853C 3125.02,1864.08 3109.68,1873.91 3093.5,1882.5C 3114.34,1917.18 3132.84,1953.18 3149,1990.5C 3153.03,2001.12 3150.53,2009.62 3141.5,2016C 3127.62,2024.6 3112.96,2031.6 3097.5,2037C 3092.71,2037.88 3088.05,2037.55 3083.5,2036C 3080.07,2032.96 3077.23,2029.46 3075,2025.5C 3053.71,1984.26 3032.38,1942.93 3011,1901.5C 3001.19,1932.42 2991.86,1963.42 2983,1994.5C 2981.83,1995.67 2980.67,1996.83 2979.5,1998C 2954.83,2002.39 2931.16,1999.06 2908.5,1988C 2905.26,1986.02 2903.09,1983.19 2902,1979.5C 2901.45,1974.46 2901.78,1969.46 2903,1964.5C 2924.88,1890.31 2947.38,1816.31 2970.5,1742.5C 2969.83,1742.17 2969.17,1741.83 2968.5,1741.5C 2958.72,1743.45 2948.89,1745.12 2939,1746.5C 2934.14,1746.57 2930.48,1744.57 2928,1740.5C 2927.33,1733.83 2927.33,1727.17 2928,1720.5C 2931.74,1704.6 2937.08,1689.27 2944,1674.5C 2945.89,1670.56 2948.39,1667.06 2951.5,1664C 2959.09,1660.14 2967.09,1657.47 2975.5,1656C 2985.19,1654.13 2994.86,1652.13 3004.5,1650C 3014.36,1649.22 3024.03,1648.05 3033.5,1646.5 Z"/></g>
<g><path style="opacity:1" fill="#fff9d3" d="M 1940.5,1642.5 C 1938.82,1647.94 1937.16,1653.27 1935.5,1658.5C 1935.66,1652.48 1937.33,1647.15 1940.5,1642.5 Z"/></g>
<g><path style="opacity:1" fill="#d9ce80" d="M 4486.5,1656.5 C 4488.91,1657.91 4490.58,1659.91 4491.5,1662.5C 4489.09,1661.09 4487.42,1659.09 4486.5,1656.5 Z"/></g>
<g><path style="opacity:1" fill="#e50d7e" d="M 3284.5,1658.5 C 3307.24,1657.49 3329.24,1660.99 3350.5,1669C 3354.97,1671.14 3358.47,1674.31 3361,1678.5C 3361.67,1684.17 3361.67,1689.83 3361,1695.5C 3346.53,1736.91 3332.86,1778.57 3320,1820.5C 3303.4,1878.29 3286.4,1935.96 3269,1993.5C 3264.49,2005.01 3255.99,2010.35 3243.5,2009.5C 3221.46,2008.74 3201.12,2002.58 3182.5,1991C 3178.9,1988.29 3176.4,1984.79 3175,1980.5C 3174.33,1974.5 3174.33,1968.5 3175,1962.5C 3201.6,1878.03 3228.6,1793.7 3256,1709.5C 3260.67,1697.5 3265.33,1685.5 3270,1673.5C 3273.05,1666.62 3277.88,1661.62 3284.5,1658.5 Z"/></g>
<g><path style="opacity:0.627" fill="#fcf9d5" d="M 4497.5,1669.5 C 4498.91,1669.97 4499.57,1670.97 4499.5,1672.5C 4498.09,1672.03 4497.43,1671.03 4497.5,1669.5 Z"/></g>
<g><path style="opacity:1" fill="#e50d7e" d="M 3618.5,1693.5 C 3617.22,1695.61 3616.72,1697.94 3617,1700.5C 3617.94,1698.51 3618.77,1696.51 3619.5,1694.5C 3621.72,1684.53 3627.39,1677.37 3636.5,1673C 3705.34,1672.9 3774.01,1676.24 3842.5,1683C 3850.05,1684.38 3853.71,1688.88 3853.5,1696.5C 3853.38,1700.22 3852.88,1703.89 3852,1707.5C 3847.41,1723.27 3842.41,1738.94 3837,1754.5C 3834.71,1758.79 3831.21,1761.62 3826.5,1763C 3797.62,1763.34 3768.78,1762.17 3740,1759.5C 3735.81,1759.81 3731.64,1760.31 3727.5,1761C 3738.79,1765.05 3749.79,1769.72 3760.5,1775C 3763.3,1776.79 3765.8,1778.96 3768,1781.5C 3769.07,1784.54 3769.57,1787.71 3769.5,1791C 3769.24,1797.99 3768.07,1804.82 3766,1811.5C 3746.77,1869.77 3728.77,1928.43 3712,1987.5C 3709.26,1996.72 3705.93,2005.72 3702,2014.5C 3697.85,2021.49 3691.69,2025.33 3683.5,2026C 3661,2028.28 3639.67,2024.28 3619.5,2014C 3617.19,2012.36 3615.69,2010.2 3615,2007.5C 3614.33,2003.17 3614.33,1998.83 3615,1994.5C 3622.07,1970.97 3629.73,1947.64 3638,1924.5C 3652.6,1871.37 3669.6,1819.03 3689,1767.5C 3690.02,1763.68 3689.52,1760.18 3687.5,1757C 3668.13,1756.75 3648.79,1755.75 3629.5,1754C 3622.69,1753.62 3616.86,1751.12 3612,1746.5C 3611.14,1744.91 3610.47,1743.25 3610,1741.5C 3609.22,1734.07 3609.72,1726.74 3611.5,1719.5C 3613.27,1715.76 3614.1,1711.76 3614,1707.5C 3612.52,1711.43 3611.36,1715.43 3610.5,1719.5C 3607.77,1728.18 3604.94,1736.85 3602,1745.5C 3599.71,1749.79 3596.21,1752.62 3591.5,1754C 3562.62,1754.34 3533.78,1753.17 3505,1750.5C 3500.81,1750.81 3496.64,1751.31 3492.5,1752C 3503.79,1756.05 3514.79,1760.72 3525.5,1766C 3528.3,1767.79 3530.8,1769.96 3533,1772.5C 3534.07,1775.54 3534.57,1778.71 3534.5,1782C 3534.24,1788.99 3533.07,1795.82 3531,1802.5C 3511.76,1860.78 3493.76,1919.44 3477,1978.5C 3474.26,1987.72 3470.93,1996.72 3467,2005.5C 3462.85,2012.49 3456.69,2016.33 3448.5,2017C 3426,2019.28 3404.67,2015.28 3384.5,2005C 3382.19,2003.36 3380.69,2001.2 3380,1998.5C 3379.33,1994.17 3379.33,1989.83 3380,1985.5C 3387.07,1961.97 3394.73,1938.64 3403,1915.5C 3417.6,1862.37 3434.6,1810.03 3454,1758.5C 3455.02,1754.68 3454.52,1751.18 3452.5,1748C 3433.13,1747.75 3413.79,1746.75 3394.5,1745C 3381.3,1744.96 3374.63,1738.46 3374.5,1725.5C 3375.82,1707.52 3380.66,1690.52 3389,1674.5C 3391.97,1669.53 3396.14,1666.03 3401.5,1664C 3470.34,1663.9 3539.01,1667.24 3607.5,1674C 3617.45,1676.71 3621.12,1683.21 3618.5,1693.5 Z"/></g>
<g><path style="opacity:1" fill="#e50c7e" d="M 3884.5,1680.5 C 3899.5,1680.33 3914.5,1680.5 3929.5,1681C 3975.46,1684.05 4021.46,1686.38 4067.5,1688C 4085.13,1690.07 4090.96,1699.57 4085,1716.5C 4079.9,1735.13 4073.24,1753.13 4065,1770.5C 4063.5,1772 4062,1773.5 4060.5,1775C 4045.83,1775.67 4031.17,1775.67 4016.5,1775C 4012.85,1774.23 4009.19,1773.56 4005.5,1773C 3984.31,1772.18 3963.14,1771.01 3942,1769.5C 3936.33,1769.25 3930.83,1770.09 3925.5,1772C 3933.5,1775.67 3941.5,1779.33 3949.5,1783C 3955.92,1786.34 3958.75,1791.51 3958,1798.5C 3954.88,1806.99 3952.38,1815.66 3950.5,1824.5C 3972.49,1825.5 3994.49,1826.33 4016.5,1827C 4024.14,1827.47 4031.47,1829.14 4038.5,1832C 4042.07,1834.82 4044.07,1838.48 4044.5,1843C 4041.74,1855.27 4038.58,1867.44 4035,1879.5C 4031.67,1887.5 4028.33,1895.5 4025,1903.5C 4023.01,1907.49 4019.84,1909.99 4015.5,1911C 3984.48,1910.83 3953.48,1910.17 3922.5,1909C 3915.75,1923.18 3911.08,1938.01 3908.5,1953.5C 3932.8,1954.99 3957.14,1955.82 3981.5,1956C 3989.14,1956.47 3996.47,1958.14 4003.5,1961C 4009.05,1965.62 4010.89,1971.45 4009,1978.5C 4005.34,1990.81 4001.68,2003.14 3998,2015.5C 3991.88,2033.41 3979.38,2040.41 3960.5,2036.5C 3925.47,2035.58 3890.47,2034.08 3855.5,2032C 3846.11,2029.29 3838.28,2024.13 3832,2016.5C 3818.16,2001.49 3812.83,1983.82 3816,1963.5C 3820.7,1944.38 3825.86,1925.38 3831.5,1906.5C 3823.92,1906.42 3819.09,1902.76 3817,1895.5C 3816.33,1890.17 3816.33,1884.83 3817,1879.5C 3819.33,1870.16 3821.67,1860.83 3824,1851.5C 3826.63,1838.22 3833.8,1828.39 3845.5,1822C 3850.15,1821.5 3854.82,1821.33 3859.5,1821.5C 3866.35,1805.28 3872.02,1788.62 3876.5,1771.5C 3869.16,1770.42 3862.16,1768.25 3855.5,1765C 3850.77,1762.04 3848.94,1757.88 3850,1752.5C 3854.89,1729.83 3862.56,1708.16 3873,1687.5C 3876.23,1683.98 3880.06,1681.65 3884.5,1680.5 Z"/></g>
<g><path style="opacity:0.996" fill="#fef9cf" d="M 4504.5,1679.5 C 4505.97,1681.15 4507.3,1682.98 4508.5,1685C 4508.27,1685.4 4507.94,1685.57 4507.5,1685.5C 4505.65,1683.97 4504.65,1681.97 4504.5,1679.5 Z"/></g>
<g><path style="opacity:1" fill="#fef9ce" d="M 1933.5,1668.5 C 1932.08,1675.6 1930.74,1682.6 1929.5,1689.5C 1929.67,1684.14 1930.17,1678.81 1931,1673.5C 1931.05,1671.26 1931.88,1669.59 1933.5,1668.5 Z"/></g>
<g><path style="opacity:1" fill="#e50c7e" d="M 4184.5,1688.5 C 4205.25,1688.88 4225.92,1690.38 4246.5,1693C 4285.87,1701.05 4314.04,1723.21 4331,1759.5C 4344.19,1812.59 4330.69,1857.75 4290.5,1895C 4276.02,1906.08 4260.68,1915.91 4244.5,1924.5C 4265.34,1959.18 4283.84,1995.18 4300,2032.5C 4304.03,2043.12 4301.53,2051.62 4292.5,2058C 4278.62,2066.6 4263.96,2073.6 4248.5,2079C 4243.71,2079.88 4239.05,2079.55 4234.5,2078C 4231.07,2074.96 4228.23,2071.46 4226,2067.5C 4204.71,2026.26 4183.38,1984.93 4162,1943.5C 4152.19,1974.42 4142.86,2005.42 4134,2036.5C 4132.83,2037.67 4131.67,2038.83 4130.5,2040C 4105.83,2044.39 4082.16,2041.06 4059.5,2030C 4056.26,2028.02 4054.09,2025.19 4053,2021.5C 4052.45,2016.46 4052.78,2011.46 4054,2006.5C 4075.88,1932.31 4098.38,1858.31 4121.5,1784.5C 4120.83,1784.17 4120.17,1783.83 4119.5,1783.5C 4109.72,1785.45 4099.89,1787.12 4090,1788.5C 4085.14,1788.57 4081.48,1786.57 4079,1782.5C 4078.33,1775.83 4078.33,1769.17 4079,1762.5C 4082.74,1746.6 4088.08,1731.27 4095,1716.5C 4096.89,1712.56 4099.39,1709.06 4102.5,1706C 4110.09,1702.14 4118.09,1699.47 4126.5,1698C 4136.19,1696.13 4145.86,1694.13 4155.5,1692C 4165.36,1691.22 4175.03,1690.05 4184.5,1688.5 Z"/></g>
<g><path style="opacity:0.584" fill="#fef9d2" d="M 4513.5,1696.5 C 4516.98,1701.45 4519.98,1706.78 4522.5,1712.5C 4522.38,1713.11 4522.04,1713.44 4521.5,1713.5C 4518.6,1708.02 4515.93,1702.36 4513.5,1696.5 Z"/></g>
<g><path style="opacity:1" fill="#ef956f" d="M 3618.5,1693.5 C 3618.5,1694.17 3618.83,1694.5 3619.5,1694.5C 3618.77,1696.51 3617.94,1698.51 3617,1700.5C 3616.72,1697.94 3617.22,1695.61 3618.5,1693.5 Z"/></g>
<g><path style="opacity:1" fill="#f3aa63" d="M 3611.5,1719.5 C 3611.17,1719.5 3610.83,1719.5 3610.5,1719.5C 3611.36,1715.43 3612.52,1711.43 3614,1707.5C 3614.1,1711.76 3613.27,1715.76 3611.5,1719.5 Z"/></g>
<g><path style="opacity:1" fill="#fdea0d" d="M 3036.5,1728.5 C 3050.63,1727.2 3064.3,1729.04 3077.5,1734C 3098.15,1745.51 3103.98,1762.34 3095,1784.5C 3082.68,1800.92 3066.51,1811.75 3046.5,1817C 3043.18,1817.5 3039.85,1817.67 3036.5,1817.5C 3036.55,1814.43 3037.05,1811.43 3038,1808.5C 3042.17,1796.98 3045.84,1785.32 3049,1773.5C 3053.19,1758.03 3047.69,1748.2 3032.5,1744C 3020.99,1741.42 3009.65,1738.42 2998.5,1735C 3011.22,1732.35 3023.88,1730.19 3036.5,1728.5 Z"/></g>
<g><path style="opacity:0.5" fill="#fef7bb" d="M 4525.5,1724.5 C 4527.94,1728.8 4529.6,1733.47 4530.5,1738.5C 4529.5,1738.53 4528.84,1738.03 4528.5,1737C 4527.18,1732.89 4526.18,1728.72 4525.5,1724.5 Z"/></g>
<g><path style="opacity:0.008" fill="#fff6a7" d="M 4530.5,1739.5 C 4531.34,1741.38 4531.67,1743.38 4531.5,1745.5C 4529.85,1743.6 4529.52,1741.6 4530.5,1739.5 Z"/></g>
<g><path style="opacity:0.71" fill="#fef49b" d="M 4531.5,1747.5 C 4532.87,1750.96 4533.87,1754.63 4534.5,1758.5C 4533.35,1758.21 4532.68,1757.38 4532.5,1756C 4531.78,1753.21 4531.45,1750.37 4531.5,1747.5 Z"/></g>
<g><path style="opacity:1" fill="#fdea0d" d="M 4187.5,1770.5 C 4201.63,1769.2 4215.3,1771.04 4228.5,1776C 4249.15,1787.51 4254.98,1804.34 4246,1826.5C 4235.41,1840.41 4221.91,1850.58 4205.5,1857C 4199.63,1858.81 4193.63,1859.64 4187.5,1859.5C 4187.34,1857.47 4187.5,1855.47 4188,1853.5C 4193.59,1838.14 4198.09,1822.47 4201.5,1806.5C 4201.54,1800.79 4199.54,1795.96 4195.5,1792C 4191.68,1789.62 4187.68,1787.62 4183.5,1786C 4171.99,1783.42 4160.65,1780.42 4149.5,1777C 4162.19,1774.15 4174.85,1771.99 4187.5,1770.5 Z"/></g>
<g><path style="opacity:0.924" fill="#fff389" d="M 1925.5,1898.5 C 1927.05,1899.23 1927.88,1900.56 1928,1902.5C 1928.5,1905.15 1928.66,1907.81 1928.5,1910.5C 1927.21,1906.69 1926.21,1902.69 1925.5,1898.5 Z"/></g>
<g><path style="opacity:0.4" fill="#fef7b9" d="M 1928.5,1914.5 C 1929.5,1914.47 1930.16,1914.97 1930.5,1916C 1931.97,1920.08 1932.97,1924.25 1933.5,1928.5C 1931.06,1924.2 1929.4,1919.53 1928.5,1914.5 Z"/></g>
<g><path style="opacity:0.094" fill="#fef9d2" d="M 1937.5,1939.5 C 1940.92,1944.75 1943.59,1950.41 1945.5,1956.5C 1942.02,1951.55 1939.02,1946.22 1936.5,1940.5C 1936.62,1939.89 1936.96,1939.56 1937.5,1939.5 Z"/></g>
<g><path style="opacity:0.996" fill="#fef9d0" d="M 1951.5,1967.5 C 1953.35,1969.03 1954.35,1971.03 1954.5,1973.5C 1953.03,1971.85 1951.7,1970.02 1950.5,1968C 1950.73,1967.6 1951.06,1967.43 1951.5,1967.5 Z"/></g>
<g><path style="opacity:0.992" fill="#fef7b7" d="M 4528.5,1974.5 C 4528.78,1976.41 4528.45,1978.08 4527.5,1979.5C 4526.32,1977.66 4526.66,1976 4528.5,1974.5 Z"/></g>
<g><path style="opacity:0.408" fill="#fef7bf" d="M 1962.5,1984.5 C 1964.59,1985.58 1965.92,1987.25 1966.5,1989.5C 1964.41,1988.42 1963.08,1986.75 1962.5,1984.5 Z"/></g>
<g><path style="opacity:0.549" fill="#fffad6" d="M 1967.5,1990.5 C 1968.91,1990.97 1969.57,1991.97 1969.5,1993.5C 1968.09,1993.03 1967.43,1992.03 1967.5,1990.5 Z"/></g>
<g><path style="opacity:0.173" fill="#fef38c" d="M 1972.5,1996.5 C 1978.3,2002.11 1983.63,2008.11 1988.5,2014.5C 1982.23,2009.26 1976.9,2003.26 1972.5,1996.5 Z"/></g>
<g><path style="opacity:0.122" fill="#fff6ae" d="M 4523.5,1996.5 C 4522.97,2001.78 4521.3,2006.45 4518.5,2010.5C 4519.51,2006.14 4520.67,2001.81 4522,1997.5C 4522.38,1996.94 4522.88,1996.61 4523.5,1996.5 Z"/></g>
<g><path style="opacity:0.351" fill="#fffce6" d="M 4518.5,2011.5 C 4519.76,2012.62 4519.42,2013.29 4517.5,2013.5C 4517.33,2012.51 4517.66,2011.84 4518.5,2011.5 Z"/></g>
<g><path style="opacity:0.796" fill="#fff6b0" d="M 4514.5,2022.5 C 4512.82,2028.52 4510.16,2033.86 4506.5,2038.5C 4508.17,2032.5 4510.83,2027.17 4514.5,2022.5 Z"/></g>
<g><path style="opacity:1" fill="#fef5a5" d="M 2011.5,2032.5 C 2009.85,2032.34 2008.51,2031.67 2007.5,2030.5C 2008.31,2029.35 2009.31,2029.35 2010.5,2030.5C 2011.3,2030.96 2011.63,2031.62 2011.5,2032.5 Z"/></g>
<g><path style="opacity:0.396" fill="#fef6ad" d="M 2019.5,2037.5 C 2017.85,2037.34 2016.51,2036.67 2015.5,2035.5C 2016.31,2034.35 2017.31,2034.35 2018.5,2035.5C 2019.3,2035.96 2019.63,2036.62 2019.5,2037.5 Z"/></g>
<g><path style="opacity:0.808" fill="#fffbde" d="M 4503.5,2044.5 C 4503.25,2046.67 4502.25,2048.34 4500.5,2049.5C 4500.75,2047.33 4501.75,2045.66 4503.5,2044.5 Z"/></g>
<g><path style="opacity:0.38" fill="#fff6b4" d="M 4500.5,2049.5 C 4498.12,2054.95 4494.79,2059.61 4490.5,2063.5C 4493.11,2059.2 4495.78,2054.87 4498.5,2050.5C 4498.96,2049.7 4499.62,2049.37 4500.5,2049.5 Z"/></g>
<g><path style="opacity:0.525" fill="#fff178" d="M 2082.5,2063.5 C 2076.9,2062.77 2071.57,2061.43 2066.5,2059.5C 2066.92,2058.88 2067.58,2058.54 2068.5,2058.5C 2073.6,2059.42 2078.26,2061.08 2082.5,2063.5 Z"/></g>
<g><path style="opacity:0.216" fill="#fefbdf" d="M 4481.5,2075.5 C 4480.92,2077.75 4479.59,2079.42 4477.5,2080.5C 4478.08,2078.25 4479.41,2076.58 4481.5,2075.5 Z"/></g>
<g><path style="opacity:0.149" fill="#fef7b7" d="M 4476.5,2081.5 C 4474.42,2085.88 4471.09,2088.88 4466.5,2090.5C 4469.23,2086.77 4472.56,2083.77 4476.5,2081.5 Z"/></g>
<g><path style="opacity:0.314" fill="#fef8c1" d="M 4460.5,2096.5 C 4458.43,2099.57 4455.76,2101.91 4452.5,2103.5C 4454.52,2100.48 4457.19,2098.15 4460.5,2096.5 Z"/></g>
<g><path style="opacity:0.431" fill="#fff7b4" d="M 4451.5,2104.5 C 4449.36,2107.16 4446.86,2109.5 4444,2111.5C 4443.62,2110.94 4443.12,2110.61 4442.5,2110.5C 4445.17,2108.07 4448,2105.73 4451,2103.5C 4451.4,2103.73 4451.57,2104.06 4451.5,2104.5 Z"/></g>
<g><path style="opacity:0.502" fill="#fef8cb" d="M 4441.5,2111.5 C 4441.03,2112.91 4440.03,2113.57 4438.5,2113.5C 4438.97,2112.09 4439.97,2111.43 4441.5,2111.5 Z"/></g>
<g><path style="opacity:0.282" fill="#fef7b8" d="M 4425.5,2121.5 C 4424.56,2122.97 4423.23,2123.97 4421.5,2124.5C 4421.76,2122.44 4422.93,2121.1 4425,2120.5C 4425.4,2120.73 4425.57,2121.06 4425.5,2121.5 Z"/></g>
<g><path style="opacity:0.071" fill="#fef49b" d="M 4405.5,2131.5 C 4401.13,2134.01 4396.47,2136.01 4391.5,2137.5C 4391.58,2136.25 4392.24,2135.42 4393.5,2135C 4397.27,2132.94 4401.27,2131.78 4405.5,2131.5 Z"/></g>
<g><path style="opacity:0.035" fill="#fffad7" d="M 4360.5,2144.5 C 4361.5,2143.17 4362.5,2143.17 4363.5,2144.5C 4362.65,2145.62 4361.65,2145.62 4360.5,2144.5 Z"/></g>
<g><path style="opacity:0.057" fill="#fdf6b4" d="M 4331.5,2147.5 C 4333.83,2146.17 4336.17,2146.17 4338.5,2147.5C 4336.34,2148.42 4334,2148.42 4331.5,2147.5 Z"/></g>
</svg>
