<svg xmlns="http://www.w3.org/2000/svg"  viewBox="0 0 100 100">

  <path
     style="fill:currentColor;stroke:none;stroke-width:2.11314;stroke-linejoin:round;paint-order:stroke fill markers"
     d="M 6.0579249,36.183252 18.76321,28.661724 78.020661,29.169936 82.492922,57.528131 91.539085,81.51571 80.053506,81.312426 82.187993,92.899646 11.241682,97.371906 9.0055506,54.682149 Z"
     id="path9" />
  <g
     transform="matrix(0.01138041,0,0,-0.01138041,-66.370836,109.19156)"
     stroke="none"
     id="g8">
    <path
       d="m 9670,9541 c -226,-85 -280,-132 -280,-249 0,-33 -7,-58 -23,-82 -13,-19 -38,-67 -56,-106 -26,-57 -47,-84 -102,-134 -73,-65 -126,-136 -177,-235 -17,-33 -51,-80 -77,-105 -68,-66 -132,-164 -219,-343 -95,-192 -140,-261 -211,-322 -42,-35 -64,-65 -91,-123 -28,-57 -58,-99 -119,-162 -44,-47 -107,-120 -139,-163 -67,-90 -96,-114 -186,-154 -36,-17 -81,-44 -101,-61 -33,-29 -40,-31 -170,-40 -132,-10 -203,-27 -409,-98 -25,-8 -78,-21 -118,-29 -123,-23 -278,-110 -369,-208 -18,-19 -58,-45 -90,-57 -32,-13 -137,-64 -233,-113 -236,-122 -270,-159 -306,-337 -17,-84 -17,-86 10,-280 15,-107 36,-229 46,-270 10,-41 24,-113 30,-160 6,-47 18,-112 25,-145 8,-33 19,-100 25,-150 7,-49 22,-139 35,-200 13,-60 31,-157 40,-215 9,-58 22,-132 30,-165 17,-71 38,-605 40,-995 1,-245 9,-388 37,-660 6,-58 14,-166 18,-240 7,-135 13,-198 51,-530 29,-255 37,-372 49,-685 6,-154 15,-327 20,-385 35,-396 35,-400 72,-453 30,-42 88,-67 155,-67 42,0 90,11 173,40 146,51 490,113 750,135 102,8 194,17 205,19 11,3 128,14 260,25 132,12 263,24 290,27 28,3 410,8 850,10 643,2 826,6 930,18 172,21 282,20 440,-4 175,-26 382,-26 551,0 71,11 224,25 339,30 213,10 284,16 500,44 66,8 190,20 275,26 85,6 207,20 270,30 63,11 156,24 207,29 151,16 232,72 295,206 32,67 33,75 33,185 -1,100 -5,128 -33,219 -30,96 -32,114 -32,244 v 140 l 128,-7 c 70,-4 172,-8 227,-9 97,-2 102,-3 160,-40 133,-82 314,-83 386,-1 67,76 65,172 -5,283 -13,20 -27,47 -31,61 -4,14 -31,63 -59,110 -28,47 -67,121 -85,165 -19,44 -58,112 -86,150 -78,106 -110,162 -145,250 -17,44 -44,103 -60,130 -15,28 -35,87 -45,135 -9,46 -41,152 -72,235 -76,210 -130,379 -143,455 -6,36 -22,108 -35,160 -21,84 -49,216 -116,540 -11,52 -28,127 -39,165 -28,100 -70,330 -70,384 0,25 -7,89 -15,141 -20,128 -19,262 2,325 20,60 22,240 3,330 -15,78 -85,299 -123,395 -28,70 -30,86 -37,255 -6,164 -9,185 -32,235 -73,160 -166,191 -442,146 -115,-19 -126,-19 -405,-3 -157,9 -348,20 -424,23 -82,4 -140,11 -144,18 -4,6 -12,45 -19,86 -19,121 -40,214 -53,238 -7,13 -10,36 -6,52 7,32 -15,84 -40,94 -9,3 -29,6 -45,6 -23,0 -48,21 -133,110 -85,89 -114,129 -157,211 -44,83 -71,118 -153,202 -55,56 -125,136 -157,177 -32,41 -86,102 -121,136 -35,34 -95,97 -134,140 -38,43 -115,127 -170,185 -110,116 -215,277 -242,370 -9,30 -23,65 -33,79 -10,14 -29,48 -43,75 -30,60 -69,98 -119,119 -52,22 -91,19 -178,-13 z m -80,-493 c 69,-30 83,-33 175,-33 81,0 109,5 148,22 l 48,22 19,-32 c 11,-18 20,-40 20,-49 0,-9 58,-77 128,-150 71,-73 148,-155 172,-183 24,-27 92,-99 151,-160 58,-60 123,-132 143,-160 21,-27 83,-97 139,-155 83,-86 110,-122 145,-192 39,-80 178,-258 201,-258 5,0 21,-16 36,-36 24,-31 25,-37 13,-52 -58,-67 -118,-228 -118,-313 v -44 l -863,-5 c -928,-5 -1154,-4 -1344,6 l -121,6 v 43 c 0,23 -8,57 -16,74 -25,47 -56,149 -66,215 -5,37 -17,67 -30,81 -22,23 -22,23 -2,52 10,15 27,40 36,55 9,17 22,25 30,22 9,-3 22,6 32,23 10,15 37,53 60,83 23,30 53,78 68,105 15,28 43,79 63,115 19,36 47,92 61,125 36,83 94,168 167,245 40,42 77,95 104,149 30,59 64,105 116,159 96,100 129,142 161,209 15,30 32,52 38,49 6,-2 45,-20 86,-38 z m 1678,-1628 c 15,-31 22,-62 22,-103 v -58 l -57,7 c -32,3 -60,8 -61,9 -6,5 19,118 35,158 9,21 21,36 27,34 6,-1 21,-23 34,-47 z m -2830,4 c 8,-2 12,-25 12,-69 v -65 h -115 c -63,0 -115,3 -115,6 0,18 49,69 98,103 55,38 69,41 120,25 z m 49,-508 c 4,-3 53,-300 53,-321 0,-14 -5,-25 -11,-25 -7,0 -53,-19 -103,-43 -141,-67 -209,-146 -209,-243 0,-66 37,-133 95,-172 40,-26 47,-27 177,-28 226,-2 353,33 427,119 93,109 86,209 -24,325 -50,52 -118,91 -159,92 -17,0 -23,7 -28,33 -3,17 -14,79 -24,137 -11,58 -17,108 -15,112 6,10 114,10 207,1 62,-5 69,-8 87,-38 21,-34 57,-55 95,-55 21,0 54,30 80,74 9,16 47,17 452,18 l 441,1 35,-36 c 45,-48 78,-49 122,-2 26,27 43,35 84,41 49,6 51,6 61,-22 6,-16 28,-46 48,-66 29,-30 44,-38 72,-38 53,0 84,35 78,89 l -4,41 h 81 c 44,0 144,-3 223,-7 l 142,-6 v -26 c 0,-34 23,-67 60,-86 70,-36 130,-3 130,72 v 43 h 145 c 139,0 145,-1 159,-23 23,-34 47,-107 35,-107 -5,0 -21,-11 -34,-25 -29,-28 -32,-70 -9,-103 19,-27 22,-24 -41,-47 -158,-57 -200,-190 -104,-331 56,-82 213,-116 444,-96 182,16 251,51 294,152 24,57 29,121 12,172 -14,42 -69,95 -109,104 -15,4 -45,16 -67,28 -24,12 -67,23 -110,26 l -70,5 -16,82 c -9,45 -22,96 -27,112 -6,17 -8,32 -4,34 7,3 157,-4 375,-18 102,-7 107,-8 113,-31 8,-30 68,-84 94,-84 46,0 90,41 90,84 0,8 30,16 88,24 48,7 96,15 108,18 20,5 21,1 27,-113 7,-124 30,-231 70,-323 30,-68 86,-257 98,-329 13,-80 10,-81 -146,-81 -93,0 -160,-6 -228,-20 -89,-19 -145,-20 -814,-25 -1055,-8 -1541,-20 -1768,-44 -104,-11 -244,-23 -310,-26 -66,-3 -181,-13 -255,-20 -168,-18 -461,-34 -820,-45 -151,-4 -330,-14 -397,-20 -113,-11 -135,-10 -260,9 -182,29 -212,37 -223,64 -38,98 -49,167 -54,358 l -5,196 45,-1 c 37,-1 50,4 65,23 26,32 24,83 -4,118 -13,15 -33,44 -45,63 -11,20 -31,45 -44,57 -19,18 -23,30 -20,62 4,39 6,41 55,55 28,8 54,13 59,10 4,-3 27,-33 50,-67 97,-144 180,-177 226,-90 19,35 14,61 -21,100 -42,48 -67,84 -67,99 0,11 99,20 370,33 105,6 367,3 377,-3 z M 7065,6518 c 4,-57 10,-206 14,-333 5,-151 11,-238 20,-253 18,-33 6,-42 -57,-42 -104,-1 -190,-49 -224,-127 -21,-48 -21,-72 0,-508 13,-266 18,-311 43,-388 13,-41 19,-89 19,-156 0,-53 5,-114 10,-136 5,-22 14,-105 20,-185 10,-138 17,-192 60,-465 10,-66 24,-167 30,-225 48,-426 100,-696 197,-1020 30,-102 71,-223 90,-270 l 35,-85 -12,-127 c -15,-147 -8,-172 54,-183 46,-9 74,8 94,56 l 17,40 65,-81 c 35,-45 74,-89 87,-97 19,-13 22,-21 16,-58 -5,-38 -2,-47 20,-69 28,-28 61,-33 101,-15 22,10 30,7 78,-33 29,-25 76,-60 103,-79 28,-18 77,-55 110,-82 83,-67 132,-79 266,-68 92,8 119,14 200,50 52,22 132,54 179,70 47,16 116,41 153,55 37,14 75,26 83,26 8,0 36,-16 61,-35 56,-43 94,-45 130,-9 23,23 25,31 20,74 l -6,49 57,17 c 178,53 333,87 392,88 45,1 74,7 93,19 17,11 80,25 172,38 137,20 148,20 181,4 38,-18 67,-13 100,16 20,19 21,19 75,-11 30,-16 68,-30 85,-30 36,0 71,30 80,68 3,15 7,32 9,38 3,11 70,24 260,48 214,28 193,29 243,-15 58,-50 110,-66 152,-44 36,19 52,53 44,94 l -6,28 89,11 c 48,6 130,14 181,18 l 92,7 11,-32 c 13,-36 35,-51 76,-51 39,0 65,20 78,61 l 12,34 79,2 c 43,2 158,10 254,19 333,29 315,29 331,7 8,-11 32,-32 53,-47 70,-47 140,-27 155,44 6,33 9,35 51,38 25,2 95,1 157,-3 l 111,-7 5,-191 c 4,-180 6,-199 35,-297 18,-58 32,-117 32,-132 0,-32 14,-27 -180,-57 -141,-22 -161,-24 -380,-41 -74,-6 -203,-20 -286,-31 -83,-10 -247,-24 -365,-29 -207,-9 -276,-16 -424,-40 -110,-18 -284,-14 -450,10 -125,19 -174,21 -295,16 -80,-3 -174,-11 -210,-17 -44,-8 -325,-12 -865,-14 -505,-1 -846,-6 -925,-13 -69,-7 -179,-16 -245,-22 -66,-6 -178,-17 -250,-25 -71,-8 -191,-20 -265,-25 -125,-10 -569,-78 -650,-100 -63,-17 -58,-24 -75,117 -7,52 -7,52 28,66 38,16 67,51 67,80 0,27 -49,105 -80,128 -27,20 -27,23 -34,167 -3,81 -9,195 -13,254 -5,93 -4,108 9,108 8,0 27,9 42,21 52,41 21,139 -45,139 -32,0 -33,4 -48,150 -6,58 -15,155 -22,215 -6,61 -15,173 -19,250 -4,77 -13,185 -19,240 -24,223 -41,490 -41,665 0,102 -5,358 -11,570 -10,339 -14,398 -34,490 -13,58 -26,130 -30,160 -4,30 -17,105 -30,165 -13,61 -31,160 -39,220 -9,61 -21,131 -27,157 -10,45 -9,50 15,79 37,44 34,75 -13,118 -31,29 -41,49 -54,101 -42,176 -73,410 -57,439 20,39 35,24 48,-48 6,-37 23,-104 36,-147 14,-44 30,-108 36,-144 19,-115 37,-140 98,-140 29,0 63,28 75,62 9,25 -11,149 -39,240 -28,92 -65,278 -58,290 21,33 59,-62 79,-197 10,-66 25,-93 60,-109 41,-20 76,-9 101,29 15,24 16,35 5,107 -7,45 -24,119 -37,166 -20,68 -22,87 -12,93 7,4 29,19 48,32 19,14 40,26 46,26 7,1 14,-37 19,-101 z m 5625,-857 c 0,-10 3,-32 6,-49 6,-28 3,-32 -27,-45 -25,-10 -43,-31 -69,-76 -65,-116 -128,-206 -182,-257 l -53,-52 -135,24 c -141,25 -208,30 -350,25 -47,-2 -139,2 -205,8 -210,18 -266,3 -355,-100 -97,-112 -80,-108 -163,-38 -121,103 -232,145 -310,120 -19,-7 -53,-30 -75,-52 l -40,-41 -69,40 c -87,50 -134,67 -263,93 -133,26 -236,26 -313,0 -84,-29 -255,-128 -310,-180 l -49,-46 -30,35 c -72,84 -94,104 -145,127 -69,32 -143,33 -201,4 -23,-12 -78,-57 -120,-101 -43,-44 -85,-80 -93,-80 -8,0 -36,25 -62,55 -63,72 -131,107 -207,107 -77,0 -130,-25 -213,-100 -87,-80 -100,-80 -243,-7 -156,79 -195,76 -312,-27 -30,-26 -39,-28 -80,-23 -134,18 -229,38 -261,54 -20,10 -58,23 -86,29 -167,36 -246,56 -251,63 -3,5 -21,9 -41,9 -20,0 -53,5 -74,12 -29,8 -49,8 -74,1 -22,-7 -37,-8 -41,-2 -3,6 -7,84 -9,174 l -3,164 56,12 c 77,16 106,15 135,-4 19,-12 23,-22 19,-46 -3,-24 2,-37 26,-61 17,-17 41,-30 55,-30 32,0 75,34 79,63 3,20 8,22 58,19 30,-2 73,-8 95,-14 45,-13 293,-12 400,1 l 70,8 38,-33 c 52,-47 96,-47 134,1 33,42 46,43 85,10 39,-33 75,-32 113,4 l 30,29 240,12 c 132,6 286,15 343,21 57,5 107,7 113,4 5,-4 9,-15 9,-25 0,-25 46,-60 79,-60 38,0 60,19 75,65 14,39 15,40 68,42 29,2 127,10 218,19 l 164,16 18,-24 c 70,-90 79,-98 114,-98 24,0 43,8 61,26 22,22 25,31 19,70 l -6,44 43,1 c 23,1 183,2 355,3 l 313,1 5,-22 c 7,-26 58,-73 80,-73 33,0 74,31 82,63 8,31 10,32 63,35 52,2 54,1 69,-30 32,-69 108,-72 145,-6 15,28 27,37 55,42 19,3 231,6 471,6 h 437 l 50,-70 c 54,-74 85,-91 127,-72 13,6 32,23 41,38 17,25 17,29 0,76 -10,27 -15,53 -11,56 3,4 45,8 93,9 48,1 101,6 117,12 48,15 65,13 65,-8 z m 40,-360 c 0,-36 38,-231 66,-336 13,-49 46,-200 74,-335 28,-135 63,-301 80,-370 16,-69 38,-169 50,-223 21,-96 53,-196 144,-450 25,-70 64,-194 87,-275 59,-211 112,-342 175,-431 48,-69 144,-247 144,-269 0,-10 -300,-6 -470,8 -395,31 -656,31 -960,1 -113,-12 -293,-26 -400,-32 -301,-15 -541,-36 -703,-59 l -147,-22 -29,31 c -44,48 -107,36 -135,-24 -15,-32 -19,-33 -103,-44 -116,-15 -240,-36 -398,-66 -136,-26 -331,-58 -575,-95 -80,-12 -185,-35 -235,-50 -49,-15 -106,-31 -125,-34 -84,-17 -328,-90 -394,-118 -39,-17 -100,-41 -136,-54 -36,-12 -121,-42 -190,-67 -69,-24 -148,-56 -177,-70 -29,-15 -62,-27 -74,-27 -12,0 -42,17 -68,39 -25,21 -64,50 -86,64 -22,14 -66,50 -98,81 -32,31 -81,72 -110,90 -61,40 -87,67 -192,201 -102,131 -126,182 -198,430 -80,273 -124,490 -161,795 -15,118 -35,274 -46,345 -51,343 -72,534 -90,815 -5,74 -13,150 -19,168 -9,32 -8,36 27,68 20,19 43,34 49,34 7,0 57,-12 110,-26 54,-14 130,-32 168,-39 39,-7 91,-22 116,-33 88,-40 350,-78 416,-60 21,5 58,27 83,47 25,21 50,40 57,44 6,4 58,-16 115,-45 99,-51 105,-53 183,-53 96,0 120,11 211,96 54,50 69,59 100,59 32,0 45,-8 95,-59 133,-138 241,-136 366,5 34,38 74,76 90,85 25,15 32,15 63,2 19,-8 53,-38 75,-66 61,-77 118,-117 167,-117 49,0 108,32 159,87 42,45 223,147 291,163 49,13 66,11 243,-26 90,-18 178,-63 244,-123 74,-67 118,-63 179,19 59,80 61,82 85,75 31,-10 92,-52 151,-106 64,-58 105,-79 154,-79 68,0 95,17 177,110 61,69 87,91 112,96 18,3 95,1 170,-6 79,-7 180,-10 238,-6 83,5 125,2 250,-20 217,-37 228,-38 261,-21 45,23 174,163 229,248 49,76 65,83 65,30 z"
       id="path1" />
    <path
       d="m 12180,4770 c -52,-10 -151,-24 -220,-30 -69,-6 -170,-21 -225,-32 -55,-11 -150,-23 -211,-27 -109,-6 -111,-7 -178,-50 -103,-68 -110,-90 -77,-271 17,-90 19,-144 16,-380 -2,-151 -6,-327 -10,-390 -7,-123 1,-197 35,-319 32,-119 84,-155 189,-131 31,7 70,12 86,12 17,-1 68,8 115,18 76,18 172,29 510,60 151,14 241,30 282,51 20,10 65,25 98,33 76,18 119,43 148,87 22,31 24,42 20,134 -4,83 -9,111 -31,157 -15,31 -27,63 -27,70 -1,7 -9,31 -20,53 -11,22 -19,57 -20,79 0,21 -7,64 -15,96 -8,32 -26,138 -39,236 -14,99 -31,197 -39,219 -8,22 -20,65 -27,95 -21,87 -85,213 -119,233 -37,22 -115,21 -241,-3 z m 164,-177 c 24,-48 75,-236 86,-324 6,-46 16,-118 21,-159 5,-41 17,-102 25,-135 8,-33 19,-87 24,-120 11,-78 41,-179 68,-232 29,-55 30,-128 3,-143 -11,-5 -32,-10 -48,-10 -15,0 -52,-11 -81,-25 -30,-14 -66,-25 -81,-25 -14,0 -40,-4 -56,-9 -17,-4 -150,-18 -295,-30 -146,-12 -288,-27 -316,-33 -29,-6 -57,-7 -63,-4 -6,4 -41,-2 -77,-14 -36,-12 -69,-18 -73,-14 -4,5 -16,35 -26,67 -19,65 -23,238 -6,294 14,49 3,620 -15,717 -8,43 -14,80 -14,82 0,14 69,34 117,34 32,0 112,11 178,24 67,14 193,32 280,41 88,8 183,20 210,25 28,6 64,12 80,14 17,1 33,4 37,5 4,0 14,-11 22,-26 z"
       id="path2" />
    <path
       d="m 12252,4333 c -7,-2 -27,-26 -44,-51 -18,-26 -62,-79 -98,-117 -71,-78 -96,-113 -159,-225 -23,-41 -54,-90 -70,-109 l -27,-33 -65,72 c -128,144 -193,177 -244,125 -47,-46 -36,-74 71,-187 69,-73 105,-120 124,-163 38,-85 83,-111 144,-84 29,14 170,214 236,334 24,44 68,107 99,140 68,73 124,141 141,175 40,77 -28,155 -108,123 z"
       id="path3" />
    <path
       d="m 10660,4660 c -38,-10 -268,-20 -540,-25 -96,-1 -207,-6 -246,-10 -59,-6 -75,-5 -98,10 -21,14 -37,16 -79,11 -101,-13 -156,-36 -204,-82 l -46,-43 8,-78 c 4,-43 8,-123 10,-178 2,-55 8,-183 14,-285 6,-102 10,-189 10,-195 0,-5 -2,-71 -5,-147 -5,-105 -2,-149 9,-190 9,-29 20,-86 26,-126 14,-88 58,-181 104,-216 39,-30 101,-45 184,-46 34,0 65,-5 68,-11 17,-27 59,-29 174,-10 64,10 152,24 196,31 44,6 119,18 168,26 48,8 106,14 130,14 24,0 108,9 187,19 80,11 170,19 200,19 44,-1 66,6 112,31 111,62 143,133 127,278 -5,49 -14,133 -19,188 -8,93 -20,179 -56,415 -8,52 -23,159 -34,238 -22,168 -23,173 -63,237 -47,77 -77,104 -131,120 -53,16 -149,18 -206,5 z m 162,-172 c 32,-25 56,-93 67,-188 6,-52 18,-133 26,-180 47,-286 69,-461 82,-677 l 5,-93 -27,-10 c -15,-6 -42,-8 -60,-4 -19,3 -46,0 -67,-9 -33,-14 -126,-27 -388,-57 -52,-6 -135,-17 -185,-25 -209,-33 -253,-37 -288,-26 -18,6 -76,10 -128,9 -52,-1 -103,1 -115,5 -28,10 -52,65 -64,145 -5,37 -15,82 -21,101 -8,23 -10,80 -7,180 3,80 1,232 -4,336 -5,105 -10,235 -12,290 -1,55 -5,116 -10,136 -6,29 -5,37 9,43 9,3 26,1 37,-5 25,-14 173,-13 261,0 34,6 168,11 297,12 129,2 300,8 380,15 196,16 194,16 212,2 z"
       id="path4" />
    <path
       d="m 8146,4588 c -11,-6 -39,-8 -69,-5 -57,7 -174,-14 -242,-43 -55,-24 -95,-64 -95,-97 0,-13 -7,-37 -15,-52 -31,-62 -36,-114 -20,-253 22,-192 31,-237 54,-296 12,-30 31,-110 42,-180 11,-69 22,-129 24,-132 2,-3 8,-48 14,-100 13,-107 44,-220 72,-266 10,-17 19,-39 19,-47 0,-29 50,-169 90,-253 38,-78 77,-124 107,-124 7,0 25,-7 39,-16 33,-22 116,-14 180,19 45,23 196,71 319,102 28,7 91,25 140,40 50,14 159,44 243,65 175,44 233,73 262,130 26,51 25,88 -6,245 -19,97 -25,159 -24,243 1,131 -15,306 -35,377 -7,28 -17,75 -20,105 -4,30 -15,87 -25,125 -10,39 -26,107 -35,153 -9,46 -23,98 -30,116 -16,39 -69,87 -128,118 -49,25 -77,26 -496,14 -229,-6 -266,-5 -287,9 -27,18 -51,19 -78,3 z m 801,-188 c 22,-13 35,-31 41,-57 50,-206 72,-306 72,-331 0,-15 9,-62 20,-103 16,-57 22,-118 26,-264 5,-174 19,-305 44,-410 16,-66 14,-72 -27,-80 -21,-4 -49,-13 -64,-20 -14,-8 -72,-26 -129,-40 -57,-15 -145,-39 -195,-55 -49,-15 -135,-40 -190,-55 -55,-15 -127,-35 -160,-45 -66,-20 -185,-33 -200,-22 -22,16 -76,160 -90,237 -3,22 -17,60 -31,84 -30,54 -43,101 -59,221 -28,201 -65,387 -85,432 -13,31 -28,105 -41,214 -19,155 -19,171 -5,201 15,31 18,33 70,33 31,0 117,14 193,31 133,30 148,31 412,35 150,1 276,5 279,8 13,13 89,4 119,-14 z"
       id="path5" />
    <path
       d="m 12875,3706 c -32,-32 -32,-60 0,-218 36,-180 78,-316 124,-405 49,-94 197,-268 235,-275 61,-12 118,50 96,106 -5,14 -40,61 -79,105 -38,45 -83,105 -100,134 -38,67 -95,260 -120,406 -23,134 -40,164 -94,169 -28,2 -42,-3 -62,-22 z"
       id="path6" />
    <path
       d="m 12496,3179 c -37,-29 -36,-81 5,-142 33,-50 84,-95 194,-172 39,-27 88,-64 109,-82 49,-41 96,-44 131,-8 45,44 31,95 -39,148 -23,17 -86,64 -138,104 -53,40 -110,92 -127,116 -43,63 -86,75 -135,36 z"
       id="path7" />
    <path
       d="m 7899,2551 c -16,-16 -29,-37 -29,-46 0,-52 66,-126 170,-190 66,-40 148,-123 176,-178 32,-61 75,-90 129,-84 22,2 83,23 135,45 53,23 127,48 165,57 94,21 113,32 124,72 20,73 -24,110 -119,100 -56,-6 -93,-17 -244,-74 -43,-16 -50,-16 -54,-3 -8,26 -156,166 -215,204 -31,20 -80,57 -107,81 -60,54 -90,57 -131,16 z"
       id="path8" />
  </g>
</svg>
