<svg xmlns="http://www.w3.org/2000/svg"  viewBox="0 0 100 100">

  <path
     style="fill:currentColor;stroke-width:19.9846;stroke-linejoin:round;paint-order:stroke fill markers"
     d="m 12.88794,8.867901 2.139748,13.730062 3.744564,71.859935 61.696123,2.853 0.178312,-4.636124 4.101188,-0.356624 0.71325,-41.011876 -3.566251,-37.623936 -3.031311,-9.4505619 -22.823999,-2.496375 -38.5155,2.13975 z"
     id="path20" />
  <g
     transform="matrix(0.0107454,0,0,-0.0107454,-70.556042,106.67669)"
     stroke="none"
     id="g19">
    <path
       d="m 10300,9913 c -109,-2 -262,-12 -505,-33 -83,-8 -541,-22 -675,-22 -165,1 -532,-33 -705,-64 -44,-8 -140,-21 -212,-29 -189,-19 -252,-60 -269,-173 -4,-26 -12,-58 -19,-72 -8,-14 -16,-42 -20,-63 -6,-30 -13,-38 -34,-43 -61,-13 -117,-39 -153,-72 -76,-69 -99,-155 -77,-283 7,-41 13,-132 14,-204 2,-95 11,-179 34,-313 18,-100 29,-187 26,-192 -4,-6 -32,-23 -64,-39 -86,-44 -299,-219 -346,-285 -99,-139 -129,-203 -142,-297 -8,-64 16,-108 102,-195 62,-61 82,-75 156,-104 70,-27 109,-35 236,-46 216,-20 203,-11 203,-141 0,-60 6,-148 14,-198 9,-63 12,-134 7,-239 l -6,-149 -55,-12 c -65,-13 -169,-64 -227,-111 -57,-46 -157,-173 -196,-248 -30,-58 -32,-66 -31,-167 1,-115 11,-144 89,-251 54,-73 205,-148 299,-148 23,0 68,-5 99,-11 l 57,-12 v -41 c 0,-22 7,-84 15,-136 8,-52 15,-132 15,-178 0,-46 7,-142 14,-215 8,-73 17,-200 20,-282 l 6,-151 -73,-16 c -229,-52 -319,-88 -377,-154 -67,-76 -126,-239 -117,-320 5,-47 65,-154 112,-198 69,-66 277,-142 436,-161 l 46,-6 7,-117 c 4,-64 11,-245 17,-402 5,-157 14,-305 19,-330 5,-25 9,-62 10,-83 0,-47 -8,-54 -150,-139 -114,-68 -215,-159 -248,-224 -11,-22 -25,-64 -30,-94 -6,-30 -15,-68 -21,-83 -23,-60 -7,-186 34,-267 63,-122 247,-244 461,-305 8,-2 15,-51 20,-132 13,-191 10,-309 -10,-393 -21,-91 -15,-141 24,-203 41,-66 97,-103 174,-116 35,-6 90,-25 123,-42 54,-28 73,-32 194,-40 74,-4 199,-15 279,-24 80,-8 318,-20 530,-25 212,-6 421,-16 465,-23 52,-8 217,-12 470,-13 871,-2 1628,-18 1805,-39 25,-3 151,-10 280,-15 129,-5 282,-16 340,-25 58,-9 202,-20 320,-25 118,-5 307,-15 420,-22 249,-15 307,-15 477,-2 115,9 136,13 171,36 61,41 84,98 94,237 14,196 15,199 57,221 41,21 172,170 195,221 81,181 91,233 101,489 3,85 15,221 25,302 12,91 17,174 14,220 -3,40 -6,125 -6,188 -1,188 21,896 32,1015 13,151 13,895 0,1030 -5,61 -10,192 -10,292 0,344 -19,765 -39,900 -11,70 -25,207 -30,303 -18,289 -55,737 -81,970 -6,47 -17,166 -25,265 -8,99 -19,218 -25,265 -5,47 -22,191 -36,320 -14,129 -29,271 -34,315 -17,158 -50,341 -74,422 -13,45 -32,121 -41,170 -20,109 -56,238 -96,346 -16,45 -38,123 -49,174 -30,150 -110,277 -193,307 -23,8 -66,17 -96,21 -29,3 -88,17 -130,31 -201,66 -433,105 -876,144 -66,6 -163,16 -215,21 -52,5 -331,12 -620,14 -289,3 -543,7 -565,10 -42,6 -960,12 -1155,8 z m 265,-379 c 8,-9 23,-30 32,-47 31,-62 75,-119 106,-138 47,-28 101,-25 126,7 34,43 27,79 -24,128 -25,25 -45,49 -45,55 0,7 25,11 65,11 h 65 l 21,-42 c 34,-69 67,-98 109,-98 56,0 85,36 77,94 l -6,45 172,-5 c 95,-2 228,-6 297,-9 124,-6 125,-6 148,-36 34,-42 119,-89 163,-89 55,0 84,28 83,79 l -1,41 h 91 c 50,0 169,-3 264,-7 159,-6 172,-8 172,-25 0,-22 43,-109 74,-151 32,-44 104,-87 145,-87 49,0 81,32 81,82 0,34 -5,42 -48,73 -41,29 -72,69 -72,91 0,3 19,3 43,0 23,-3 86,-10 140,-17 84,-10 101,-15 113,-35 8,-12 33,-29 54,-38 21,-8 53,-28 72,-44 70,-61 105,-66 150,-22 25,25 29,36 24,60 -5,29 -4,30 28,30 51,0 220,-37 321,-70 50,-16 109,-34 132,-40 45,-11 45,-12 63,-102 6,-31 25,-91 41,-134 36,-93 83,-264 98,-355 6,-36 22,-103 36,-150 35,-117 59,-275 105,-709 11,-102 26,-243 34,-315 8,-71 18,-170 21,-220 4,-49 15,-171 26,-270 29,-272 58,-624 89,-1080 6,-82 17,-186 24,-230 20,-110 26,-233 37,-735 6,-239 14,-496 18,-570 9,-153 -4,-900 -19,-1030 -5,-47 -9,-180 -9,-296 -1,-116 -6,-305 -12,-420 -9,-161 -8,-228 1,-292 12,-81 5,-179 -20,-297 -5,-22 -12,-128 -15,-235 -7,-198 -25,-327 -51,-367 -22,-34 -70,-56 -94,-43 -11,6 -20,19 -20,29 0,20 -89,176 -159,279 -21,31 -55,89 -75,129 -39,78 -65,103 -109,103 -35,0 -77,-40 -77,-75 0,-32 81,-190 161,-315 l 60,-95 -28,-3 c -15,-1 -55,1 -88,5 l -60,8 -52,105 c -57,114 -72,130 -116,130 -67,0 -97,-52 -71,-123 9,-23 18,-53 21,-66 6,-23 5,-23 -48,-16 -73,10 -82,16 -114,78 -39,79 -94,99 -140,52 -19,-18 -25,-35 -25,-70 0,-43 -2,-45 -27,-45 -16,0 -67,7 -116,15 -81,13 -862,46 -1032,43 -38,-1 -182,4 -320,10 -419,19 -700,23 -809,12 -56,-6 -228,-12 -382,-14 -153,-3 -389,-9 -524,-15 -631,-27 -840,-31 -869,-16 -33,17 -80,116 -88,188 l -6,49 34,-21 c 68,-42 143,-19 155,46 7,34 10,29 -85,116 -9,8 -32,35 -53,59 -37,45 -41,64 -39,162 1,50 12,41 88,-71 83,-124 140,-157 197,-112 31,24 35,71 8,110 -59,89 -83,123 -145,202 -75,95 -100,117 -133,117 -29,0 -34,30 -34,206 0,109 3,144 13,144 19,-1 172,-47 195,-59 34,-18 38,-88 13,-197 -27,-118 -27,-176 0,-232 59,-121 238,-132 308,-19 10,18 31,81 46,141 23,92 27,132 28,270 2,180 -6,216 -82,366 -50,99 -97,135 -180,135 -46,0 -66,-6 -98,-27 -68,-45 -100,-141 -73,-214 6,-15 9,-28 8,-30 -2,-1 -40,7 -86,19 l -82,22 v 61 c 0,34 3,82 6,108 l 7,46 32,-20 c 55,-34 106,-26 130,21 21,40 19,54 -16,94 -39,44 -78,65 -119,65 h -30 v 112 112 l 39,-38 c 52,-51 108,-60 145,-23 41,41 35,78 -21,138 -58,62 -101,83 -139,69 -15,-6 -29,-9 -31,-7 -2,3 -2,48 -1,100 l 3,96 50,-31 c 30,-19 68,-33 96,-36 41,-4 48,-1 67,23 40,51 23,99 -50,141 -33,19 -64,48 -89,86 -22,32 -52,64 -68,72 -27,14 -28,18 -34,113 -4,54 -7,115 -7,135 0,37 1,37 33,32 60,-12 171,-44 180,-53 5,-5 9,-65 8,-134 -2,-141 7,-177 57,-219 93,-78 230,-52 280,54 40,83 58,504 27,614 -20,70 -72,142 -129,182 -124,83 -286,3 -286,-143 0,-35 9,-63 32,-106 18,-32 29,-61 26,-64 -3,-4 -40,3 -80,14 -41,12 -87,21 -104,21 -54,0 -57,8 -65,152 -4,73 -13,189 -18,257 -6,68 -9,126 -7,128 2,3 18,-16 35,-41 18,-25 40,-50 51,-56 53,-28 120,11 120,71 0,42 -60,137 -124,196 -50,46 -109,123 -101,131 2,2 14,-3 27,-12 12,-9 32,-16 44,-16 29,0 70,34 78,64 11,46 -12,80 -120,177 -30,27 -45,52 -62,102 -29,89 -29,137 -1,137 33,0 56,17 68,50 14,41 1,71 -44,106 -59,45 -82,95 -94,209 -6,55 -14,124 -17,153 l -7,53 44,-7 c 24,-4 85,-19 135,-35 l 91,-29 6,-68 c 4,-37 7,-88 7,-114 0,-55 13,-94 43,-127 29,-32 94,-61 136,-61 50,0 119,37 146,79 41,62 47,123 30,327 -22,277 -73,417 -168,463 -53,26 -99,26 -152,2 -96,-44 -129,-138 -89,-255 9,-26 14,-49 11,-52 -3,-3 -29,2 -58,10 -30,8 -85,20 -122,27 -80,13 -85,21 -89,127 -3,65 -2,67 22,70 38,5 70,41 70,77 0,41 -18,64 -84,110 -31,21 -58,45 -60,54 -5,18 -44,220 -75,386 -21,114 -64,475 -57,482 2,2 21,-20 42,-50 45,-63 169,-181 201,-191 26,-8 78,15 87,39 19,50 -23,136 -87,178 -13,9 -49,51 -80,95 -62,89 -97,111 -146,94 -17,-6 -32,-8 -35,-4 -3,6 -31,240 -31,267 0,27 311,-27 341,-58 9,-10 30,-81 75,-259 21,-83 113,-146 194,-133 58,8 105,41 135,95 33,61 32,146 -3,260 -14,47 -43,143 -63,214 -41,142 -74,200 -140,248 -137,99 -312,-6 -290,-173 6,-47 5,-51 -11,-45 -10,4 -52,11 -93,16 -136,16 -170,23 -177,33 -9,14 -34,150 -28,155 2,2 32,-22 67,-55 35,-33 73,-66 85,-72 30,-15 69,-4 93,26 40,51 20,95 -85,187 -81,70 -119,83 -161,51 -10,-8 -22,-15 -25,-15 -3,0 -11,24 -19,53 -7,28 -34,109 -60,178 -31,83 -52,157 -59,214 -7,48 -11,89 -9,90 2,2 27,7 55,11 l 52,6 14,-34 c 8,-19 28,-50 44,-69 16,-19 50,-64 76,-101 45,-63 106,-122 154,-147 56,-29 123,9 123,70 0,25 -12,44 -67,98 -70,68 -177,208 -165,215 4,2 51,9 105,16 114,15 102,21 174,-85 64,-92 201,-205 249,-205 12,0 33,9 48,21 21,16 26,29 26,62 0,36 -5,45 -47,81 -114,100 -148,137 -133,146 8,6 59,10 112,10 h 97 l 37,-61 c 20,-34 69,-95 108,-135 83,-86 108,-93 158,-44 42,42 33,74 -42,162 -33,38 -60,73 -60,79 0,5 51,9 118,9 66,0 167,3 225,6 l 106,7 28,-48 c 55,-94 91,-133 148,-160 61,-30 92,-28 125,7 41,44 19,107 -50,143 -34,17 -69,74 -48,76 32,3 322,16 405,17 72,2 95,-1 108,-14 z M 8040,8865 c 14,-36 70,-295 70,-322 0,-25 -38,-43 -50,-23 -13,22 -51,305 -44,338 8,39 12,40 24,7 z m 110,-532 c 0,-10 7,-74 15,-143 9,-69 22,-190 30,-270 37,-370 42,-404 130,-865 24,-126 47,-256 51,-287 l 6,-58 h -71 -72 l 1,163 c 1,89 -3,186 -9,216 -6,29 -11,101 -11,160 0,108 -14,204 -73,501 -28,143 -31,172 -32,378 -1,208 0,222 17,222 10,0 18,-7 18,-17 z m -405,-285 c -6,-116 -4,-134 29,-304 20,-99 36,-186 36,-192 0,-29 -265,2 -350,40 -50,23 -140,104 -140,126 0,53 111,225 184,285 28,23 53,44 56,47 29,32 164,120 184,120 5,0 5,-54 1,-122 z m 659,-1530 c 3,-13 14,-106 25,-208 11,-102 30,-264 41,-360 28,-238 46,-414 70,-675 11,-121 24,-270 30,-331 5,-60 10,-141 10,-179 v -68 l -112,7 c -62,4 -117,11 -122,16 -5,5 -13,94 -17,197 -4,103 -12,217 -18,253 -6,36 -11,108 -11,160 0,52 -8,145 -17,205 -12,82 -17,196 -18,450 -1,191 -7,371 -13,410 -7,39 -12,87 -12,108 v 37 h 80 c 75,0 80,-1 84,-22 z m -525,-120 c 28,-186 23,-527 -7,-520 -7,1 -51,6 -97,11 -102,10 -166,39 -205,93 -68,93 -67,178 2,283 25,39 65,89 89,112 49,47 149,103 183,103 21,0 24,-7 35,-82 z m 710,-1874 c 7,-6 31,-391 41,-664 11,-312 13,-620 4,-748 l -7,-91 -41,-5 c -23,-3 -71,-8 -107,-11 l -66,-6 -7,28 c -11,43 -25,440 -35,963 -5,261 -13,485 -16,497 -16,50 -5,54 117,47 62,-4 115,-8 117,-10 z m -598,-109 c 4,-55 7,-169 8,-254 l 1,-153 -55,7 c -82,10 -171,38 -250,78 -55,28 -76,45 -99,81 -33,55 -31,87 14,177 34,66 66,94 124,110 22,7 75,22 116,35 41,13 89,23 105,21 l 30,-2 z m 635,-1787 c 12,-310 10,-641 -4,-713 -16,-80 2,-252 29,-275 10,-8 26,-35 36,-60 37,-93 97,-192 138,-228 57,-49 211,-110 285,-112 91,-2 625,19 780,30 80,6 264,13 410,16 146,2 342,7 435,11 222,10 596,7 920,-8 143,-7 294,-12 335,-11 181,2 942,-30 1030,-43 52,-8 141,-15 197,-15 105,0 227,-10 418,-35 61,-8 142,-17 182,-21 39,-3 79,-11 88,-18 16,-11 16,-16 0,-69 -15,-52 -19,-57 -52,-63 -19,-4 -63,-4 -97,0 -66,7 -316,21 -646,36 -113,5 -251,16 -306,24 -56,9 -211,20 -345,26 -134,6 -307,15 -384,21 -77,6 -315,12 -530,13 -214,2 -412,7 -440,11 -27,4 -288,9 -580,10 -325,1 -571,6 -635,13 -58,6 -274,16 -480,22 -206,5 -418,15 -470,20 -52,6 -140,15 -195,20 -55,5 -133,20 -174,32 l -73,24 -4,139 c -2,77 -6,244 -8,370 -2,127 -10,259 -16,294 -13,71 -27,287 -37,552 -4,138 -3,178 7,184 12,8 97,21 151,24 l 26,1 z m -562,-45 c 3,-43 10,-157 16,-253 5,-96 15,-214 22,-262 6,-48 9,-91 5,-94 -3,-4 -35,4 -69,16 -164,61 -278,180 -278,291 0,30 35,171 49,196 17,32 75,80 156,132 44,27 83,50 86,50 3,1 9,-34 13,-76 z"
       id="path1" />
    <path
       d="m 13474,8727 c -34,-35 -82,-100 -108,-145 -26,-45 -68,-104 -93,-132 -34,-38 -45,-58 -46,-85 -1,-47 30,-79 78,-79 29,0 45,9 89,53 29,29 75,89 102,134 26,45 69,105 95,132 59,64 72,89 64,126 -8,37 -40,59 -84,59 -30,0 -44,-9 -97,-63 z"
       id="path2" />
    <path
       d="m 11215,8757 c -22,-8 -101,-43 -177,-79 -108,-52 -164,-87 -269,-169 -176,-137 -256,-213 -347,-334 -108,-143 -143,-230 -172,-427 -24,-162 -11,-476 25,-603 41,-146 220,-322 409,-405 42,-18 76,-38 76,-44 0,-6 -39,-50 -86,-96 -47,-47 -96,-101 -109,-121 -40,-62 -122,-309 -154,-466 -30,-146 -31,-157 -31,-419 0,-230 4,-298 26,-469 51,-403 53,-406 269,-515 82,-40 270,-23 760,72 120,23 205,24 850,17 216,-3 327,-8 365,-18 117,-28 213,34 235,154 3,21 14,53 22,70 9,16 20,64 24,105 10,98 43,304 65,405 16,76 16,86 -1,195 -9,63 -23,140 -30,170 -7,30 -16,77 -20,104 -4,27 -29,113 -57,190 -51,144 -136,301 -224,416 -23,30 -54,77 -69,103 -44,77 -117,149 -226,223 -117,80 -119,69 26,150 147,82 196,146 253,328 32,101 35,124 39,266 5,132 2,169 -16,252 -12,54 -21,115 -21,137 0,57 -35,161 -71,212 -50,70 -138,157 -214,210 -45,31 -90,74 -124,118 -86,114 -132,141 -281,166 -55,10 -118,29 -163,50 -87,42 -159,53 -377,60 -124,4 -175,2 -205,-8 z m 458,-403 c 65,-30 190,-62 243,-64 7,0 37,-31 68,-68 31,-38 84,-89 118,-113 35,-24 88,-69 119,-99 54,-53 57,-58 64,-120 4,-36 13,-93 21,-128 8,-35 14,-112 14,-172 0,-128 -34,-260 -73,-284 -72,-43 -191,-114 -246,-145 -96,-54 -163,-120 -195,-192 -50,-110 -45,-213 11,-280 26,-31 161,-100 232,-119 20,-5 74,-36 121,-67 69,-48 91,-69 120,-119 19,-34 54,-85 76,-115 139,-181 204,-350 259,-681 14,-82 14,-94 -4,-175 -10,-49 -27,-142 -36,-208 -10,-66 -20,-123 -24,-128 -14,-14 -394,-18 -575,-6 -210,15 -470,3 -631,-30 -188,-37 -390,-71 -471,-77 l -82,-7 -11,69 c -33,202 -41,310 -41,557 0,238 2,266 25,375 14,64 41,162 61,216 34,97 37,102 137,205 113,118 158,192 177,298 17,96 -6,173 -77,261 -34,42 -47,49 -271,154 -59,28 -158,122 -171,161 -5,18 -15,93 -22,167 -10,116 -10,151 4,250 9,63 21,132 27,152 41,144 322,408 559,526 l 106,52 145,-5 c 138,-6 148,-7 223,-41 z"
       id="path3" />
    <path
       d="m 11170,8068 c -99,-53 -149,-121 -150,-200 -1,-145 143,-212 291,-135 79,41 110,92 110,184 1,93 -34,142 -120,171 -49,17 -69,14 -131,-20 z m 80,-157 c 0,-23 -24,-44 -45,-39 -15,3 -14,6 5,31 25,32 40,35 40,8 z"
       id="path4" />
    <path
       d="m 11666,8080 c -16,-5 -39,-18 -50,-30 -12,-11 -36,-32 -54,-46 -44,-35 -64,-78 -64,-134 0,-52 12,-81 50,-123 56,-60 155,-54 258,15 63,42 84,85 84,167 0,60 -2,65 -38,101 -52,52 -118,70 -186,50 z m 52,-172 c -3,-7 -13,-15 -24,-17 -16,-3 -17,-1 -5,13 16,19 34,21 29,4 z"
       id="path5" />
    <path
       d="m 11845,7520 c -27,-9 -85,-32 -128,-49 -43,-17 -88,-31 -100,-31 -12,0 -59,-8 -104,-17 -76,-16 -90,-16 -219,0 -106,13 -147,23 -182,42 -24,14 -59,25 -77,25 -58,0 -94,-66 -65,-120 6,-11 39,-35 74,-55 48,-27 85,-38 157,-49 175,-26 248,-29 329,-12 41,9 85,16 98,16 25,0 199,55 216,69 6,4 35,16 63,25 89,29 120,100 68,151 -29,30 -60,31 -130,5 z"
       id="path6" />
    <path
       d="m 9248,8716 c -23,-17 -39,-61 -31,-83 4,-10 30,-55 59,-100 62,-99 79,-156 103,-347 11,-87 25,-156 35,-170 33,-51 111,-39 138,20 19,42 -20,331 -60,447 -23,64 -125,222 -153,237 -25,14 -71,12 -91,-4 z"
       id="path7" />
    <path
       d="m 13538,8253 c -55,-54 -118,-123 -141,-153 -23,-30 -82,-98 -132,-151 -54,-57 -110,-129 -139,-180 -27,-46 -62,-99 -78,-118 -40,-45 -50,-75 -37,-108 13,-36 37,-52 76,-53 47,0 98,50 163,162 35,59 86,126 140,183 48,50 102,113 122,140 20,28 78,91 128,140 126,124 144,162 95,210 -17,18 -35,25 -61,25 -33,0 -47,-10 -136,-97 z"
       id="path8" />
    <path
       d="m 13745,7971 c -30,-12 -94,-86 -147,-168 -26,-39 -62,-88 -81,-110 -19,-21 -38,-48 -42,-61 -16,-54 42,-112 99,-98 32,8 97,76 153,161 25,39 66,92 90,119 33,37 43,56 43,83 0,61 -57,97 -115,74 z"
       id="path9" />
    <path
       d="m 13748,7541 c -64,-71 -95,-133 -83,-167 15,-42 56,-68 94,-59 43,9 151,152 151,199 0,44 -35,76 -82,76 -31,0 -43,-8 -80,-49 z"
       id="path10" />
    <path
       d="m 8704,7550 c -28,-11 -54,-48 -54,-78 0,-56 104,-185 171,-213 53,-22 120,37 106,93 -4,15 -25,44 -48,65 -22,21 -52,56 -65,79 -13,22 -35,46 -49,52 -30,14 -32,14 -61,2 z"
       id="path11" />
    <path
       d="m 9427,6880 c -36,-29 -40,-61 -16,-122 34,-86 80,-305 86,-410 7,-117 -10,-254 -43,-358 -21,-62 -23,-79 -13,-103 14,-33 37,-47 76,-47 43,0 69,24 93,88 62,164 72,421 26,642 -57,277 -124,376 -209,310 z"
       id="path12" />
    <path
       d="m 9625,4835 c -31,-30 -31,-44 0,-180 35,-155 35,-335 -2,-580 -33,-224 -33,-243 -4,-267 29,-23 82,-23 110,0 23,19 45,94 56,192 4,36 13,108 21,160 30,202 10,500 -42,631 -28,69 -94,90 -139,44 z"
       id="path13" />
    <path
       d="m 10509,3919 c -41,-4 -106,-15 -143,-23 -37,-9 -84,-16 -104,-16 -55,0 -110,-18 -122,-40 -5,-10 -10,-34 -10,-54 0,-77 99,-97 274,-56 48,12 128,22 179,23 l 93,2 44,-38 c 44,-38 46,-39 110,-34 36,2 105,17 154,32 l 90,28 65,-16 c 36,-10 74,-17 83,-17 80,0 117,104 53,146 -14,9 -58,25 -97,36 -86,23 -136,19 -254,-19 l -81,-26 -37,28 c -23,17 -63,34 -99,42 -68,14 -86,14 -198,2 z"
       id="path14" />
    <path
       d="m 11935,3839 c -68,-17 -101,-19 -219,-15 l -139,5 -28,-29 c -35,-34 -37,-70 -6,-105 18,-21 36,-28 97,-37 91,-12 264,-3 340,19 83,24 374,14 448,-16 107,-43 253,-54 684,-53 398,1 558,12 642,44 60,24 67,107 12,143 -27,18 -98,15 -196,-7 -25,-6 -214,-12 -420,-13 -418,-4 -554,6 -681,51 -67,24 -91,26 -264,30 -166,3 -200,1 -270,-17 z"
       id="path15" />
    <path
       d="m 10755,3423 c -27,-5 -305,-73 -328,-80 -53,-14 -76,-94 -37,-133 39,-39 62,-38 240,11 109,30 176,43 193,36 8,-3 18,-21 22,-39 16,-78 69,-118 158,-118 62,0 223,37 308,70 59,24 137,26 204,5 27,-8 106,-26 176,-41 l 128,-27 163,27 c 115,19 207,28 312,29 l 148,3 24,27 c 30,35 30,68 1,103 -18,21 -35,27 -82,33 -91,9 -295,-4 -434,-29 l -123,-22 -107,22 c -58,12 -137,31 -176,41 -97,26 -184,24 -270,-6 -78,-28 -218,-65 -246,-65 -13,0 -21,12 -29,39 -24,89 -131,139 -245,114 z"
       id="path16" />
    <path
       d="m 12785,3219 c -46,-27 -60,-83 -30,-126 29,-41 202,-69 318,-52 40,6 101,14 137,18 77,10 106,25 119,64 20,57 -23,107 -93,107 -21,0 -83,-7 -138,-16 -97,-15 -124,-14 -263,11 -16,3 -39,0 -50,-6 z"
       id="path17" />
    <path
       d="m 9585,3135 c -36,-35 -33,-80 10,-133 39,-49 50,-79 65,-172 21,-136 4,-303 -50,-490 -42,-149 -40,-189 11,-216 33,-17 70,-11 94,16 21,24 67,177 96,321 26,135 31,328 10,434 -38,194 -159,317 -236,240 z"
       id="path18" />
    <path
       d="m 10922,2616 c -39,-8 -96,-23 -125,-35 -28,-11 -73,-23 -99,-26 -88,-11 -123,-74 -73,-133 24,-29 32,-32 83,-32 32,1 75,8 97,16 105,41 244,64 301,50 15,-4 62,-41 104,-81 88,-86 127,-105 230,-112 63,-4 99,1 230,32 200,49 273,54 570,42 237,-10 247,-11 315,-39 39,-16 99,-48 135,-71 64,-42 64,-42 160,-42 52,0 131,4 175,9 64,7 97,5 165,-10 97,-21 374,-23 421,-3 55,22 61,104 11,137 -22,14 -48,17 -157,15 -86,-2 -159,3 -215,13 -102,19 -200,22 -336,10 l -100,-9 -55,36 c -30,20 -99,54 -154,76 l -100,39 -205,9 c -286,11 -448,6 -540,-17 -166,-43 -254,-60 -306,-60 -53,0 -55,1 -136,76 -46,42 -101,85 -123,97 -51,26 -172,32 -273,13 z"
       id="path19" />
  </g>
</svg>
