<svg viewBox="0 0 100 100" xml:space="preserve"
    xmlns="http://www.w3.org/2000/svg">
   <g id="g1">
    <path style="fill:currentColor;stroke-width:1.69179" d="M 39.089625,78.571384 C 33.971974,75.470464 26.359462,70.409126 22.172927,67.323967 17.986395,64.238809 11.324991,59.637771 7.3698072,57.099438 -0.80115368,51.855531 -2.3913948,45.445289 3.6734542,42.19948 c 2.8346252,-1.517044 5.1518484,-1.01522 12.2654428,2.656237 4.823804,2.489655 10.673811,6.278988 13.000016,8.420743 2.326205,2.141754 8.318788,6.283561 13.316849,9.204016 l 9.087385,5.309915 12.059932,-8.615819 C 80.60235,46.887121 92.156943,41.567463 96.545375,43.916081 c 5.083645,2.720687 4.451665,9.50164 -1.203888,12.917227 -8.443549,5.099361 -29.943264,19.793608 -34.811402,23.792284 -6.254943,5.137797 -10.193854,4.76041 -21.44046,-2.054208 z" id="path1" />
</g>
</svg>
