<svg xmlns="http://www.w3.org/2000/svg" viewBox="0 0 64 64" preserveAspectRatio="xMidYMid meet" xmlns:v="https://vecta.io/nano"><path fill="currentColor" d="M9.5 1.4C7.9 2.1 5.4 4 4 5.4c-2.5 2.7-2.5 3-3 25.4C.1 65.1-.5 64 20.6 64c17 0 15.6 1.3 15.2-15.5l-.3-11-3.7-.3c-3.1-.3-3.8-.7-3.8-2.4 0-1.6.5-1.9 2.3-1.4 1.2.3 3.3 0 4.7-.6 2.3-1 2.6-1.7 2.5-6.6 0-3.6.4-5.7 1.3-5.9.6-.3 1.2-1.3 1.2-2.4 0-2.2.6-2.5 6.5-3.3l4-.6-4.2 1.9c-4.3 2-4.7 2.8-5.8 9.7-.5 3.5-.2 4.6 1.8 7 2.1 2.4 2.7 2.6 4 1.5 1.8-1.4 3.7-.7 3.7 1.5 0 .9-1 1.4-2.8 1.4-4.9 0-5.8 2.3-5.6 14l.3 11.7c.1 1 2.8 1.3 10.1 1.3 8.8 0 10-.2 11-1.9.6-1.2 1-12.2 1-28.9V6.3l-2.3-2.1c-1.3-1.3-3.9-2.7-5.8-3.2-5.3-1.6-42.8-1.2-46.4.4zm12.1 6.1c.7 1.7 3.1 2 3.6.4.6-1.7 8.9-2.4 9.9-.8.6 1.1 1.1 1.1 2.1.1 1.5-1.5 11.8-1.6 17-.2 2.2.7 3.9 1.8 4.3 3.1.9 2.9-.6 26-1.6 25.3-.5-.3-.9-1.6-.9-2.8 0-2.9-1.5-4.2-5.7-5.1-1.8-.3-3.3-1.1-3.3-1.7 0-1.8 3.1-4 5-3.5 2.7.7 4-1.9 4-7.8 0-4.3-.2-4.7-3.5-6.1-3.1-1.3-4.2-1.3-9.3 0-3.8 1-6.4 2.4-7.8 4.2-2.3 2.8-4.4 8.7-4.4 12.3 0 1.7-.6 2.1-3.3 2.1-4.6 0-5.7 1.6-5.7 8 .1 6.2 3 11.4 5.2 9.2 2.4-2.4 2.9-1 2.6 6.5l-.3 7.8-9.7.3c-8.4.2-9.7.1-9.2-1.3.4-1 0-1.5-1.4-1.5-2.6 0-3.5-4.3-1.3-6.5 1.2-1.1 1.3-1.8.4-2.3-1.6-1-1.5-26.2.1-28.1.8-1.1.8-1.5-.1-1.8-1.4-.5-1.7-4.1-.7-6.7.5-1.3 1-1.4 2-.5 1.5 1.2 3.7.3 2.8-1.3C11.5 7.3 14 6 17.8 6c2 0 3.5.6 3.8 1.5zm36.7 39.6c.3 5 .3 9.7 0 10.5-.7 2-10.3 2-10.3 0 0-.8.5-1.6 1.2-1.8.7-.3.9-1.1.3-2.4-.4-1-1-3.6-1.1-5.7-.3-3.3-.1-3.7 2.1-3.7 1.3 0 2.7.5 3 1 1.2 1.9 2.5-.1 2.5-3.6 0-1.9.4-3.4.9-3.4.4 0 1.1 4.1 1.4 9.1z"/></svg>
