<svg xmlns="http://www.w3.org/2000/svg"  viewBox="0 0 100 100">

  <path
     style="fill:currentColor;stroke-width:2.1;stroke-linejoin:round;paint-order:stroke fill markers"
     d="M 3.4283965,61.853987 29.14137,59.711239 25.712974,5.2854446 93.280955,5.4282945 96.709352,19.71328 97.423601,70.139279 88.42406,88.56691 13.856436,96.423652 8.2852916,90.852508 3.1426968,76.567522 1.5713484,66.282333 Z"
     id="path34" />
  <g
     transform="matrix(0.0101439,0,0,-0.0101439,-36.398199,102.36882)"
     stroke="none"
     id="g33">
    <path
       d="m 10345,9829 c -57,-19 -77,-20 -375,-14 -173,4 -425,6 -560,5 -135,-1 -423,-3 -640,-5 -217,-1 -433,-7 -480,-13 -188,-24 -402,-34 -500,-23 -52,6 -364,16 -693,21 -497,7 -612,7 -680,-5 -45,-7 -135,-18 -199,-24 -85,-7 -129,-16 -160,-32 -97,-49 -120,-78 -144,-179 -7,-30 -17,-73 -23,-95 -8,-31 -7,-56 3,-99 8,-32 12,-74 9,-94 -3,-21 5,-104 17,-187 12,-82 26,-220 30,-305 7,-128 13,-166 33,-220 32,-84 67,-399 67,-601 0,-31 13,-119 30,-196 35,-166 46,-258 59,-488 6,-93 17,-203 26,-244 24,-114 35,-292 36,-556 0,-155 6,-268 14,-320 8,-44 19,-199 24,-345 18,-448 21,-503 31,-575 6,-38 12,-253 15,-477 l 5,-406 -85,-7 c -51,-5 -187,-1 -343,9 -290,18 -448,20 -572,7 -47,-5 -177,-15 -290,-21 -113,-6 -272,-17 -355,-25 -82,-8 -271,-17 -420,-20 -286,-7 -342,-13 -417,-51 -105,-53 -158,-125 -158,-217 0,-29 -9,-103 -21,-163 -33,-175 -36,-417 -10,-649 12,-104 31,-239 41,-300 11,-60 24,-157 30,-215 6,-58 18,-136 26,-175 8,-38 30,-158 49,-265 61,-353 72,-388 178,-615 36,-77 79,-174 95,-216 17,-42 52,-112 77,-155 26,-43 65,-115 87,-159 99,-197 209,-354 300,-428 79,-65 202,-132 304,-168 97,-33 102,-34 269,-34 110,0 184,5 210,13 58,18 238,41 410,52 83,5 168,14 190,20 45,11 374,37 650,50 102,5 206,16 240,24 33,9 118,21 189,26 70,6 169,19 220,29 68,15 155,21 341,26 138,3 293,10 345,16 52,5 227,16 388,24 162,8 351,22 420,30 70,8 189,15 265,15 75,0 179,7 230,15 114,18 355,35 507,35 63,0 160,4 215,10 55,5 219,14 365,20 146,5 310,17 365,26 55,8 177,17 270,19 185,4 388,32 615,85 69,16 154,34 190,40 59,10 283,79 487,149 195,68 309,192 620,673 118,183 153,248 212,405 27,70 67,171 88,223 65,154 81,212 128,465 66,354 75,419 85,608 9,158 27,277 74,492 29,134 39,264 31,410 -4,77 -9,509 -10,960 -2,570 -6,849 -14,915 -23,175 -30,274 -31,385 0,109 -18,287 -45,460 -9,60 -18,265 -25,615 -7,289 -16,543 -21,565 -6,22 -25,87 -44,145 -33,104 -88,334 -100,420 -4,25 -20,101 -37,170 -19,79 -31,160 -34,221 -5,143 -70,292 -153,356 -75,58 -107,62 -392,53 l -254,-8 -51,24 c -61,29 -169,32 -279,9 -112,-23 -228,-18 -480,21 l -230,36 -305,-6 c -253,-5 -314,-4 -360,9 -74,20 -143,18 -215,-6 z m 405,-374 c 156,0 231,-4 246,-12 11,-7 44,-48 72,-91 88,-135 145,-169 206,-121 39,31 36,87 -8,136 -62,70 -57,83 7,18 57,-59 67,-65 104,-65 33,0 46,5 62,26 12,15 21,38 21,52 0,23 2,24 38,18 111,-19 196,-24 377,-20 147,2 221,0 279,-11 43,-8 95,-15 116,-15 33,0 44,-6 80,-47 67,-77 106,-90 154,-52 21,17 26,29 26,65 v 44 h 75 c 89,0 92,-3 94,-105 0,-38 13,-117 27,-175 14,-58 32,-143 40,-190 26,-150 74,-352 116,-484 l 40,-130 9,-510 c 8,-427 13,-532 29,-636 30,-188 40,-299 45,-477 3,-89 12,-215 21,-280 15,-101 17,-234 19,-943 1,-454 5,-897 10,-985 10,-210 8,-216 -84,-281 -169,-120 -212,-193 -151,-254 33,-33 83,-26 132,18 l 41,37 -6,-50 c -3,-27 -13,-97 -22,-155 -15,-104 -16,-105 -59,-145 -108,-97 -126,-182 -47,-215 17,-7 42,-9 57,-6 24,6 25,5 20,-21 -3,-15 -28,-154 -57,-308 -44,-240 -57,-296 -95,-390 -25,-60 -71,-177 -103,-260 -73,-189 -101,-236 -372,-635 -86,-127 -181,-223 -239,-242 -213,-72 -405,-130 -455,-139 -33,-6 -116,-23 -186,-39 -219,-52 -428,-80 -589,-80 -80,0 -185,-7 -233,-15 -77,-12 -277,-25 -612,-39 -595,-25 -666,-29 -840,-51 -60,-8 -193,-17 -295,-20 -102,-3 -207,-10 -235,-15 -27,-5 -153,-14 -280,-19 -126,-6 -313,-18 -415,-26 -102,-9 -311,-20 -465,-25 -193,-6 -299,-14 -340,-25 -33,-8 -118,-20 -189,-25 -71,-6 -170,-19 -220,-30 -52,-12 -128,-20 -181,-20 -49,0 -162,-7 -250,-15 -88,-8 -194,-15 -235,-15 h -74 l 74,75 75,75 14,-29 c 14,-30 47,-51 80,-51 37,0 138,61 214,129 42,38 109,88 148,111 49,29 83,59 112,98 23,31 81,97 129,147 81,84 138,171 138,209 0,25 -27,73 -45,80 -49,19 -94,-4 -124,-62 -11,-21 -57,-76 -103,-122 -45,-47 -99,-107 -118,-134 -23,-32 -58,-63 -103,-90 -37,-23 -95,-66 -130,-97 -66,-59 -117,-96 -117,-85 0,4 27,43 61,87 147,194 271,458 319,679 21,100 18,96 53,63 77,-72 112,-79 159,-33 45,45 35,74 -62,178 l -80,87 v 75 c 0,41 4,122 10,180 5,58 15,180 21,273 l 12,167 h 27 c 45,0 80,35 80,80 0,30 -9,49 -42,90 -24,29 -49,61 -57,72 -15,20 -25,131 -37,381 l -6,127 h 30 c 17,0 38,3 47,6 18,7 45,55 45,80 0,24 -65,157 -94,191 -20,24 -24,43 -30,143 -3,63 -9,150 -13,193 l -6,77 h 32 c 79,0 100,44 75,160 -18,86 -41,126 -80,140 -19,7 -24,18 -25,45 -1,19 -2,41 -3,47 -1,7 16,15 38,19 46,7 76,39 76,78 0,14 -12,77 -26,139 -24,105 -29,115 -64,143 -34,28 -38,36 -43,92 -3,34 -9,88 -13,120 l -7,57 h 40 c 29,0 46,6 63,25 20,22 22,31 17,82 -8,74 -46,185 -91,265 -33,60 -36,72 -46,202 -6,76 -15,157 -20,180 -5,22 -10,129 -10,236 -1,260 -15,517 -35,615 -9,44 -20,139 -25,211 -5,71 -12,174 -16,227 l -7,97 h 32 c 62,0 106,84 68,130 -30,37 -90,80 -112,80 -19,0 -26,7 -35,38 -13,47 -27,183 -35,342 l -6,125 55,-58 c 47,-48 60,-57 90,-57 61,0 102,62 74,112 -7,13 -35,51 -62,84 -27,34 -64,96 -82,140 l -33,79 32,7 c 38,8 77,50 77,83 0,13 -15,42 -34,64 -21,25 -45,73 -62,123 -56,169 -88,218 -140,218 -19,0 -23,8 -33,63 -19,112 -9,151 23,90 17,-32 91,-105 123,-122 57,-29 123,9 123,70 0,25 -11,42 -51,81 -45,43 -79,99 -79,128 0,23 38,9 50,-20 7,-16 32,-48 56,-70 36,-33 51,-40 83,-40 31,0 44,6 60,26 26,34 26,60 0,103 l -20,34 32,-7 c 17,-3 75,-6 128,-6 h 97 l 12,-34 c 16,-45 84,-106 118,-106 15,0 38,12 56,30 27,27 29,34 23,71 l -7,41 298,-7 c 165,-3 337,-11 383,-16 59,-7 139,-6 263,2 174,12 179,12 201,-8 67,-62 143,-58 170,10 l 13,32 325,1 c 178,0 429,4 557,7 232,7 234,7 239,-14 12,-46 51,-105 83,-126 44,-30 85,-29 116,3 26,25 29,61 9,107 -7,16 4,17 153,17 h 159 l 89,-91 c 123,-126 169,-145 219,-94 40,39 34,80 -20,129 -25,23 -45,45 -45,49 0,4 24,7 53,8 28,0 68,7 87,14 19,7 42,10 50,7 8,-4 116,-7 240,-7 z M 5878,3984 c 186,-12 285,-14 341,-8 l 80,10 6,-71 c 4,-38 5,-108 3,-155 l -3,-84 -210,-3 c -256,-4 -499,-20 -541,-38 -61,-25 -66,-104 -9,-141 23,-15 40,-15 168,-6 256,20 570,25 589,10 24,-18 47,-296 26,-309 -13,-9 -89,-12 -287,-14 -100,-1 -104,-2 -127,-29 -32,-36 -30,-71 4,-106 23,-23 41,-29 96,-35 37,-4 90,-4 119,0 29,4 85,9 125,11 59,3 74,1 78,-11 7,-17 -12,-375 -20,-383 -3,-3 -56,-5 -118,-4 -62,0 -135,-3 -163,-8 -51,-10 -495,-27 -880,-35 -115,-3 -228,-9 -250,-14 -46,-11 -85,-51 -85,-86 0,-39 41,-79 81,-78 19,1 99,4 179,7 80,3 235,8 345,11 466,13 543,16 610,25 109,15 174,7 224,-26 41,-29 42,-29 38,-82 -2,-29 -8,-57 -13,-61 -5,-5 -45,-2 -92,7 -74,14 -87,14 -110,1 -54,-30 -54,-106 -1,-138 17,-11 60,-25 95,-31 61,-12 64,-14 64,-41 0,-35 -44,-178 -64,-204 -13,-18 -18,-19 -77,-7 -35,8 -88,24 -118,38 -95,43 -151,23 -151,-54 0,-64 74,-116 203,-142 31,-6 57,-14 57,-18 0,-14 -65,-112 -74,-112 -11,0 -142,54 -245,101 -73,34 -119,37 -152,10 -28,-22 -31,-81 -6,-108 15,-18 100,-61 230,-117 31,-14 57,-29 57,-35 0,-13 -100,-121 -112,-121 -6,0 -16,7 -22,15 -14,18 -171,85 -200,85 -34,0 -76,-43 -76,-77 0,-45 28,-73 109,-111 l 75,-35 -72,-68 c -39,-38 -76,-69 -81,-69 -5,0 -12,12 -15,26 -5,19 -21,31 -64,50 -102,44 -340,177 -396,222 -55,43 -130,20 -142,-43 -8,-44 28,-90 106,-135 130,-76 239,-144 236,-147 -7,-7 -146,52 -220,93 -43,24 -89,47 -101,50 -27,7 -80,-18 -89,-41 -12,-31 -6,-75 13,-94 25,-25 185,-114 246,-136 85,-31 77,-37 -40,-33 -94,3 -119,8 -170,31 -148,69 -222,146 -315,329 -29,57 -79,149 -111,204 -51,87 -139,281 -139,305 0,4 31,5 69,2 65,-5 71,-4 95,20 56,56 22,130 -64,142 -109,15 -192,39 -205,59 -22,33 -43,124 -85,371 -22,127 -44,246 -50,265 -19,66 -15,76 29,72 32,-3 45,1 65,22 47,47 33,86 -64,171 -37,33 -70,65 -73,72 -11,23 -40,223 -34,229 4,4 18,-1 31,-10 28,-18 78,-21 106,-6 22,12 42,64 33,88 -3,9 -39,50 -80,90 -51,50 -81,72 -98,72 -22,0 -25,5 -26,38 -5,127 11,356 27,371 2,2 32,-23 67,-56 34,-33 72,-63 84,-67 30,-9 73,12 92,45 22,39 7,75 -61,145 -40,42 -56,65 -47,68 8,2 128,7 267,10 251,5 253,5 287,-18 18,-13 53,-29 78,-35 56,-16 95,-1 117,46 9,20 24,34 40,37 14,3 115,10 224,16 110,6 202,12 204,15 11,10 277,5 530,-11 z M 5372,964 c 6,-4 0,-13 -16,-21 -15,-8 -29,-13 -29,-11 -1,2 -12,17 -24,35 l -23,32 41,-14 c 22,-8 45,-18 51,-21 z"
       id="path1" />
    <path
       d="m 8380,9113 c -64,-28 -103,-34 -295,-43 -132,-6 -229,-17 -318,-34 -168,-33 -276,-40 -422,-26 -66,6 -192,15 -280,20 -166,9 -231,23 -305,69 -57,34 -101,27 -126,-21 -61,-118 149,-218 457,-218 47,0 110,-4 140,-10 30,-5 114,-12 188,-15 l 134,-5 27,-68 c 18,-44 32,-103 39,-171 6,-57 13,-107 16,-111 5,-8 29,-96 80,-288 57,-217 54,-443 -9,-542 -83,-131 -116,-169 -154,-179 -20,-6 -48,-11 -62,-11 -34,0 -183,81 -250,136 -30,25 -72,58 -93,75 -20,17 -48,52 -61,77 -31,62 -59,149 -52,161 3,5 34,12 68,16 152,17 198,41 198,102 0,40 -37,83 -72,83 -13,0 -96,-11 -185,-24 -227,-33 -323,-81 -323,-159 0,-66 57,-99 126,-74 18,6 22,0 43,-65 44,-138 97,-217 188,-279 23,-16 63,-48 89,-70 26,-22 96,-65 158,-96 110,-55 111,-55 181,-50 99,7 177,39 220,89 19,23 35,45 35,49 0,4 18,29 40,55 100,121 138,276 120,499 -10,120 -25,192 -93,440 -19,72 -40,175 -46,229 -7,55 -20,120 -31,144 -11,24 -20,48 -20,52 0,16 195,43 365,50 192,8 294,26 360,63 70,39 83,100 33,147 -26,24 -60,25 -108,3 z"
       id="path2" />
    <path
       d="m 8810,9113 c -97,-38 -62,-183 45,-183 14,0 25,-6 25,-12 0,-27 -53,-236 -76,-298 -37,-102 -58,-384 -59,-795 v -210 l -62,3 c -56,4 -65,1 -87,-22 -33,-32 -34,-76 -3,-111 18,-22 35,-28 102,-37 81,-10 218,-4 290,12 48,11 75,41 75,84 0,48 -35,76 -93,76 h -47 l -2,143 c -4,223 -3,267 10,509 8,161 17,240 28,270 9,24 30,94 46,157 16,63 33,121 37,129 29,52 233,-260 311,-473 21,-59 60,-142 86,-184 49,-78 77,-131 138,-261 20,-41 58,-113 86,-160 27,-47 50,-88 50,-92 0,-5 -11,-8 -25,-8 -33,0 -81,-25 -89,-45 -9,-24 -7,-64 4,-84 23,-43 175,-75 335,-69 114,4 126,6 150,28 18,17 25,34 25,61 0,49 -36,79 -93,79 -36,0 -39,2 -33,23 10,37 44,255 60,387 9,69 22,166 31,215 9,50 22,131 31,180 8,50 29,148 46,219 17,71 31,156 32,190 l 1,61 h 101 c 86,0 105,3 123,19 28,25 29,88 2,115 -36,36 -85,41 -296,34 -190,-6 -200,-7 -222,-29 -25,-25 -30,-63 -12,-96 13,-24 67,-48 109,-48 28,0 30,-2 30,-38 0,-21 -11,-80 -24,-132 -27,-102 -58,-266 -81,-423 -8,-54 -17,-102 -19,-106 -3,-4 -15,-90 -26,-191 -11,-101 -25,-190 -29,-198 -7,-12 -12,-8 -26,19 -10,19 -33,59 -51,89 -19,30 -49,91 -67,135 -19,44 -64,128 -100,187 -36,59 -75,138 -88,175 -45,137 -191,400 -272,489 l -47,52 35,12 c 67,22 85,87 38,135 l -28,28 -100,-9 c -115,-9 -248,-10 -285,-1 -14,3 -32,3 -40,0 z"
       id="path3" />
    <path
       d="m 12065,9078 c -31,-16 -45,-39 -45,-73 0,-43 24,-73 65,-81 45,-8 45,-20 -1,-165 -75,-238 -86,-278 -118,-444 -19,-93 -39,-217 -45,-275 -13,-119 -29,-200 -40,-200 -5,0 -16,21 -26,48 -10,26 -24,57 -31,69 -8,12 -54,107 -102,210 -49,103 -114,226 -146,273 -31,47 -81,136 -111,197 -30,62 -72,140 -95,173 -55,81 -57,87 -26,111 19,15 26,30 26,55 0,71 -39,97 -125,83 -28,-4 -88,-8 -135,-9 -128,-2 -180,-13 -207,-44 -13,-15 -23,-38 -23,-50 0,-33 35,-73 71,-81 24,-5 29,-11 23,-23 -24,-54 -75,-222 -89,-293 -8,-46 -29,-131 -45,-189 -26,-94 -45,-187 -80,-400 -17,-104 -41,-250 -54,-320 l -12,-65 h -71 c -87,0 -113,-18 -113,-76 0,-29 6,-43 30,-63 52,-43 124,-46 280,-11 56,13 98,15 168,11 l 93,-6 30,29 c 34,35 37,68 9,104 -23,29 -48,36 -163,45 l -83,7 18,105 c 10,58 22,132 27,165 23,160 55,322 85,440 19,72 48,186 64,255 17,69 43,153 59,187 l 28,61 68,-108 c 37,-60 79,-137 94,-172 28,-66 79,-153 146,-252 21,-32 50,-85 64,-118 13,-33 56,-124 94,-202 67,-135 139,-302 139,-323 0,-6 -23,-8 -55,-5 -48,4 -59,1 -80,-18 -17,-16 -25,-34 -25,-57 0,-76 91,-111 241,-93 245,29 272,39 277,105 4,46 -27,85 -70,85 -34,0 -34,5 -4,106 25,85 42,177 51,289 11,133 72,395 135,583 27,83 50,156 50,164 0,7 5,30 11,51 9,34 13,37 48,37 24,0 48,8 65,21 50,39 27,130 -36,143 -55,11 -284,14 -303,4 z"
       id="path4" />
    <path
       d="m 12435,7333 c -241,-28 -320,-43 -426,-82 -93,-34 -534,-67 -674,-50 -182,21 -370,28 -562,19 -109,-6 -367,-14 -573,-19 -405,-11 -487,-15 -860,-36 -705,-42 -1579,-77 -1994,-80 l -290,-3 -23,-26 c -25,-29 -29,-72 -10,-97 31,-40 54,-44 287,-43 351,2 1453,44 1925,74 88,6 228,15 310,20 83,5 283,12 445,15 266,5 484,13 890,31 78,3 183,1 250,-6 353,-35 796,-14 948,47 81,32 262,62 427,70 124,6 131,7 157,34 37,36 36,72 -1,110 -28,28 -33,29 -113,28 -46,-1 -96,-4 -113,-6 z"
       id="path5" />
    <path
       d="m 12240,6948 c -558,-50 -610,-52 -1595,-67 -341,-5 -627,-12 -635,-15 -8,-3 -105,-10 -215,-16 -110,-5 -292,-16 -405,-24 -286,-20 -850,-15 -974,9 -49,9 -124,18 -167,18 -69,2 -80,-1 -103,-22 -17,-16 -26,-35 -26,-55 1,-61 33,-81 145,-91 44,-4 110,-13 146,-20 83,-18 839,-22 1034,-6 72,6 211,15 310,21 99,5 198,12 220,15 49,6 1226,30 1349,27 108,-3 308,9 726,43 173,14 367,25 430,26 63,0 155,4 203,7 77,6 92,10 108,31 25,30 24,72 -2,105 l -21,27 -222,-3 c -121,-1 -259,-5 -306,-10 z"
       id="path6" />
    <path
       d="m 9620,6318 c -25,-5 -117,-7 -205,-5 -177,6 -307,-4 -375,-28 -25,-9 -101,-25 -170,-36 -223,-35 -362,-59 -520,-88 -201,-38 -495,-61 -848,-66 -253,-4 -287,-6 -327,-24 -59,-26 -88,-72 -80,-126 4,-22 8,-65 10,-96 2,-31 12,-87 23,-125 27,-94 44,-258 37,-346 -4,-45 -1,-121 9,-198 28,-219 15,-1069 -20,-1294 -11,-74 -13,-135 -8,-245 11,-232 16,-237 269,-227 362,13 499,24 585,45 139,34 412,54 508,36 31,-6 53,-3 80,8 20,8 89,20 152,25 l 115,11 64,-30 c 77,-35 101,-36 139,-4 30,25 31,25 298,31 148,3 286,10 306,15 21,5 48,23 62,40 34,40 34,90 -1,194 -42,128 -43,272 -5,516 29,183 40,264 62,439 13,106 25,543 24,890 0,232 -4,321 -19,417 -15,99 -16,130 -7,162 17,55 15,69 -13,96 -26,27 -63,31 -145,13 z m -255,-176 c 6,-4 16,-19 23,-35 6,-15 28,-34 49,-44 21,-10 56,-30 79,-44 22,-15 56,-29 75,-31 34,-3 34,-4 37,-55 2,-29 -1,-53 -6,-53 -4,0 -24,16 -43,36 -18,19 -72,61 -119,93 -47,33 -94,69 -105,81 -67,74 -165,53 -165,-35 0,-29 9,-45 48,-84 26,-26 73,-64 103,-83 31,-20 89,-65 131,-101 41,-36 97,-76 124,-89 38,-18 49,-28 48,-46 0,-12 -1,-45 -2,-73 l -2,-50 -31,18 c -18,10 -82,64 -143,119 -113,104 -429,418 -434,433 -3,9 97,39 148,44 69,7 175,7 185,-1 z m -516,-95 c 7,-13 110,-120 229,-238 381,-378 451,-435 525,-424 l 39,5 -7,-102 c -4,-57 -9,-105 -11,-107 -2,-2 -24,4 -48,13 -91,35 -393,298 -541,471 -44,51 -107,125 -140,163 -67,77 -165,209 -165,222 0,9 31,16 81,19 17,1 30,-6 38,-22 z m -281,-78 c 26,-29 72,-87 103,-131 31,-43 87,-114 126,-156 38,-42 99,-112 137,-155 95,-110 224,-231 367,-347 124,-101 213,-153 285,-168 l 39,-8 -1,-90 c 0,-93 -27,-313 -71,-574 -42,-254 -42,-457 2,-581 8,-21 11,-41 7,-43 -5,-3 -145,-8 -312,-12 l -305,-7 -50,42 c -27,22 -90,72 -140,110 -49,38 -127,102 -172,143 -45,40 -135,120 -200,178 -65,57 -206,188 -313,290 -457,436 -552,520 -591,520 -43,0 -65,-15 -78,-51 -16,-47 9,-90 104,-173 102,-89 323,-291 350,-320 25,-27 344,-325 461,-432 164,-149 273,-242 320,-275 42,-28 45,-33 28,-40 -10,-4 -50,-8 -89,-8 -88,-1 -99,6 -285,168 -233,204 -425,405 -569,598 -32,43 -86,110 -120,148 -33,39 -61,73 -61,77 0,11 -56,38 -78,38 -11,0 -31,-9 -46,-21 -43,-34 -37,-85 22,-157 26,-33 76,-97 112,-142 199,-251 361,-428 530,-579 88,-79 159,-146 156,-148 -3,-3 -20,-2 -38,1 -36,7 -226,187 -509,482 -161,168 -205,204 -252,204 -37,0 -77,-40 -77,-79 0,-25 22,-52 131,-163 73,-73 180,-185 240,-248 59,-64 135,-138 168,-165 34,-28 61,-55 61,-61 0,-7 -11,-15 -24,-18 -26,-6 -33,-1 -207,162 -101,94 -113,102 -149,102 -52,0 -80,-27 -80,-76 0,-32 10,-47 82,-120 64,-66 78,-85 65,-90 -24,-9 -47,3 -47,24 0,10 -12,29 -26,43 -14,13 -49,56 -77,94 -29,39 -59,75 -67,82 -19,16 -65,16 -92,2 -19,-10 -20,-9 -15,22 12,66 37,725 36,963 0,147 -6,284 -15,350 -8,61 -14,118 -14,129 0,22 114,-94 250,-257 128,-152 676,-698 845,-841 252,-213 449,-356 580,-419 64,-31 127,-56 139,-56 13,0 35,9 50,21 20,16 26,29 26,59 0,49 -30,75 -148,132 -129,61 -321,203 -597,443 -158,138 -667,651 -788,795 -44,52 -120,137 -168,189 l -89,94 -44,-5 -45,-5 -5,36 c -4,20 -11,79 -16,131 -6,52 -20,124 -31,161 -11,37 -19,84 -17,104 l 3,37 275,4 c 151,2 309,9 351,14 41,5 127,12 192,16 l 116,7 49,-49 c 27,-27 86,-95 132,-152 151,-190 512,-565 650,-677 74,-60 168,-124 298,-202 47,-29 105,-30 132,-3 23,23 27,77 8,102 -15,20 -99,77 -178,123 -127,73 -324,256 -641,600 -85,91 -241,286 -235,292 5,6 62,20 84,22 8,1 35,-22 60,-50 z M 7364,3652 c 25,-34 46,-64 46,-67 0,-3 -20,-5 -45,-5 -44,0 -45,1 -45,33 0,17 -3,50 -7,72 -7,47 -8,48 51,-33 z"
       id="path7" />
    <path
       d="m 8033,5880 c -12,-5 -26,-18 -32,-29 -25,-46 -13,-75 82,-202 72,-96 150,-179 338,-360 292,-283 357,-340 559,-493 151,-113 272,-186 312,-186 27,0 78,54 78,82 0,37 -22,60 -112,115 -273,168 -853,696 -1052,958 -92,121 -117,137 -173,115 z"
       id="path8" />
    <path
       d="m 7394,5776 c -21,-17 -28,-33 -28,-59 0,-30 10,-46 65,-104 35,-38 95,-109 134,-158 38,-50 99,-124 135,-165 37,-41 86,-100 111,-131 182,-232 640,-701 843,-864 216,-174 433,-301 531,-313 38,-4 50,-1 70,18 27,25 33,67 15,101 -6,10 -59,41 -117,69 -219,103 -424,262 -726,565 -181,181 -320,332 -455,494 -35,42 -98,117 -141,166 -42,50 -104,124 -136,165 -182,231 -238,271 -301,216 z"
       id="path9" />
    <path
       d="m 7755,5765 c -27,-26 -32,-63 -13,-98 59,-112 477,-566 728,-791 315,-283 730,-576 815,-576 37,0 75,42 75,83 0,42 -12,53 -127,125 -280,173 -558,397 -828,667 -238,239 -361,371 -459,498 -37,48 -77,94 -89,102 -32,22 -74,19 -102,-10 z"
       id="path10" />
    <path
       d="m 12048,6100 c -37,-29 -39,-86 -4,-119 42,-40 243,-64 329,-40 65,18 83,97 32,139 -12,10 -53,17 -114,21 -53,4 -123,10 -156,14 -53,6 -63,5 -87,-15 z"
       id="path11" />
    <path
       d="m 11478,6095 c -3,-3 -93,-6 -199,-6 -107,0 -297,-7 -424,-15 -126,-8 -313,-17 -415,-20 -102,-3 -195,-7 -208,-10 -60,-12 -81,-81 -38,-131 l 24,-28 214,2 c 117,1 245,6 283,12 39,6 223,14 410,17 187,3 365,10 395,15 95,15 129,82 71,140 -23,22 -39,29 -69,29 -21,0 -41,-2 -44,-5 z"
       id="path12" />
    <path
       d="m 11915,5530 c -154,-4 -311,-13 -350,-20 -65,-11 -191,-17 -525,-24 -140,-3 -193,-15 -210,-46 -16,-29 -12,-76 9,-101 18,-23 23,-23 167,-22 273,3 468,12 594,27 74,10 211,16 335,17 278,1 380,11 411,40 34,32 33,90 -2,118 -21,17 -39,21 -88,19 -33,-1 -187,-5 -341,-8 z"
       id="path13" />
    <path
       d="m 10227,5506 c -35,-33 -37,-83 -4,-115 24,-22 38,-24 189,-35 61,-5 70,-3 98,20 40,34 40,73 1,116 l -29,33 -114,3 c -110,3 -114,3 -141,-22 z"
       id="path14" />
    <path
       d="m 11777,5100 c -70,-9 -107,-38 -107,-84 1,-34 15,-58 45,-73 13,-6 128,-8 323,-4 l 304,6 19,24 c 26,32 24,74 -5,108 l -24,28 -249,1 c -136,1 -274,-2 -306,-6 z"
       id="path15" />
    <path
       d="m 10973,5059 c -93,-12 -420,-29 -556,-29 -112,0 -119,-1 -142,-25 -32,-31 -32,-75 -1,-112 24,-27 27,-28 138,-30 126,-2 410,12 563,27 55,6 184,12 286,13 203,3 229,10 249,63 11,28 -2,71 -28,90 -20,15 -401,17 -509,3 z"
       id="path16" />
    <path
       d="m 11085,4558 c -27,-6 -129,-10 -225,-10 -96,0 -255,-8 -353,-18 -158,-16 -181,-21 -203,-41 -33,-31 -32,-81 2,-116 25,-25 28,-25 117,-19 51,4 128,11 172,16 44,5 159,9 255,9 96,-1 204,4 240,10 90,15 214,14 355,-4 221,-29 274,-34 294,-30 10,2 126,6 258,10 131,4 251,11 266,17 73,28 60,134 -18,154 -15,4 -142,1 -284,-6 -197,-9 -275,-9 -332,0 -249,38 -440,48 -544,28 z"
       id="path17" />
    <path
       d="m 11699,4060 c -28,-16 -43,-66 -30,-98 22,-52 37,-55 283,-60 l 226,-5 26,26 c 48,48 27,118 -42,137 -46,12 -441,13 -463,0 z"
       id="path18" />
    <path
       d="m 11095,4054 c -82,-3 -421,-21 -644,-33 -119,-7 -125,-8 -147,-35 -32,-37 -30,-71 5,-107 28,-27 34,-29 113,-29 46,0 121,5 168,10 47,6 224,15 393,20 308,10 337,14 364,49 19,24 15,76 -6,102 -16,21 -28,24 -92,25 -41,0 -110,0 -154,-2 z"
       id="path19" />
    <path
       d="m 10424,2942 c -36,-23 -49,-59 -34,-96 18,-48 40,-53 263,-59 l 209,-6 24,24 c 25,26 32,72 14,105 -17,31 -69,40 -260,46 -173,5 -187,4 -216,-14 z"
       id="path20" />
    <path
       d="m 11545,2939 c -38,-5 -148,-7 -244,-6 l -173,2 -24,-28 c -39,-46 -31,-98 19,-123 44,-23 240,-30 412,-14 118,11 172,11 316,0 259,-20 294,-20 321,7 29,30 30,86 1,114 -23,24 -81,33 -308,49 -152,10 -223,10 -320,-1 z"
       id="path21" />
    <path
       d="m 8970,2930 c -69,-3 -133,-9 -143,-14 -38,-18 -49,-84 -22,-123 23,-33 63,-36 324,-25 255,11 271,15 292,64 14,33 -2,83 -32,98 -18,10 -205,10 -419,0 z"
       id="path22" />
    <path
       d="m 8489,2915 c -6,-5 -378,-17 -614,-19 -230,-3 -565,-26 -602,-41 -60,-25 -67,-97 -12,-137 24,-18 34,-19 240,-7 118,7 279,14 359,15 603,11 707,18 746,55 56,53 14,139 -69,139 -24,0 -46,-2 -48,-5 z"
       id="path23" />
    <path
       d="m 11135,2558 c -104,-4 -293,-9 -418,-10 -227,-3 -229,-3 -248,-27 -43,-52 -13,-124 58,-137 20,-4 165,-3 322,1 157,4 464,8 681,9 459,3 533,8 567,42 28,28 30,73 4,105 l -18,23 -379,1 c -209,1 -464,-2 -569,-7 z"
       id="path24" />
    <path
       d="m 12353,2425 c -11,-8 -35,-49 -53,-92 -37,-89 -45,-102 -164,-257 -67,-89 -108,-132 -170,-178 -44,-34 -102,-81 -129,-104 -26,-23 -86,-68 -133,-100 -47,-31 -92,-66 -100,-78 -15,-21 -18,-63 -8,-91 9,-23 61,-47 87,-39 32,9 192,119 262,179 33,28 97,80 142,114 79,59 161,155 290,339 53,75 116,227 108,262 -12,54 -84,79 -132,45 z"
       id="path25" />
    <path
       d="m 7889,2416 c -5,-6 -122,-17 -367,-36 -131,-9 -166,-18 -189,-49 -35,-46 8,-124 68,-125 57,0 380,24 457,34 40,6 117,10 171,10 88,0 99,2 118,23 28,31 34,52 22,84 -15,45 -43,55 -164,61 -60,2 -113,2 -116,-2 z"
       id="path26" />
    <path
       d="m 9215,2395 c -48,-8 -222,-15 -420,-17 -278,-4 -347,-8 -377,-21 -61,-26 -78,-88 -35,-131 l 23,-23 344,4 c 456,5 628,23 668,68 30,36 28,71 -7,106 -34,33 -60,35 -196,14 z"
       id="path27" />
    <path
       d="m 10622,2230 c -120,-5 -124,-6 -148,-33 -27,-31 -29,-43 -14,-82 19,-50 45,-54 415,-51 368,2 373,3 395,57 14,33 3,76 -24,94 -23,16 -393,24 -624,15 z"
       id="path28" />
    <path
       d="m 11547,2218 c -43,-33 -40,-102 5,-132 31,-20 135,-36 241,-36 80,0 90,2 112,25 34,33 34,83 0,115 -21,20 -39,24 -142,31 -168,11 -197,11 -216,-3 z"
       id="path29" />
    <path
       d="m 7665,1948 c -367,-18 -320,-13 -345,-38 -26,-26 -27,-83 -1,-109 37,-37 79,-40 303,-25 200,13 697,12 719,-2 5,-3 235,-5 511,-5 479,0 503,1 527,19 45,33 41,111 -7,136 -23,12 -109,14 -497,15 -259,0 -573,5 -700,10 -252,12 -263,12 -510,-1 z"
       id="path30" />
    <path
       d="m 6820,1323 c -8,-3 -39,-14 -68,-25 -82,-30 -104,-97 -50,-148 12,-11 34,-20 50,-20 43,0 141,39 166,66 59,65 -13,158 -98,127 z"
       id="path31" />
    <path
       d="m 5030,3610 c -132,-8 -253,-24 -308,-42 -66,-20 -76,-106 -16,-144 25,-17 32,-17 154,0 70,10 158,18 196,17 91,-1 167,15 190,40 24,27 23,84 -2,110 -26,25 -60,28 -214,19 z"
       id="path32" />
    <path
       d="m 5530,3130 c -50,-8 -206,-24 -410,-40 -214,-18 -310,-32 -335,-52 -47,-37 -39,-105 15,-133 26,-13 43,-14 108,-6 42,6 140,15 217,21 77,6 178,15 225,20 47,5 135,14 195,20 153,16 182,24 201,61 18,37 12,70 -18,99 -18,16 -34,20 -87,19 -36,-1 -86,-5 -111,-9 z"
       id="path33" />
  </g>
</svg>
