<svg xmlns="http://www.w3.org/2000/svg" viewBox="0 0 100 100"><path d="M6.245 72.034l42.058-.721 22.11-1.682 26.316 2.043.601 11.656-4.927 2.043-35.689.481-27.157-1.802-21.63-.481-5.888-2.644.481-6.128zm-.601-54.675l6.489-.961 26.436 1.322 25.235-1.923 31.603.24 2.523 11.536-2.884 3.004L3.48 27.813l-.36-6.008zM3.961 44.275l29.921-.481 17.304.961 23.672-1.562h20.067l1.442 13.819-47.585-.841-15.621.12-13.939-.961-10.574.36-6.369-1.322-.481-3.244z" fill="currentColor"/><path d="M85.707 13.769c-7.085.427-14.189.166-21.283.225-14.77 1.152-29.602 1.658-44.413 1.153-4.344.123-8.742-.91-13.039.061-3.679.618-5.65 4.49-5.672 7.934-.238 2.523.15 5.94 3.016 6.779 4.079.172 8.161.129 12.242.195l62.777 2.134c3.372.054 6.74-.159 10.11-.225 2.9-.074 6.373.585 8.629-1.732 2.361-2.435 1.553-6.115.637-9-.751-2.404-.793-5.596-3.346-6.891-3.163-.555-6.445-.414-9.658-.633zm-1.208 4.063c1.73-.012 3.461.026 5.191.158 2.745-.723 5.263 1.426 5.184 4.187.596 1.851 1.645 4.574-.55 5.778-3.44-.015-6.877.167-10.316.23-5.582.201-11.164-.067-16.743-.217-17.914-.158-35.783-1.741-53.698-1.824-2.603-.473-5.746 1.188-7.899-.866-.379-.693-.504-1.488-.456-2.278.139.07.286.119.442.121.5.048.969-.472.786-.959-.17-.417-.398-.808-.649-1.183.535-.987 1.39-1.779 2.515-2.046.238.52.552 1.006.928 1.434.046.05.092.1.141.147.289.34.813.467 1.203.226.468-.176.214-.774.494-1.01.402.264 1.01.188 1.261-.258.077-.159.109-.327.116-.497l11.18.201c.403.623.764 1.276 1.236 1.85.226.256.579.467.932.375.526-.04.498-.664.876-.856.444.004.967-.163 1.054-.671.019-.22-.04-.427-.121-.627 5.516.098 11.032.146 16.548-.02l.903-.038a4.47 4.47 0 0 0 1.066 1.532c.475.449 1.321.235 1.515-.389.08-.481-.269-.861-.536-1.23 5.875-.313 11.736-.964 17.614-1.087.029.07.067.137.118.196.42.527.851 1.062 1.39 1.474a.98.98 0 0 0 .625-.007c.426-.107.704-.577.553-.998-.1-.246-.244-.468-.404-.679l1.926.021c2.551.159 5.102.109 7.653.029.119.222.263.438.385.645.327.451.367 1.053.748 1.468a.82.82 0 0 0 1.196-.037c.384-.418.219-1.032.061-1.511-.085-.214-.187-.422-.297-.627l5.831-.155zm-74.087 1.114l.227.003c.031.102.061.206.086.305-.119-.089-.219-.196-.313-.308zm70.554 22.021c-1.041-.006-2.082.015-3.122.072-8.803.654-17.608 1.372-26.439 1.542l-32.083-.417c-4.099.081-8.197-.045-12.295.013-2.679-.225-5.776 1.036-6.362 3.926-.031 2.74-1.276 5.553-.278 8.244 1.452 2.675 4.823 3.316 7.62 3.339 5.436-.418 10.902-.663 16.354-.34 11.57 1.038 23.199 1.171 34.807.969 11.515-.02 23.022.633 34.537.619 1.06.264 2.193-.163 2.96-.904 1.74-1.706.919-4.282.726-6.397-.432-2.732.467-5.603-.549-8.243-.969-2.685-4.276-2.317-6.531-1.917-3.101-.227-6.223-.485-9.346-.504zm-.058 3.925c2.515.005 5.023.318 7.526.585 2.228-.494 5.574.01 5.115 3.125-1.148 1.952 1.628 5.133-1.147 6.265-10.569.097-21.125-.593-31.693-.602-8.922.328-17.857.201-26.771-.286-6.767-.228-13.523-1.252-20.298-.63-2.796-.005-5.795 1.063-8.452-.143-.589-.511-.912-1.25-1.053-2.058.368.005.745-.196.878-.561.129-.439-.053-.948-.371-1.263-.129-.129-.295-.18-.466-.199.093-.463.225-.917.42-1.336.578.099 1.157-.52.931-1.091-.017-.054-.051-.104-.07-.158.106-.111.202-.239.318-.334l1.708-.007c.1.207.241.404.369.576.462.547.384 1.409 1 1.843a1.28 1.28 0 0 0 .17.069c.468.179.956-.217 1.119-.637.085-.373-.108-.741-.21-1.093-.101-.256-.218-.515-.348-.767l.907-.004c.133.124.271.243.433.327.376.242.85.021 1.076-.334l.709-.003a2.44 2.44 0 0 0 .355.487.98.98 0 0 0 .228.162c.5.306 1.231-.047 1.291-.63 0-.009-.004-.018-.004-.027l2.671-.012c3.4-.07 6.799-.047 10.198.011.273.514.65.978 1.124 1.316.107.062.22.117.338.157.6.241 1.18-.498 1.007-1.06-.046-.128-.108-.247-.179-.361l.64.015c.14.258.328.497.514.707.111.119.213.25.362.325.542.329 1.392-.122 1.296-.787-.02-.068-.052-.132-.077-.198l11.926.252c-.001.142.026.284.093.412.463.512.742 1.17 1.24 1.655.527.233 1.237-.142 1.272-.734.005-.49-.258-.911-.545-1.299 3.046.027 6.093.015 9.14-.081 7.626.014 15.186-1.111 22.791-1.485.84-.08 1.68-.112 2.518-.11zm-5.974 22.886c-1.368.01-2.736.054-4.104.131-7.257.413-14.524.515-21.783.882-13.659.635-27.336.842-41.007.584-3.552-.467-6.753 2.454-7.44 5.81-.134 2.53-.978 5.314.355 7.673 2.418 2.116 5.751 2.674 8.864 2.734 16.773-1.133 33.476 1.486 50.229 1.76l30.172-.388c2.698.074 5.874-.012 7.638-2.392 1.759-2.179 1.66-5.156 1.14-7.75-.232-2.439.126-5.715-2.465-7.029-2.903-1.393-6.23-.718-9.319-1.252-4.074-.529-8.176-.795-12.28-.764zm1.557 3.918c4.736-.179 9.381 1.338 14.106.994 2.724-.562 4.969 1.897 4.525 4.555.272 1.897.633 4.528-1.45 5.541-8.425.573-16.876.357-25.312.583-11.667.388-23.295-.85-34.923-1.582-7.123-.613-14.276-.518-21.414-.269-2.468-.121-5.881.779-7.452-1.706-.168-.35-.272-.733-.34-1.129.357.17.792.013 1.017-.299.275-.394.064-.945-.25-1.252a5.17 5.17 0 0 0-.703-.538c.397-1.709 1.608-3.191 3.488-3.189l7.962.031c.13.353.382.669.639.933.105.087.22.167.346.22.608.206 1.259-.465 1.069-1.072-.008-.025-.021-.048-.029-.073l8.972-.022c.111.473.204.96.558 1.313.42.414 1.206.137 1.319-.425a5.55 5.55 0 0 0-.036-.915l3.594-.053c1.348-.009 2.695-.053 4.042-.086l.167.331c.18.349.445.717.875.74.389.064.708-.215.892-.527l.357.313c.174.147.377.301.617.296a.9.9 0 0 0 .816-1.145c-.011-.036-.029-.072-.04-.109l10.237-.454c.277.564.65 1.129 1.216 1.436.325.051.66.059.982-.01.534-.081.947-.747.635-1.236a1.03 1.03 0 0 0-.188-.31l6.095-.24c5.879.017 11.735-.626 17.612-.643z"/></svg>