<svg xmlns="http://www.w3.org/2000/svg" viewBox="0 0 100 100"><path d="M15.963 2.445l35.135 33.969L87.253 1.716l10.205 12.1-35.135 35.718 36.593 36.884-12.829 11.08-35.135-36.593-37.03 34.697-12.1-10.788 38.78-35.426L5.612 12.504z" fill="currentColor"/><path d="M86.901.512c-.424.034-.843.138-1.243.328-4.553 2.602-8.338 6.3-12.035 9.97-5.65 5.482-11.04 11.225-16.284 17.095a117.17 117.17 0 0 0-2.852 2.986c-.858.862-1.676 1.822-2.762 2.402-.702.384-1.509.058-2.087-.399-1.219-.956-2-2.349-3.231-3.297-4.732-5.671-10.109-10.795-15.953-15.309-4.182-3.388-6.878-8.182-10.825-11.805-1.51-1.569-4.02-2.266-6.038-1.306-1.359.763-2.284 2.077-3.313 3.212C8.69 6.402 6.382 7.696 4.839 9.746c-.977 1.193-1.411 2.858-.919 4.347.943 2.707 3.27 4.532 5.102 6.618 3.756 4.899 8.046 9.354 12.414 13.704 3.492 3.347 6.645 7.024 9.726 10.747 1.256 1.74 3.365 2.721 4.355 4.672-4.719 5.225-10.676 9.178-15.235 14.56-2.601 2.96-4.31 6.716-7.531 9.108-3.002 1.815-5.693 4.097-8.203 6.536-1.22 1.303-2.689 2.386-3.702 3.874-.768 1.141-1.235 2.773-.411 4.006 1.967 1.975 4.029 3.854 6.114 5.704 1.597 1.343 3.073 2.976 5.081 3.707 1.255.5 2.663.211 3.831-.386 2.024-1.096 3.916-2.442 5.647-3.959 1.915-1.658 3.517-3.624 5.203-5.502 2.869-2.703 5.487-5.654 8.275-8.438 1.979-2.062 4.166-3.911 6.456-5.619 2.143-1.672 4.384-3.227 6.406-5.048.646-.497 1.067-1.193 1.461-1.891.584-1.105 2.091-1.524 3.168-.897.802.323.952 1.217 1.477 1.803 3.062 3.189 5.93 6.565 9.118 9.633 3.465 3.136 7.047 6.157 10.257 9.563 2.411 2.492 4.503 5.265 6.502 8.092 1.472 2.133 3.39 4.205 5.984 4.88.601.2 1.242.042 1.821-.157 2.25-.631 4.486-1.613 6.121-3.334.966-1.162 1.971-2.295 3.092-3.312 1.287-1.266 2.876-2.437 3.411-4.245.508-2.127-.433-4.304-1.703-5.979-1.823-2.092-3.761-4.085-5.628-6.139-1.695-1.961-3.572-3.751-5.487-5.495-1.743-1.537-3.323-3.24-4.948-4.897-4.241-3.917-8.651-7.749-12.009-12.488-.606-1.133-1.626-1.942-2.475-2.879-.755-.721-1.234-1.988-.576-2.921L81.727 32.96c2.695-2.412 4.994-5.219 7.201-8.073 1.507-2.095 3.317-3.954 5.292-5.611 1.338-1.183 2.805-2.214 4.106-3.438 1.432-1.24 1.468-3.557.378-5.029-.689-.739-1.372-1.491-1.978-2.303-1.827-2.471-3.76-4.929-6.251-6.769C89.487.945 88.173.411 86.901.512zm.619 5.242a2.44 2.44 0 0 1 1.339.563c1.121.882 1.748 2.208 2.728 3.226.921 1.014 2.049 2.122 2.028 3.596-.034 1.009-1.004 1.563-1.749 2.06-3.727 2.669-6.265 6.56-9.18 10.019-6 6.316-12.244 12.394-18.372 18.585-1.34 1.476-2.862 2.772-4.21 4.24-.78.701-1.247 1.957-.629 2.905 1.111 1.424 2.271 0 2.474.254a65.62 65.62 0 0 0 2.345 3.085c-.172.964.085 2.006.6 2.831.106.1.24.173.383.203.446.061.825-.233 1.04-.611a119.38 119.38 0 0 0 5.16 5.706c-.051.079-.094.164-.119.259-.272.909-.172 1.984.422 2.749.201.194.495.265.763.183.547-.154.837-.653.947-1.186l1.519 1.412c-.039.051-.076.104-.105.162-.394.82-.28 1.933.417 2.56.502.299 1.145-.037 1.411-.502a2.06 2.06 0 0 0 .183-.447l5.181 5.051c3.718 3.192 6.955 6.885 10.266 10.484.611.753 1.371 1.356 2.038 2.054.953 1.106.485 2.831-.488 3.765-.903.672-1.765 1.411-2.498 2.273-1.24 1.463-2.689 3.055-4.704 3.299-.483.336-1.128.115-1.528-.244-1.878-2.179-3.523-4.549-5.31-6.802-3.746-4.945-8.573-8.891-13.137-13.039-3.281-3.173-6.339-6.566-9.447-9.906-1.346-1.267-2.349-2.83-3.544-4.229-.706-.955-1.972-1.696-3.172-1.269-1.673.894-2.962 2.335-4.243 3.703-2.214 2.557-4.926 4.605-7.643 6.593-3.902 2.734-7.25 6.149-10.539 9.572-1.528 1.658-3.225 3.147-4.766 4.792-1.602 1.727-3.058 3.591-4.793 5.193-1.076.955-2.106 1.977-3.298 2.789-.921.635-2.146.979-3.212.498-1.941-.955-2.947-3.059-4.77-4.179-.831-.356-1.55-1.151-1.514-2.099.007-1.058.96-1.706 1.75-2.229 1.692-1.727 3.472-3.402 5.516-4.714 2.866-1.595 5.213-3.981 7.116-6.627a42.85 42.85 0 0 1 1.062-1.559c.093.351.22.693.398.995.188.223.511.28.783.204.683-.186 1.025-.919 1.047-1.579.019-.613-.135-1.3-.599-1.729.19-.236.386-.466.58-.698a2.42 2.42 0 0 0 .572.799c.283.261.709.219 1.008.01.608-.403.67-1.23.535-1.883-.077-.31-.193-.637-.368-.919 1.387-1.492 2.845-2.921 4.381-4.256 2.041-1.625 3.95-3.402 5.833-5.206a5.39 5.39 0 0 0 .668 1.838c.118.121.262.219.425.269.636.167 1.197-.474 1.217-1.072.091-.888.203-1.799.019-2.682a1.55 1.55 0 0 0-.158-.435c1.054-1.108 2.381-1.915 3.421-3.038.98-.864 1.233-2.528.333-3.536-1.331-1.047-2.762-1.967-4.019-3.107-2.623-2.273-4.619-5.134-6.872-7.748-3.593-3.864-7.361-7.562-11.023-11.361-2.251-2.119-4.085-4.618-6.002-7.03-1.038-1.434-2.367-2.608-3.609-3.857-.788-.622-1.2-1.825-.643-2.727.14-.146.294-.28.438-.423.392.933 1.098 1.735 1.815 2.438.049.111.131.203.22.284.521.413 1.456.034 1.506-.644.027-.612-.281-1.186-.592-1.694-.223-.416-.625-.706-.828-1.127-.038-.345-.139-.687-.35-.97.236-.221.459-.456.693-.68.097.305.309.573.617.69.197.203.477.344.765.323.607-.091.943-.759.948-1.325-.013-.504-.273-1.035-.717-1.296.648-.69 1.186-1.627 2.214-1.698.951.075 1.651.857 2.214 1.557.666.967 1.481 1.813 2.2 2.739.121.164.25.319.374.481.566 2.107 1.305 5.818 2.169 7.188a.84.84 0 0 0 .466.202c.675.021 1.141-.706 1.108-1.329-.102-.739-.2-1.485-.345-2.22a65.08 65.08 0 0 0 2.634 2.525c-.139.156-.259.328-.328.513-.262.543-.031 1.276.549 1.499.228.236.556.391.887.303.334-.112.554-.394.686-.716l1.828 1.574 2.209 1.888c-.238.844-.072 1.796.4 2.53.274.384.892.384 1.219.071.2-.22.355-.482.463-.765 1.574 1.41 3.104 2.866 4.495 4.454-.002.01-.01.021-.012.031-.16 1.044.382 2.013.771 2.943.273.348.783.45 1.148.177.169-.118.274-.275.354-.446 2.183 2.463 4.74 4.576 6.905 7.059.753 1.175 2.33 1.619 3.628 1.196 1.011-.226 1.616-1.112 2.271-1.829.283-.237.546-.495.824-.738.258.203.617.291.924.145.485-.283.64-.918.534-1.45a77.21 77.21 0 0 0 3.18-3.161c.15.453.418.861.833 1.108a.73.73 0 0 0 .416.077c.612-.056.976-.674.977-1.244.016-.586-.204-1.243-.659-1.627l2.971-3.295c3.44-3.762 6.964-7.448 10.559-11.062l1.323-1.304c.121.425.362.81.735 1.059.579.222 1.139-.287 1.337-.796.263-.651.19-1.494-.273-2.035a88.05 88.05 0 0 1 2.952-2.745c.484.339 1.125-.027 1.378-.487a1.44 1.44 0 0 0 .185-.957c1.16-1.09 2.329-2.173 3.715-2.968.436-.245.936-.339 1.423-.291z"/></svg>