<svg
   viewBox="0 0 1024 8"
   version="1.1"
   id="svg1"
   xmlns="http://www.w3.org/2000/svg"
>
  <g
     id="layer1"
     transform="matrix(3.7795276,0,0,1.8897365,0,5.4424146e-5)">
    <path
       d="m 270.93333,2.3259562 c -0.34885,-0.026449 -0.69688,-0.062117 -1.04748,-0.066146 -2.16779,0.1217232 -4.33527,0.3274687 -6.50709,0.2123901 -1.02847,0.012633 -2.06092,0.013671 -3.08767,0.088884 -0.74763,0.054766 -1.1636,0.1295061 -1.90634,0.217041 -0.30158,0.035542 -0.60354,0.065531 -0.90538,0.098185 -0.27875,0.043051 -0.55949,0.071925 -0.83612,0.1291911 -0.81278,0.1682563 -0.65229,0.2116517 -1.46399,0.4366659 -0.7066,0.1958814 -1.33456,0.2833885 -2.06913,0.3865397 -3.07129,0.4312758 -6.44497,0.02033 -6.57996,0.00362 -1.37161,-0.1698181 -3.68225,-0.1781145 -4.93923,-0.3012736 -0.004,-3.634e-4 -4.30895,-0.4190522 -4.95939,-0.4645711 -1.35751,-0.095004 -2.72916,0.057812 -4.08605,0.062012 -0.71736,0.00222 -1.43457,-0.028604 -2.15181,-0.042891 -3.53784,-0.082873 -7.07711,-0.2757747 -10.61537,-0.088883 -0.99715,0.058255 -1.78064,0.1264233 -2.7864,0.091467 -2.33721,-0.081232 -4.63879,-0.573727 -6.97166,-0.7043498 -2.65911,-0.1203679 -0.0591,-0.020571 -3.00757,-0.071314 -3.79604,-0.065327 1.06424,-0.01787 -2.87786,-0.098702 -2.56543,-0.052603 -0.22095,0.067161 -2.53835,-0.073897 -1.48495,-0.033358 -1.56789,-0.066733 -3.12177,0.037724 -2.78391,0.187143 -5.55687,0.6341609 -8.35453,0.4914428 -0.72221,-0.020969 -1.44456,-0.026806 -2.16628,-0.063045 -0.51672,-0.025945 -1.03144,-0.088056 -1.54771,-0.1235067 -2.81277,-0.1931488 -5.62728,-0.3626228 -8.44599,-0.3973918 -0.52786,-0.00529 -1.05603,-0.01074 -1.58389,-0.01602 -0.4606,-0.017786 -0.92048,-0.045817 -1.38131,-0.053227 -0.46219,-0.00743 -2.36719,0.016684 -2.83703,0.035657 -0.61691,0.024914 -1.23262,0.077973 -1.8495,0.1038696 -0.7936,0.033317 -1.58791,0.048808 -2.38177,0.07338 -3.73877,0.1305019 -1.30059,0.072143 -4.18631,0.096635 -0.5466,0.00464 -1.09362,0.026781 -1.64021,0.020671 -0.49407,-0.00552 -0.98705,-0.044377 -1.48104,-0.05581 -4.05056,-0.093761 0.62029,0.074982 -3.47938,-0.08785 -3.86298,-0.072979 -7.72585,-0.1171322 -11.58844,-0.2123901 -1.15471,-0.039691 -2.30873,-0.1069667 -3.46387,-0.1255737 -2.82719,-0.04554 -5.65186,0.2351741 -8.47958,0.1705322 -1.56037,-0.031538 -2.84357,-0.038821 -4.408,-0.1488281 -0.58575,-0.041189 -1.16836,-0.133159 -1.7539,-0.1777669 -2.4279,-0.1849611 -4.86385,-0.2570028 -7.29516,-0.3617351 -0.88968,-0.070635 -1.77776,-0.1698956 -2.66858,-0.2201416 -3.36125,-0.18958796 -6.73208,-0.1158386 -10.09447,-0.026872 -2.16278,0.099632 -4.32517,0.2890233 -6.49004,0.3260783 -0.69673,0.011927 -1.393503,0.0021 -2.090314,-0.00103 -0.966009,-0.00434 -1.932022,-0.014047 -2.898015,-0.021187 C 90.59278,1.2912616 85.264975,1.0611486 79.953776,1.4608927 74.496065,1.8523797 69.037229,2.2358655 63.569763,2.4200073 62.51006,2.4673166 61.45085,2.5320225 60.390629,2.5621175 c -0.714422,0.020278 -1.429396,0.0094 -2.144055,0.00879 -3.862765,-0.00335 -7.729415,-0.1139271 -11.587923,0.1576131 -1.609366,0.1026055 -2.520528,0.1783231 -4.139799,0.208256 -2.863313,0.052929 -5.723009,-0.167216 -8.585006,-0.208256 -8.403471,-0.1490278 2.972516,0.038364 -5.609477,-0.05426 C 25.567511,2.6445009 22.810907,2.5366436 20.058724,2.3610962 18.999689,2.2935456 17.94125,2.209212 16.88269,2.1332031 15.508451,1.9533026 14.385641,1.7755564 13.003341,1.7135905 12.266547,1.6805655 11.52823,1.6698579 10.791073,1.6908529 8.8642081,1.745733 6.9450761,2.0367211 5.0151978,2.0169312 3.3765432,1.9787622 1.7231662,1.8845109 0.08681641,2.0355347 0.05775607,2.0382167 0.02903288,2.0444437 0,2.0474202 v 2.1859131 h 270.93333 z"
       style="fill:currentColor;stroke-width:6.00963;stroke-linecap:round;stroke-linejoin:round;paint-order:stroke fill markers"
       id="onder"
       visibility="visible" />
    <path
       d="m 0,0 v 0.98288574 c 1.6741141,-0.14892417 3.3607307,-0.0708217 5.0369019,-0.026355 1.9031304,0.019704 3.7989311,-0.23991091 5.6988771,-0.29300537 0.758299,-0.0211909 1.517819,-0.0116321 2.27583,0.019637 1.542285,0.0636219 2.448387,0.2178825 3.982703,0.41909583 5.635616,0.5962723 11.300904,0.516952 16.95452,0.6128825 2.857357,0.033998 5.713245,0.232484 8.57157,0.1808675 1.747119,-0.03155 2.349418,-0.090729 4.083472,-0.2030884 4.590691,-0.2747635 9.18865,-0.05696 13.782104,-0.1648478 1.050646,-0.024678 2.100863,-0.072641 3.151229,-0.1090373 3.748467,-0.1626023 7.497006,-0.3438871 11.241174,-0.60306389 0.760537,-0.0526452 1.520374,-0.11916862 2.280481,-0.17880046 l 2.83807,-0.18655192 c 5.336167,-0.43606488 10.690252,-0.18046011 16.032096,-0.0418579 0.960854,0.001958 1.92166,0.009224 2.882512,0.005684 0.693954,-0.002557 1.38777,-0.005155 2.08153,-0.0237712 2.15402,-0.0578001 4.30372,-0.24754505 6.45645,-0.33951416 3.38421,-0.01355119 6.77537,-0.12579301 10.15855,0.03255615 0.0827,0.0038694 2.5458,0.19249655 2.71147,0.20515544 7.36116,0.38302414 -3.05841,-0.16343026 5.03276,0.27698567 0.74642,0.0406283 1.49381,0.062018 2.23966,0.11368815 0.59802,0.0414284 1.19364,0.12375239 1.79162,0.16588135 1.94223,0.13683587 2.42495,0.1211231 4.34082,0.15554607 2.82058,0.1166465 5.63609,-0.22994441 8.4553,-0.18758546 1.16814,0.0175517 2.33502,0.0903815 3.50263,0.13280844 2.47475,0.0960835 4.95137,0.085739 7.42694,0.12712402 1.38237,0.02311 2.76415,0.067387 4.14651,0.092501 4.18948,0.1449059 -0.59948,-0.00596 3.47214,0.077515 0.50126,0.010277 1.00246,0.044439 1.50379,0.049609 0.5329,0.00549 1.06543,-0.01362 1.59835,-0.01757 3.00278,-0.022259 0.27773,0.025754 4.17235,-0.066663 0.79305,-0.026306 1.58651,-0.041611 2.37919,-0.079065 2.68083,-0.1266708 0.91778,-0.1212163 3.26181,-0.16174722 1.47661,-0.025533 2.95069,0.0461231 4.42712,0.065629 2.83133,0.0507 5.6586,0.2392946 8.48527,0.4139283 0.52121,0.032201 1.04175,0.082444 1.56321,0.1090372 0.70967,0.036191 1.42008,0.053109 2.13011,0.079582 3.33413,0.1721876 6.63504,-0.5144515 9.96063,-0.5756754 0.50121,-0.00923 1.00256,0.017011 1.50378,0.025321 2.67154,0.1410179 -0.32524,0.00169 2.5244,0.069246 4.28144,0.1014971 -1.13475,0.026347 2.90111,0.100769 2.92083,0.053861 0.32671,-0.035506 3.01894,0.072347 2.34127,0.1282377 4.64496,0.6513084 6.99234,0.7162354 0.87278,0.024141 1.80428,-0.051778 2.6758,-0.10542 3.56344,-0.1859711 7.12898,0.01411 10.69134,0.1286744 0.71411,0.0092 1.42837,0.033879 2.14251,0.027389 1.07818,-0.0098 2.1553,-0.086174 3.23339,-0.1049032 0.28337,-0.00492 0.56733,-0.019058 0.85008,0.00207 0.65137,0.048665 1.29996,0.1376005 1.94975,0.2072225 1.0275,0.1100926 2.05453,0.2210468 3.08198,0.3317627 1.66029,0.1768248 3.28281,0.096497 4.94337,0.2702677 2.11428,0.2092437 4.27762,0.2776019 6.38204,-0.012919 0.73103,-0.1055569 1.27958,-0.1954446 1.96887,-0.3963582 0.77676,-0.2264109 0.60658,-0.2595643 1.44177,-0.4325318 0.30828,-0.063846 0.62166,-0.097246 0.93225,-0.1457275 0.31555,-0.034062 0.63091,-0.064813 0.94619,-0.1018026 0.76244,-0.089453 1.13998,-0.1606713 1.91306,-0.2165242 1.05212,-0.076011 2.11034,-0.07599 3.16415,-0.093018 2.15832,0.1197006 4.31313,-0.079837 6.46679,-0.2139405 0.36824,0.00217 0.73352,0.03973 1.09967,0.067696 V 0 Z"
       style="fill:currentColor;stroke-width:6.00963;stroke-linecap:round;stroke-linejoin:round;paint-order:stroke fill markers"
       id="boven"
       visibility="hidden" />
    <path
       d="m 270.93333,1.2562541 c -0.36615,-0.027966 -0.73143,-0.065529 -1.09967,-0.067696 -2.15366,0.1341036 -4.30847,0.3336411 -6.46679,0.2139405 -1.05381,0.017028 -2.11203,0.017007 -3.16415,0.093018 -0.77308,0.055853 -1.15062,0.1270707 -1.91306,0.2165242 -0.31528,0.03699 -0.63064,0.067741 -0.94619,0.1018026 -0.31059,0.048482 -0.62397,0.081881 -0.93225,0.1457275 -0.83519,0.1729675 -0.66501,0.2061209 -1.44177,0.4325318 -0.68929,0.2009136 -1.23784,0.2908013 -1.96887,0.3963582 -2.10442,0.290521 -4.26776,0.2221628 -6.38204,0.012919 -1.66056,-0.1737705 -3.28308,-0.093443 -4.94337,-0.2702677 -1.02745,-0.1107159 -2.05448,-0.2216701 -3.08198,-0.3317627 -0.64979,-0.069622 -1.29838,-0.158558 -1.94975,-0.2072225 -0.28275,-0.021125 -0.56671,-0.00699 -0.85008,-0.00207 -1.07809,0.018729 -2.15521,0.095105 -3.23339,0.1049032 -0.71414,0.00649 -1.4284,-0.01819 -2.14251,-0.027389 -3.56236,-0.1145648 -7.1279,-0.3146455 -10.69134,-0.1286744 -0.87152,0.053642 -1.80302,0.1295608 -2.6758,0.10542 -2.34738,-0.064927 -4.65107,-0.5879977 -6.99234,-0.7162354 -2.69223,-0.1078528 -0.0981,-0.018486 -3.01894,-0.072347 -4.03586,-0.074422 1.38033,7.281e-4 -2.90111,-0.100769 -2.84964,-0.067553 0.14714,0.071771 -2.5244,-0.069246 -0.50122,-0.00831 -1.00257,-0.034548 -1.50378,-0.025321 -3.32559,0.061224 -6.6265,0.747863 -9.96063,0.5756754 -0.71003,-0.026473 -1.42044,-0.043391 -2.13011,-0.079582 -0.52146,-0.026593 -1.042,-0.076836 -1.56321,-0.1090372 -2.82667,-0.1746337 -5.65394,-0.3632282 -8.48527,-0.4139283 -1.47643,-0.019506 -2.95051,-0.091162 -4.42712,-0.065629 -2.34403,0.0405309 -0.58098,0.0350764 -3.26181,0.1617472 -0.79268,0.037454 -1.58614,0.052759 -2.37919,0.079065 -3.89462,0.092417 -1.16957,0.044404 -4.17235,0.066663 -0.53292,0.00395 -1.06545,0.023062 -1.59835,0.01757 -0.50133,-0.00517 -1.00253,-0.039332 -1.50379,-0.049609 -4.07162,-0.083477 0.71734,0.067391 -3.47214,-0.077515 -1.38236,-0.025114 -2.76414,-0.069391 -4.14651,-0.092501 -2.47557,-0.041385 -4.95219,-0.031041 -7.42694,-0.127124 -1.16761,-0.042427 -2.33449,-0.11525675 -3.50263,-0.13280844 -2.81921,-0.0423589 -5.63472,0.30423194 -8.4553,0.18758544 -1.91587,-0.034423 -2.39859,-0.0187102 -4.34082,-0.15554605 -0.59798,-0.042129 -1.1936,-0.12445295 -1.79162,-0.16588135 -0.74585,-0.0516701 -1.49324,-0.0730599 -2.23966,-0.11368815 -8.09117,-0.44041593 2.3284,0.10603847 -5.03276,-0.27698567 -0.16567,-0.0126589 -2.6288,-0.20128601 -2.71147,-0.20515544 -3.38318,-0.15834916 -6.77434,-0.04610734 -10.15855,-0.03255615 -2.15273,0.09196911 -4.30243,0.28171402 -6.45645,0.33951416 -0.69376,0.0186161 -1.387576,0.0212137 -2.08153,0.0237712 -0.960852,0.00354 -1.921658,-0.003726 -2.882512,-0.005684 -5.341844,-0.1386022 -10.695929,-0.39420697 -16.032096,0.0418579 l -2.83807,0.18655192 c -0.760107,0.0596334 -1.519944,0.12615675 -2.280481,0.178802 C 71.034213,1.0751477 67.285674,1.2564325 63.537207,1.4190348 62.486841,1.4554314 61.436624,1.5033943 60.385978,1.5280721 55.792524,1.6359597 51.194565,1.4181564 46.603874,1.6929199 44.86982,1.805279 44.267521,1.8644584 42.520402,1.8960083 39.662077,1.9476248 36.806189,1.7491386 33.948832,1.7151408 28.295216,1.6192103 22.629928,1.6985306 16.994312,1.1022583 15.459996,0.90104493 14.553894,0.74678429 13.011609,0.68316243 12.253598,0.65189327 11.494078,0.6423345 10.735779,0.66352539 8.835833,0.71661985 6.9400323,0.97623474 5.0369019,0.95653076 3.3607307,0.91206404 1.6741141,0.83396157 0,0.98288574 V 2.0474202 c 0.02903288,-0.00298 0.05775607,-0.0092 0.08681641,-0.011885 C 1.7231662,1.8845109 3.3765432,1.9787622 5.0151978,2.0169312 6.9450761,2.0367211 8.8642081,1.745733 10.791073,1.6908529 c 0.737157,-0.020995 1.475474,-0.010287 2.212268,0.022738 1.3823,0.061966 2.50511,0.2397121 3.879349,0.4196126 1.05856,0.076009 2.116999,0.1603425 3.176034,0.2278931 2.752183,0.1755474 5.508787,0.2834047 8.265645,0.3131592 8.581993,0.092624 -2.793994,-0.094768 5.609477,0.05426 2.861997,0.04104 5.721693,0.2611855 8.585006,0.208256 1.619271,-0.029933 2.530433,-0.1056505 4.139799,-0.208256 3.858508,-0.2715402 7.725158,-0.1609644 11.587923,-0.1576131 0.714659,6.109e-4 1.429633,0.011493 2.144055,-0.00879 1.060221,-0.030095 2.119431,-0.094801 3.179134,-0.1421102 5.467466,-0.1841418 10.926302,-0.5676276 16.384013,-0.9591146 5.311199,-0.3997441 10.639004,-0.1696311 15.955615,-0.057361 0.965993,0.00714 1.932006,0.016843 2.898015,0.021187 0.696811,0.00313 1.393584,0.012961 2.090314,0.00103 2.16487,-0.037055 4.32726,-0.2264458 6.49004,-0.3260783 3.36239,-0.088967 6.73322,-0.16271626 10.09447,0.026872 0.89082,0.050246 1.7789,0.1495064 2.66858,0.2201416 2.43131,0.1047323 4.86726,0.176774 7.29516,0.3617351 0.58554,0.044608 1.16815,0.1365782 1.7539,0.1777669 1.56443,0.1100076 2.84763,0.11729 4.408,0.1488281 2.82772,0.064642 5.65239,-0.2160727 8.47958,-0.1705322 1.15514,0.018607 2.30916,0.085883 3.46387,0.1255737 3.86259,0.095258 7.72546,0.1394116 11.58844,0.2123901 4.09967,0.1628318 -0.57118,-0.00591 3.47938,0.08785 0.49399,0.011433 0.98697,0.050288 1.48104,0.05581 0.54659,0.00611 1.09361,-0.016031 1.64021,-0.020671 2.88572,-0.024492 0.44754,0.033867 4.18631,-0.096635 0.79386,-0.024573 1.58817,-0.040064 2.38177,-0.07338 0.61688,-0.025897 1.23259,-0.078955 1.8495,-0.1038696 0.46984,-0.018973 2.37484,-0.043088 2.83703,-0.035657 0.46083,0.00741 0.92071,0.035441 1.38131,0.053227 0.52786,0.00528 1.05603,0.010735 1.58389,0.01602 2.81871,0.034769 5.63322,0.204243 8.44599,0.3973918 0.51627,0.035451 1.03099,0.097562 1.54771,0.1235067 0.72172,0.036239 1.44407,0.042076 2.16628,0.063045 2.79766,0.1427181 5.57062,-0.3042998 8.35453,-0.4914428 1.55388,-0.1044564 1.63682,-0.071082 3.12177,-0.037724 2.3174,0.1410583 -0.0271,0.021294 2.53835,0.073897 3.9421,0.080832 -0.91818,0.033375 2.87786,0.098702 2.94849,0.050742 0.34846,-0.049054 3.00757,0.071314 2.33287,0.1306228 4.63445,0.6231182 6.97166,0.7043498 1.00576,0.034956 1.78925,-0.033212 2.7864,-0.091467 3.53826,-0.1868912 7.07753,0.00601 10.61537,0.088883 0.71724,0.014287 1.43445,0.04511 2.15181,0.042891 1.35689,-0.0042 2.72854,-0.1570159 4.08605,-0.062012 0.65044,0.045519 4.95559,0.4642077 4.95939,0.4645711 1.25698,0.1231591 3.56762,0.1314555 4.93923,0.3012736 0.13499,0.016713 3.50867,0.4276585 6.57996,-0.00362 0.73457,-0.1031512 1.36253,-0.1906583 2.06913,-0.3865397 0.8117,-0.2250142 0.65121,-0.2684096 1.46399,-0.4366659 0.27663,-0.057266 0.55737,-0.08614 0.83612,-0.1291911 0.30184,-0.032654 0.6038,-0.062643 0.90538,-0.098185 0.74274,-0.087535 1.15871,-0.1622746 1.90634,-0.217041 1.02675,-0.075213 2.0592,-0.07625 3.08767,-0.088884 2.17182,0.1150786 4.3393,-0.090667 6.50709,-0.2123901 0.3506,0.00403 0.69863,0.039696 1.04748,0.066146 z"
       id="lijn" />
  </g>
</svg>
