<svg xmlns="http://www.w3.org/2000/svg" viewBox="0 0 1024 8"><path fill="currentColor" d="M1024 4.395l-3.959-.125c-8.193.23-16.385.619-24.594.401l-11.67.168c-2.826.103-4.398.245-7.205.41l-3.422.186-3.16.244c-3.072.318-2.465.4-5.533.825-2.671.37-5.044.536-7.82.73-11.608.815-24.359.038-24.869.007-5.184-.321-13.917-.337-18.668-.569l-18.744-.878c-5.131-.18-10.315.109-15.443.117-2.711.004-5.422-.054-8.133-.081-13.371-.157-26.748-.521-40.121-.168-3.769.11-6.73.239-10.531.173-8.834-.154-17.532-1.084-26.35-1.331-10.05-.227-.223-.039-11.367-.135-14.347-.123 4.022-.034-10.877-.187-9.696-.099-.835.127-9.594-.14-5.612-.063-5.926-.126-11.799.071-10.522.354-21.002 1.198-31.576.929l-8.188-.119-5.85-.233-31.922-.751-5.986-.03-5.221-.101a770.98 770.98 0 0 0-10.723.067l-6.99.196-9.002.139c-14.131.247-4.916.136-15.822.183l-6.199.039-5.598-.105c-15.309-.177 2.344.142-13.15-.166l-43.799-.401-13.092-.237c-10.685-.086-21.361.444-32.049.322l-16.66-.281-6.629-.336-27.572-.684-10.086-.416c-12.704-.358-25.444-.219-38.152-.051l-24.529.616c-2.633.023-5.267.004-7.9-.002l-10.953-.04c-20.094-.212-40.231-.647-60.305.108l-61.924 1.812-12.016.269-8.104.017c-14.599-.006-29.214-.215-43.797.298l-15.646.394c-10.822.1-21.63-.316-32.447-.394-31.761-.282 11.235.072-21.201-.103l-31.24-.592-12.004-.431c-5.194-.34-9.438-.676-14.662-.793-2.785-.062-5.575-.083-8.361-.043-7.283.104-14.536.654-21.83.616-6.193-.072-12.442-.25-18.627.035-.11.005-.218.017-.328.022V8h1024z" paint-order="stroke fill markers"/><path d="M1024 2.374l-4.156-.128c-8.14.253-16.284.63-24.441.404l-11.959.176c-2.922.106-4.349.24-7.23.409l-3.576.192-3.523.275c-3.157.327-2.513.39-5.449.817-2.605.38-4.678.55-7.441.749-7.954.549-16.13.42-24.121.024-6.276-.328-12.408-.177-18.684-.511l-11.648-.627-7.369-.392c-1.069-.04-2.142-.013-3.213-.004l-12.221.198c-2.699.012-5.399-.034-8.098-.052-13.464-.216-26.94-.595-40.408-.243-3.294.101-6.815.245-10.113.199-8.872-.123-17.579-1.111-26.428-1.353-10.175-.204-.371-.035-11.41-.137-15.254-.141 5.217.001-10.965-.19-10.77-.128.556.136-9.541-.131l-5.684-.048c-12.569.116-25.045 1.413-37.646 1.088l-8.051-.15-5.908-.206-32.07-.782-16.732-.124c-8.859.077-2.196.066-12.328.306l-8.992.149-15.77.126-6.041.033-5.684-.094c-15.389-.158 2.711.127-13.123-.146l-15.672-.175-28.07-.24-13.238-.251c-10.655-.08-21.297.575-31.957.354l-16.406-.294-6.771-.313-8.465-.215c-30.581-.832 8.8.2-19.021-.523L444.125.158c-12.787-.299-25.604-.087-38.395-.062l-24.402.642-7.867.045c-3.632.007-7.263-.007-10.895-.011-20.19-.262-40.426-.745-60.594.079l-10.727.353-8.619.338-42.486 1.14-11.91.206c-17.361.204-34.739-.208-52.09.312l-15.434.384c-10.803.098-21.597-.278-32.396-.342-21.368-.181-42.78-.031-64.08-1.158-5.799-.38-9.224-.672-15.053-.792-2.865-.059-5.736-.077-8.602-.037-7.181.1-14.346.591-21.539.554-6.335-.084-12.71-.232-19.037.05v2.012c.11-.006.218-.017.328-.022 6.185-.285 12.434-.107 18.627-.035 7.294.037 14.547-.512 21.83-.616 2.786-.04 5.577-.019 8.361.043 5.224.117 9.468.453 14.662.793l12.004.431 31.24.592c32.436.175-10.56-.179 21.201.103l32.447.394c6.12-.057 9.564-.2 15.646-.394 14.583-.513 29.197-.304 43.797-.298l8.104-.017 12.016-.269 61.924-1.812c20.074-.755 40.21-.321 60.305-.108l10.953.04 7.9.002c8.182-.07 16.355-.428 24.529-.616l38.152.051 10.086.416 27.572.684 6.629.336c5.913.208 10.763.222 16.66.281 10.687.122 21.363-.408 32.049-.322l13.092.237 43.799.401c15.495.308-2.159-.011 13.15.166l5.598.105 6.199-.039c10.907-.046 1.691.064 15.822-.183l9.002-.139 6.99-.196 10.723-.067 5.221.101 5.986.03c10.653.066 21.291.386 31.922.751l5.85.233 8.188.119c10.574.27 21.054-.575 31.576-.929 5.873-.197 6.186-.134 11.799-.071 8.759.267-.102.04 9.594.14 14.899.153-3.47.063 10.877.187 11.144.096 1.317-.093 11.367.135 8.817.247 17.516 1.178 26.35 1.331 3.801.066 6.763-.063 10.531-.173 13.373-.353 26.75.011 40.121.168l8.133.081c5.128-.008 10.313-.297 15.443-.117l18.744.878c4.751.233 13.484.248 18.668.569.51.032 13.261.808 24.869-.007 2.776-.195 5.15-.36 7.82-.73 3.068-.425 2.461-.507 5.533-.825 1.046-.108 2.107-.163 3.16-.244l3.422-.186 7.205-.41c3.881-.142 7.783-.144 11.67-.168 8.208.217 16.401-.171 24.594-.401 1.325.008 2.64.075 3.959.125z"/></svg>