<svg xmlns="http://www.w3.org/2000/svg" viewBox="0 0 256 256" preserveAspectRatio="xMidYMid meet" xmlns:v="https://vecta.io/nano"><path d="M118.198 1.648l-14.826 10.954-.577 15.814 4.613-1.235 10.954-15.155 6.754-2.555 9.473 1.73 6.095 7.084-.495 10.872 5.602 1.071 4.118-8.978-2.883-10.542-7.824-7.248-21.004-1.812zm9.637 27.675A114.656 110.867 0 0 0 13.179 140.19a114.656 110.867 0 0 0 114.656 110.868A114.656 110.867 0 0 0 242.492 140.19 114.656 110.867 0 0 0 127.835 29.323z" fill="currentColor" paint-order="stroke fill markers"/><path d="M116.9 1.3c-3.772 1.597-6.97 4.204-10.206 6.655-1.097.931-2.447 1.472-3.71 2.008-.864 1.1-.623 2.615-.857 3.917L100.8 26.7c-5.554 1.838-11.214 3.476-16.419 6.203-3.056 1.597-5.939 3.501-9.01 5.074-3.999 2.141-8.076 4.175-11.76 6.845-7.381 5.2-13.897 11.497-20.29 17.84-3.633 3.618-7.156 7.361-11.021 10.734-1.078.843-2.443 2.233-3.924 1.56-.828-.413-2.347-1.621-2.976-.374-.232 1.057.765 1.874 1.332 2.65.728.816 1.547 1.545 2.268 2.367-5.916 11.518-11.499 23.299-15.144 35.758-4.01 13.57-4.763 27.896-3.806 41.95.226 3.167.91 6.274 1.76 9.326 1.439 5.603 2.701 11.301 4.996 16.633 2.007 4.366 4.879 8.249 7.347 12.353 2.043 3.153 3.794 6.506 6.179 9.425 5.203 6.465 10.72 12.692 16.675 18.476 4.657 4.292 10.111 7.614 15.662 10.614 9.435 4.976 19.373 8.906 29.308 12.751 4.905 1.842 9.796 3.734 14.776 5.365 3.621 1.154 7.397 1.734 11.188 1.896 12.172.796 24.449.176 36.46-1.973 3.702-.641 7.312-1.685 10.94-2.639 3.035-.796 6.13-1.349 9.154-2.178 6.253-1.978 11.945-5.358 17.397-8.94 8.194-5.462 15.677-12.043 21.825-19.756 8.377-10.383 14.751-22.193 20.539-34.163 2.332-4.847 4.615-9.747 6.07-14.942 1.839-6.395 2.877-12.989 3.814-19.567 1.336-9.363 1.703-19.026-.518-28.288-2.535-10.898-7.491-21.011-12.332-31.031-3.401-6.861-6.917-13.707-11.308-19.998-3.024-4.309-6.629-8.206-10.726-11.515-6.589-5.466-13.61-10.401-20.849-14.965-4.039-2.531-8.224-4.861-12.695-6.544-7.157-2.766-14.41-5.338-21.852-7.231-1.445-.502-3.044-.228-4.461-.696-1.422-.882-.587-2.706-.281-3.962.777-2.557 2.282-5.181 1.524-7.927-.626-2.309-1.604-4.505-2.479-6.728-1.015-2.495-2.495-4.899-4.786-6.411-2.699-1.979-5.83-3.435-9.178-3.825-4.047-.492-8.142-.704-12.216-.494-1.719.13-3.451.359-5.087.924zM130 4c.328 1.277 2.448 1.357 2.983.192.984-1.345 2.923-.011 4.236.22 2.383.946 4.857 2.105 6.357 4.283 2.087 2.998 3.797 6.382 4.345 10.026.315 2.76-.869 5.468-2.345 7.734-.482.864-1.969 2.323-2.683.896-.816-2.369-.26-4.942-.691-7.38-.526-3.697-3.075-6.713-5.969-8.894-1.61-1.408-3.658-2.271-5.796-2.408-2.594-.243-5.22-.223-7.814-.001-3.177.354-5.809 2.46-7.895 4.741-2.554 2.81-3.84 6.432-5.305 9.864-.595 1.311-1.572 2.888-3.233 2.736-1.357.171-2.469-1.03-2.18-2.366-.111-1.535 1.491-1.231 2.343-1.825 1.078-.958-.164-2.083-1.28-1.898-1.16-.21-1.268-1.643-.849-2.527.555-1.788 1.561-3.479 3.047-4.644 1.191-.122 2.355-.98 1.947-2.305.379-1.544 1.787-2.53 2.937-3.511a16.51 16.51 0 0 1 9.481-3.526c2.649-.219 5.382-.435 7.984.22.172.059.331.193.379.373zm-.2 7.1c1.493.374-1.322.783-1.754 1.168-1.494.404-1.27 2.224.224 2.307 1.808.424 3.91.408 5.456-.737.992-.702 2.021.11 2.721.813 2.53 2.277 3.962 5.828 3.302 9.22-.188 1.337-.742 3.353-2.496 3.03-5.605-1.017-11.315-1.207-16.984-1.657-2.639-.19-5.278-.401-7.906-.714-.729-.879.61-2.059.68-3.073.788-2.247 2.072-4.3 3.784-5.959 2.14-2.127 4.681-3.987 7.606-4.841 1.634-.544 3.228.28 4.858.379l.507.064zm-7.5 20.5c2.051.617 4.225.618 6.346.804 3.848.186 7.693.511 11.486 1.206 10.024 1.732 19.812 4.684 29.293 8.342 7.164 2.809 14.152 6.157 20.525 10.498 7.499 4.971 14.813 10.381 20.827 17.126 7.832 8.708 12.938 19.382 17.926 29.865 3.793 8.029 7.489 16.233 9.21 24.995 1.547 8.005 1.254 16.235.248 24.288-.705 5.89-1.585 11.783-3.142 17.515-2.11 7.173-5.434 13.911-8.792 20.565-4.411 8.526-9.286 16.819-14.647 24.784-4.845 6.794-10.979 12.573-17.513 17.72-6.032 4.665-12.509 8.879-19.629 11.685-2.603 1.035-5.349 1.647-8.125 1.977-3.445.56-6.795 1.549-10.145 2.504-7.483 1.854-15.227 2.28-22.905 2.481-5.493.092-10.992.098-16.481-.148-3.557-.201-7.064-.963-10.41-2.178-8.052-2.717-16.026-5.7-23.75-9.251-2.109-1.038-4.288-2.006-6.17-3.426-.485-.981-.955-2.289-2.391-1.775-2.989.663-5.93-.672-8.546-1.979-1.5-.836-3.079-1.808-3.977-3.308.053-1.233-.585-2.523-2.024-2.108-1.533.148-2.859-.84-4.136-1.541-4.044-2.733-7.603-6.161-10.683-9.938-.597-.913-1.582-1.671-1.765-2.787-.11-1.379 2.2-.913 2.032-2.38-.731-1.465-2.677-.956-4.002-1.245-2.534-.576-4.158-2.822-5.693-4.739-3.797-5.051-7.238-10.367-10.45-15.806-2.208-3.924-4.387-7.974-5.388-12.398-.092-.959-.671-2.815.799-2.93 1.117.21 2.306-.916 1.344-1.918-.833-.856-2.327-.78-2.946-1.919-1.126-1.626-1.18-3.686-1.719-5.534-.142-1.391-1.288-3.102-.41-4.372.806-.58 2.744.101 2.356-1.543-.76-1.641-3.187-2.01-3.427-3.979-.389-2.259.061-4.552.156-6.818.23-2.425.415-4.909 1.211-7.223.293-1.153 2.369-.312 2.067-1.642-.461-1.172-2.071-1.401-2.305-2.727-.226-2.266.579-4.476 1.014-6.676 1.643-6.597 3.268-13.24 5.85-19.545.468-.756.835-2.424 2.013-1.943 1.401.692 2.458 2.046 4.035 2.36 1.467-.147.347-1.993-.212-2.633-.908-1.199-2.107-2.158-2.915-3.437.711-.862 1.901.468 2.863.189 1.291-.211.845-1.951.121-2.561-1.149-.341-1.341-1.606-.994-2.63.827-3.623 2.7-6.89 4.479-10.115 1.626-2.793 3.266-5.598 5.24-8.162 1.025-1.401 2.792-1.789 4.43-1.576 1.155.182 3.101-.445 2.398-1.942-.412-.907-2.178-.636-1.853-2.018.558-1.283 1.668-2.255 2.653-3.224 1.982-1.712 3.967-3.55 6.42-4.557 1.059.156 2.113-.469 1.938-1.641.389-1.524 1.613-2.66 2.74-3.68.974-.8 2.097-1.475 3.37-1.629 1.204-.465.954-2.226 2.104-2.894 3.285-3.408 7.554-5.593 11.593-7.959 3.497-1.947 7.008-3.914 10.76-5.332 1.523.179 2.752-.801 3.938-1.616 1.45-.992 2.827-2.322 4.615-2.625 1.407-.116 2.458.994 3.733 1.33 1.525.239.643-1.584.473-2.364-.269-1.634 1.885-1.97 3.061-2.215 5.025-.931 10.113-1.501 15.2-1.968 2.072-.13 4.197-.346 6.242.093l.23.095zm-18.8 6.3c-5.961 2.332-11.51 5.566-17.067 8.711-5.059 2.95-10.096 5.979-14.774 9.51-1.014.53-2.676 2.506-.727 2.912 2.373-.66 4.34-2.242 6.39-3.54a147.78 147.78 0 0 1 13.728-8.397c4.551-2.443 9.189-4.769 14.048-6.535 2.009-.752 4.375-1.148 5.796-2.904.627-1.339-1.225-1.93-2.189-1.377-1.78.383-3.486 1.03-5.204 1.62zm7 7.6c-4.496 1.399-9.191 2.352-13.332 4.69-6.425 3.425-12.094 8.061-17.666 12.701-7.81 6.643-15.427 13.55-22.355 21.12-4.796 5.362-9.385 11.076-12.328 17.695-1.273 2.989-2.271 6.086-3.49 9.097-1.188 3.21-2.681 6.351-3.135 9.778-.714 4.8-.714 9.668-.92 14.508-.208 7.524-.383 15.071.237 22.581.474 5.406 1.776 10.76 4.14 15.659 1.803 3.821 3.796 7.56 6.009 11.16 3.542 5.55 7.8 10.59 11.895 15.73 3.997 4.815 8.85 8.893 14.248 12.054 7.108 4.246 14.761 7.469 22.384 10.657 9.197 3.76 18.879 6.852 28.897 7.049 9.529.223 18.955-1.567 28.249-3.469 8.249-1.778 16.502-4.294 23.622-8.948 5.899-3.77 11.011-8.618 15.862-13.63 5.399-5.646 10.141-11.964 13.651-18.96 3.847-7.644 6.444-15.843 8.698-24.076 2.891-10.739 4.476-21.994 3.103-33.096-1.638-14.307-6.763-28.167-14.556-40.258-4.546-6.948-10.066-13.368-16.795-18.283-5.393-3.799-11.292-6.807-17.206-9.7-9.514-4.542-19.29-8.596-29.394-11.635-4.526-1.388-9.214-2.177-13.934-2.484-4.904-.322-9.843-.623-14.748-.172a9.21 9.21 0 0 0-1.137.232zm8.5 7c-.215 1.262 1.383 1.908 2.254 1.063 1.121-.758 1.67-2.46 3.256-2.388 2.937.101 5.822.789 8.694 1.374 6.419 1.456 12.629 3.694 18.785 5.996 7.709 2.999 15.335 6.276 22.589 10.267 7.777 4.289 14.935 9.868 20.398 16.916 5.87 7.462 9.895 16.196 12.966 25.131 2.084 6.235 3.744 12.651 4.454 19.198.117 1.1.187 2.231-.085 3.314-.829.713-1.715 1.738-1.137 2.891.731.811 1.803 1.482 1.533 2.772.006 3.811-.776 7.569-1.449 11.305-1.711 8.519-3.972 16.955-7.172 25.042-3.425 8.625-8.235 16.8-14.794 23.419-3.361 3.398-6.858 6.674-10.569 9.69-5.01 4.04-10.647 7.358-16.779 9.37-8.049 2.725-16.527 3.737-24.802 5.532-1.271.378-3.033.646-3.75-.801-.165-1.446-2.098-2.038-3.013-.89-.935 1.058-1.896 2.499-3.525 2.264-2.984.027-5.941-.474-8.898-.812-4.291-.536-8.486-1.665-12.529-3.184-5.222-1.937-10.329-4.172-15.414-6.442-5.179-2.382-10.333-4.858-15.216-7.809-3.343-2.271-6.143-5.229-8.949-8.11-3.831-4.106-7.568-8.348-10.642-13.06-.747-1.088-1.176-2.318-1.379-3.613-.276-1.444-1.818-1.91-2.6-3.005-2.135-2.741-3.578-5.951-4.877-9.153-1.449-3.652-2.367-7.499-2.751-11.408-.472-4.662-.917-9.388-.306-14.058.165-1.456.578-3.019 1.844-3.908 1.167-.793.925-2.743-.769-2.428-1.27-.241-1.116-1.86-1.298-2.852-.064-2.35-.155-4.716.091-7.058-.037-1.318.801-2.241 2.13-2.292 1.273-.883.688-2.739-.584-3.256-.405-1.05.196-2.188.426-3.224 1.092-3.535 2.541-6.943 3.868-10.393 2.304 1.723 4.615 4.001 7.679 4.05 1.335.152 1.473-1.534.433-2.066-1.665-1.713-3.984-2.523-5.789-4.047-1.049-1.252-.028-2.903.419-4.192 1.057-2.542 2.379-5.126 4.559-6.882 1.067-.831 2.246.353 3.361-.139 1.397-.469.547-1.939-.025-2.723-.344-.998.521-1.898 1.004-2.697 2.532-3.159 5.442-5.995 8.285-8.87 2.484-2.38 4.926-4.832 7.658-6.929 1.298-.649 2.401-1.589 3.482-2.552 3.68-3.227 6.982-6.97 11.231-9.48 1.19-.447 2.578-.45 3.067-1.84 1.362-1.256 3.043-2.109 4.629-3.047 2.215-1.168 4.494-2.335 6.959-2.857 1.223-.33 1.813 1.022 2.86 1.292 1.262.268 1.18-1.287 1.301-2.096.634-1.37 2.377-1.479 3.692-1.61 1.626-.025 3.567-.546 4.945.557a.99.99 0 0 1 .252.729zm-1.9 5.7c-1.247 3.669-1.518 7.568-2.03 11.384-1.42 12.395-1.574 24.882-2.421 37.319-.006.852-.032 2.638-1.233 1.587l-5.984-3.572c-5.503-3.301-10.938-6.739-16.659-9.655-.92-.743-2.265.178-2.011 1.284.479 3.107 3.277 5.034 4.618 7.728.683 1.209.69 2.646 1.353 3.869 1.993 4.495 5.061 8.41 7.097 12.881.508 1.004.828 2.645-.472 3.19-1.595.843-3.427 1.034-5.16 1.447-2.076.351-4.186.448-6.239.943-11.123 2.236-22.105 5.101-33.167 7.609-1.812.504-3.8.558-5.436 1.56-1.176.799-1.214 2.406-1.231 3.689.001 1.364 1.481 1.857 2.588 2.063 4.271.776 8.622.965 12.909 1.634 7.543.995 15.055 2.324 22.668 2.67 3.596.275 7.21.056 10.804.342 1.175.205 2.711.23 3.359 1.411.602 1.315-.089 2.758-.459 4.043-2.219 5.943-5.003 11.679-6.864 17.753-.509 1.918-.971 3.91-.89 5.899.796 1.613 2.617-.372 3.803-.6 5.799-2.72 11.322-5.996 17.153-8.651.915.762.739 2.106 1.101 3.143 1.464 7.942 3.458 15.774 5.414 23.605 1.357 5.164 2.649 10.351 4.257 15.443.633 2.034 1.797 3.875 2.176 5.992.838 1.421 2.028 2.81 3.62 3.373 1.557.541 3.266-.659 3.458-2.256.209-1.528-.041-3.073.089-4.61.299-9.898 1.043-19.775 1.781-29.648.524-5.93.901-11.909 2.29-17.715.218-1.052.543-3.004 2.027-2.062 4.698 2.193 8.951 5.201 13.207 8.132 3.494 2.441 6.77 5.173 9.95 8.006 1.631 1.359 3.319 2.741 5.292 3.56 1.376.283 1.45-1.568.524-2.163-.889-.627-1.452-1.543-1.955-2.483-1.952-3.611-3.337-7.495-4.742-11.341-1.583-4.613-3.105-9.251-4.486-13.928-.326-1.346-.82-2.937.006-4.194 1.251-1.365 3.246-1.401 4.935-1.818 6.134-1.151 12.265-2.331 18.455-3.144 7.687-1.139 15.486-1.491 23.105-3.078 1.852-.454 3.894-.748 5.378-2.043 1.12-1.244.494-3.331-1.028-3.921-2.62-1.47-5.647-1.907-8.548-2.522-6.822-1.258-13.725-2.004-20.609-2.831l-22.367-2.566c-1.447-.296-3.007-.401-4.339-1.037-.332-1.098.684-2.194.902-3.289 2.694-6.75 5.817-13.316 8.868-19.909.628-1.504 1.44-3.083 1.254-4.754-.529-1.305-2.16-.751-2.891.046-4.202 2.64-8.741 4.686-13.064 7.114-2.942 1.568-5.755 3.361-8.597 5.095-1.134.737-3.057 1.004-3.579-.593-.698-1.905-1.01-3.934-1.587-5.88-1.678-6.442-3.638-12.82-4.83-19.379-1.06-5.351-1.727-10.768-2.337-16.186-.364-2.496-.633-5.092-1.759-7.382-1.019-1.676-3.01-2.956-5.016-2.703-1.111.204-2.074 1.034-2.448 2.098zM128 106c1.134 4.662 2.115 9.375 3.561 13.952 1.148 2.062 1.285 4.543.777 6.812-.337 1.687-1.407 3.217-2.951 3.996-1.326.074-1.867-1.533-2.552-2.413-1.414-2.616-2.158-5.547-2.658-8.463-.608-4.191-.371-8.441-.4-12.66.067-4.825.17-9.659.543-14.469.492-.97.676 1.43.961 1.92 1.045 3.74 1.858 7.539 2.719 11.324zm25.2 7.6l-4.7 10.5c-3.038-.362-6.116-.592-9.07-1.44-.536-.927 1.032-1.607 1.405-2.402 4.713-5.314 9.665-10.414 14.715-15.407.622-.416 1.551-1.829 2.062-1.511-1.394 3.444-2.892 6.862-4.412 10.26zm-45.4-3.9c1.721 1.281 3.829 2.341 4.81 4.347.659 1.815.303 3.776.39 5.664.206 1.174-.51.154-.975-.262-4.329-4.225-8.816-8.331-12.629-13.041-.719-.589-1.546-2.686.041-1.708 2.909 1.456 5.635 3.236 8.363 5zm12.7 21.4c1.12 1.351 2.522 2.652 2.917 4.424-.217 1.5-2.105 1.066-3.175 1.254-6.659.157-13.314-.303-19.963-.608-6.437-.31-12.88-.678-19.327-.611-1.12.013-2.237.219-3.348.242-.218-.703 1.557-.704 2.146-1.047 7.139-1.971 14.548-2.712 21.715-4.573 3.576-.936 7.085-2.172 10.755-2.718 1.198-.089 2.465-.606 3.625-.133 1.8.879 3.286 2.332 4.656 3.772zm49.5 4.7c1.107-.026 2.122 1.081.479 1.258-3.458.913-6.996 1.492-10.507 2.161-7.289 1.277-14.696 2.294-22.112 1.902-1.808-.198-3.966-.31-5.138-1.917-.926-.987-.897-2.893.609-3.283 1.47-.377 3.02-.283 4.527-.412 7.876-.32 15.763-.24 23.643-.157 2.833.085 5.685.096 8.5.448zm-43.4 25.8c.177 7.758.365 15.521.967 23.259.073 2.438-.17 4.898-.686 7.273-.852 1.314-1.133-1.148-1.422-1.759-3.258-10.904-4.969-22.204-6.093-33.508-.151-2.057-.383-4.137-.315-6.191.677-1.888 2.148-3.333 3.415-4.838.802-.876 1.658-1.716 2.651-2.375 1.382.051.538 2.192.911 3.12.286 5.003.405 10.013.573 15.02zM112.3 149c-.026 1.649-1.226 2.948-2.029 4.298-3.372 4.868-7.325 9.295-11.226 13.739-.806.848-1.568 1.768-2.465 2.509-.751-.199.344-1.693.343-2.35 2.124-6.56 5.144-12.812 6.946-19.479.656-1.291 2.335-1.061 3.539-.953 1.594.151 3.461.26 4.587 1.549a1.92 1.92 0 0 1 .305.688zm36.4 8.5l6.2 9.5c-4.926-3.002-9.974-5.804-15.046-8.548-1.014-.58-1.602-1.716-1.48-2.88.088-2.104.822-4.111 1.302-6.144.201-1.38 1.801-1.582 2.565-.543 2.576 2.518 4.426 5.668 6.458 8.615zm-3.6-97.3c-.418 1.108-.828 3.039.574 3.578 1.289.054 2.033-1.293 2.595-2.257.461-1.019 1.375-2.709.024-3.443-1.189-.427-2.381.622-2.947 1.593a3.77 3.77 0 0 0-.246.529zm-56.9 6.4c.473 1.72 2.025 3.115 3.787 3.384 1.272-.125 1.114-1.74.477-2.483-.776-1.342-2.249-2.559-3.883-2.332-.542.231-.527.958-.381 1.43zm80.9 11.1c-1.499 2.111-3.079 4.227-4.043 6.643-.303.938.316 2.512 1.514 1.919 1.716-.902 2.622-2.737 3.78-4.211 1.598-2.31 3.662-4.24 5.346-6.479.569-.874 1.334-2.259.388-3.139-1.11-.961-2.582-.177-3.353.812-1.377 1.34-2.527 2.889-3.632 4.455zM67.4 84.1c-.515 1.148.71 2.035 1.597 2.494 3.088 1.963 5.481 4.825 8.555 6.8.759.616 2.458.922 2.448-.493-.028-1.285-1.134-2.194-1.861-3.146-2.155-2.274-4.586-4.324-7.289-5.918-.884-.412-2.046-1.317-2.94-.426-.227.189-.323.47-.511.688zm128.2 15c-.893.75-2.574 2.036-1.697 3.294.966.608 2.174.068 3.152-.257 1.523-.643 2.995-1.802 3.498-3.43.176-1.596-1.845-2.119-2.86-1.103-.744.43-1.414.973-2.093 1.496zm.4 66.8c.413 1.444 1.897 2.179 3.044 2.98.93.831 3.491 1.385 2.869-.645-.796-1.9-2.947-3.398-5.055-3.023-.368.066-.85.239-.859.688zM57.2 174c-.844.973-2.569 2.251-1.891 3.664 1.101.807 2.538.022 3.481-.687 1.237-1.053 2.563-2.628 2.114-4.369-.557-1.227-1.962-.068-2.639.467L57.2 174zm24.1 12c-3.053 2.025-5.267 5.066-7.117 8.177-.619 1.175-1.28 2.473-1.167 3.835.154 1.318 1.666 1.179 2.39.422 2.119-1.572 2.779-4.274 4.399-6.256 1.267-1.748 2.882-3.194 4.54-4.556.648-.658 2.043-2.047.917-2.834-1.399-.338-2.783.573-3.962 1.211zm93.1 1.2c-.308 1.085.704 1.955 1.367 2.669l6.435 5.249c1.146.842 2.188 1.941 3.568 2.383 1.36.523 2.343-1.202 1.546-2.27-1.173-1.998-3.086-3.417-4.885-4.82l-5.96-4.012c-.904-.516-1.672-.09-2.071.801zM161 207.1c.135 1.895 1.244 3.696 2.829 4.723 1.118.671 2.581-.386 2.068-1.669-.445-1.684-1.335-3.623-3.202-4.051-.761-.224-1.747.045-1.695.997zm-60.3 2.6c-.751 1.072-.722 2.483-.651 3.732.11 1.553 2.181 2.059 2.925.653.87-1.349 1.156-3.404.023-4.686-.676-.725-1.735-.37-2.297.301zM154 46c.56.916 1.771 1.003 2.709 1.288 2.367.414 4.698 1.001 6.965 1.802 6.581 2.259 12.835 5.411 18.756 9.048 3.644 2.259 7.081 4.883 9.981 8.056 3.247 3.323 5.994 7.084 9.103 10.528.909.78 1.717 2.087 2.959 2.207 1.365-.933-.256-2.636-.818-3.632-3.585-4.945-7.745-9.463-12.197-13.637-5.984-5.265-12.935-9.339-20.175-12.617-4.461-1.929-9.119-3.713-14.018-3.994-1.029.083-2.849-.3-3.264.951zM53.8 74.2c-4.105 4.835-8.091 9.847-11.107 15.448-.625.918-1.391 3.695.552 3.202 2.04-1.66 2.746-4.342 4.37-6.341 4.312-6.202 9.634-11.602 14.228-17.583.564-1.679-1.924-.93-2.456-.121-2.11 1.52-3.868 3.459-5.586 5.394zm171.9 53.5c.298 3.385.553 6.814 1.483 10.093.092.891 1.294 2.978 1.831 1.221.41-2.296.207-4.657.039-6.973-.329-3.24-.662-6.489-1.279-9.688-.31-.841-.418-2.361-1.607-2.292-1.215.469-.517 2.237-.751 3.272.014 1.46.161 2.913.284 4.367zm.8 21.5c-1.021 5.256-1.335 10.648-2.841 15.808-1.32 5.263-3.235 10.347-5.254 15.376-.481 1.308-1.001 2.623-1.244 3.997.546 1.419 1.964.209 2.288-.705 2.015-3.542 3.482-7.367 4.942-11.163 1.605-4.272 2.842-8.688 3.471-13.214.446-3.24.843-6.516.696-9.791.223-1.141-.905-2.044-1.655-.913a2.75 2.75 0 0 0-.403.603zM32 169.9c.244 4.194 1.51 8.237 2.561 12.279 1.531 5.345 3.19 10.681 5.479 15.756.371.973 1.578 2.902 2.641 1.591.089-2.308-1.003-4.45-1.779-6.57-2.233-5.73-3.744-11.704-5.232-17.66-.57-2.002-1.157-4.044-2.188-5.859-.453-.515-1.535-.357-1.482.462zm12 21.5c.572 2.018 1.841 3.737 2.867 5.54a79.58 79.58 0 0 0 13.519 16.572c4.828 4.554 10.004 8.735 15.377 12.627 7.217 5.049 14.906 9.395 22.763 13.359 3.018 1.448 6.056 2.939 9.294 3.827.998.498 2.563-.234 1.971-1.489-1.419-1.406-3.469-1.844-5.246-2.637-8.208-3.336-15.877-7.859-23.277-12.7-6.944-4.639-13.637-9.711-19.638-15.533-4.403-4.308-8.269-9.144-11.617-14.311-1.516-2.195-2.987-4.464-4.916-6.324-.798-.643-1.271.393-1.097 1.069zm156.6 9c-.987 1.911-2.258 3.724-2.78 5.833-.903 2.069-2.493 3.742-3.95 5.433-3.665 4.075-7.895 7.617-12.47 10.628-5.235 3.521-10.324 7.268-15.716 10.55-1.449.806-2.909 1.709-4.529 2.102-.986.025-2.276.584-2.16 1.757.177 1.329 1.752 1.159 2.704.896 2.783-.759 5.278-2.287 7.754-3.726 5.846-3.566 11.256-7.782 16.892-11.66 2.89-1.978 5.622-4.211 7.886-6.898 4.839-5.553 8.599-11.98 11.597-18.688-.526-1.271-2.06-.369-2.659.375-1.032.988-1.823 2.191-2.571 3.399zM247.3 3.5c-5.993 4.296-11.75 8.961-16.936 14.212-1.446 1.506-2.837 3.064-4.264 4.588-2.462-1.776-4.894-3.611-7.007-5.804-4.197-4.043-7.838-8.627-12.109-12.595-.522-.968-2.481-1.299-2.129.26.944 2.47 2.877 4.369 4.577 6.333 4.56 4.957 9.574 9.465 14.355 14.203.576.85-1.112 1.908-1.465 2.838-2.727 3.656-4.492 7.898-6.093 12.136-.932 2.693-1.934 5.415-2.223 8.267-.208.866.28 2.97 1.297 1.55 2.193-3.622 2.788-7.916 4.614-11.705 1.511-3.392 3.195-6.786 5.654-9.598.592-.765 1.72-1.412 2.509-.51 3.353 3.119 5.913 6.963 8.522 10.698 2.589 3.799 4.772 7.848 6.926 11.903 1.04 1.841 2.106 3.718 3.604 5.227.918.946 2.213-.109 1.478-1.219-1.293-3.51-3.222-6.745-5.062-9.989-3.297-5.481-6.705-10.934-10.793-15.868-1.056-1.373-2.514-2.472-3.241-4.073-.452-1.317.612-2.494 1.35-3.471 2.585-2.789 5.531-5.217 8.429-7.671 3.162-2.581 6.38-5.117 9.825-7.311 1.344-.811 2.887-1.65 3.526-3.163.123-1.183-1.409-1.651-2.276-1.078-1.073.523-2.104 1.138-3.071 1.84zM90.8 9.7c-.825.175-3.274.353-2.425 1.559 1.031.621 2.32.573 3.485.711 1.911.097 3.86-.009 5.718-.452.979-1.341-1.449-2.049-2.43-2.348-1.246-.237-2.444.347-3.681.434L90.8 9.7zm-17 1c-1.33.083-2.614 2.315-1.157 3.044 1.332-.075 2.605-.72 3.976-.688 1.176-.108 2.942.118 3.367-1.334.155-1.445-1.682-1.68-2.75-1.594-1.166.013-2.309.293-3.435.573zM62.4 12c-1.392.434-2.807 1.329-3.151 2.845-.549 1.641-.948 3.371-.98 5.1.221 1.888 2.031.503 2.37-.575 1.072-1.83 1.563-4.309 3.684-5.259 1.276-.574 3.257-.277 3.979-1.69-.238-1.169-1.687-1.036-2.609-1.096-1.128.009-2.248.256-3.293.675zm89.8 1.2c.775 1.105 2.28 1.194 3.501 1.392 2.474.192 5.143.306 7.188 1.9 1.362 1.04 2.694 2.495 4.538 2.509 1.227-.596.021-1.922-.577-2.533-1.661-1.925-3.613-3.962-6.281-4.27-2.263-.287-4.573-.259-6.837-.014-.538.156-1.656.204-1.532 1.016zm18.8 9.4c.498 1.579 1.929 2.606 3.057 3.729.959.808 3.115 2.718 3.933.906-.494-1.594-1.918-2.69-3.134-3.75-.854-.618-3.244-2.478-3.857-.885zM57.6 23.7c-.88 1.403-.305 3.261-1.348 4.613-.949 1.716-2.523 2.945-3.769 4.419-1.104 1.599 1.65 1.461 2.521 1.039 2.177-.836 3.383-3.116 4.017-5.235.322-1.444.72-3.017.28-4.471-.229-.832-1.16-1.112-1.702-.364zm152.6 4.6c-1.038.368-3.239.976-2.706 2.387.871.763 2.166.457 3.215.355 1.742-.313 3.522-.926 4.868-2.101 1.072-1.004-.156-2.216-1.323-1.711-1.396.16-2.711.686-4.053 1.07zm-29.5 2.4c-.262 1.07.773 1.865 1.28 2.684 1.53 1.974 3.784 3.591 6.371 3.585 1.392.075 2.895.068 4.151-.594.838-.998-.624-1.739-1.476-1.861-1.591-.375-3.289-.415-4.737-1.263-1.4-.595-2.253-1.893-3.416-2.794-.683-.537-1.642-.495-2.173.243zm18.1 1.5c-.973.389-3.246 1.126-2.453 2.46.958.56 2.151.298 3.204.221 1.328-.218 2.975-.73 3.413-2.16.547-1.408-1.125-1.923-2.127-1.262l-2.037.741zm-155 5.9c-1.363 1.034-2.654 2.436-2.921 4.183.581 1.574 2.17-.113 3.001-.607 1.745-1.289 3.439-2.679 4.89-4.293.793-1.142-.957-1.693-1.753-1.094-1.183.377-2.219 1.091-3.218 1.811zm-14 10.6c-1.638 1.159-3.341 2.542-3.991 4.51.62 1.835 2.532-.254 3.545-.72 1.857-1.312 3.842-2.594 5.187-4.464.785-.711.793-2.38-.601-1.724-1.465.649-2.825 1.485-4.141 2.398zM18.1 59.5c-1.05 1.275-2.163 2.511-3.037 3.92-.082 1.159.772 2.104 1.216 3.112.967 1.669 1.938 3.421 3.425 4.684 1.046 1.04 2.333-.169 1.652-1.398-.709-2.134-2.335-3.775-3.557-5.617 1.475-2.079 3.186-4.017 4.368-6.285.563-1.307-.991-1.612-1.675-.66-.898.633-1.659 1.434-2.393 2.245zm-7.9 129.8c-.74 1.035-2.213 1.977-2.097 3.352.637 1.299 1.72 2.329 2.657 3.417 1.334 1.387 2.732 2.766 4.371 3.786 1.06.626 2.435-.475 1.411-1.535-1.668-2.074-3.815-3.696-5.741-5.52 1.427-1.59 3.132-2.983 4.173-4.879-.018-1.715-2.196-.728-2.99-.137-.66.421-1.25.944-1.782 1.516zm8.8 16.6c.611 1.453 1.964 2.406 3.024 3.518 1.455 1.321 2.968 2.651 4.718 3.555 1.64.327 1.185-1.551.326-2.213-1.515-1.873-3.289-3.561-5.266-4.941-.757-.39-1.776-1.173-2.594-.571a.76.76 0 0 0-.208.653zm14.7 12.8c-.986.665-.702 2.204.442 2.506 1.035.125 2.778.955 1.488 2.087-2.058 2.268-4.76 3.981-6.317 6.684-.15 1.564 1.965.91 2.578.142 2.781-2.366 6.177-4.044 8.506-6.91.64-1.372-1.16-2.007-1.969-2.735-1.338-.851-2.797-1.683-4.384-1.895l-.18.039zm-13.4 19.6c-2.418 1.745-4.508 4.046-5.709 6.793-.522 1.238.879 1.771 1.645.829 1.848-1.289 3.132-3.201 4.896-4.592 1.063-.959 2.27-1.751 3.344-2.691 1.011-1.161-.679-2.21-1.753-1.596-.866.289-1.659.765-2.423 1.256z"/></svg>
