<svg xmlns="http://www.w3.org/2000/svg" viewBox="0 0 256 256" preserveAspectRatio="xMidYMid meet" xmlns:v="https://vecta.io/nano"><path d="M68.036 135.578L17.792 47.115l4.613-4.613 44.314-19.933 16.968 4.777 2.471 6.919 18.615 25.369 25.205 43.985-28.829 13.673-21.745 13.014zm108.891 38.466l4.53-17.297-20.345-11.449 3.377-1.565 19.439-.412 12.273-23.063 2.636 2.389 8.649 19.686 17.462-.494-13.179 14.826 6.342 14.662-5.107-.577-15.073-7.99-17.462 11.12zm17.297 52.139l15.568-32.288 3.954-.494 35.171 12.52-16.721 34.43-38.136-13.179zm-62.478 12.846l.524-17.24 4.368-25.743 7.397 6.407 19.628 24.462zm-119.72-21.248l14.497 5.766 27.017-12.849 12.19-13.508 21.91-1.812 13.508-34.595 47.279-73.637 31.465-51.892 20.922-18.78 14.332-3.789 4.283 5.766-2.636 22.569-39.207 59.47-83.851 103.619 1.647 20.263-15.156 15.65-21.58 9.555-22.734-4.118-21.58-20.427z" paint-order="stroke fill markers" fill="currentColor"/><path d="M200.5 14.3c-6.397 3.389-11.978 8.111-17.088 13.194-3.945 3.959-7.492 8.323-10.461 13.062-4.988 7.592-10.08 15.129-14.568 23.032-.472 1.02-.645 2.228-1.517 3.018-1.343 1.628-2.308 3.518-3.413 5.306-4.771 8.072-9.023 16.444-14.007 24.39-.81 1.267-1.614 2.544-2.593 3.69-.866 1.076-1.695 2.24-2.017 3.605-.526 1.388-1.395 2.608-2.168 3.864l-5.603 8.484-14.025 21.986c-2.199 3.312-4.474 6.583-7.023 9.638a32.72 32.72 0 0 0-4.02 6.796c-.804 1.532-1.869 3.003-3.38 3.901-1.404 1.363-2.068 3.258-2.779 5.034-1 2.811-1.77 5.7-2.829 8.491-1.143 3.306-2.532 6.519-3.954 9.713-1.55 3.634-2.88 7.357-4.155 11.095-3.91-.199-7.816-.658-11.736-.52-2.869.14-5.729.946-8.144 2.526-3.614 2.243-6.639 5.269-9.734 8.153-4.544 4.319-9.019 8.812-14.377 12.135-3.149 1.924-6.722 3.128-10.386 3.552-2.562.331-5.152.532-7.735.414-2.966-.232-5.629-1.67-8.266-2.921L10.5 214c-1.182 1.542-2.594 2.942-3.434 4.719-.134.898.626 1.55 1.01 2.276 3.795 5.239 8.086 10.095 12.47 14.843 3.217 3.445 6.668 6.705 10.562 9.379 3.536 2.523 7.384 4.824 11.694 5.687 4.136.67 8.339.53 12.513.597H65.7c3.846-1.949 7.779-3.729 11.547-5.829 6-3.47 11.478-7.903 15.912-13.245 2.025-2.494 3.861-5.277 4.536-8.465.938-4.057 1.293-8.237 1.23-12.395-.042-2.258-.251-4.554-1.095-6.669-.33-1.104.027-2.327.793-3.166 1.504-1.928 3.374-3.525 4.994-5.35 3.019-3.205 5.881-6.553 8.671-9.957 3.199-3.667 6.605-7.146 10.073-10.558 1.234-1.276 2.426-2.605 3.418-4.081.282-.842.531-1.782 1.298-2.324.879-.737 1.798-1.436 2.54-2.319 3.321-3.591 6.349-7.439 9.401-11.258l8.638-11.207c2.396-2.946 4.849-5.848 7.124-8.891l20.405-27.159 11.832-17.58 16.855-25.605c1.459-2.183 3.21-4.158 4.584-6.401 3.151-4.866 6.058-9.891 8.737-15.031 1.455-2.8 2.851-5.694 3.375-8.834 1-5.28.854-10.682.787-16.03-.069-1.657-.025-3.47-1.032-4.883-1.034-1.268-2.369-2.27-3.782-3.083-2.232-1.206-4.923-1.194-7.319-.527-3.068.785-5.915 2.216-8.722 3.647zm15 6.6c.537 4.921-.158 9.894-1.351 14.67-.739 2.813-1.926 5.496-3.416 7.99-5.54 9.79-12.113 18.937-18.309 28.311l-20.765 31.022c-1.494 2.17-3.081 4.274-4.696 6.354-2.923 3.959-5.658 8.055-8.673 11.946-3.43 4.562-7.075 8.956-10.696 13.366-2.418 2.984-4.678 6.092-7.064 9.101-1.504 1.88-3.137 3.659-4.565 5.598a7.11 7.11 0 0 0-1.085 2.129c-.742 1.344-1.831 2.447-2.796 3.627-3.065 3.513-6.443 6.734-9.63 10.132-.335.621-1.057.686-1.474.129-3.833-2.451-7.612-4.993-11.567-7.245-.64-.179-1.383-.711-1.217-1.465.398-1.858 1.431-3.581 2.919-4.77.702-.357 1.701-.297 2.118-1.082.619-.943.545-2.179 1.255-3.078.911-1.464 2.384-2.435 3.831-3.305.599-.431 1.405-.705 1.709-1.435-.379-.523-1.185-.807-1.201-1.541.18-.885.598-1.712 1.014-2.511 1.037-1.845 2.313-3.542 3.425-5.342.632-.998 1.235-2.019 1.715-3.1.297-1.439 1.324-2.555 2.107-3.751 2.147-2.93 4.47-5.749 7.114-8.246.533-.476 1.17-.835 1.863-1.015.615-.226.619-1.035.296-1.503-.368-.456-.835-.925-.751-1.573.069-1.285 1.106-2.17 1.782-3.168 1.157-1.572 2.155-3.254 3.056-4.983 1.166-1.946 3.231-3.152 5.342-3.83.866-.426 1.918-.92 2.172-1.943.186-.573-.587-.794-1.025-.715-.554.016-1.118.395-1.657.137-.398-.51.273-1.094.568-1.498 1.002-1.102 2.269-2.116 2.656-3.621.147-.872.587-1.662.933-2.469 2.525-5.193 5.284-10.27 8.166-15.273 2.301-4.065 5.059-7.88 6.973-12.159.404-.911 1.402-1.542 2.406-1.409 1.867-.016 3.746.766 5.596.205.455-.334.264-.97-.122-1.269-1.004-.988-2.456-1.357-3.422-2.387-.507-.393-.52-1.219.093-1.512.994-.56 2.192-.353 3.283-.46.696-.09 1.639-.19 1.964-.909.15-.654-.461-1.154-.917-1.514-.506-.3-1.036-.684-1.134-1.312-.186-.738.197-1.431.548-2.05 1.133-2.189 2.454-4.325 4.254-6.032.279-.53.937-.486 1.438-.39.699.137 1.304-.337 1.858-.688.527-.406 1.132-.978 1.061-1.703-.145-.897-1.261-1.407-1.118-2.384.452-1.547 1.698-2.655 2.681-3.871 2.441-2.73 4.961-5.388 7.516-8.009 4.311-4.191 9.274-7.697 14.602-10.472 2.436-1.224 5.006-2.336 7.751-2.572.929-.023 1.844.67 1.964 1.612.312 1.055.46 2.149.622 3.234zm-99.1 148.6c.622.353 1.13 1.178.723 1.867-.678 1.569-1.926 2.782-2.973 4.103-3.973 4.643-8.128 9.127-12.234 13.652-2.305 2.5-4.603 5.021-7.171 7.255-.667.512-1.377 1.144-2.263 1.155-1.166-.145-1.829-1.504-1.521-2.574.491-2.56 1.585-4.945 2.475-7.38 1.552-3.943 2.989-7.976 5.255-11.58.773-1.167 1.886-2.212 3.298-2.498.815-.271 1.753-.72 1.98-1.63.022-.636-.7-.849-1.218-.865-.534 0-1.123-.044-1.494-.484-.557-.472.01-1.154.604-1.113 1.264-.164 2.497.744 3.744.239.498-.282.359-.974.061-1.357-.711-1.112-1.982-1.656-2.835-2.63-.684-.766-.837-2.159.034-2.848.578-.417 1.262.022 1.841.203 2.037.811 3.897 1.988 5.839 2.991 1.991 1.097 3.969 2.223 5.854 3.495zm-32.6 29.9c3.554 1.821 6.669 4.784 8.068 8.584 1.121 3.082 1.186 6.426.976 9.663-.276 3.297-1.514 6.487-3.462 9.156-2.242 3.177-4.996 5.959-7.908 8.521-3.151 2.704-6.744 4.854-10.509 6.585-3.136 1.519-6.367 3.109-9.898 3.375-3.499.316-7.018.225-10.526.147-4.684-.197-9.469-1.048-13.573-3.422-4.792-2.713-8.65-6.727-12.371-10.719-1.595-1.762-3.185-3.552-4.44-5.579-.338-.79.746-.708 1.202-.532a51.57 51.57 0 0 1 5.191 1.348c2.224.666 4.412 1.471 6.686 1.954 2.452.494 4.971.403 7.446.155 2.897-.25 5.791-.591 8.645-1.158.696-.305 1.604-.176 2.152-.775.425-.607-.713-.611-1.1-.745-3.421-.424-6.877-.199-10.311-.097-2.272.066-4.555.138-6.821-.066-.657.048-.996-.717-.298-.994 1.052-.691 2.344-.825 3.559-1.008 2.088-.205 4.294.13 6.261-.77 1.093-.451 1.75-1.586 2.906-1.93 2.785-1.105 5.835-.805 8.751-1.172 1.327-.229 2.776-.313 3.886-1.159.712-.526 1.012-1.75.308-2.402-.821-.304-1.564.342-2.347.474-2.549.668-5.169.995-7.773 1.366 2.089-1.964 4.024-4.105 6.304-5.855 1.288-.905 2.88-1.23 4.43-1.272 2.988-.161 5.987.022 8.972-.232 1.391-.097 2.798-.306 4.087-.854.455-.27.875-.958.497-1.443-.447-.331-1.066-.221-1.592-.32-3.392-.259-6.768.449-10.161.287-.546-.022-1.3.07-1.612-.49-.216-.654.317-1.271.776-1.675.948-.772 2.119-1.283 3.35-1.334.584-.112 1.25.091 1.775-.24.551-.478.431-1.342.118-1.923-.445-1.037.314-2.17 1.249-2.616 1.921-1.048 4.058-1.652 6.225-1.908 2.771-.306 5.606-.348 8.347.224a11.89 11.89 0 0 1 2.537.852zM208.6 24.3c.371 2.735.254 5.575-.676 8.192-1.369 4.371-3.544 8.455-4.724 12.889-.132.519-.218 1.261.349 1.555.518.226 1.035-.245 1.312-.648 1.308-1.979 2.294-4.15 3.232-6.323 1.164-2.803 2.182-5.672 2.996-8.596.627-2.345.97-4.858.309-7.235-.386-1.633-.918-3.248-1.745-4.712-.529-.66-1.323.154-1.149.8-.168 1.356-.04 2.725.097 4.078zM100.8 184.1c-2.211 2.381-4.554 4.669-6.38 7.373-.447.382-.52 1.319.13 1.529.602.081 1.037-.458 1.51-.741 1.948-1.481 3.655-3.247 5.404-4.951 2.556-2.544 5.057-5.165 7.215-8.061.355-.549.509-1.391.022-1.9-.615-.319-1.167.265-1.632.596-1.393 1.097-2.627 2.387-3.872 3.648L100.8 184.1zm-17.4 31.7c-2.305 1.982-3.248 5.115-5.675 6.982-2.731 2.219-5.949 3.697-9.027 5.356-1.476.786-3 1.521-4.648 1.864-4.063 1.012-8.21 1.651-12.359 2.189-2.934.35-5.886.691-8.846.597-.878-.079-1.948-.288-2.629.431-.515.6.452.945.924 1.005 3.961.7 8.006.601 12.01.475 5.018-.212 10.053-1.076 14.713-2.994 2.176-.934 4.204-2.168 6.297-3.269 2.212-1.22 4.422-2.486 6.373-4.1.627-.561 1.003-1.327 1.315-2.093.749-1.495 1.939-2.693 2.936-4.014.441-.686.808-1.572.495-2.378-.392-.738-1.346-.431-1.879-.05zm-16.8 18.7c-3.341 1.425-6.8 2.67-10.418 3.146-2.238.397-4.504.649-6.725 1.137-.778.277-1.739.376-2.26 1.089-.39.571.24 1.037.768 1.101 1.485.222 2.993.056 4.476-.11 3.071-.396 6.1-1.076 9.093-1.859 3.392-.905 6.761-1.952 9.962-3.403 1.191-.592 2.49-1.171 3.289-2.283.344-.566-.175-1.378-.839-1.26-2.09.367-4.086 1.121-6.044 1.923l-1.302.518zM63 21.8c-.374.88-1.321 1.261-2.045 1.795-3.813 2.351-7.925 4.169-12.06 5.869a42.13 42.13 0 0 1-6.624 2.026c-3.078.815-6.058 2.046-8.74 3.773-4.007 2.364-8.061 4.652-12.208 6.761-1.689 1.017-3.463 2.11-4.493 3.85-.59 1.133-.217 2.478.367 3.532 1.408 2.769 3.487 5.114 5.081 7.77 2.253 3.631 4.283 7.393 6.335 11.14l12.105 22.7c2.967 5.353 6.256 10.518 9.397 15.769 2.301 3.893 4.407 7.895 6.55 11.876 1.278 2.327 2.715 4.561 4.164 6.785 1.839 2.999 3.242 6.239 5.027 9.267.728 1.083 1.407 2.377 2.689 2.878.812.219 1.452-.494 1.921-1.05.781-.873 1.815-1.48 2.822-2.059 2.333-1.29 4.934-2.064 7.137-3.593.865-.574 1.652-1.26 2.564-1.765 3.636-2.201 7.614-3.768 11.23-6.005 1.835-1.084 3.595-2.294 5.273-3.608 1.094-.786 2.305-1.483 3.659-1.666 4.172-1.466 7.933-3.841 11.944-5.668 2.958-1.436 5.985-2.728 9.035-3.954 2.038-.938 4.154-1.911 5.705-3.58.655-.825.585-1.989.163-2.902-.868-2.317-2.176-4.429-3.333-6.607l-11.028-19.415c-3.736-6.626-7.296-13.413-12.047-19.39-1.532-1.808-3.16-3.541-4.511-5.494-4.11-5.589-7.846-11.447-11.338-17.439-.958-1.712-1.954-3.417-2.632-5.265-.022-.916-.868-1.49-1.612-1.849-2.676-1.453-5.687-2.069-8.553-3.027-3.022-.909-6.024-2.105-9.215-2.22-.821.079-1.77-.163-2.47.39A1.01 1.01 0 0 0 63 21.8zm10.9 3.8l5.9 1.7c-3.011 1.46-5.944 3.091-9.036 4.377-.554.189-1.417.229-1.664-.432-.124-.738-.057-1.504-.193-2.246-.188-1.385-.658-2.725-1.359-3.933-.531-.594.143-1.155.777-.899 1.879.392 3.722.932 5.574 1.433zm-7.4 6.6c.28 1.561.447 3.168 1.09 4.635.699.246 1.289-.359 1.856-.666 1.266-.653 2.442-1.47 3.667-2.197 2.068-1.258 4.212-2.458 6.558-3.107.761-.144 1.656-.331 2.347.12 1.098.733 1.776 1.908 2.543 2.951 5.301 7.662 9.709 15.963 15.784 23.073 4.958 5.955 9.028 12.595 12.608 19.453 4.305 7.857 8.934 15.531 13.279 23.365l1.702 3.135c-.042.736-.856.982-1.419 1.235-2.433 1.223-5.046 2.042-7.543 3.124-2.622 1.094-5.176 2.34-7.739 3.565-1.765.743-3.663 1.428-5.61 1.185a1.68 1.68 0 0 0-1.755 1.766c-.629 1.136-1.969 1.495-3.124 1.841-2.45.941-4.417 2.729-6.585 4.148-3.688 2.338-7.615 4.29-11.661 5.926-1.105.414-2.327.881-3.51.53-.622-.296-1.208-.988-1.964-.738-.745.254-.889 1.183-.652 1.842.126.59.594.977.926 1.447.412.386.502 1.357-.306 1.183-1.74.329-3.33 1.15-4.936 1.859-1.113.525-2.207 1.14-3.403 1.45-.693.035-1.019-.697-1.174-1.261-.414-1.229-.293-2.741.682-3.677.523-.752 1.102-1.741.686-2.667-.458-.863-1.704-.878-2.44-.375-.627.206-.693 1.576-1.48.926-.484-.589-.611-1.377-.993-2.027-.558-1.175-1.303-2.288-2.34-3.091-1.221-1.349-2.015-3.009-2.83-4.618-.918-1.951-1.792-3.956-2.218-6.079-.034-.664.365-1.433-.14-2.006-.587-.659-1.668-.582-2.162-1.359-2.153-2.27-3.765-4.971-5.433-7.599-1.831-3.032-3.624-6.119-4.869-9.446-.238-.675-.293-1.403-.162-2.105-.012-.854-1.051-.977-1.445-1.587-2.296-2.824-4.078-6.011-5.935-9.128-2.496-4.361-4.684-8.887-7.099-13.292-1.54-2.9-3.243-5.72-4.551-8.738-.418-1.791-1.844-3.061-3.027-4.374-1.008-1.08-2.119-2.133-2.711-3.515.07-.811.926-1.119 1.512-1.506 2.06-1.138 4.353-1.744 6.629-2.279.695-.215 1.227-.944 1.089-1.681.593-1.338 2.067-1.863 3.304-2.428 1.853-.855 3.563-1.976 5.298-3.037 3.306-1.717 6.986-2.463 10.561-3.399 5.445-1.531 10.416-4.301 15.376-6.949.706-.345 1.747-.503 2.28.216.9 1.467.999 3.232 1.291 4.886l.148 1.07zm-8 2.8c-.912.857-2.157 1.19-3.299 1.619-1.64.506-3.336.983-4.734 2.023-2.39 1.592-4.046 3.986-6.032 6.009-.708.682-1.494 1.483-2.535 1.539-.916-.038-1.638-.733-2.545-.832-1.595-.36-3.289-.524-4.89-.113-.738.307-.758 1.219-.797 1.899l-.214 2.169c-.049 1.092.012 2.2.312 3.255.459.681 1.099-.069 1.204-.606.418-1.006.423-2.174 1.067-3.082.491-.611 1.382-.623 2.103-.587l5.963.535c.546-.076 1.235.094 1.656-.327.524-.623.463-1.555 1.065-2.134 1.52-2.166 3.347-4.137 5.472-5.72.554-.418 1.219-.718 1.923-.696 2.247-.384 4.283-1.586 5.97-3.084.562-.509 1.042-1.314.704-2.079-.203-.754-1.273-.996-1.814-.454-.235.18-.426.413-.578.667zm4 17.3c-1.115.935-1.337 2.504-1.243 3.876.195 2.919 1.615 5.883 4.146 7.463.984.542 2.273.221 2.99-.615 1.144-1.154 1.992-2.623 2.392-4.199.461-2.027-.181-4.263-1.682-5.71-.927-.965-2.068-1.946-3.467-2.02-1.157-.029-2.215.564-3.136 1.205zm5.3 4c.18 1.301.188 2.723-.463 3.901-.502.637-1.457.343-1.897-.213-1.15-1.141-1.571-2.856-1.4-4.434-.134-.861.748-1.597 1.573-1.418 1.037.266 1.965 1.089 2.187 2.164zM48 60.5c-.988 1.039-.899 2.617-.568 3.909.548 2.298 1.377 4.715 3.267 6.259.882.764 2.075 1.227 3.247 1.016 1.084-.145 1.963-.928 2.471-1.864.893-1.587 1.026-3.504.745-5.273-.565-2.718-2.86-5.116-5.67-5.448-1.298-.172-2.679.372-3.492 1.402zm5.8 2.7c1.233 1.296 1.619 3.472.583 4.997-.633.923-2.166.718-2.65-.249a11.23 11.23 0 0 1-1.441-4.621c-.007-.671.445-1.479 1.203-1.434.92.07 1.671.691 2.305 1.308zM62 72c-.916 2.256-1.119 4.958.078 7.152.56.963 1.927 1.013 2.802.478 2.763-1.273 5.399-2.883 7.643-4.946.402-.344.705-1.081.185-1.452-.612-.414-1.368-.062-1.994.136-2.455.971-4.585 2.571-6.881 3.839-.254-.42.259-1.075.213-1.591.376-1.977 1.093-3.865 1.72-5.769.085-.676-.755-.993-1.303-.826-1.025.429-1.685 1.421-2.18 2.374L62 72zm25.6.2c-1.181 4.071-2.548 8.22-5.214 11.588-2.02 2.485-4.782 4.205-7.515 5.802-3.025 1.667-6.201 3.191-9.624 3.818-1.309.212-2.81.115-3.858 1.069-.407.486.116 1.061.602 1.203.822.3 1.723.297 2.588.311 2.623-.071 5.143-.942 7.552-1.916 3.375-1.434 6.568-3.312 9.438-5.596 2.562-2.207 4.541-5.017 6.121-7.988 1.194-2.325 2.297-4.826 2.3-7.488-.021-.794-.314-1.767-1.166-2.013-.691-.092-1.071.654-1.225 1.208z"/><path d="M101.7 92.7c-.604.967-.537 2.155-.669 3.245-.078 1.466.066 2.958-.231 4.403-.247.657-1.079.488-1.553.195-1.055-.536-1.996-1.466-3.241-1.496-.696.192-.817 1.015-.822 1.63-.001 2.061.262 4.142.926 6.098.337.858.753 1.78 1.56 2.287.616.272 1.095-.399 1.198-.936.266-1.078-.106-2.306.548-3.279.457-.644 1.324-.346 1.972-.548.59-.236.905-.857 1.2-1.383.585-1.228.759-2.595 1.131-3.891.131-.532.338-1.208.919-1.388.687-.028 1.053.727 1.583 1.054.709.592 1.701 1.171 2.639.787.943-.469 1.167-1.649 1.137-2.608-.127-.561.084-1.413.771-1.443.59.133 1.087.539 1.663.733 1.188.557 2.73.402 3.654-.576.815-.806 1.222-2.151.674-3.208-.429-.563-1.236-.28-1.711.067-.565.359-.917 1.04-1.591 1.219-.584.123-.738-.552-1.108-.841-.864-.854-2.231-.912-3.338-.583-.925.282-1.774.965-2.069 1.908-.234.696-1.178.512-1.114-.214-.334-1.484-2.169-2.351-3.527-1.666a2.11 2.11 0 0 0-.601.432zm-22.1 10.4c-.517 1.174-.865 2.511-1.88 3.375-1.086.609-2.317.058-3.437-.126-1.021-.331-2.312-.044-2.869.938-1.24 2.52-2.392 5.261-2.157 8.131.029.681.345 1.435.966 1.772.716.25 1.02-.647 1.247-1.149.846-1.975.88-4.204 1.804-6.148.434-.656 1.366-.592 2-.3 1.661.509 3.549-.172 4.604-1.529 1.666-1.943 2.477-4.416 3.473-6.731.182-.634.694-1.266.468-1.951-.26-.533-.981-.447-1.451-.291-.875.311-1.292 1.209-1.771 1.932-.39.663-.717 1.362-.997 2.077zm114.7 17.1c-2.253 3.998-4.206 8.154-6.267 12.251L183.5 142c-6.173.06-12.373-.22-18.517.519-1.602.242-3.304.38-4.707 1.26-.499.489-.147 1.255.216 1.714 2.033 2.488 4.826 4.168 7.512 5.857 2.6 1.58 5.376 2.836 8.063 4.254 1.321.723 2.618 1.51 3.772 2.483.366.901-.263 1.781-.363 2.67-1.009 4-2.412 7.89-3.399 11.896-.146.82-.417 1.725-.04 2.52.529.777 1.58.745 2.414.705 2.779-.301 5.296-1.664 7.66-3.072 4.125-2.489 7.442-6.079 11.475-8.693.711-.241 1.319.362 1.916.648 3.717 2.057 7.193 4.565 11.109 6.254 2.528 1.105 5.228 2.094 8.03 1.959 1.003-.089 2.195-.575 2.428-1.664.159-.865-.597-1.51-1.227-1.958-.924-1.018-1.57-2.246-2.287-3.409-1.696-2.937-3.113-6.023-4.655-9.041 3.727-3.947 7.602-7.758 11.189-11.836.89-1.035 1.742-2.109 2.458-3.274.11-.702-.716-.898-1.251-.89-.635.017-1.246-.144-1.875-.186-4.142-.337-8.3-.145-12.448-.201-1.439-.06-3.019-.48-3.892-1.717-1.534-1.972-2.297-4.385-3.301-6.64-2.07-4.985-3.975-10.062-6.601-14.791-.412-.597-1.014.089-1.271.479-.602.738-1.112 1.544-1.607 2.356zm7.2 13.4c1.074 2.806 2.194 5.605 2.941 8.52.327.81 1.302.916 2.058.996 1.658.157 3.331.098 4.994.062l11.007-.379-11.01 11.679c-.419.711-1.317 1.15-1.419 2.03.039.612.415 1.143.613 1.713 1.561 3.71 3.592 7.218 4.876 11.043.13.761-.904.583-1.34.399-.912-.404-1.987-.887-2.299-1.928-.333-.61-1.141-.689-1.771-.734-.679-.002-1.329-.193-1.931-.496-1.537-.7-2.735-1.923-3.938-3.071-.711-.61-1.524-1.318-2.527-1.242-1.426-.158-2.697-1.266-4.182-.937-1.506.135-2.608 1.371-4.074 1.637-1.345-.034-2.483.994-2.953 2.194-.808 1.51-2.261 2.496-3.54 3.573-2.136 1.654-4.375 3.225-6.87 4.288-.712.186-1.128-.694-.931-1.283.223-1.468 1.063-2.942 2.447-3.584.664-.195 1.45.039 2.039-.39.549-.62-.257-1.322-.702-1.729-.667-.578-1.476-1.049-1.902-1.853-.043-.8.773-1.193 1.244-1.699 1.549-1.618 1.872-4.425.392-6.191-.824-.69-1.572-1.596-1.707-2.698.189-.71-.454-1.319-1.137-1.314-1.181-.126-2.28.685-3.465.419-.812-.208-.984-1.137-1.176-1.83-.156-.693-.594-1.473-1.386-1.521-.889-.085-1.773.41-2.652.095-2.17-.411-4.26-1.36-5.913-2.834-.506-.511.098-1.277.721-1.207.762-.041 1.52-.213 2.286-.267 3.158-.312 6.336-.306 9.505-.293 1.86.026 3.719.206 5.578.143.962-.067 2.05-.531 2.325-1.544.411-.934 1.455-1.439 2.441-1.418.784-.227.83-1.216.578-1.857-.293-1.472.373-2.906 1.021-4.188 1.052-1.872 2.391-3.588 3.208-5.587.554-2.9 2.007-5.51 3.033-8.25.293-.819.603.335.839.623.888 1.54 1.623 3.161 2.28 4.811a160.72 160.72 0 0 1 2.397 6.095zm4.3 65.1c-3.215 6.645-6.031 13.473-9.064 20.201-.944 2.032-1.934 4.052-3.176 5.921-.519.902-.893 2.152-.189 3.062 1.111 1.3 2.814 1.801 4.354 2.395 3.979 1.304 8.029 2.376 12.026 3.619 6.517 1.97 13.044 3.969 19.313 6.646 1.409.56 2.889 1.03 4.419 1.049.772-.248.9-1.149 1.211-1.785 1.696-3.979 2.81-8.181 4.53-12.151 2.12-5.058 4.501-10.015 7.317-14.725 1.229-2.209 2.492-4.417 3.419-6.772.128-.763-.612-1.263-1.174-1.614-2.587-1.516-5.5-2.324-8.324-3.274-7.435-2.341-14.735-5.082-22-7.9-2.169-.805-4.363-1.703-6.696-1.856-1.209-.024-2.403.595-3.044 1.627-1.246 1.698-1.976 3.693-2.925 5.557zm17.2-.6c6.294 2.558 12.765 4.65 19.264 6.616 1.508.486 3 1.025 4.461 1.637.389.513-.082 1.11-.384 1.532-.371.484-.572 1.062-.923 1.56-1.669 2.726-3.314 5.47-4.747 8.329-1.693 3.273-3.326 6.592-4.589 10.058-.798 2.681-1.62 5.365-2.771 7.92-.363.833-.698 1.721-1.333 2.388-.642.499-1.491.122-2.136-.172-1.174-.534-2.459-1.287-2.83-2.613.146-.67-.478-1.205-1.097-1.259-1.127-.167-2.261.564-3.368.134-.538-.21-.454-.911-.623-1.37-.08-.56-.678-.849-1.192-.673-.894.171-1.792.457-2.712.315-3.261-.176-6.449-.982-9.569-1.906-1.407-.448-2.827-.929-4.071-1.745-.374-.521-.568-1.363-1.317-1.448-1.364.039-2.721.449-4.091.217-.96-.097-2.12-.338-2.576-1.298-.387-.672.044-1.542.746-1.779.61-.301 1.179.217 1.799.165.805.043 1.648-.495 1.753-1.335.167-.74-.528-1.243-1.009-1.674-.628-.727-.533-1.839-.176-2.674.439-1.058 1.293-1.96 2.4-2.309.582-.177 1.179-.389 1.584-.873.416-.406.73-1.148.259-1.633-.65.023-1.224-.607-1.03-1.256.375-1.85.99-3.645 1.744-5.375.959-2.204 2.012-4.496 3.898-6.068.668-.596 1.505-.92 2.318-1.262.587-.276 1.277-.762 1.264-1.48-.154-.681-1.014-.837-1.605-.742-.617.145-1.047-.534-.84-1.078.174-.529.515-.987.814-1.453.465-.66 1.255-1.066 2.067-.992 1.668.026 3.229.693 4.787 1.215 1.966.738 3.897 1.563 5.83 2.383zm-87.5-2.9c-1.11 5.579-1.881 11.218-2.743 16.839l-2.062 12.395c-.583 4.485-.859 9.049-.287 13.549.16.835.267 1.781.91 2.401.767.562 1.74.154 2.549-.079 2.775-.964 5.414-2.274 8.107-3.441 4.102-1.745 8.243-3.4 12.402-5.003a246.2 246.2 0 0 1 10.359-3.716c.623-.216 1.3-.785 1.107-1.519-.296-1.164-1.232-1.994-2-2.861-2.314-2.321-4.914-4.357-7.044-6.861-2.017-2.207-3.804-4.612-5.472-7.089-3.428-4.671-7.22-9.071-11.253-13.227-.905-.885-1.8-1.81-2.872-2.494-.777-.332-1.375.534-1.702 1.106zm7.8 9c2.954 3.568 5.743 7.27 8.414 11.054 2.002 2.638 4.313 5.037 6.853 7.16.911.867 1.865 1.769 2.375 2.94.13.631-.563.939-1.007 1.203-1.754.992-3.631 1.759-5.522 2.451-1.781.618-3.581 1.207-5.431 1.581-.666.135-1.36.149-2.02-.019-.957-.019-1.599.803-2.231 1.401-.844 1.04-2.197 1.958-3.592 1.578-1.288-.473-2.61.272-3.578 1.083-1.265 1.061-2.379 2.461-4.043 2.897-.573.15-.985-.449-.976-.964-.038-1.071.465-2.106 1.121-2.927.45-.635 1.178-.972 1.699-1.523.602-.726.948-1.945.214-2.702-.672-.502-1.496.489-2.148-.066-.574-.572-.375-1.437-.42-2.162.048-.983.237-2.008.835-2.816.593-1.505.651-3.146.813-4.736.182-2.305.541-4.706 1.829-6.679.545-.689 1.327-1.42 1.184-2.384-.25-.707-.984-1.245-.963-2.066-.163-1.101.037-2.292.706-3.2.632-.254 1.465-.549 1.568-1.329.074-.528.085-1.133-.33-1.537-.331-.434-.917-.514-1.305-.844-.475-.606-.405-1.465-.187-2.156.316-.572 1.069-.279 1.478.021 1.751 1.375 3.196 3.077 4.662 4.74z"/></svg>
