

<svg
   viewBox="0 0 100 100"
   xmlns="http://www.w3.org/2000/svg">
  <g
     id="g1">
    <path
       style="fill:currentColor;stroke-width:0.961069;stroke-linecap:round;stroke-linejoin:round"
       d="M 15.962761,2.4449914 51.097604,36.413538 87.252971,1.7160558 97.45812,13.816434 62.323265,49.534433 98.91601,86.418733 86.086663,97.498595 50.951821,60.905877 13.921732,95.603356 1.8213475,84.81507 40.600889,49.388645 5.611829,12.504346 Z"
       id="path2" />
    <path
       style="fill:#000000;stroke-width:0.127141"
       d="m 85.417166,99.108319 c -2.058786,-0.560683 -3.833845,-1.917363 -5.044448,-3.658576 -1.484967,-1.941696 -2.775227,-4.03894 -4.477801,-5.807156 -1.522884,-1.849786 -3.010157,-3.736714 -4.755705,-5.386736 -2.689211,-2.691946 -5.73014,-4.997579 -8.47034,-7.633098 -2.502003,-2.45512 -4.742881,-5.158389 -7.224159,-7.634195 -1.150014,-1.196681 -2.287614,-2.407982 -3.337871,-3.694187 -0.293972,-1.012834 -1.563729,-1.269997 -2.023748,-0.238966 -1.046915,1.114685 -1.785061,2.535359 -3.11078,3.370907 -0.942762,0.632392 -1.894506,1.263329 -2.674484,2.098327 -1.148632,1.099849 -2.47535,1.98223 -3.829182,2.803355 -0.943424,0.736167 -1.781373,1.598377 -2.753772,2.299925 -1.340799,1.058233 -2.27902,2.527721 -3.652174,3.549752 -1.354273,0.988871 -2.370621,2.330317 -3.429569,3.610656 -0.950587,1.165865 -2.223729,1.998169 -3.214476,3.127345 -1.170372,1.273236 -2.502475,2.403687 -3.480817,3.843031 -0.735589,1.079881 -1.716945,1.945479 -2.77771,2.693815 -0.944948,0.661548 -1.738807,1.502465 -2.629321,2.227239 -1.159632,0.848005 -2.52799,1.340781 -3.716588,2.144538 -1.277008,0.784733 -2.936222,0.405292 -4.101689,-0.411779 C 7.4568108,94.494366 5.0295485,91.52926 2.1395426,89.147058 1.292702,88.373523 0.19988818,87.65657 0.03946628,86.419728 -0.24136612,84.653147 1.0295426,83.169901 2.1706735,81.988952 c 1.3283599,-1.323455 2.7317243,-2.57261 4.0188154,-3.938674 2.0978133,-2.035669 4.5580201,-3.635972 6.9883251,-5.235801 2.600968,-2.05385 4.053704,-5.121387 6.182119,-7.598285 2.934205,-3.664483 6.32759,-6.950013 10.035603,-9.825574 2.286839,-1.908836 4.292367,-4.118832 6.388569,-6.227572 C 33.924067,47.741342 32.501261,45.852525 30.778083,44.280364 29.627231,43.156386 28.658668,41.86903 27.743632,40.552811 25.61315,37.904393 22.864787,35.831797 20.758703,33.160199 19.520729,31.706193 17.902811,30.643394 16.678341,29.176806 15.51135,27.836257 14.346971,26.493082 13.102152,25.223776 11.705518,23.703692 10.459387,22.052997 9.2544297,20.381127 8.2173677,19.275066 6.974254,18.356135 6.1274424,17.079514 4.9651651,15.664057 3.5729854,14.093856 3.7181022,12.129494 3.7924792,10.629351 4.7087468,9.3428472 5.7822903,8.3613349 6.5395695,7.5467034 7.2988821,6.7396412 8.1995627,6.0812525 9.6586109,4.8802202 10.809536,3.3753533 12.062395,1.9759766 12.92389,1.0371288 14.112287,0.28485208 15.434061,0.38201808 c 1.005147,-0.0868032 2.066981,0.0580149 2.873382,0.70951422 2.328196,1.5927336 4.143094,3.7988399 5.892729,5.9817028 1.316164,1.6979292 2.577812,3.4631629 4.2227,4.8664939 3.135836,2.875331 6.519403,5.467392 9.623525,8.37874 2.138034,1.882012 4.115409,3.939291 5.922269,6.140723 1.581484,1.882943 3.257812,3.687574 5.093319,5.326039 0.588316,0.565549 1.173919,1.13877 1.831116,1.62533 0.829722,0.100404 1.224559,-0.86467 1.841087,-1.252418 1.229067,-1.189068 2.512978,-2.328254 3.725887,-3.52912 0.898687,-1.196216 1.903829,-2.30191 2.951426,-3.367752 1.448532,-1.587648 2.770635,-3.288448 4.327912,-4.775486 1.300598,-1.246005 2.361545,-2.72052 3.745415,-3.880151 0.821007,-0.67854 1.459405,-1.530854 2.164848,-2.316706 2.004738,-1.935754 4.002103,-3.879288 5.969126,-5.8540231 1.842865,-1.8434139 3.826946,-3.536625 5.821523,-5.2113758 1.526359,-1.2089203 3.159031,-2.33565232 4.974556,-3.05878212 0.950695,-0.3344661 2.013854,-0.14569507 2.824793,0.43959841 2.244513,1.33558101 4.112558,3.21703441 5.792756,5.19536501 0.84632,0.9955788 1.443134,2.1681152 2.21459,3.2131925 0.882348,1.0736121 2.212596,1.9858261 2.391526,3.4642071 0.04082,1.649401 -1.262247,2.886263 -2.384195,3.921208 -1.531265,1.341289 -3.211818,2.508276 -4.656853,3.948264 -1.224474,1.049923 -2.337377,2.232495 -3.205709,3.596497 -1.055332,1.460473 -2.332588,2.739475 -3.40644,4.186083 -0.893751,1.147035 -1.889097,2.215189 -3.007543,3.145194 -1.180988,1.177215 -2.318572,2.401295 -3.591006,3.481599 -1.460633,1.479616 -2.776668,3.099551 -4.327239,4.489962 -2.862836,2.876292 -5.724773,5.753741 -8.625827,8.591621 -0.445864,0.774941 0.610379,1.324592 0.925904,1.928518 1.21426,1.433266 2.455389,2.848791 3.514548,4.402907 0.979866,1.185036 1.944221,2.386518 2.954639,3.543902 1.069342,1.043236 2.260218,1.971765 3.151479,3.184335 0.986956,1.037303 2.182935,1.846193 3.18959,2.864416 1.165007,0.983178 2.350499,1.965734 3.234148,3.222801 1.638477,1.934369 3.758514,3.370643 5.518265,5.185141 1.897636,1.833434 3.64068,3.815963 5.370022,5.805635 0.864765,0.871255 1.825862,1.648564 2.572928,2.633206 0.933459,1.139231 2.051174,2.181565 2.567132,3.598903 0.51755,1.313915 0.749541,2.803251 0.402989,4.186577 -0.491222,1.244804 -1.616204,2.062062 -2.453086,3.060947 -1.124757,1.171539 -2.495639,2.111045 -3.410737,3.473341 -1.161235,1.652989 -2.960155,2.739583 -4.873408,3.30771 -1.110515,0.426339 -2.224701,1.240882 -3.479065,0.915632 -0.06807,-0.01049 -0.13457,-0.02902 -0.201916,-0.04316 z m 1.295925,-5.03003 c 1.081248,-0.547481 2.507717,-0.554082 3.260757,-1.633055 0.819121,-0.986261 1.508064,-2.108911 2.578793,-2.852859 0.948991,-0.856955 1.84603,-1.770894 2.69279,-2.728859 0.176561,-0.888427 -0.640847,-1.533416 -1.057392,-2.222342 -1.633273,-2.036428 -3.705667,-3.675844 -5.27942,-5.764598 -2.174818,-2.506536 -4.666374,-4.706444 -7.143691,-6.903937 -1.070078,-0.987871 -2.017346,-2.100855 -2.973584,-3.191728 -0.584755,-0.437276 -1.546348,-1.97884 -2.178788,-0.936727 -0.647653,0.921519 -1.854343,0.122148 -1.841948,-0.822279 -0.07356,-0.839022 0.277465,-1.93967 -0.712905,-2.382473 -0.819335,-0.526073 -1.190297,1.122058 -2.133442,0.441343 -0.850741,-0.755231 -0.575367,-2.09147 -0.676291,-3.118751 -0.436575,-0.786274 -1.308766,-1.422189 -1.84042,-2.216267 -0.866022,-1.164434 -1.913815,-2.177626 -2.776604,-3.343049 -0.635306,0.468382 -1.69741,0.863436 -2.052993,-0.149306 -0.56206,-1.062236 0.133016,-2.41985 -0.71821,-3.373494 -0.449731,-0.814132 -1.19799,-1.638616 -2.195768,-1.182374 -1.4538,0.272056 -2.892701,-1.253452 -2.453818,-2.688614 0.432744,-1.134876 1.501065,-1.840348 2.260416,-2.743586 3.464982,-3.563059 7.057187,-7.001558 10.494069,-10.591475 1.190269,-1.003938 2.216425,-2.174016 3.26369,-3.319605 2.372951,-2.480451 5.036191,-4.680119 7.261061,-7.30114 1.330089,-1.713045 2.796715,-3.318062 4.04504,-5.094574 1.982723,-2.518422 4.489522,-4.55044 7.005886,-6.508325 1.094413,-0.496178 0.05515,-1.59074 -0.40223,-2.145922 C 92.188569,9.8002709 91.228595,8.2786326 89.906137,7.0679536 89.14159,6.2929875 88.320765,5.5630174 87.392418,4.9886896 c -0.79358,0.026609 -1.311195,0.7490961 -1.972377,1.0975654 -1.013547,0.7374012 -2.024285,1.4940145 -2.885744,2.4100101 -0.103589,0.9585438 -0.693784,1.9418249 -1.779123,1.6559709 -0.903255,0.393118 -1.294652,1.419122 -2.134905,1.921272 -1.055004,0.624165 -0.193545,1.8446 -0.497954,2.770772 -0.214302,1.181715 -1.552274,0.827219 -2.105505,0.141364 -0.811744,0.03993 -1.248401,1.108698 -1.943899,1.528164 -0.904051,0.77625 -1.64334,1.709209 -2.398864,2.621438 -0.965932,0.951939 -2.078902,1.752349 -2.923181,2.826019 -1.030751,1.177446 -2.119802,2.302978 -3.240326,3.392553 -1.300265,1.492231 -2.547177,3.035823 -3.964103,4.420281 -0.662386,0.861284 0.769126,1.70281 0.262311,2.676522 -0.38103,1.113412 -1.596457,0.50192 -2.132393,-0.09788 -0.703997,0.03502 -1.086003,0.876693 -1.674775,1.227791 -0.461764,0.453421 -1.102647,0.862231 -1.341882,1.455379 0.0951,0.677516 -0.244939,1.58801 -1.06811,1.4969 -0.958308,-0.06889 -1.618284,0.691044 -2.257266,1.282859 -0.653254,0.651392 -1.324435,1.518883 -2.351467,1.458395 -0.92369,0.02949 -1.725059,-0.548827 -2.23082,-1.278806 -2.09893,-2.243077 -4.534605,-4.147593 -6.566291,-6.456337 -0.349815,-1.066287 -1.467532,0.01093 -2.087529,-0.440878 -0.85762,-0.736495 -0.683076,-2.011421 -1.137443,-2.966148 -0.665786,-1.44085 -1.993475,-2.410334 -3.101403,-3.497185 -0.454619,-0.672166 -1.201855,-1.128134 -1.742509,-0.24681 -1.029518,0.597964 -1.738042,-0.847708 -1.588516,-1.724975 0.342076,-1.164336 -0.859829,-1.715749 -1.556639,-2.37155 -0.860878,-0.462215 -1.560201,-1.82804 -2.533958,-1.664903 -0.667408,0.632696 -1.684682,0.189486 -1.905569,-0.643788 -0.161147,-0.991924 -0.2458,-2.075884 -1.257576,-2.615274 -0.372711,-0.303384 -1.272197,-1.342318 -0.978489,-0.209668 0.04831,0.700039 0.431117,1.554945 -0.126249,2.146593 -0.82282,0.87565 -1.963628,-0.198467 -1.898548,-1.156006 -0.08508,-0.92946 -0.13988,-1.938077 -0.931121,-2.554472 -0.481955,-1.009336 0.398006,-2.236051 -0.384603,-3.15439 -1.450615,-1.8691021 -2.983968,-3.701263 -4.831688,-5.1945034 -1.000699,-0.3688799 -1.32952,0.9999343 -2.013396,1.4346385 -0.705752,0.8333572 0.659329,1.5231956 0.289381,2.3857542 -0.361594,1.2168577 -1.586903,0.5945045 -2.191064,-0.01558 -0.988867,-0.048208 -0.718035,1.4776937 -0.18373,1.9385177 0.555906,0.72992 1.500771,1.520873 1.204208,2.540037 -0.591717,1.172307 -1.946744,0.246012 -2.378332,-0.554911 -0.64955,-0.35916 -0.993555,-2.101881 -1.8157523,-1.270595 -0.9269223,0.635288 -0.145965,1.529476 0.4135775,2.07626 0.7807568,1.024041 1.6209898,2.014514 2.6735048,2.769759 1.279486,1.211067 2.016751,2.859909 3.224947,4.135569 1.699341,1.993734 3.557228,3.847232 5.229303,5.864581 1.275714,1.31619 2.842212,2.341297 3.935936,3.834161 2.447561,2.891798 5.509983,5.2231 7.708211,8.332797 1.116566,1.681733 2.569464,3.089419 4.033911,4.463867 1.039017,1.064916 2.080797,2.134192 3.293383,3.006996 0.785799,0.731301 2.155887,0.968826 2.396058,2.166669 0.30189,1.108349 -0.294565,2.232167 -1.186564,2.874857 -0.972919,0.892778 -2.065111,1.645942 -3.021851,2.557171 0.178388,0.998352 -0.158556,2.024376 0.08265,2.996785 0.309734,1.085038 -1.131744,2.017698 -1.816731,0.998523 -0.359694,-0.63784 -0.50409,-1.964583 -1.27226,-0.88855 -3.0438,2.832741 -6.510276,5.212723 -9.263695,8.354164 -0.692288,0.954149 0.814422,2.193695 -0.191191,3.046616 -0.747965,0.708149 -1.403811,-0.542727 -2.029975,-0.358316 -0.156245,0.782541 0.282027,1.589828 0.141976,2.39692 0.134059,0.939656 -1.100035,1.716753 -1.741569,0.93996 -0.180683,-0.609256 -0.746369,-0.724012 -0.948966,-0.03537 -1.293093,1.828779 -2.721651,3.590619 -4.414906,5.065142 -1.48425,1.264819 -3.298097,2.05924 -4.7802,3.330365 -2.109514,1.62552 -3.8614696,3.643223 -5.8221281,5.432018 -0.3877626,0.290881 -0.7477639,0.567694 -0.1199087,0.83319 2.4497214,2.062245 4.5341398,4.568982 7.2401518,6.319836 0.866453,0.102296 1.55124,-0.586803 2.307264,-0.894731 1.350809,-0.80814 2.350792,-2.070603 3.680602,-2.903551 1.46304,-1.229591 2.359723,-2.984707 3.788555,-4.254161 1.362578,-1.179592 2.380654,-2.722621 3.864684,-3.769943 1.419106,-1.361131 2.445458,-3.097493 4.022529,-4.303732 0.964873,-0.752816 1.866981,-1.584493 2.612991,-2.557764 1.327144,-1.404948 2.965182,-2.464078 4.370189,-3.783318 1.295347,-0.942136 2.789612,-1.626105 3.884821,-2.826593 0.872102,-0.862225 1.805815,-1.671659 2.873818,-2.280529 1.059135,-0.857566 1.691286,-2.116182 2.736633,-2.992311 1.008053,-0.955727 2.011408,-1.922344 3.070718,-2.819655 0.934247,-0.759214 2.305594,-0.549435 3.066944,0.349885 1.766028,1.768737 3.065838,3.946768 4.88157,5.674252 1.93378,1.969619 3.856428,3.953427 5.633371,6.067041 3.732442,4.091327 8.336542,7.262557 12.088229,11.333993 1.865185,1.920908 3.450407,4.083664 5.241682,6.069295 1.649263,1.835811 2.634057,4.234168 4.594919,5.791798 0.355238,0.229217 0.864549,0.249309 1.194686,-0.03848 z"
       id="path1" />
  </g>
</svg>
