<svg
   viewBox="0 0 100 100"
   xmlns="http://www.w3.org/2000/svg">
  <g
     id="g1"
     transform="matrix(0.10902445,0,0,0.10902445,-54.67894,-4.8718795)">
    <path
       style="fill:currentColor;fill-opacity:1;stroke:none;stroke-width:7.55906;stroke-linecap:round;stroke-linejoin:round"
       d="m 553.29506,203.90356 59.5178,-8.81745 242.47991,12.12399 231.45813,-17.6349 289.8737,2.20436 23.1458,105.80942 -26.4524,27.55453 -839.8622,-25.35017 -3.30655,-55.10907 z"
       id="path2" />
    <path
       style="fill:currentColor;fill-opacity:1;stroke:none;stroke-width:7.55906;stroke-linecap:round;stroke-linejoin:round"
       d="m 537.86452,450.79219 274.44317,-4.40872 158.71412,8.81745 217.12979,-14.32836 h 184.0642 l 13.2262,126.75086 -436.46381,-7.71527 -143.28359,1.10218 -127.85304,-8.81745 -96.99196,3.30655 -58.41562,-12.124 -4.40872,-29.7589 z"
       id="path3" />
    <path
       style="fill:currentColor;fill-opacity:1;stroke:none;stroke-width:7.55906;stroke-linecap:round;stroke-linejoin:round"
       d="m 558.80597,705.3961 385.76349,-6.61309 202.80134,-15.43054 241.3778,18.73708 5.5109,106.9116 -45.1895,18.73708 -327.3478,4.40873 -249.09304,-16.53272 -198.39265,-4.40873 -54.00689,-24.24799 4.40873,-56.21125 z"
       id="path4" />
    <path
       style="fill:#000"
       d="m 1054,846.96629 c -41.4219,-1.18611 -82.85702,-2.44965 -124.20876,-5.22249 -12.35147,-0.91539 -24.73963,-1.78781 -36.9555,-3.90128 -16.19782,-1.45616 -32.48308,-1.23053 -48.71448,-2.07677 -6.52719,-0.24099 -13.03213,-0.81579 -19.53118,-1.44446 -13.47627,-1.1565 -26.99681,-1.80818 -40.43405,-3.40166 -7.2297,-0.93192 -14.4834,-1.83926 -21.78765,-1.79702 -8.10441,-0.0347 -16.20066,0.48933 -24.30662,0.35897 -12.0067,0.0244 -24.00128,-0.53486 -35.9959,-0.99149 -20.11581,-0.6108 -40.27338,-0.95487 -60.37452,0.24699 -8.06012,0.46569 -16.03524,1.86553 -24.10793,2.18437 -17.83984,0.90406 -35.79518,0.20307 -53.46071,-2.50336 -7.55982,-1.18207 -15.06675,-2.88843 -22.20485,-5.68626 -9.55605,-3.55092 -19.69827,-6.13454 -28.10978,-12.13253 -4.67402,-3.26836 -8.32614,-8.18909 -9.33324,-13.87581 -0.93314,-5.01057 -0.38302,-10.13662 -0.45323,-15.19789 0.27241,-12.98858 0.19363,-26.01603 1.57886,-38.94862 0.72758,-6.72404 2.29893,-13.41546 5.42191,-19.45425 3.47688,-7.07395 7.20458,-14.06895 11.76668,-20.51017 4.15405,-5.02726 9.59784,-8.78343 15.05598,-12.26159 4.72604,-2.99057 9.79321,-5.39421 15.03163,-7.33733 1.28942,-0.44591 2.53551,-1.12206 3.85152,-1.4267 39.89051,0.0957 79.78058,0.31722 119.6697,0.66556 28.5458,0.18813 57.09441,0.67379 85.64042,0.28338 5.86021,-0.0808 11.72123,-0.30841 17.54767,-0.96456 19.76978,-1.46227 39.60664,-1.35543 59.41403,-1.81273 10.90027,-0.17053 21.79367,0.48983 32.69256,0.36445 6.82893,-0.0559 13.63016,-0.70431 20.40149,-1.54292 5.80784,-0.65838 11.67164,-0.45792 17.46316,0.25578 4.14828,0.3257 8.37536,0.56935 12.45877,-0.39783 10.73498,-1.38897 21.5633,-1.91378 32.37184,-2.36381 8.92123,-0.43703 17.9939,0.45635 26.76056,-1.6746 9.00851,-2.44466 18.52638,-3.34724 27.78732,-1.95162 3.3477,0.74739 6.7889,1.33967 10.2239,0.84679 5.9565,-0.96628 12.0202,-0.78172 18.0346,-0.93229 13.8355,-0.22448 27.6788,0.51546 41.5086,-0.0767 3.0574,-0.1 6.0706,-0.63226 9.034,-1.35797 7.9207,-1.14777 15.9515,-1.12879 23.9358,-1.37519 13.0745,-0.2517 26.1709,-0.35311 39.2089,-1.44777 8.6968,-1.29183 17.5162,-0.93947 26.2764,-0.91351 6.5437,-0.0549 13.0822,-0.49923 19.5642,-1.39784 10.785,-0.9555 21.6728,-0.59344 32.4155,0.68785 4.6736,0.57935 9.2544,1.77882 13.9708,2.03547 7.3224,0.71267 14.6985,0.26401 22.0182,1.03036 6.9102,0.47687 13.643,2.45288 20.5914,2.52484 5.7798,0.36802 11.3278,2.27024 17.113,2.58522 16.5738,1.16805 33.2088,0.48751 49.799,1.22267 4.2386,0.13658 8.4566,0.83822 12.4403,2.31546 5.1784,1.59043 10.525,2.5097 15.8712,3.31126 5.7901,0.98415 11.173,3.79672 15.425,7.82782 5.8252,5.1744 10.547,11.80595 12.5156,19.41919 2.3162,8.37118 1.8159,17.14005 1.368,25.71318 -0.2845,4.67347 0.1946,9.37696 1.5214,13.87159 1.6765,5.97079 3.4382,12.01041 3.4994,18.26521 0.1012,7.22782 0.2631,14.50309 -0.6991,21.68483 -1.0544,6.53262 -2.7938,12.94403 -4.7729,19.25219 -1.7713,5.64347 -4.7433,10.90129 -8.8353,15.18948 -6.3676,6.94708 -13.789,13.3598 -22.8645,16.39249 -9.834,3.42118 -20.3721,3.31611 -30.6503,3.49976 -7.3642,0.19056 -14.7164,0.69194 -22.0418,1.45745 -16.4651,1.07807 -32.9732,1.29981 -49.468,1.49815 -9.775,0.0149 -19.5666,0.19799 -29.3272,-0.4296 -8.387,-1.21698 -16.8878,-0.4896 -25.309,-0.0863 -10.461,0.64048 -20.9458,1.27159 -31.4298,0.97216 -6.7751,-0.58007 -13.5827,-0.18504 -20.3427,0.38886 -17.8785,0.89119 -35.7819,0.17685 -53.6712,0.46059 -11.8719,0.0814 -23.7377,0.59219 -35.6116,0.45521 -8.7501,-0.0315 -17.5003,-0.14081 -26.2475,-0.37261 z m 76.5,-36.66071 c 26.0595,-0.24143 52.1144,-0.8033 78.1695,-1.31208 19.4077,-0.35747 38.8194,-0.24442 58.2284,-0.10793 21.9564,-0.27275 43.8958,-1.26998 65.8365,-2.08751 9.4154,-0.45515 18.8518,-0.58177 28.25,-1.33534 2.9861,-0.19129 5.8997,-1.16654 8.2738,-3.019 2.8981,-1.818 5.0985,-4.63497 6.1355,-7.89797 2.4801,-7.59538 3.9331,-15.65382 3.1703,-23.65719 -0.6442,-8.41125 -3.1199,-16.51537 -4.7378,-24.75686 -1.6724,-8.55502 0.4017,-17.2451 -0.2471,-25.8503 0.1262,-2.37945 -2.4619,-2.66238 -4.2134,-3.01533 -4.1221,-0.73371 -8.3456,-0.91506 -12.3717,-2.15706 -2.9406,-0.7547 -5.6227,-2.42029 -8.7159,-2.56475 -7.528,-0.58798 -15.0898,-0.216 -22.6316,-0.19483 -8.6993,0.0308 -17.4369,0.29687 -26.1,-0.65467 -6.2546,-1.19637 -12.541,-2.25078 -18.8699,-2.98497 -5.2712,-0.63672 -10.4924,-1.62692 -15.7533,-2.32 -5.8678,-0.63415 -11.7737,-0.52907 -17.6642,-0.50753 -5.2648,-0.0668 -10.5094,-0.71471 -15.6413,-1.88405 -11.0388,-1.89915 -22.3289,-2.2421 -33.4887,-1.40614 -7.0267,0.45251 -13.8987,2.78309 -20.9935,2.14189 -6.5037,-0.55836 -13.1015,-1.78891 -19.6014,-0.47904 -9.7413,1.13322 -19.5638,1.34233 -29.3578,1.65108 -7.6824,0.25586 -15.3683,0.0739 -23.0516,0.12849 -5.3792,0.0462 -10.7009,0.96819 -15.8899,2.33959 -7.4728,1.64727 -15.1836,1.11645 -22.7747,1.12363 -11.9663,-0.14026 -23.9325,-0.62131 -35.9003,-0.43702 -5.3812,-0.0224 -10.6198,1.66641 -16.003,1.47007 -6.3195,-1.12301 -12.7542,-2.55737 -19.19917,-1.78795 -2.07495,0.47559 -4.44387,0.75756 -6.09722,2.19038 -0.87244,1.74974 0.0555,3.74539 0.28096,5.56297 0.91285,2.76451 -0.97168,5.31653 -2.84004,7.15639 -2.08978,2.23905 -5.388,1.76645 -8.15115,1.84322 -3.14528,0.0622 -6.47814,-0.69267 -8.73477,-3.02685 -3.08829,-3.05764 -5.31194,-6.83003 -7.8268,-10.34568 -11.74157,0.49818 -23.55339,0.67782 -35.14073,2.83338 -11.68629,1.59906 -23.50385,0.42822 -35.24595,0.90106 -7.16855,0.0719 -14.29955,0.80919 -21.43378,1.43193 -0.49754,2.54924 -0.72503,5.31705 -2.60069,7.31249 -1.80315,2.11649 -4.80325,4.17668 -7.67401,3.04858 -2.9307,-1.0973 -5.05441,-3.45075 -7.39355,-5.41716 -1.42855,1.83572 -2.69255,4.10387 -5.15169,4.66299 -3.77041,1.08702 -7.73151,-1.06793 -9.76464,-4.23509 -1.61966,-1.45979 -1.36254,-3.97253 -3.23739,-5.17482 -1.69148,-1.6413 -3.88459,-0.5498 -5.88632,-0.52131 -14.16217,0.83836 -28.36023,0.49126 -42.53117,1.10766 -6.82986,0.15778 -13.62994,0.80541 -20.42879,1.42705 -0.4947,3.29846 -0.38481,6.78613 -1.89471,9.83608 -1.49132,2.67299 -4.98288,3.69044 -7.85442,3.19853 -4.05776,-0.97096 -6.27466,-5.08589 -7.06943,-8.88545 -0.30629,-1.21639 -0.61258,-2.43277 -0.91887,-3.64916 -17.95187,-0.27963 -35.90932,-0.41441 -53.84735,-1.23463 -8.18882,-0.31706 -16.39148,-0.87224 -24.58615,-0.50206 -2.23698,0.0298 -3.57932,2.15173 -3.75321,4.18404 -0.80577,3.87217 -4.2455,7.38479 -8.31072,7.55265 -2.76988,-0.32071 -4.7931,-2.55858 -6.70512,-4.39373 -1.66268,-1.60776 -2.9453,-3.56858 -4.59243,-5.17629 -2.48937,-1.53824 -5.58203,-1.37102 -8.39284,-1.72817 -10.39712,-0.79131 -20.83866,-0.66865 -31.25691,-0.5113 -9.12103,0.1967 -18.26356,0.31417 -27.36961,-0.32944 -6.97016,-0.86721 -14.42351,-0.63506 -20.71028,2.84063 -3.51694,1.80859 -6.79376,4.31253 -8.70426,7.85133 -2.46584,4.34862 -4.76256,8.82065 -6.5714,13.4852 -0.93859,2.37567 -1.2481,5.37015 0.66301,7.37741 1.97852,2.23292 4.63952,3.91004 5.91135,6.71672 1.72725,3.11733 1.79302,7.6426 -1.21495,10.01367 -1.53342,1.48288 -3.85384,1.25627 -5.56276,2.31719 -1.19559,1.7128 -0.73639,3.98542 -0.93427,5.96512 -0.0465,2.49422 -0.19913,4.9938 -0.21009,7.48383 1.23563,1.91496 3.62925,2.63404 5.57725,3.62604 8.28641,3.45343 17.04073,5.788 25.91852,7.08946 14.0209,1.80951 28.20834,1.89631 42.31658,1.36826 8.13505,-0.27772 16.22907,-1.15205 24.32326,-1.95877 15.65011,-1.36321 31.37235,-0.49632 47.05015,-0.2616 22.58458,0.45448 45.17335,0.63401 67.76168,0.7638 9.23083,0.17791 18.49214,0.14635 27.68245,1.12718 10.9004,1.81354 21.95093,2.46333 32.96063,3.25921 17.35683,1.17766 34.744,1.78742 52.12446,2.48554 10.00002,0.52939 20.02256,0.94501 29.97084,2.13495 18.2355,2.3799 36.59352,3.66241 54.93377,4.92356 16.20107,0.98704 32.41789,2.01726 48.65533,2.02492 4.4882,-0.0834 8.9737,-0.50307 13.4647,-0.19437 5.4947,0.19812 10.9164,1.21781 16.4116,1.4234 18.3985,1.04055 36.8266,1.57439 55.2536,1.70173 4.4296,0.0382 8.8588,-0.0737 13.2727,-0.44834 10.3965,-0.42815 20.8041,-0.55306 31.2079,-0.67156 z m 233.2451,-224.89385 c -5.742,-0.44794 -11.5204,-0.38623 -17.2782,-0.55542 -27.8777,-0.45077 -55.7597,-0.81559 -83.6415,-0.70896 -12.46,0.34905 -24.928,0.26737 -37.3874,-0.077 -14.1695,-0.37813 -28.338,-1.00406 -42.46,-2.24698 -27.0075,-1.53301 -54.0581,-2.07751 -81.0954,-2.8129 -22.4214,-0.61981 -44.8454,0.25901 -67.2639,0.57261 -43.84594,0.71439 -87.69496,1.31396 -131.54636,1.54209 -13.05999,0.10892 -26.07147,-1.23731 -39.06941,-2.34144 -8.20799,-0.67618 -16.38793,-1.69448 -24.60897,-2.19896 -10.38657,-0.58343 -20.7914,-0.53906 -31.18894,-0.68749 -17.43418,-0.45085 -34.86567,-1.2408 -52.2533,-2.60712 -2.80539,-0.26322 -5.65221,-0.42045 -8.36067,-1.21723 -8.61744,-0.97829 -17.30096,-1.1956 -25.95883,-1.60972 -22.10035,-0.80612 -44.21778,-1.54978 -66.33551,-1.17604 -12.70104,0.28634 -25.44048,0.63445 -38.04432,2.34265 -3.7475,0.49925 -7.36709,1.70505 -11.15648,1.93414 -9.84549,0.89834 -19.74721,1.08952 -29.62891,0.98297 -9.86314,-0.21332 -19.60659,-1.98664 -29.26755,-3.85013 -10.34833,-2.20053 -20.90182,-4.99384 -29.68197,-11.14653 -6.23031,-4.3133 -10.75336,-10.66452 -13.78961,-17.53487 -1.76547,-3.34359 -2.19744,-7.15863 -2.17125,-10.88646 -0.10022,-9.34649 -0.0324,-18.8013 2.09971,-27.95185 1.56175,-9.08166 2.00577,-18.29675 2.70435,-27.47022 0.76509,-8.44794 2.25969,-17.29229 7.43428,-24.27136 3.65094,-4.85714 8.15213,-9.12761 13.29608,-12.37462 8.37011,-5.12138 18.34462,-6.35678 27.93413,-7.20779 16.93796,-1.30613 33.94396,-1.09174 50.91833,-1.24034 29.17335,-0.0223 58.35215,0.0152 87.5178,0.75141 7.39465,0.25288 14.77975,0.80536 22.18388,0.74247 28.38989,0.0522 56.77381,-0.70997 85.16242,-0.83797 9.31921,0.0512 18.6554,-0.0677 27.95756,0.57587 6.73904,0.83477 13.55789,0.51958 20.27749,-0.33127 5.96659,-0.69435 11.9394,0.23105 17.81357,1.22368 12.52689,1.68267 25.19092,1.861 37.80713,2.22701 18.08014,0.49029 36.17779,0.27889 54.24814,1.11403 1.94286,-10e-4 3.82164,0.68015 5.76371,0.28688 4.32474,-0.52117 8.55193,-1.70204 12.9178,-1.92811 8.69514,-0.85781 17.5339,0.43504 26.1461,-1.33481 5.5075,-1.3918 11.2575,-0.94315 16.8759,-0.76341 12.6547,0.42503 25.3142,-0.0374 37.9645,-0.38147 7.0472,-0.0866 14.1189,-0.25338 21.1367,0.50504 8.809,0.46418 16.8544,-4.32764 25.6253,-4.33684 7.2231,-0.0358 14.4883,1.0387 21.6832,-0.0395 5.7968,-1.14811 11.7324,-1.37409 17.62,-1.71125 4.8424,-0.29553 9.7195,-0.53588 14.4848,-1.4942 3.9492,-0.97767 8.0643,-1.02581 12.1017,-1.3971 10.8153,-0.68179 21.6515,-0.9735 32.4665,-1.67033 11.1534,-0.67648 22.2947,-1.60177 33.4699,-1.8589 12.1205,-0.29528 24.2795,-0.49248 36.3701,0.56841 3.7141,0.364 7.3347,1.34686 11.0616,1.63501 14.696,1.56506 29.4563,2.52067 44.225,3.04448 6.3984,0.24493 12.9188,0.26958 19.1072,-1.60978 3.9153,-1.29761 7.9108,-2.6742 12.0999,-2.49982 7.7488,-0.005 15.7962,1.81856 21.9363,6.76664 6.0528,4.8059 9.9634,11.80995 12.4248,19.03056 2.3719,7.75337 2.2795,15.96527 2.4644,23.99263 0.1817,12.98834 -0.404,25.98813 0.2268,38.96852 0.3131,7.52359 2.5693,14.77799 3.2089,22.26402 0.9729,9.94123 1.324,20.02881 -0.049,29.94958 -0.8218,7.07469 -5.1156,13.449 -10.974,17.39013 -6.5197,4.45761 -14.5142,6.29531 -22.3208,6.52444 -1.0639,-0.0564 -2.2787,0.0485 -3.2042,-0.567 z M 1351.7504,548 c 4.1495,0 8.2991,0 12.4486,0 -0.3538,-6.88733 -0.6349,-13.79065 -1.7099,-20.61408 -0.7235,-5.0232 -1.9391,-9.98263 -2.086,-15.078 -0.7324,-15.47904 0.2056,-30.97793 -0.1936,-46.46231 -0.2169,-2.49357 -0.01,-5.24895 -1.3637,-7.45549 -1.7498,-1.56723 -4.0466,0.36318 -5.8511,0.92179 -8.7342,3.59184 -18.4636,3.92442 -27.7143,2.58934 -12.1001,-1.25546 -24.261,-1.70981 -36.3927,-2.53781 -7.7593,-0.61279 -15.5449,-1.26272 -23.1643,-2.91768 -7.9364,-1.33628 -16.0171,-0.59322 -24.0106,-0.38223 -12.1766,0.50865 -24.347,1.26552 -36.4698,2.52881 -8.965,0.76768 -17.9632,0.93178 -26.9536,1.12573 -5.0802,0.18731 -10.1948,0.60488 -15.084,2.08082 -6.3499,1.38187 -12.8751,1.03642 -19.3198,1.3667 -4.9647,0.26132 -9.9045,0.88645 -14.7691,1.90998 -6.2626,1.12317 -12.6286,0.43875 -18.9293,0.16727 -4.6331,-0.24048 -9.2034,0.74837 -13.6149,2.07139 -6.0774,1.54949 -12.4073,1.34828 -18.6288,1.59273 -20.1881,0.42013 -40.3832,0.3569 -60.5719,0.69062 -5.5487,0.18425 -11.1118,0.46355 -16.5873,1.42257 -4.48826,0.55007 -8.99147,0.0179 -13.47108,-0.30094 -4.12118,-0.25245 -8.18895,0.50331 -12.22364,1.21876 -12.75387,1.39975 -25.60211,0.41788 -38.39681,0.83784 -1.71588,0.21228 -3.79917,-0.21241 -5.28142,0.57537 -0.0564,2.52285 1.96638,4.50711 2.23862,6.98537 0.9246,4.07124 -1.05182,8.98071 -5.22238,10.32107 -2.07956,0.64291 -4.58437,0.55646 -6.41587,-0.67352 -3.7401,-3.99906 -6.76745,-8.61032 -9.75545,-13.18209 -1.14708,-1.62046 -1.74005,-3.9928 -4.00456,-4.38488 -4.84174,-1.28136 -9.91411,-1.15874 -14.88299,-1.35446 -8.46321,-0.18012 -16.98137,0.13586 -25.38862,-1.02851 -4.31184,-0.76912 -8.72563,-0.71816 -13.0892,-0.97492 -17.69246,-0.66369 -35.39963,-0.69739 -53.10041,-0.98592 -1.04874,-0.34312 -0.77414,0.6551 -0.79049,1.35841 0.10401,2.50839 -0.13415,5.24229 -2.02602,7.10805 -2.33339,2.45468 -6.25659,3.09885 -9.36213,1.9014 -3.13091,-1.78323 -5.00927,-5.03888 -7.56302,-7.4847 -1.35121,-1.12583 -2.81728,-3.33402 -4.78508,-2.75746 -1.23236,1.66215 -0.38063,3.91359 -0.37698,5.81184 0.30774,2.07984 -0.65837,4.07473 -2.21983,5.41311 -1.88338,2.08763 -4.97826,3.1144 -7.65168,2.00853 -4.92347,-1.97563 -8.19075,-6.36321 -11.61674,-10.21136 -0.63284,-0.72599 -1.26568,-1.45198 -1.89852,-2.17797 -33.43963,-0.42943 -66.88527,-0.60751 -100.315,-1.58429 -5.61317,-0.22424 -11.22526,-0.47536 -16.83797,-0.7109 -1.20218,2.80339 -2.11993,6.11233 -5.03196,7.62849 -3.37179,1.83876 -7.43186,0.0952 -9.99819,-2.33902 -1.83996,-1.75248 -3.51896,-3.78771 -5.82342,-4.95387 -2.41811,0.008 -4.13429,2.27582 -6.08982,3.45749 -2.7433,1.93991 -6.51055,1.62004 -9.20826,-0.23238 -2.55555,-1.82137 -5.54623,-3.7066 -8.81808,-3.27448 -2.17606,0.90314 0.14566,3.35405 0.29546,4.95313 1.1323,3.71917 2.54941,7.38691 3.17748,11.23493 0.20377,2.75852 -1.71103,5.24925 -3.7928,6.85283 -3.14973,2.43377 -8.01048,1.61209 -10.38739,-1.50485 -2.9315,-3.74116 -3.29433,-8.71432 -5.77208,-12.70264 -1.50198,-2.81457 -3.54561,-5.27533 -5.39797,-7.85724 -5.66667,0.16322 -11.33333,0.32643 -17,0.48963 0.18762,3.42835 0.7254,7.04343 -0.93325,10.2307 -0.9479,2.1105 -2.89731,3.79293 -5.24496,4.0396 -1.92774,0.26646 -4.433,1.12245 -4.2596,3.5134 -0.10979,3.52828 -0.41877,7.55764 2.05482,10.42975 2.86004,3.35085 4.56953,8.1981 3.17269,12.52605 -1.31166,2.82234 -4.35544,4.14019 -6.96919,5.48685 -2.23583,1.24142 -1.87408,4.10824 -2.08006,6.27571 -0.0727,2.7974 -0.35576,5.75908 0.71155,8.40944 1.48667,1.6031 3.78136,2.09402 5.75957,2.85826 8.25957,2.55491 16.80232,4.2208 25.40941,5.02418 10.13637,0.80366 20.36663,1.03392 30.49231,-0.0321 3.67907,-0.41789 7.21291,-1.63 10.90694,-1.97904 14.3096,-1.78879 28.73879,-2.40613 43.14747,-2.71764 18.22351,-0.25781 36.44484,0.40641 54.65681,0.97218 14.02963,0.54792 28.07453,0.95911 42.07235,2.09159 6.43749,0.90658 12.90689,1.58702 19.39471,2.02654 17.70516,1.29037 35.45712,1.77127 53.20446,1.97195 18.03049,0.3265 36.05567,1.4517 53.94209,3.79105 11.23867,1.12552 22.55443,0.84496 33.83239,0.88144 61.59943,-0.40774 123.19349,-1.88979 184.79699,-1.51478 25.2104,0.17366 50.4071,1.09097 75.6117,1.59221 8.8399,0.24329 17.6732,0.7876 26.4657,1.73074 15.0209,0.84311 30.0716,0.9432 45.111,1.18308 25.7598,0.32121 51.5276,0.28616 77.2795,1.06978 2.0436,-0.0707 3.9751,0.65285 6.0225,0.49 5.1469,-0.18017 10.2811,-0.67041 15.4352,-0.72013 3.0851,-0.0802 6.1712,-0.12965 9.2573,-0.13081 z M 1231.5,339.84993 c -9.777,-1.19295 -19.6339,-0.21545 -29.4472,-0.35947 -24.209,-0.0687 -48.3932,-1.2958 -72.5928,-1.83422 -9.8461,-0.20335 -19.7258,-0.47498 -29.4803,-1.92595 -12.8125,-1.1854 -25.6909,-0.58782 -38.5359,-0.86775 -23.5645,-0.3004 -47.1207,-1.03071 -70.68263,-1.47262 -15.96953,-0.3722 -31.94255,-0.59259 -47.91157,-0.97318 -19.30635,-0.70275 -38.60606,-1.69318 -57.87,-3.16202 -12.55401,-1.21546 -25.18084,-1.11342 -37.77791,-1.14561 -3.44695,-0.0965 -6.9353,0.0135 -10.32443,-0.66787 -13.57424,-1.11095 -27.19057,-1.61267 -40.79011,-2.31663 -39.25866,-1.79717 -78.52191,-3.5321 -117.80072,-4.82921 -10.80531,-0.26709 -21.6217,-0.7443 -32.42902,-0.34271 -4.09456,0.45219 -8.20945,0.69264 -12.33162,0.69477 -10.25346,0.14429 -20.50007,-0.47306 -30.75415,-0.27575 -6.92491,-0.006 -13.83538,0.44812 -20.75107,0.72348 -12.19312,0.24576 -24.46098,-0.17671 -36.50263,-2.22412 -8.02235,-1.53174 -16.26919,-4.27365 -22.15389,-10.19222 -5.74297,-5.74857 -7.84542,-14.0607 -8.2607,-21.95046 -0.19035,-5.26769 -0.15753,-10.54808 -0.68425,-15.80017 -0.41742,-4.33216 -1.17938,-8.64487 -1.00949,-13.01576 0.25672,-12.33892 2.80479,-24.60683 7.12643,-36.15265 3.94393,-10.38709 9.95338,-20.28454 18.87644,-27.12645 9.48327,-7.37867 21.14122,-11.28274 32.74288,-13.84309 7.70225,-1.4131 15.57638,-1.10462 23.36994,-1.25837 15.75646,-0.0539 31.52527,-0.12135 47.26732,0.64424 17.35992,1.56249 34.80436,1.72209 52.21956,2.07743 24.89365,0.301 49.78353,0.89518 74.66177,1.82322 20.26481,0.55723 40.54385,0.5679 60.80886,0.0133 32.27477,-0.68103 64.55855,-0.99898 96.82091,-2.18718 21.96004,-0.82211 43.93653,-1.60306 65.83858,-3.46096 3.92993,-0.35392 7.8638,-0.77638 11.718,-1.63644 7.5523,-1.03729 15.19,-0.40776 22.7742,-0.86772 2.3217,-0.13499 4.6505,-0.45192 6.8206,-1.31477 5.6046,-1.09239 11.3583,-0.95094 17.0439,-1.08491 5.8834,-0.0847 11.792,-0.0416 17.6456,-0.70264 3.0829,-0.83215 6.3383,-0.66484 9.5082,-0.88387 18.2119,-0.60158 36.4416,-0.71846 54.6604,-0.40206 4.5779,0.0537 9.1446,0.35717 13.6972,0.82435 6.1848,0.51687 12.38,-0.0678 18.5257,-0.75393 4.7958,-0.51961 9.6386,-0.12976 14.3454,0.87748 7.8002,1.15402 15.7183,0.7286 23.5729,0.66212 14.1771,-0.34969 28.3712,-0.67441 42.5034,-1.92036 2.9543,-0.35419 5.8625,-1.04724 8.8494,-1.15727 13.2394,-0.91058 26.5177,-1.0516 39.7827,-1.23704 4.335,0.0757 8.5801,1.03198 12.7534,2.12238 6.9037,1.17094 13.9428,1.01501 20.9196,1.2123 15.0784,0.17829 30.1581,0.22055 45.2371,0.33084 5.4252,2.57091 11.1711,4.80863 15.5778,9.03069 5.362,4.87361 8.183,11.83358 9.7812,18.75706 1.5561,5.7449 3.7546,11.28105 5.77,16.8713 1.7692,5.31713 3.0299,10.79237 3.8408,16.33462 1.4473,7.68206 3.6884,15.17805 5.9512,22.65 3.3678,12.18978 5.4465,25.01103 3.7031,37.64323 -0.7748,5.80974 -2.8064,11.41494 -5.9077,16.3861 -4.6464,7.67683 -10.5989,14.80811 -18.2502,19.63307 -6.0174,3.44626 -12.7478,5.6641 -19.6526,6.38144 -11.5513,1.2166 -23.1862,1.12449 -34.7839,1.44416 -31.1496,0.71935 -62.3002,1.47442 -93.4371,2.63026 -4.8728,0.35148 -9.7557,0.37304 -14.5926,-0.42242 z m 43,-37.40609 c 21.6694,-0.38082 43.3261,-1.23801 64.9882,-1.87682 7.2847,-0.11745 14.5814,-0.42767 21.8623,-0.0788 5.2319,0.70952 11.0307,-0.13054 15.0346,-3.83487 2.2844,-2.08673 3.9392,-4.73132 5.8623,-7.13325 -0.4845,-7.04402 -0.5508,-14.1773 -2.3933,-21.04331 -1.5162,-5.96981 -3.7394,-11.73625 -5.1255,-17.74402 -1.3999,-5.07476 -2.1233,-10.29484 -3.3051,-15.41696 -1.1367,-4.90208 -2.6628,-9.70812 -4.6131,-14.34757 -1.1586,-3.04089 -2.1634,-6.14398 -2.7953,-9.33836 -0.3299,-2.32394 -2.6265,-3.57969 -4.8213,-3.38646 -6.0273,0.0929 -11.9613,1.53126 -18.0038,1.43863 -6.0057,0.0463 -11.9275,-1.20859 -17.9332,-1.22159 -5.1088,-0.28734 -10.215,0.7176 -15.3104,0.0326 -6.7373,-0.70434 -13.3196,-3.35378 -20.1795,-2.37055 -7.2849,0.97051 -14.6428,0.32461 -21.9555,0.16793 -4.0573,-0.0414 -8.1354,0.14772 -12.1073,1.02771 -7.8789,1.26705 -15.8857,1.24604 -23.7934,2.23592 -2.7269,-0.31386 -2.3244,2.61301 -1.832,4.40819 0.6395,3.65233 2.5845,7.40664 1.2782,11.12775 -1.3183,4.18979 -6.4994,6.86522 -10.6184,5.20261 -2.6798,-1.65717 -4.732,-4.40464 -5.6339,-7.41767 -0.2098,-3.02265 -2.1103,-5.56257 -3.6689,-8.04922 -1.3995,-1.86848 -2.6758,-4.05608 -4.7722,-5.20348 -6.4001,-0.58503 -12.7382,1.44043 -19.1503,0.86705 -6.3702,-0.4636 -12.5905,-2.48616 -19.0268,-2.12097 -5.4278,0.24671 -10.819,1.19872 -16.2686,0.98942 -4.4537,-0.0913 -8.846,-0.96697 -13.3013,-1.08488 -5.3977,-0.24375 -10.8248,-0.45283 -16.2164,-0.0358 -2.7533,0.21199 -0.2404,3.06465 0.025,4.47409 1.1953,2.35422 1.668,5.25741 0.3492,7.66803 -1.9105,4.02324 -7.7569,5.85403 -11.3176,2.89924 -4.6118,-3.61119 -8.1237,-8.35375 -12.0164,-12.6828 -0.5113,-0.4396 -0.8284,-1.25943 -1.4678,-1.44792 -5.9426,-0.50197 -11.9196,-1.31445 -17.8788,-0.53446 -4.7332,0.55945 -9.3906,1.73954 -14.1774,1.83526 -7.9977,0.45634 -16.1207,-1.32818 -24.0034,0.72104 -10.0989,2.66088 -20.6334,1.33337 -30.9203,2.363 -3.3732,0.27711 -6.6458,1.22641 -10.0277,1.46329 -17.57637,1.76688 -35.24531,2.36792 -52.89901,2.72415 -3.67356,0.16891 -7.37743,0.1213 -11.0245,0.60514 0.31836,1.97116 1.81915,3.56224 2.80135,5.27551 1.52803,2.36806 2.52825,5.61633 0.83213,8.16798 -1.79426,2.90751 -5.35766,5.15419 -8.84192,4.09561 -4.54929,-1.40377 -7.63895,-5.37408 -10.30599,-9.09571 -1.44712,-2.13136 -2.78191,-4.33608 -4.17086,-6.50536 -9.34126,-0.37848 -18.67797,-1.10322 -28.03205,-0.953 -2.03948,-0.0595 -3.96491,0.67814 -6.00625,0.657 -14.1826,0.77703 -28.39412,0.60536 -42.59009,0.92489 -21.0204,0.25753 -42.05665,1.10599 -63.072,0.18235 -5.15079,-0.25151 -10.33387,-1.01189 -15.48466,-0.42443 -2.55243,0.0778 -3.8661,2.53092 -3.93724,4.81685 -0.45003,3.16481 -2.95757,5.94103 -6.18464,6.35708 -1.85942,0.45805 -5.368,-0.54959 -5.51291,2.27926 -1.16119,2.73341 -3.2417,5.78377 -6.53598,5.8492 -2.9452,0.43049 -5.85938,-0.88741 -7.81798,-3.05459 -4.21045,-4.3345 -6.51747,-10.03898 -10.09655,-14.83141 -1.11127,-1.55935 -2.66501,-3.02361 -4.74134,-2.69761 -23.60007,-1.11143 -47.21774,-1.81457 -70.83204,-2.54771 -7.6512,-0.12018 -15.31321,-0.68717 -22.96135,-0.22542 -1.91101,0.25742 -4.28089,0.24793 -5.56048,1.91486 -0.39705,2.06499 -0.80126,4.39119 -2.83384,5.57765 -2.96937,2.16505 -7.1952,2.41396 -10.34831,0.48814 -2.11971,0.28633 -0.49835,3.80449 -1.40579,5.33232 -0.67231,3.14175 -3.8348,5.12561 -6.93049,5.08321 -2.37879,0.24036 -4.70667,-0.73936 -6.35309,-2.44083 -3.80294,-3.53568 -7.01453,-7.71166 -9.41079,-12.31804 -0.99061,-2.1231 -3.51047,-2.59502 -5.58131,-2.0211 -4.89852,1.16968 -9.43756,3.77301 -13.12993,7.17342 -2.16698,2.36477 -4.43943,5.0297 -4.87797,8.32226 -0.31713,4.1851 3.04713,7.21421 4.45492,10.86558 0.97505,2.11175 1.64157,4.61214 0.50506,6.80863 -1.29844,2.97746 -4.54622,4.85217 -7.76733,4.6414 -2.33219,-0.28973 -3.10548,1.7197 -2.45788,3.65714 0.63236,6.82863 1.09051,13.6841 2.09396,20.47062 5.4e-4,2.31557 1.85828,3.94009 4.14219,3.7072 9.72284,0.59242 19.47359,0.39724 29.20938,0.4233 33.1532,-0.0622 66.30726,-1.1621 99.45978,-0.46973 8.34976,0.18861 16.67265,0.96022 25.02173,1.18802 13.06915,0.52007 26.15256,0.50668 39.2212,1.05415 13.89103,0.53996 27.79246,1.01041 41.65422,2.09054 2.5768,0.37214 5.15463,0.74357 7.76402,0.85408 18.18748,1.1404 36.40028,1.88607 54.61751,2.33879 19.6758,0.19835 39.33003,1.27715 58.96966,2.42018 10.5142,0.58249 20.99711,1.65521 31.52556,1.98313 24.43731,0.97525 48.89622,1.19831 73.3455,1.72083 23.3175,0.44858 46.6372,0.77169 69.9565,1.08891 7.4608,0.23242 14.9464,0.35633 22.3648,1.23985 9.0528,1.23425 18.2119,0.97082 27.322,1.18219 4.7537,0.1129 9.4977,0.46482 14.2185,1.01402 13.4735,0.68074 26.9722,0.63427 40.4595,0.63462 13.047,-6e-4 26.1023,-0.0956 39.1412,0.42742 8.1664,1.04794 16.3828,0.003 24.5684,-0.13527 6.4289,-0.20333 12.8593,-0.35795 19.2904,-0.46922 z M 599.41655,217.64313 c -0.0935,-1.82524 -4.58181,-2.32613 -2.41675,-0.21004 0.53716,0.80135 3.19117,3.51631 2.68961,1.02509 -0.0759,-0.27654 -0.17034,-0.54744 -0.27286,-0.81505 z"
       id="path1" />
  </g>
</svg>
