<svg xmlns="http://www.w3.org/2000/svg" viewBox="0 0 256 256" preserveAspectRatio="xMidYMid meet" xmlns:v="https://vecta.io/nano"><path d="M53.375 210.533l11.861-51.727-2.965-70.178.329-16.474 7.907-12.19 18.45 12.19 5.272-43.82 4.942-7.578 6.26 1.647 9.555 14.497 5.601-23.393 19.768-4.613 8.566 21.086 13.838-.659 3.954 16.474 2.965 68.53 19.109-16.144 8.566 2.636 2.636 7.907-10.543 16.803 2.965 10.214-12.52 13.179 14.167 56.34-31.959 35.583-19.439 3.954-14.497-7.248-19.439 8.237-36.901-14.826-16.144-11.202z" fill="currentColor" paint-order="stroke fill markers"/><path d="M131.2 7c-2.095 1.244-4.486 2.014-6.929 2.07-2.923.473-4.853 3.088-6.053 5.593-2.03 4.109-2.536 8.717-3.197 13.19-.357.869-.144 2.974-1.307 2.933-.798-.918-1.208-2.128-1.701-3.234-.785-2.191-1.911-4.285-3.594-5.921-2.158-2.17-5.149-3.788-8.279-3.595-2.547.37-4.703 2.149-6.151 4.201-.725 1.025-1.061 2.271-1.059 3.516-.202 1.487-.922 2.825-1.586 4.141-.927 2.948-1.039 6.067-1.324 9.123-.458 6.552-.6 13.122-1.092 19.673-.175 3.064-.487 6.125-1.191 9.117-.596-.024-1.633-1.443-2.39-2.022-3.134-2.915-6.155-6.113-10.044-8.026-1.894-.925-4.237-1.302-6.154-.226-2.864 1.608-4.229 4.791-5.735 7.545-2.365 4.248-4.496 8.778-4.945 13.683-.644 5.815-.122 11.675.277 17.488.635 8.167 1.716 16.294 3.071 24.371.927 7.765.599 15.609.189 23.397-.686 11.327-1.999 22.613-3.773 33.82-1.505 9.052-3.27 18.075-5.707 26.927-.446 1.666-1.17 3.237-1.762 4.848-.923 3.456.533 7.051 2.523 9.849 2.578 3.695 6.322 6.32 10.059 8.727 4.597 3.109 9.465 5.784 14.415 8.285 6.479 3.31 12.952 6.689 19.778 9.239 4.792 1.767 10.031 2.92 15.118 1.839 5.346-1.038 10.039-3.941 14.843-6.35 4.609 2.076 9.115 4.51 14.095 5.601 4.672 1.085 9.603 1.508 14.328.515 2.375-.501 4.53-1.721 6.338-3.32 6.11-5.012 11.749-10.565 17.318-16.162 2.862-2.965 5.768-5.909 8.309-9.16 2.814-3.855 5.092-8.076 7.149-12.375.782-1.784 1.597-3.597 1.938-5.524.041-1.832-.822-3.527-1.496-5.183-1.205-2.441-2.424-4.882-3.244-7.486-2.456-7.205-4.26-14.624-5.659-22.102-.821-4.345-1.279-8.748-1.568-13.157l-.307-3.745c3.449-3.967 7.497-7.718 9.275-12.803.894-2.499 1.048-5.329.011-7.811-.476-1.335-.452-2.889.422-4.062 1.42-2.323 3.345-4.313 4.54-6.781 2.337-4.364 3.656-9.575 2.393-14.469-.789-2.995-2.963-5.731-5.998-6.643-3.761-1.168-7.939-.357-11.325 1.529-4.385 2.488-7.717 6.359-11.387 9.735-.575.746-.736.537-.626-.31.052-7.71-.479-15.407-.811-23.106l-2.179-36.952c-.466-5.467-.933-11.043-2.866-16.223-1.001-2.646-2.834-5.241-5.671-6.083-2.565-.781-5.36-.749-7.926.014-.914.127-2.208.698-2.86-.235-.452-1.241-.665-2.57-1.132-3.817-1.456-4.572-3.099-9.265-6.265-12.963-1.679-1.944-4.271-3.29-6.884-2.801-1.509.232-2.921.884-4.211 1.681zm9.7 10.5c1.833 3.329 2.493 7.16 2.543 10.924.137 3.557-.024 7.16.682 10.665.586 1.051.4 2.354-.762 2.893-1.316 1.524-1.705 3.583-2.325 5.447-1.416 4.742-1.998 9.718-3.774 14.352-.466 1.113-1.039 2.261-1.987 3.027-.152-.847.592-2.599.516-3.836.318-3.086.062-6.202.404-9.283-.096-1.711 1.839-1.516 2.653-2.475.763-1.529-.996-2.244-2.161-2.528-.937-1.072-.807-2.696-.358-3.949.438-.995 2.409-.467 1.957-1.88-.494-1.545-1.142-3.076-1.167-4.729-.225-4.379 1.493-8.639 1.005-13.024-.41-1.033-1.169-1.959-1.088-3.138-.017-1.927-.841-3.723-1.999-5.231-.743-.725-1.484-2.588.156-2.664 1.426-.05 2.794.674 3.589 1.859.87 1.084 1.493 2.335 2.116 3.57zm-12.1-1.3c1.818 1.91 1.255 5.089-.42 6.903-.809.845-2.364 2.664-3.372 1.069-1.579-2.328-2.256-5.609-.728-8.127.844-1.378 2.813-1.452 3.93-.367a6.55 6.55 0 0 1 .59.523zm-26.3 8.4c1.512 1.245 2.355 3.079 3.355 4.722 2.279 4.176 4.206 8.53 6.345 12.778l-2.7 14.4c-.281-4.901-.47-9.844-1.646-14.633-.794-3.37-1.804-6.758-3.609-9.736-1.501-2.036-3.549-3.972-3.809-6.634-.492-1.484 1.011-1.607 1.944-.941l.065.024zm29.1 3.6c-1.439 8.86-2.605 17.812-2.408 26.808-.118 10.53-.784 21.053-1.93 31.52-.512 4.176-1.349 8.351-3.05 12.219-1.54 3.777-2.869 7.808-2.497 11.943.286 6.989 1.142 13.945 2.208 20.854.325 1.789.589 3.616 1.17 5.336.733 1.143 2.59 1.083 3.25-.119 1.222-1.702 1.211-4.011 2.594-5.62 1.3-.124 1.205-1.719.644-2.544-.591-1.182-1.683-2.083-1.95-3.426-.714-2.809-.839-5.73-1.059-8.61-.223-3.684-.293-7.375-.473-11.061 3.467-.261 7.097.123 10.407-1.143.87-.362 1.698-.945 2.132-1.804-.704-.774-1.847-.179-2.743-.243l-8.796.99c1.097-2.678 1.828-5.614 3.726-7.866 1.062-.346 2.111-1.041 1.704-2.323-.129-1.218-.61-2.425-.383-3.662.626-.228 1.786.31 1.624-.859.212-1.531.076-3.102.527-4.6.894-4.102 2.178-8.167 4.222-11.849.622-1.336 1.952-2.006 3.347-2.173 1.474-.274 1.036-1.982.085-2.629-1.001-1.046-.546-2.62-.432-3.901.649-3.323 1.759-6.559 2.062-9.948.623-1.087 2.058-.682 3.082-.669 2.175.08 4.323-.687 6.059-1.972 1.312-.692 1.163 1.223 1.091 2.003-.569 4.638-1.59 9.208-2.532 13.782l-7.539 34.655c-1.236 7.603-1.652 15.306-2.154 22.983-.673 11.236-.965 22.491-1.123 33.744-.135 2.025-.407 4.205-1.76 5.812-1.057 1.274.108 2.808 1.232 3.534 1.767 1.217 4.044.326 5.587-.836 1.459-.94 2.607-2.73 4.52-2.656 1.195.059 2.384 1.809 3.527.753.497-1.57-1.443-2.686-.988-4.266.538-2.014 1.865-3.692 2.927-5.454 1.773-2.642 3.543-5.3 5.565-7.759.7-1.031 2.085-1.837 3.055-.662.883 1.019 2.144-.253 1.555-1.279-.352-1.564-1.786-2.924-1.306-4.629.537-2.193 1.831-4.09 2.832-6.086 1.748-3.125 3.769-6.343 6.926-8.208 1.371-.735 2.897-1.087 4.361-1.58-1.611 1.669-3.526 3.088-4.814 5.04-.813 1.314-.428 2.913.267 4.181 1.49 2.771 3.502 5.216 5.318 7.775 1.442 1.067-.29 2.061-.928 3.081-2.496 3.103-4.87 6.326-6.759 9.84-.491 1.092-1.768.987-2.361.055-.694-.901-2.333-.741-2.231.605-.221 1.265.928 1.697 1.796 2.147.489 1.957-.174 3.973-.518 5.908-1.713 7.336-3.923 14.544-6.054 21.767-1.246 4.055-2.628 8.095-4.642 11.841-2.2 4.412-4.111 8.963-6.335 13.361-1.62 3.05-3.888 5.697-6.41 8.037-8.121 7.829-17.262 14.637-27.214 19.963-3.149 1.631-6.498 3.14-10.105 3.237-3.064.247-6.207-.055-9.061-1.251-6.832-2.505-13.31-5.86-19.755-9.214-6.364-3.396-12.668-6.95-18.573-11.105-1.144-.887-2.404-1.742-3.203-2.968-.349-1.233-.087-2.607-.75-3.766-.638-1.02-.907-2.233-.562-3.407.498-1.774 1.153-3.502 1.549-5.307 1.14-4.3 1.689-8.762 3.245-12.945.351-1.122 1.069-2.012 1.797-2.893 1.034-1.88-.217-3.98-.066-5.949.439-1.116 1.891-.562 2.798-.846 1.1.004 2.382-1.472 1.076-2.216-.923-.574-2.47-.381-2.758-1.71-.324-1.626-.049-3.315.057-4.956.618-5.073 1.049-10.174 1.886-15.218.237-1.121.566-2.797 2.033-2.763 1.052.008 2.741-.158 2.767-1.531-.058-1.126-1.285-1.568-2.253-1.516-1.407-.21-1.274-2.068-1.397-3.144-.235-5.385-.041-10.78.016-16.168.121-3.759.029-7.571.841-11.262.195-1.115 1.898-1.087 1.776-2.372-.176-1.407-1.867-.774-2.719-1.322-1.047-.986-1.046-2.563-1.329-3.882-.275-1.933-.706-3.876-.656-5.833.051-1.487 1.893-.546 2.426-1.602.414-1.296-1.161-1.765-2.141-1.852-1.24-1.084-1.602-2.972-1.11-4.509.457-1.496.011-3.042-.302-4.519-.393-1.703-1.115-3.516-.564-5.261.254-1.011 1.893-1.891.863-2.956-.978-1.042-.973-2.597-1.056-3.941.081-1.157-.078-2.447.449-3.499.962-.864 2.213.083 3.316-.054 1.512.023 2.897-.768 3.866-1.889.646-.881 2-.924 1.95.422 1.438 6.164 2.382 12.431 3.797 18.601l.835 3.964c-2.064.269-4.369.131-6.106 1.464-1.075 1.144.424 1.975 1.516 1.614 1.684-.06 3.381-.647 5.059-.267 1.281.596 1.463 2.175 1.96 3.35.944 3.232.169 6.618-.306 9.86-.808 5.021-1.862 10.092-1.478 15.203.148 1.186.403 2.653 1.576 3.243 1.387.52 2.729-.594 3.238-1.827.727-1.545 1.024-3.278 1.997-4.707.528-1.645.422-3.415.541-5.123.138-3.939.32-7.941 1.502-11.728.355-.871.749-2.08 1.897-2.044 1.307-.095 1.153-1.805.203-2.323-.815-.66-.638-1.845-.776-2.785-.094-3.987.184-7.998.938-11.917.448-2.245 1.463-4.366 1.556-6.683.169-2.264-.043-4.806 1.448-6.698.659-.887 2.782-.249 2.422-1.9-.65-.949-2.405-.519-2.517-2.072-.405-1.566-.599-3.456.452-4.817.988-.615 1.076-1.909.752-2.921-.557-2.283.797-4.379 1.502-6.456.615-1.448-.298-2.752-.741-4.067-.616-2.38.256-5.027 2.135-6.601.888-1.106-.435-2.027-.827-2.974-.558-1.726-.749-3.643-.313-5.418.388-1.441 2.106-1.551 3.338-1.63 1.31-.089 2.338 1.093 2.237 2.368.688 6.059.793 12.166.98 18.256L103.2 80c-1.855-.049-3.752-.483-5.583-.055-1.338 1.096.786 1.944 1.696 2.232 1.521.549 3.157.703 4.684 1.209.445 1.021-.264 2.262-.132 3.382-.448 4.788-1.432 9.512-2.748 14.133-.972 4.435-1.244 8.984-1.581 13.501-.326 5.475-.517 10.978-.098 16.453.154 1.929.832 4.138 2.682 5.065 1.373.312 2.235-1.274 2.849-2.254.84-1.646 1.717-3.497 1.403-5.391-.481-.94-1.107-1.823-1.13-2.932-.384-2.294-.265-4.689.365-6.919.686-.668 1.993-1.432.865-2.414-.904-1.268-.7-2.931-.753-4.403.189-3.242.684-6.517 1.856-9.559.34-1.041 1.008-1.885 2.008-2.336.515-1.177-.585-2.537-.375-3.84-.052-3.768.417-7.582 1.636-11.156.33-1.04 2.114-.452 2.1-1.662-.11-1.241-1.583-1.809-1.593-3.104-.261-2.687.227-5.479 1.435-7.899.666-.792 2.098-1.227 1.763-2.544-.396-1.411-.339-2.873-.201-4.319.337-3.196.874-6.401 1.908-9.45.15-1.661 1.541-.653 2.48-.86 1.203-.972.175-2.626-.723-3.421-1.248-1.649-.489-3.782-.191-5.615.48-1.974.738-4.061 1.724-5.864.53-1.126 1.835-.874 2.8-1.195 1.213-.563.332-2.076-.651-2.306-1.366-.445-1.34-2.153-1.206-3.326.18-2.091.471-4.178.822-6.243.888-1.589 2.326.414 3.439.68 1.495.687 2.866-.51 4.044-1.281.827-.429 2.083-1.669 2.897-.713.288.836-.008 1.757-.092 2.605zm29.7 7.9c1.154 3.597 1.721 7.41 1.534 11.187-.003.619-.252 2.208-.636.872-.656-2.935-2.094-5.722-4.155-7.923-1.82-1.928-4.332-3.413-7.065-3.259-1.621-.19-.404-2.067.306-2.669 1.587-2.016 4.07-3.654 6.738-3.251 1.623.218 2.243 1.932 2.701 3.276l.576 1.766zm-61.5.3c.689 1.543-1.43 1.908-2.345 1.022-1.001-.595-2.101-2.604-.711-3.32 1.364-.102 2.838.897 3.056 2.298zm54.7 8.6c.697 1.4-.539 2.778-1.538 3.646-1.246 1.061-2.948 1.968-4.62 1.53-1.437-.396-1.245-2.026-.404-2.911 1.059-1.777 2.926-3.533 5.151-3.232.578.103 1.131.438 1.411.967zm9.5 19.1c.207 3.003.682 6.041.266 9.043-.307 1.23-1.998 1.444-2.199 2.688-.114 1.384 1.502.94 2.281 1.403.902 1.005.515 2.602.636 3.859-.1 3.985-.664 8.001-.046 11.97.973 1.598.895 3.538 1.036 5.338.076 2.249-.001 4.522.021 6.756-1.498.107-3.097-.568-4.648-.65-1.909-.206-3.989-.32-5.75.562-1.537 1.133.891 1.747 1.833 1.88 2.518.677 5.213.536 7.661 1.488 1.395.74 1.107 3.022-.36 3.503-.902.387-3.41.317-2.741 1.853 1.029 1.305 2.966.679 4.232 1.56.563.941-.253 1.939-.443 2.874-.9 2.834-.962 5.832-1.415 8.746-1.235 5.507-3.716 10.635-6.319 15.607-2.043 3.733-4.285 7.468-7.493 10.327-.57.342-1.807 2.288-1.548.724.042-4.068-.141-8.149.168-12.207.079-1.38 1.471-1.188 2.377-.782 1.242.45 1.777-1.084 1.113-1.957-.628-1.399-1.76-2.461-2.667-3.669 1.541.865 2.637 2.455 4.371 2.989 1.276-.367.458-1.922.013-2.685-.977-1.706-2.743-2.828-3.474-4.696-.826-1.83-1.292-3.907-.999-5.91.139-1.297 1.373-1.271 2.303-.977 1.47-.42.642-2.472-.353-2.995-1.577-.407-.156-1.869.402-2.558.768-1.341-.896-1.989-1.464-2.915-.943-1.694-.438-3.7-.318-5.527.351-2.412.596-4.868 1.316-7.203.189-1.39 1.412-1.136 2.279-.611 1.395.131 1.462-1.757.708-2.528-.242-.719-1.895-1.517-1.295-2.159.741.116 2.509 1.39 2.42-.132-.448-1.764-.977-3.526-1.12-5.355-.201-2.212-.168-4.497.44-6.643.596-1.264 2.349-1.433 2.137-3.146.167-2.34.186-4.698.633-7.011 1.053-6.167 2.224-12.328 3.888-18.363.258-.561.41-2.186 1.003-1.8.561 3.074.771 6.204 1.114 9.308zm-87 2.4c3.622 3.057 7.236 6.654 8.423 11.4 1.236 5.032-.176 10.179-1.46 15.05-.225.601-.525 2.506-.698 2.224-.438-3.275-1.296-6.569-.935-9.892-.218-1.373 1.818-2.16 1.091-3.431-1.071-.593-2.674-1.236-2.33-2.825.11-1.065 2.497-1.551 1.247-2.746-1.468-1.486-2.989-2.958-4.01-4.805-1.334-2.43-2.951-4.963-5.62-6.072-.749-.413-2.308-1.32-1.412-2.266 1.048-.407 1.924.625 2.79 1.061 1.021.702 1.959 1.515 2.914 2.302zm-5.7 5.1c.792 1.117-.129 2.457-.806 3.384-.998 1.377-2.775 2.462-4.505 1.862-1.399-.405-.921-2.061-.459-3.017.583-1.661 2.209-2.891 3.985-2.869.635.018 1.319.185 1.786.64zM195 103.5c1.29 1.884.803 4.314.345 6.391-.888 3.424-2.654 6.555-4.622 9.465-.633 1.076-1.976 1.309-3.041.754-3.462-1.311-7.295-1.283-10.911-.73-1.545.107-3.173 1.461-4.641.881-.298-1.145.799-2.064 1.371-2.947.881-.981 1.952-1.977 3.267-2.27 1.044.143 2.065-.655 1.609-1.76-.453-1.471.486-2.861 1.368-3.954 1.566-1.769 3.662-3.393 6.131-3.392 1.34-.563-.258-2.272 1.118-2.877 1.721-.992 3.866-1.132 5.784-.725.811.212 1.668.496 2.223 1.163zm-6.8 28.3c-.074 2.726-1.163 5.418-2.908 7.5-.731 1.143-2.055.513-2.604-.447-1.812-2.283-3.377-4.804-4.39-7.542-.207-1.25 1.132-1.855 1.945-2.494 1.544-1 3.275-1.965 5.153-2.018 1.524.014 2.397 1.5 2.599 2.847.139.71.173 1.434.205 2.155zm-8.2 32c.264 4.812 1.5 9.499 2.634 14.163 1.449 5.564 3.086 11.103 5.338 16.4.77 1.83 1.892 3.542 2.336 5.491.28 1.916-.885 3.599-1.55 5.308-2.369 5.581-6.279 10.305-10.354 14.721-4.806 5.141-9.626 10.286-14.812 15.049-2.591 2.314-5.324 4.727-8.728 5.717-2.566.566-5.228.466-7.836.321-1.653-.214-3.321.223-4.964-.05-1.544-.395.549-2.119-.508-2.812-1.366-.113-2.732.679-4.138.253-1.136.057-3.399-1.439-1.471-2.163 1.366-.715 2.505-1.802 3.718-2.747 5.124-4.41 10.104-9.004 14.719-13.948 2.867-2.946 4.608-6.733 6.385-10.384l5.869-12.972c2.012-4.737 3.49-9.678 5.008-14.59l5.366-18.549c.503-1.069.791-3.276 2.231-3.159.872.887.611 2.35.753 3.498l.003.226zm-62-95.3c.017 1.164 1.423 1.38 2.332 1.426 1.749.149 3.595.154 5.243-.5 1.076-1.323-1.143-1.793-2.045-2.105-1.633-.431-3.542-.597-5.05.289-.276.209-.492.532-.48.89zm-3.5 4.5c-.513.994.781 1.673 1.604 1.779 1.412.313 3.288-.109 3.874-1.566-.206-1.453-2.193-1.158-3.275-1.146-.77.132-1.696.277-2.203.933zm17.7 35.2c.926 1.119 2.508 1.233 3.841 1.499 1.467.179 2.996.305 4.442-.037 1.087-1.196-1.016-1.839-1.912-2.042-1.915-.495-3.958-.632-5.909-.325-.361.123-.654.525-.462.906zm-20.9 28.6c-.831.085-2.766.666-1.896 1.747 1.029.664 2.344.365 3.503.52l9.336.907c.89-.859-1.019-1.738-1.717-2.141-2.371-1.028-5.019-1.332-7.587-1.232a13.27 13.27 0 0 0-1.638.199zM88 139c-1.17.294-1.06 1.811.245 1.663 2.388.487 4.816.862 7.255.924.835-.095 2.016.074 2.528-.707-.295-1.387-2.12-1.512-3.195-2.088-2.177-.769-4.792-1.122-6.834.207zm42 .9c.843.763 2.09.722 3.127 1.044 2.386.487 4.823.821 7.261.754 1.198-.673-.082-2.173-1.092-2.21-2.773-.538-5.67-.678-8.456-.146-.306.107-.761.176-.84.558zm-58.3.7c-1.286.832-.489 2.477.973 2.246 1.526.032 3.157-.105 4.469-.961.312-1.302-1.576-1.432-2.455-1.673-.978-.13-2.148-.219-2.988.388zm41.3 1.3c.386 1.128 1.731 1.414 2.725 1.783 1.268.863 2.994-.454 1.677-1.696-.885-.954-2.36-1.088-3.574-.867-.353.122-.833.344-.829.781zm-20.8 2.3c.601 1.171 2.365 2.199 3.562 1.403.426-1.053-.777-1.933-1.646-2.268-.737-.334-2.438-.466-1.916.865zm69.8 10.1c.369 1.749 1.777 3.039 3.09 4.146.667.787 2.24.687 1.944-.617-.413-2.106-2.149-3.705-3.956-4.702-.739-.285-1.208.534-1.078 1.172zm-9 22.6c.178 2.015 1.54 3.777 3.173 4.876.984.633 2.64-.139 2.326-1.401-.432-1.224-2.122-1.245-2.566-2.526-.623-.919-.63-2.511-1.925-2.802-.905-.002-.997 1.19-1.009 1.853zm-90.4 27.8c-.608 2.551-1.424 5.145-1.24 7.791 1.09 1.325 2.05-.833 2.484-1.705.857-2.004 1.311-4.243 1.076-6.42-.026-1.779-2.076-1.405-2.231.077zm4.1 12.9c-.089 1.101.937 1.855 1.475 2.701 1.691 2.042 3.586 3.956 5.786 5.447.906.72 2.636-.07 1.597-1.239-1.16-1.778-2.703-3.274-4.132-4.835-.958-.913-1.898-1.941-3.116-2.499-.562-.182-1.221-.031-1.611.426zm55.5 13.3c-1.417.612-2.913 1.256-3.904 2.492-.167 1.421 1.831.931 2.675.767a23.83 23.83 0 0 0 7.344-3.206c1.366-.682.273-2.239-.947-1.724-1.775.379-3.476 1.026-5.168 1.671zm48.4-30.7c.726 2.816.668 5.757.715 8.644-.005 2.953-.074 5.936.509 8.846 1.249.653 1.518-1.745 1.866-2.548.991-3.608 1.073-7.43.357-11.096-.343-1.759-.433-3.627-1.266-5.243-.388-.979-2.339-1.236-2.529-.038.004.499.199.966.348 1.433zM172 9.9c-2.426 1.502-5.01 2.935-6.87 5.14-.086 1.866 2.291.534 3.19.119 3.586-1.858 7.068-3.96 10.246-6.459.818-.464 2.213-1.897.868-2.561-1.293-.001-2.374.91-3.509 1.428-1.329.743-2.615 1.558-3.925 2.333z"/><path d="M88 9.3c.127 2.089 1.069 4.188 2.663 5.553 1.759.245.834-2.027.705-2.999-.421-1.638-1.026-3.291-2.024-4.659C88.037 6.657 88.043 8.506 88 9.3zm-47 9.3c.951 1.542 2.411 2.682 3.64 3.993 3.865 3.739 7.813 7.405 11.995 10.789 1.146.863 2.364 1.776 3.788 2.072 1.59-.031.707-1.706.041-2.328-1.841-1.915-4.071-3.403-6.023-5.2-3.122-2.632-5.941-5.609-9.155-8.131-1.085-.782-2.233-1.61-3.557-1.896-.388-.024-.798.277-.729.701zm154.3 9.8c-4.019 1.519-8.117 2.929-11.869 5.048-.746.542-2.748 1.765-1.547 2.684 1.517.254 2.932-.622 4.282-1.191 6.202-2.852 12.861-4.513 19.173-7.083 1.111-.717 3.229-.894 3.579-2.244-.743-.913-2.022-.41-3.006-.32-3.635.648-7.118 1.951-10.613 3.106zM17 35.9c.565 1.204 1.815 1.875 2.829 2.659 1.393.97 3.004 1.779 4.016 3.176.714 1.586 2.413 2.312 3.755 3.265 4.184 2.561 8.037 5.622 12.188 8.231 1.378.822 2.841 1.646 4.464 1.805 1.722-.744-.445-1.948-1.179-2.565-5.709-4.488-12.061-8.097-17.644-12.753-.588-.828-1.182-1.672-2.107-2.154-1.534-1.069-3.179-2.052-4.993-2.55-.57-.086-1.321.221-1.329.886zm213 11.2c-9.549 3.745-19.339 6.851-28.818 10.777-2.33 1.025-4.729 1.994-6.797 3.496-1.165 1.198.932 2.014 1.908 1.435 3.322-.811 6.221-2.737 9.425-3.878 8.415-3.401 17.119-6.016 25.597-9.249 2.408-.957 4.904-1.786 7.122-3.143 1.284-1.134-.828-1.838-1.775-1.357-2.291.362-4.479 1.163-6.661 1.92zM14.3 77.3c.922.772 2.211.784 3.324 1.097 4.303.823 8.682 1.36 13.065 1.366 1.333.261 1.891-1.437.429-1.722-2.722-.873-5.609-1.093-8.447-1.31-2.462-.094-4.946-.406-7.401-.1-.337.107-1.136.116-.972.67zm202 9.4c-1.971.194-4.067.133-5.871 1.059-1.324 1.287.745 2.255 1.923 2.006 4.815-.009 9.627-.372 14.422-.798 1.59-.231 3.301-.171 4.737-.991.656-1.211-1.029-1.769-1.967-1.717-2.905-.136-5.815.083-8.718.203l-4.527.238zM13 115c.392 1.175 1.725 1.629 2.751 2.1 2.867 1.004 5.914 1.324 8.903 1.775 3.646.446 7.333.85 11.008.615 1-.271 3.112-.229 3.215-1.487-1.185-.999-2.962-.768-4.422-.967-4.278.005-8.553-.417-12.746-1.275-2.748-.477-5.409-1.464-8.203-1.645-.396.063-.607.522-.508.885zm198.2 18.1c.975 1.754 3.151 2.017 4.892 2.591 8.197 2.359 16.29 5.133 24.655 6.861 2.739.507 5.628 1.122 8.374.326 1.294-.788-.737-1.696-1.523-1.733-2.156-.506-4.388-.615-6.524-1.224-7.522-1.698-14.792-4.3-22.204-6.392-2.246-.564-4.502-1.273-6.832-1.321-.44.012-1.11.349-.838.893zM18.8 152.5c-2.996.563-6.071.958-8.904 2.133-1.365.922.335 1.932 1.36 1.58 5.172-.195 10.212-1.585 15.381-1.837 6.359-.517 12.731.016 19.095.064 1.578-.157 3.455.193 4.834-.584-.067-1.473-2.278-1.462-3.402-1.886-5.224-.878-10.552-.904-15.834-.719-4.194.193-8.387.56-12.529 1.25zM203 166c.301 1.455 1.879 2.022 3.032 2.687 4.783 2.334 10.024 3.46 15.006 5.271 4.088 1.388 8.08 3.033 12.099 4.601 1.13.515 4.36 1.352 3.667-.847-3.029-1.952-6.471-3.148-9.784-4.526-5.137-2.054-10.417-3.714-15.699-5.346-1.877-.637-3.818-1.241-5.427-2.428-.849-.491-2.734-.772-2.894.587zM26.6 185.4c-3.113.786-6.294 1.542-9.119 3.117-1.012 1.559 1.401 1.371 2.31 1.173 5.584-.762 10.971-2.531 16.524-3.464 3.464-.579 7.053-.708 10.48.163.975.104 2.157.775 3.004-.016.762-1.168-.694-2.377-1.77-2.616-3.978-1.105-8.167-.596-12.204-.137-3.106.416-6.182 1.032-9.225 1.778zm181.8 15.7c-.938.86.304 1.87 1.144 2.114 3.957 2.118 8.072 3.922 12.04 6.021 7.582 3.894 15.085 7.952 22.428 12.28 2.192 1.266 4.229 3.038 6.796 3.458 1.614.335 1.204-1.717.072-2.056-2.837-2.242-5.992-4.04-9.1-5.874-5.71-3.298-11.643-6.194-17.337-9.518-1.544-1.093-3.176-2.043-4.902-2.819-3.235-1.487-6.57-2.815-10.034-3.657-.366-.066-.754-.082-1.108.051zM20.5 220.7c-2.765.622-5.636 1.127-8.13 2.533-1.158 1.11.538 1.69 1.498 1.324 4.989-.518 9.916-1.501 14.85-2.381 1.833-.407 3.731-.59 5.512-1.194 1.609-.674-.135-1.943-1.189-1.786-3.409-.327-6.802.433-10.147.997a77.37 77.37 0 0 0-2.394.507zm173.2 6c-1.009.674-.81 2.493.646 2.326 1.476.369 2.766 1.244 4.123 1.91 5.867 3.297 11.624 6.802 17.181 10.601 3.157 2.044 5.839 5.007 9.57 6.031.91.309 2.37.493 2.76-.644.264-1.215-1.031-2.037-2.111-1.967-1.599-.4-2.926-1.478-4.272-2.381-2.356-1.82-4.633-3.75-7.172-5.317-5.793-3.806-11.697-7.467-17.864-10.64-.953-.487-2.085-1.026-2.861.08zM53.6 243c-2.559 1.71-5.209 3.348-7.427 5.497-.636.926.464 2.266 1.486 1.665 1.58-.564 2.704-1.894 4.12-2.746l8.24-5.304c1.079-.799 2.273-1.599 2.959-2.774.301-1.603-1.569-1.21-2.39-.604-2.425 1.255-4.686 2.804-6.987 4.268zm125.4 4.1c.476 1.746 1.974 2.938 3.149 4.226 1.43 1.356 2.933 2.738 4.748 3.55 1.033.63 2.689-.365 1.405-1.376-1.739-1.93-3.673-3.68-5.58-5.442-.953-.713-1.819-1.77-3.036-1.985-.579-.003-.716.552-.685 1.027z"/></svg>
