<svg xmlns="http://www.w3.org/2000/svg"  viewBox="0 0 100 100">

  <path
     id="path12"
     style="fill:currentColor;stroke-width:19.9771;stroke-linejoin:round;paint-order:stroke fill markers"
     d="m 73.063667,1.9175188 -16.6957,4.4226632 -7.276812,9.274522 -3.708639,16.838114 -7.848423,7.846472 3.710589,6.135543 -7.706008,5.423468 1.428051,8.702912 -11.559011,2.996564 0.57161,10.415791 -8.704863,-0.712074 -1.568514,8.131302 L 4.7162548,81.82199 4.0022298,97.374471 15.988486,96.947226 60.078556,52.570376 83.764288,51.001862 92.324784,42.726195 95.892958,29.171424 94.751689,20.039318 87.90212,8.9095015 Z m 4.994273,12.2710852 5.848762,1.855296 2.996564,8.845325 -5.421518,3.13898 -6.420372,-1.14127 -2.56932,-6.277958 z" />
  <g
     transform="matrix(0.0108319,0,0,-0.0108319,-56.163563,103.45276)"
     stroke="none"
     id="g11">
    <path
       d="m 11785,9523 c -114,-13 -254,-40 -405,-77 -96,-24 -228,-56 -293,-71 -135,-31 -403,-126 -522,-185 -44,-21 -138,-80 -210,-131 -313,-220 -394,-294 -500,-455 -33,-49 -80,-116 -106,-149 -118,-153 -195,-296 -283,-521 -56,-145 -79,-232 -96,-374 -6,-47 -17,-130 -25,-185 -8,-55 -21,-163 -30,-240 -36,-315 -45,-363 -86,-445 -30,-59 -69,-110 -159,-208 -119,-130 -190,-188 -305,-252 -78,-42 -241,-154 -284,-194 -64,-59 -86,-147 -60,-239 6,-22 32,-63 62,-95 29,-32 73,-84 98,-117 26,-33 83,-94 128,-135 44,-42 81,-81 81,-87 0,-5 -35,-37 -77,-69 -43,-33 -116,-95 -163,-140 -106,-100 -210,-176 -286,-210 -120,-52 -147,-98 -145,-241 2,-141 34,-440 63,-586 9,-49 9,-60 -3,-68 -8,-5 -56,-7 -109,-4 -52,4 -115,2 -140,-3 -25,-6 -79,-17 -120,-26 -41,-10 -113,-18 -160,-19 -119,-4 -307,-50 -368,-91 -61,-41 -105,-108 -123,-187 -20,-90 -17,-506 5,-648 9,-58 16,-109 16,-114 0,-12 -163,-1 -280,19 -47,8 -146,15 -220,17 -160,2 -195,-10 -247,-87 -46,-68 -54,-102 -64,-276 -13,-252 -21,-340 -32,-347 -5,-3 -105,-9 -221,-13 -317,-12 -435,-36 -504,-105 -24,-24 -57,-48 -73,-54 -80,-28 -129,-99 -129,-187 0,-27 -9,-121 -19,-209 -11,-88 -22,-214 -26,-280 -4,-66 -13,-163 -21,-215 -11,-70 -13,-136 -8,-250 5,-136 3,-166 -15,-247 -37,-164 -21,-247 57,-300 56,-37 113,-40 177,-8 l 55,26 32,-25 c 18,-13 53,-29 78,-35 54,-12 390,-25 625,-25 242,1 304,17 430,111 33,25 85,58 116,73 71,37 155,113 229,209 70,93 132,152 272,259 66,51 130,112 169,160 35,42 131,143 214,223 82,81 159,156 170,169 11,12 119,122 241,243 121,122 246,254 277,294 31,39 116,125 188,190 241,217 1018,1000 1114,1123 33,41 129,147 215,235 86,88 166,174 177,191 12,16 47,82 79,145 52,104 66,124 174,234 64,66 144,161 178,211 34,50 79,107 99,128 34,34 42,37 73,31 92,-18 141,-24 215,-24 44,-1 141,-8 215,-16 80,-10 163,-13 205,-9 39,3 138,1 220,-6 129,-10 168,-9 275,5 206,27 341,52 423,80 62,21 108,28 230,35 83,5 179,16 212,25 251,68 430,143 530,222 28,22 92,68 144,103 161,107 200,150 316,350 37,63 85,134 107,158 52,56 101,162 134,287 14,55 41,134 59,175 24,53 38,108 50,188 9,63 32,168 51,235 56,192 61,220 74,432 10,153 10,223 1,297 -6,53 -11,123 -11,155 0,32 -7,87 -15,123 -19,84 -39,180 -64,308 -27,144 -143,387 -283,594 -116,172 -141,203 -286,352 -76,77 -137,129 -207,174 -103,67 -153,106 -265,211 -77,72 -132,108 -340,226 -139,78 -200,107 -375,177 -158,64 -427,101 -590,81 z m 296,-382 c 57,-10 133,-31 169,-46 36,-15 92,-39 125,-52 87,-34 405,-219 451,-261 130,-122 211,-188 290,-237 206,-129 429,-405 577,-715 63,-131 72,-158 92,-276 13,-72 31,-159 40,-194 35,-137 41,-542 10,-700 -7,-36 -27,-112 -45,-170 -17,-58 -40,-159 -51,-225 -12,-66 -32,-147 -46,-180 -14,-33 -39,-107 -55,-164 -34,-121 -48,-151 -98,-208 -20,-23 -67,-95 -104,-161 -38,-66 -78,-132 -91,-148 l -22,-28 -36,17 c -67,32 -121,-2 -122,-79 0,-41 -4,-47 -50,-84 -72,-57 -214,-128 -321,-160 l -92,-28 -33,34 c -56,58 -133,44 -148,-26 l -7,-35 -104,-6 -105,-7 -36,39 c -41,45 -82,51 -120,20 -20,-16 -24,-28 -23,-69 v -50 l -70,-11 c -129,-22 -289,-41 -337,-41 -42,0 -50,4 -70,33 -49,71 -81,97 -120,97 -44,0 -79,-36 -79,-80 0,-26 -4,-29 -51,-35 -65,-9 -199,3 -203,18 -49,190 -56,212 -77,230 -12,9 -35,17 -51,17 -72,0 -96,-46 -74,-141 8,-35 18,-72 21,-81 6,-16 0,-18 -51,-18 -46,0 -71,6 -114,30 -77,41 -134,40 -225,-4 -140,-67 -228,-151 -353,-336 -27,-41 -89,-113 -137,-160 -113,-111 -151,-162 -220,-301 -55,-110 -64,-120 -214,-274 -86,-88 -187,-198 -225,-245 -71,-90 -873,-903 -986,-1000 -122,-106 -242,-224 -303,-300 -34,-41 -233,-246 -443,-455 -210,-209 -406,-410 -436,-446 -52,-64 -116,-122 -223,-203 -79,-59 -192,-173 -250,-252 -58,-77 -91,-107 -170,-148 -27,-14 -76,-45 -108,-69 l -59,-42 -226,4 c -125,2 -303,5 -397,5 l -170,1 1,215 c 1,118 6,253 13,300 6,47 11,93 11,103 0,15 11,17 93,17 81,0 154,8 234,25 57,13 82,89 44,136 -21,26 -19,26 -228,14 -73,-4 -133,-6 -133,-4 0,34 41,314 47,319 16,15 208,40 306,40 149,0 323,17 386,37 57,18 102,56 170,144 48,62 62,103 69,191 l 5,78 h 61 c 93,0 138,43 115,110 -13,37 -37,51 -103,59 l -51,6 -3,48 c -3,46 -2,47 25,47 15,0 71,-6 123,-14 52,-8 138,-20 190,-25 52,-6 122,-20 155,-32 125,-44 233,-24 303,55 39,45 46,84 39,208 -4,63 -3,98 4,98 22,0 59,50 59,80 0,38 -39,80 -75,80 -28,0 -31,4 -40,73 l -6,47 h 41 c 43,0 103,20 114,39 17,26 9,73 -16,98 -20,20 -37,25 -84,27 -75,4 -83,27 -12,37 140,20 206,62 194,124 -3,16 -16,38 -28,49 -23,19 -40,19 -172,0 -44,-6 -48,-5 -44,12 5,28 69,46 175,50 50,2 133,14 185,26 67,16 131,22 226,24 378,7 521,83 522,275 0,54 -6,77 -30,125 -16,32 -30,62 -30,65 0,4 17,9 38,13 21,3 54,16 73,29 45,30 53,86 17,124 -22,23 -27,24 -94,18 l -71,-6 -6,43 c -7,51 6,65 95,98 65,23 81,44 76,97 -2,26 -11,42 -31,56 -24,19 -32,20 -75,10 -26,-6 -57,-14 -69,-18 -15,-5 -23,-3 -23,5 0,6 9,14 20,17 11,3 20,13 20,23 0,11 30,38 75,70 42,28 115,89 163,134 48,45 136,120 196,166 178,137 214,183 223,290 6,63 -5,105 -48,193 -29,58 -30,77 -4,77 32,0 56,70 39,115 -12,30 -62,46 -152,48 -48,2 -93,6 -100,11 -7,4 -27,26 -43,48 -36,50 -34,53 77,113 94,51 195,125 265,192 l 47,45 27,-18 c 61,-40 294,-13 330,38 22,33 19,75 -10,103 -28,28 -59,31 -147,13 -31,-7 -60,-9 -64,-5 -4,3 13,29 36,57 87,104 167,265 194,393 6,24 10,27 51,27 57,0 91,16 105,50 13,31 5,73 -17,91 -8,7 -35,18 -61,24 -26,7 -46,16 -45,21 1,5 27,11 56,14 30,3 61,11 70,18 22,19 31,67 16,94 -16,30 -25,36 -76,49 -49,13 -47,5 -32,137 12,113 19,127 58,135 91,19 94,134 4,162 -13,3 -23,9 -23,13 1,55 94,311 161,444 64,128 162,258 194,258 36,0 187,48 204,64 9,10 16,33 16,57 0,46 -30,79 -71,79 -13,0 -24,4 -24,9 0,31 399,328 520,387 99,49 331,128 465,159 66,15 179,42 250,60 110,28 224,51 335,68 66,11 197,5 291,-12 z"
       id="path1" />
    <path
       d="m 12410,8484 c -64,-17 -154,-66 -237,-128 -88,-67 -256,-245 -298,-318 -20,-34 -48,-78 -62,-96 -39,-52 -82,-153 -98,-231 -13,-59 -14,-106 -6,-267 l 9,-196 37,-76 c 50,-101 95,-147 238,-244 201,-136 341,-181 562,-182 l 130,-1 82,39 c 79,37 84,38 107,22 14,-9 46,-16 71,-16 61,0 95,32 95,88 0,50 24,62 113,55 63,-5 67,-4 96,25 35,34 38,59 16,102 -28,54 18,91 102,82 37,-3 46,0 73,26 37,37 39,74 5,107 -24,25 -37,29 -87,25 -31,-2 -33,6 -18,61 8,28 24,46 66,75 31,21 60,46 65,56 17,31 10,74 -15,97 -20,19 -33,22 -76,19 l -53,-3 -20,52 -20,53 42,45 c 29,32 41,53 41,75 0,58 -72,100 -120,70 -10,-6 -21,-3 -37,12 -27,25 -28,39 -7,79 27,54 -9,118 -68,119 -25,0 -27,2 -18,26 16,40 12,63 -15,89 -20,21 -34,25 -80,25 -51,0 -58,3 -87,35 -17,20 -63,51 -104,71 -41,19 -79,44 -84,54 -16,30 -89,67 -154,79 -77,14 -119,13 -186,-5 z m 48,-436 c 30,-14 73,-23 131,-27 l 86,-6 47,-89 c 33,-62 70,-112 121,-165 52,-53 77,-86 82,-111 4,-19 18,-68 32,-109 24,-71 25,-78 13,-150 -18,-103 -43,-126 -231,-213 -163,-76 -187,-80 -312,-52 -80,18 -160,55 -247,114 -95,64 -96,67 -104,237 -3,87 -2,162 3,181 6,19 31,66 57,105 27,40 59,89 72,109 25,38 185,198 199,198 4,0 27,-10 51,-22 z"
       id="path2" />
    <path
       d="m 10695,8115 c -16,-15 -25,-36 -25,-55 0,-41 42,-122 93,-179 89,-98 86,-81 33,-158 -98,-144 -288,-368 -360,-425 -61,-49 -129,-83 -178,-91 -31,-5 -42,-1 -74,27 l -38,32 12,68 c 6,37 25,97 41,133 17,36 31,77 31,92 0,63 -94,96 -137,49 -62,-68 -132,-298 -113,-370 15,-52 61,-111 126,-160 54,-40 62,-43 118,-42 109,2 223,50 334,142 42,34 165,172 252,282 29,36 66,82 84,104 17,21 37,49 44,63 l 13,24 60,-53 c 119,-104 145,-115 191,-78 60,46 40,98 -76,204 -47,43 -102,101 -121,130 -19,28 -57,76 -85,106 -27,30 -63,78 -80,107 -45,78 -98,96 -145,48 z"
       id="path3" />
    <path
       d="m 11319,7389 c -17,-17 -20,-29 -16,-62 3,-23 7,-53 9,-66 3,-21 -9,-32 -88,-80 -151,-93 -281,-185 -425,-302 -52,-42 -121,-93 -153,-115 -56,-37 -59,-38 -70,-19 -23,40 -65,75 -91,75 -34,0 -85,-50 -85,-83 0,-67 144,-263 223,-304 79,-40 152,56 97,127 -11,14 -20,28 -20,32 0,3 17,17 38,30 20,12 91,66 157,118 141,111 167,131 260,195 39,27 85,59 104,72 19,12 37,23 41,23 8,0 -125,-265 -177,-352 -24,-40 -40,-87 -53,-150 -11,-51 -33,-131 -49,-178 -17,-47 -31,-93 -31,-102 0,-14 -4,-15 -29,-7 -38,14 -81,-5 -99,-44 -25,-52 17,-126 147,-260 100,-103 150,-121 196,-71 31,33 32,73 4,108 -12,15 -20,28 -18,29 2,2 23,15 45,29 23,15 107,93 185,173 93,95 183,175 254,226 61,44 126,94 146,110 36,30 38,30 67,15 43,-22 69,-20 97,9 39,38 34,85 -13,138 -21,23 -50,58 -66,77 -39,49 -95,90 -124,90 -13,0 -37,-13 -54,-30 -25,-26 -29,-36 -24,-62 3,-18 13,-40 22,-49 9,-10 14,-22 13,-27 -6,-16 -90,-84 -192,-156 -64,-45 -147,-120 -239,-215 -131,-135 -142,-144 -146,-119 -2,14 10,64 26,110 16,45 37,118 46,160 8,43 26,95 39,115 13,21 50,90 82,153 31,63 73,144 93,179 19,35 41,80 48,100 11,32 16,35 50,37 27,1 44,8 61,28 43,50 31,82 -70,182 -40,39 -82,85 -95,102 -20,27 -30,32 -63,32 -26,0 -46,-7 -60,-21 z"
       id="path4" />
    <path
       d="m 12155,6528 c -25,-19 -27,-26 -23,-70 l 5,-49 -102,-79 c -57,-43 -165,-136 -242,-207 -149,-138 -180,-163 -297,-248 -63,-45 -81,-53 -96,-45 -50,27 -114,1 -125,-50 -6,-25 1,-44 36,-103 45,-75 100,-150 133,-180 29,-26 60,-31 94,-13 53,27 57,82 11,144 -31,42 -31,43 -13,64 11,11 46,39 79,61 76,51 146,110 311,263 156,143 194,173 194,149 0,-8 -14,-46 -31,-83 -51,-108 -109,-280 -128,-377 -10,-51 -31,-116 -49,-151 -17,-34 -36,-82 -43,-108 -6,-25 -18,-51 -26,-58 -13,-11 -18,-9 -32,12 -48,74 -101,91 -146,45 -34,-33 -33,-80 3,-132 61,-92 146,-193 189,-227 58,-45 92,-47 127,-5 30,35 31,47 12,92 l -13,33 86,81 c 124,117 202,183 217,183 7,0 45,37 85,82 80,91 261,246 297,255 16,4 30,-1 46,-16 31,-29 86,-28 114,2 45,47 20,112 -71,190 -29,25 -64,61 -77,81 -40,58 -89,71 -134,35 -32,-25 -35,-79 -7,-124 l 18,-31 -101,-82 c -166,-134 -177,-144 -256,-224 -41,-43 -79,-78 -84,-78 -12,0 2,85 29,170 13,41 27,91 30,110 4,19 29,85 56,145 26,61 54,134 60,163 13,55 22,61 53,37 33,-25 91,-19 115,11 36,46 28,78 -35,137 -30,29 -71,78 -90,109 -63,104 -121,132 -179,86 z"
       id="path5" />
    <path
       d="m 9545,5960 c -38,-5 -117,-6 -175,-3 -121,6 -146,-4 -156,-68 -5,-29 -1,-41 19,-65 l 25,-29 h 332 332 l 19,24 c 36,44 20,110 -32,129 -35,14 -282,21 -364,12 z"
       id="path6" />
    <path
       d="m 9340,5713 c -33,-12 -60,-47 -60,-78 0,-85 62,-101 414,-109 l 169,-4 29,28 c 37,37 36,73 -1,111 -29,28 -33,29 -128,29 -103,0 -370,16 -394,24 -8,2 -21,2 -29,-1 z"
       id="path7" />
    <path
       d="m 10127,5274 c -71,-36 -136,-95 -187,-168 -15,-23 -55,-67 -89,-99 -76,-72 -189,-214 -266,-332 -32,-49 -83,-117 -114,-151 -31,-34 -72,-91 -91,-127 -39,-74 -37,-104 12,-140 44,-33 84,-15 134,60 22,35 62,85 87,112 26,27 72,89 103,138 84,129 170,239 250,318 39,38 96,102 127,141 44,56 69,78 125,107 54,28 73,44 81,67 12,37 1,72 -31,94 -33,24 -65,19 -141,-20 z"
       id="path8" />
    <path
       d="m 9087,4085 c -101,-68 -197,-164 -326,-325 -64,-80 -138,-169 -165,-199 -27,-30 -65,-90 -86,-133 -32,-68 -55,-97 -171,-216 -74,-75 -156,-168 -183,-207 -27,-38 -66,-90 -86,-115 -21,-25 -65,-84 -99,-132 -33,-48 -82,-104 -108,-125 -78,-64 -311,-293 -379,-373 -35,-42 -82,-89 -105,-105 -89,-64 -307,-240 -352,-283 -102,-99 -124,-164 -73,-209 49,-42 80,-32 153,47 60,63 249,223 333,280 53,36 96,74 147,132 94,108 304,318 355,356 70,53 104,90 174,192 31,47 64,92 72,100 9,8 47,58 85,110 38,52 134,160 212,240 124,128 144,152 164,207 16,44 45,87 98,150 42,48 103,124 137,168 83,109 209,240 278,286 100,68 123,124 73,174 -36,37 -70,32 -148,-20 z"
       id="path9" />
    <path
       d="m 6110,1810 c -56,-22 -93,-29 -145,-29 -78,-1 -110,-16 -126,-59 -13,-35 6,-79 42,-97 47,-25 150,-19 248,14 47,16 105,32 128,36 62,10 93,38 93,84 0,86 -96,106 -240,51 z"
       id="path10" />
    <path
       d="m 6750,1649 c -32,-19 -174,-159 -290,-285 -25,-27 -91,-78 -145,-114 -101,-66 -176,-135 -312,-289 -71,-82 -74,-86 -71,-130 3,-42 7,-48 41,-66 l 37,-20 37,20 c 21,11 49,36 63,56 67,98 207,231 319,305 62,42 132,97 154,123 23,25 99,103 169,173 116,116 128,131 128,163 0,42 -36,85 -72,85 -13,0 -39,-10 -58,-21 z"
       id="path11" />
  </g>
</svg>
