<svg xmlns="http://www.w3.org/2000/svg" viewBox="0 0 256 256" preserveAspectRatio="xMidYMid meet" xmlns:v="https://vecta.io/nano"><path d="M181.21 18.779l-19.768 10.874-15.157 13.179-7.248 22.074 4.613 23.394 13.509 20.755 28.005 9.555 29.982-7.248 21.744-16.803 6.92-22.733-9.226-24.053-23.392-19.109-29.982-9.885zM105.101 55.68l-56.01 2.307-4.942 5.272-.33 66.882-1.976 13.838 1.976 12.52-30.97 7.578-4.613 54.034 4.613 7.248-4.613 20.757 32.618 5.272 32.618-9.555-1.976-7.578-3.625-52.056-1.317-12.85-6.59-18.451h19.44l7.907 52.387-2.966 15.485-1.976 27.675 51.069.659 9.883-7.578-2.635-10.214 3.954-42.831-5.931-8.896 3.624-15.814-5.6-5.272-26.688-.989-6.589-77.426 6.259-12.85-4.613-9.555zm98.982 130.581l-32.499 18.872-13.513 10.6-.932 13.28 23.297 11.531 21.318-14.328 28.771 8.503 10.368-3.728 4.893-7.92.349-11.533-5.008-8.386-8.155-6.407-16.657-9.318-12.231-1.166z" fill="currentColor" paint-order="stroke fill markers"/><path d="M246 5.6c-3.318 3.563-7.408 6.318-11.77 8.441-1.968 1.068-4.158 1.824-5.856 3.319-1.035 1.056.597 2.027 1.593 1.592 3.976-.659 6.81-3.872 10.473-5.3 2.867-1.241 5.067-3.571 7.319-5.666 1.494-1.546 3.073-3.084 4.102-4.991.563-.888-.206-2.46-1.287-1.57-1.691 1.19-3.111 2.723-4.574 4.175zm-20.5 1.5c-5.882 2.421-12.128 3.868-18.442 4.569-2.042.28-4.1.553-6.092 1.078-1.716.935.774 2.274 1.874 2.046 5.465.13 10.849-1.108 16.116-2.434 3.884-1.009 7.614-2.507 11.259-4.17 1.232-.558 2.529-1.057 3.612-1.871.529-1.523-1.595-1.578-2.572-1.211-1.977.469-3.876 1.231-5.755 1.994zM178 18c-7.075 1.96-13.615 5.468-19.785 9.383-4.139 2.733-8.23 5.764-11.096 9.88-4.155 5.547-7.569 11.801-8.932 18.652-1.561 7.497-1.39 15.209-1.108 22.82.24 4.589 1.235 9.216 3.573 13.216a74.35 74.35 0 0 0 7.543 11.016c4.69 5.608 10.654 10.237 17.512 12.864 7.85 3.071 16.365 3.983 24.739 4.02 8.572-.039 17.181-1.809 24.904-5.582 6.469-3.124 12.401-7.328 17.643-12.229 4.979-4.757 8.855-10.73 10.768-17.372 1.304-4.479 1.944-9.149 2.027-13.808-.184-7.027-2.866-13.732-6.394-19.721-3.937-6.68-8.994-12.749-15.186-17.453-6.049-4.663-12.577-8.717-19.465-12.019-3.444-1.662-7.124-2.814-10.909-3.37-4.875-.783-9.88-1.228-14.791-.522A13.23 13.23 0 0 0 178 18zm21.3 8.1c7.194 2.742 13.737 6.941 19.865 11.551 4.358 3.277 8.269 7.145 11.506 11.538 2.977 4.022 5.692 8.328 7.357 13.07.581 1.862 1.052 3.866.738 5.814-.518 1.14-1.97.916-2.986.854-2.751-.341-5.48-.879-8.182-1.494-1.118-.387-2.507-.535-3.268-1.53-.696-.83.077-2.415-1.174-2.805-1.291-.196-1.172 1.559-2.002 2.098-1.549.462-3.104-.434-4.58-.83-5.064-1.761-10.127-3.749-14.589-6.767-.817-.618-2.118-1.47-1.519-2.661.593-1.225-1.044-1.915-1.841-1.026-1.044.934-2.319-.197-3.179-.835-2.567-2.11-4.844-4.549-7.11-6.973-1.113-1.267-2.289-2.922-1.722-4.699.636-1.145-.216-3.271-1.567-1.973-1.019 1.521-2.783.566-3.694-.566-.65-1.013-2.57-2.036-1.844-3.4.781-.594 1.828-1.616.836-2.57-.967-.923-2.382.353-3.366-.545-2.007-1.189-3.809-2.847-4.888-4.935-.12-1.472 2.054-1.377 3.003-1.917 2.72-.809 5.472-1.597 8.285-1.99 3.817-.244 7.625.464 11.344 1.25 1.549.359 3.082.796 4.577 1.34zm-29.8 8c3.497 4.99 7.715 9.415 11.839 13.882 3.704 3.866 7.437 7.743 11.637 11.079 5.82 4.454 12.504 7.637 19.325 10.238 5.18 1.953 10.536 3.415 15.964 4.488 1.677.301 3.198 1.212 4.901 1.347 2.052.172 4.091-.207 6.134-.334-.347 3.105-.492 6.296-1.736 9.211-1.523 4.168-3.92 7.996-6.975 11.213-3.421 3.733-7.184 7.23-11.526 9.87-.842.357-1.942 1.165-2.819.607-.439-1.107-.848-2.24-1.54-3.239-1.27-2.152-3.125-4.264-3.059-6.907.208-.937.72-2.721-.913-2.379-1.28.655-2.567-.342-3.386-1.274-2.485-2.712-4.36-5.934-7.017-8.498-2.862-3.005-6.239-5.446-9.686-7.731-2.039-1.43-4.087-2.9-5.779-4.732-1.12-.972-2.619-.653-3.962-.81-4.054-.442-8.019-1.464-11.966-2.456-1.548-.45-3.143-.845-4.585-1.571-.712-1.227-2.1-1.03-3.297-.959-2.04.097-4.19.29-6.128-.481-1.245-.286-.628-1.891-1.576-2.425-1.179-.679-2.437.382-3.248 1.178-1.637 1.539-4.164 1.935-6.272 1.31-1.024-.607-.842-2-.794-3.015-.007-1.335 1.315-1.882 2.465-1.743 1.209.16 1.952-1.329.901-2.074-.748-.612-1.807-1.113-1.82-2.239-.077-1.766.738-3.744 2.384-4.548 1.163.087 2.388-.682 1.751-1.986-.275-1.352.34-2.709.806-3.952 1.146-2.369 2.579-4.722 4.686-6.357 1.288-.867 2.69-1.561 3.914-2.53 2.556-1.833 4.803-4.059 7.337-5.91 1.547-.754 2.243 1.62 3.161 2.482a43.01 43.01 0 0 1 .879 1.246zM165 73.4c2.444 1.18 5.167 1.617 7.86 1.677 4.874.541 9.389 2.729 13.544 5.227 5.419 3.309 10.131 7.718 13.919 12.805 3.685 4.748 7.258 9.62 10.201 14.869.816.959.27 2.061-.909 2.248-4.067 1.612-8.354 2.632-12.658 3.371-1.803.257-3.666.469-5.467.113-.645-.678-.898-2.025-2.192-1.707-1.422.043-1.205 2.084-2.763 1.837-1.361-.02-2.819.044-4.077-.545-1.33-.595-.1-2.183-.933-3.032-1.102-.587-2.228.397-3.046 1.058-.397.857-2.673 2.058-2.153.276.568-1.187 1.744-1.991 2.157-3.278.494-1.203.652-2.55.4-3.829-1.114-.517-1.676 1.455-2.5 1.998-1.431 1.582-3.039 3.128-5.026 3.973-1.899.475-3.78-.464-5.492-1.174-4.122-1.924-7.865-4.651-11.063-7.877-.977-1.091-2.007-2.289-2.361-3.735.024-.882.777-2.434-.607-2.63-.991-.008-2.078-.168-2.72-1.019-.952-1.013-1.009-2.776.125-3.684 1.268-.838.589-2.64-.962-2.183-1.315.32-2.589-.38-3.317-1.457-.879-1.211-1.292-3.021-.459-4.347.761-.501 2.081-1.474.873-2.308-1.342-.774-2.077-2.254-2.248-3.756-.225-1.855-.087-3.728-.125-5.592 6.349.44 12.782.335 19.031 1.686 1.014.252 2.03.55 2.969 1.014zm81.4-51.7c-2.64 4.342-5.236 8.772-6.95 13.573-.942 1.379.826 2.289 1.648 1.063 2.344-2.504 3.147-5.958 4.866-8.854 1.572-3.077 3.716-5.804 5.504-8.747.951-.943.023-2.278-1.159-1.596-1.372.957-2.358 2.381-3.338 3.72l-.571.842zm-183 26.8c-4.223.849-8.438 1.941-12.368 3.731-3.685 1.878-7.017 4.458-9.81 7.504-.708.874-1.545 1.797-1.716 2.943.313 1.238.998 2.374 1.111 3.687.589 3.146.919 6.396.512 9.584-.398 1.289-.917 2.556-.899 3.941-.207 8.528.967 17.016.979 25.542.07 3.389-.034 6.79-.58 10.14-.523 4.845-.823 9.765-.198 14.613.192 1.186 1.892 2.203.526 3.343-1.089 1.644-1.193 3.695-1.429 5.6-.366 3.854-.322 7.827.909 11.536.112.611.774 1.671-.361 1.333-3.036-.078-6.082.091-9.052.753-5.147 1.031-10.239 2.448-15.092 4.458-2.662 1.182-5.197 2.723-7.352 4.689-.973.954-1.679 2.42-1.072 3.763.569 1.252.843 2.698.294 4.009-.427 1.442-1.609 2.586-1.788 4.102-.076 1.714 1.269 3.009 1.855 4.525.806 1.566.562 3.389-.032 4.978-.818 2.726-1.152 5.573-1.571 8.38-1.048 8.721-1.584 17.536-1.074 26.315.107 2.155.788 4.331 2.274 5.939.712 1.019 1.921 2.409 1.196 3.694-.699.846-2.126.918-2.364 2.178-.605 1.857-.191 4.07 1.25 5.434.571 1.193-.588 2.221-1.309 3.032-1.024 1.051-2 2.39-1.79 3.943.118 1.567.463 3.127.961 4.613.766 1.88 2.878 2.446 4.609 3.069 4.977 1.456 10.095 2.393 15.221 3.151 7.313 1.146 14.779.525 22.007-.896 7.325-1.389 14.544-3.28 21.749-5.177 1.946-.598 4.13-1.091 5.535-2.674 1.014-1.443 1.276-3.278 1.421-4.996.076-1.638-.236-3.408-1.375-4.657-.803-2.093-.721-4.382-.925-6.582-.645-11.916-.242-23.867-1.038-35.777-.225-3.649-.634-7.305-1.676-10.822-.503-2.083-1.034-4.435.101-6.415.878-1.394.603-3.115-.348-4.394-1.399-2.083-1.697-4.636-1.807-7.079-.364-3.113-1.716-5.976-2.813-8.867.382-.923 1.973-.378 2.837-.625 2.863-.132 5.73-.029 8.594-.064.298 7.738.349 15.499 1.17 23.206.079 1.533.926 2.842 1.214 4.319 1.17 5.697 1.235 11.547 2.18 17.279a39.12 39.12 0 0 0 1.453 6.562c.458 2.087-.146 4.188-.786 6.163-1.163 4.588-1.692 9.306-2.284 13.993-.427 3.525-.609 7.073-.938 10.606.028 1.499-1.039 2.634-1.324 4.035-.157 1.777-.524 3.765.432 5.385 1.359 1.576 3.47 2.137 5.27 3.049 3.963 1.688 8.363 1.489 12.579 1.664 9.414.164 18.831.204 28.245.067 3.75-.128 7.551-.228 11.205-1.154a10.68 10.68 0 0 0 5.959-4.061c2.008-2.73 4.066-5.715 4.349-9.193.182-1.877-.534-3.741-1.82-5.101-1.263-1.211-.917-3.096-.404-4.571.528-1.69 1.256-3.314 2.023-4.899.368-1.597.293-3.263.418-4.892.287-9.274.179-18.556.019-27.832-.126-2.872-.026-5.849-1.035-8.584-.742-1.775-2.324-3.08-2.96-4.896-.289-1.555 1.201-2.554 1.632-3.914.569-1.288.6-2.742.248-4.089-.222-1.35 1.369-1.812 1.595-2.955.131-1.772-1.184-3.184-2.165-4.517-1.759-2.111-3.789-3.986-5.873-5.769-1.996-1.627-4.456-2.5-6.94-3.052-4.763-1.144-9.595-2.001-14.449-2.653-1.684-.216-3.384-.238-5.077-.172-1.089-.341-.091-1.903-.234-2.806.319-2.989.853-6.04.289-9.03-.329-1.183-1.347-2.424-.39-3.615.662-1.041 2.051-1.898 1.788-3.308-.603-1.952-1.897-3.671-2.076-5.756-.859-5-.932-10.089-1.182-15.144-.328-8.166-.513-16.358-1.558-24.473-.298-2.234-1.158-4.478-.603-6.748.627-2.514 2.23-4.703 2.611-7.298.56-2.279 2.14-4.138 2.918-6.329.149-1.421-1.411-2.079-2.217-2.967-1.565-1.349-1.855-3.511-1.83-5.458-.086-1.726-1.358-3.131-2.901-3.774-2.584-1.256-5.402-1.93-8.16-2.691-6.491-1.475-13.195-1.642-19.825-1.535-4.914.115-9.826.543-14.667 1.409zm40.6 15c1.44 1.274-.638 2.239-.813 3.531-.257 1.552-.179 3.182-.859 4.644-.499 1.557-1.871 2.743-1.951 4.438-.09 2.65.82 5.202 1.268 7.789.717 4.015 1.025 8.091 1.385 12.151.663 8.931 1.11 17.882 1.182 26.838-.052 2.682.05 5.388-.335 8.048-.229 1.114-.856 2.212-.475 3.376.413 1.813 1.983 3.138 2.156 5.036a9.7 9.7 0 0 1-.741 5.335c-1.036 1.458-2.994 1.526-4.591 1.92-7.133 1.341-14.418 1.476-21.652 1.709-9.612.206-19.252.181-28.831-.724-1.417-.168-2.84-.39-4.197-.838-1.255-.872-.407-2.569.124-3.655.695-1.23 1.707-2.425 3.165-2.7 1.584-.215.544-1.629-.407-1.941-1.181-1.032-.404-2.739.017-3.958.707-1.587.298-3.427-.7-4.79-1.386-2.495-2.188-5.507-1.495-8.335.3-1.281 1.625-1.733 2.762-1.972 1.667-.335.133-1.653-.669-2.054-1.382-1.356-.995-3.448-.906-5.19.234-2.738.59-5.513 1.652-8.069 1.116-.621.579-2.04-.503-2.306-1.462-1.134-1.402-3.17-1.546-4.84-.022-2.845-.206-5.766.578-8.536 1.199-.5 1.914-1.739.959-2.892-.967-1.064-2.699-1.62-2.519-3.41-.116-1.646.512-3.356 1.822-4.396 1.257-1.693.84-3.935.774-5.895-.219-2.477-.471-4.979-1.051-7.393-.707-1.373.87-2.048 2.005-1.924 3.929-.421 7.891-.302 11.835-.487 5.037-.153 10.075-.391 15.084-.959 3.885-.412 7.814-.357 11.677-.969 1.222-.131 2.241-.922 3.481-.993 2.878-.309 5.873-.13 8.597-1.276 1.179-.315 1.728 1.056 1.944 1.966.441 1.304.982 2.588 1.774 3.721zm32.4 97c.687 1.178 1.523 2.652.87 4.016-.63 2.383-.736 4.875-.892 7.325-.071 2.518-.16 5.246 1.285 7.443 1.014 1.428 2.144 2.886 2.333 4.694.594 3.941.417 7.943.494 11.915-.002 6.842.099 13.698-.462 20.523-.084 1.232-.368 2.424-1.113 3.427-.891 1.851-1.132 3.941-1.458 5.949-.26 2.459-.518 5.161.9 7.345 1.062 1.363 1.574 3.247.907 4.899-1.125 2.437-3.477 4.05-5.81 5.213-2.817 1.118-5.91 1.026-8.89 1.154a516.06 516.06 0 0 1-23.376-.056c-3.654-.166-7.398-.382-10.804-1.845-1.222-.521-2.491-.948-3.689-1.508-.715-1.133.181-2.752.015-4.084.357-4.522.476-9.06.536-13.592-.096-1.253.62-2.491 1.978-2.436 1.399-.433.62-2.009-.539-2.074-.891-1.03-.771-2.598-.487-3.852.48-1.222 1.944-.851 2.945-1.105 1.308-.091 1.941-1.845.621-2.456-1.237-.815-1.547-2.408-1.93-3.74l-1.596-9.341c-.403-2.426-.966-4.876-.809-7.345.473-1.005 2.107-1.623 1.444-3.063-.521-.99-1.939-1.503-1.828-2.831-.781-4.117-.384-8.342-.999-12.48-.112-1.311-.458-2.588-.818-3.841.301-1.35 2.272-.237 2.704-1.54.103-1.655-2.141-.842-2.998-1.612-1.605-1.4-1.935-3.676-1.94-5.688.234-1.327 1.972-1.056 2.542-.124.952 1.047.554 2.753 1.739 3.656 1.053.923 1.924-.472 1.737-1.472.093-1.596 1.971-2.14 3.312-1.98 1.864.126 3.506 1.209 4.784 2.507 1.233.904 2.293-.507 3.177-1.188 2.886-1.979 7.322-1.695 9.656 1.026 1.039 1.168 1.579-.571 2.03-1.301 1.056-.983 2.703-.825 4.047-1.031 5.223-.204 10.538-.136 15.623-1.516 1.248-.257 2.831-.505 3.745.623.393.42.694.913 1.013 1.389zM63 166.7c.302 2.042.347 4.215 1.334 6.07.481 1.593-.759 3.038-.622 4.635.106 3.882 2.271 7.316 2.792 11.127.781 5.372.45 10.818.434 16.225-.076 6.886-.184 13.788.299 20.661.216 1.187.874 2.481.021 3.59-.766 1.149-1.887 2.138-2.084 3.583-.425 1.754.352 3.772 2.046 4.541 1.015.414 2.635 1.777 1.302 2.774-2.167 1.427-4.773 1.97-7.239 2.663-7.126 1.784-14.292 3.48-21.569 4.523-5.048.702-10.281.913-15.228-.521l-13.338-3.14c-.976-1.157 1.15-1.939 1.841-2.631 2.005-1.383 4.007-3.448 3.894-6.062.172-1.424-1.343-2.194-1.406-3.489.52-1.044 1.975-1.759 1.453-3.239-.705-3.395-3.408-5.808-5.29-8.561-.424-1.605 1.678-1.063 2.546-1.573 1.326-.508.411-1.993-.444-2.469-.841-.902-2.447-1.166-2.701-2.527.001-1.58 1.967-2.676 1.458-4.29-1.1-1.028-1.514-2.376-1.276-3.868.172-3.357.755-6.679.905-10.039.162-2.103.348-4.587 2.228-5.923 1.091-.247 1.524-1.572.619-2.322-1.255-1.161-.624-3.022-.009-4.349.639-1.388 1.167-3.08.308-4.501-.621-1.237-1.691-2.284-1.898-3.702.362-1.029 1.818-.986 2.221-2.049 1.158-1.633 1.191-4.016-.056-5.61-.543-1.484 1.368-1.369 2.264-1.037 1.365.305 2.564 1.088 3.882 1.505 1.18.053 1.727-1.303 2.876-1.42 2.832-.84 5.844-.985 8.777-.766 1.274.107 2.506.497 3.591 1.175 1.284.938 1.723-.744 2.666-1.17 2.644-.598 5.371-.58 8.069-.667 3.461-.198 6.961-.674 10.177-2.028 1.27-.424 3.067-.983 4.037.294.871 1.345.902 3.048 1.12 4.587zM60.1 64.8c-2.628.624-5.299 1.3-7.667 2.637-1.144 1.209.606 1.778 1.607 1.324 3.954-.61 7.821-1.718 11.806-2.147 7.566-.982 15.266-.466 22.729 1.039 3.192.593 6.373 1.378 9.627 1.528 1.627-.665.041-2.06-1.018-2.21-3.319-1.09-6.782-1.682-10.217-2.282-7.982-1.258-16.173-1.645-24.183-.42a41.29 41.29 0 0 0-2.683.531zm2.9 5.7l-10.808 2.371c-.339 1.305 1.5 1.81 2.503 1.641 4.712-.198 9.271-1.542 13.919-2.234 7.04-1.049 14.252-1.558 21.318-.452 2.015.298 3.919 1.044 5.78 1.836 1.084.603 3.577-.344 2.42-1.735-1.79-1.363-4.096-1.75-6.233-2.283-6.02-1.339-12.268-1.968-18.402-1.076-3.532.447-7.02 1.174-10.496 1.931zm0 15.7c.208 3.686 1.823 7.112 3.554 10.308.923 1.567 1.944 3.175 3.445 4.244.899.713 2.507-.068 1.801-1.259-.923-1.975-2.605-3.484-3.505-5.479-1.214-2.137-1.746-4.563-2.747-6.788-.337-1.011-2.53-3.753-2.548-1.025zm-3.8 15.1c-1.851 2.921-2.58 6.362-3.989 9.49-.665 1.603-1.542 3.118-2.705 4.41-1.192 1.125.394 2.363 1.559 1.635 1.384-.731 2.201-2.195 2.952-3.512 1.523-2.783 2.154-5.931 3.5-8.786.611-1.241 1.982-2.456 1.324-3.975-.562-1.185-1.916-.118-2.463.541-.062.064-.119.131-.178.198zm27.7 5.5c-1.249 2.769-2.736 5.479-3.472 8.439-.191 1.229 1.213 1.589 1.597.395 2.178-3.061 3.725-6.516 5.174-9.965.448-1.298 1.038-2.698.7-4.089-.678-1.255-1.601.659-2.023 1.252-.738 1.28-1.358 2.626-1.976 3.968zM78 122c.249 1.265 1.793 1.124 2.774 1.185 4.925.4 9.812 1.384 14.476 3.026.808.108 2.666.996 2.653-.361-.535-1.152-1.766-1.774-2.793-2.434-3.823-2.178-8.36-2.391-12.652-2.419-1.433.12-3.024.006-4.309.724l-.092.123zm-26 7.8c.311 1.045 1.591 1.178 2.473 1.498 4.025 1.05 8.209 1.219 12.341 1.485a213.67 213.67 0 0 0 21.61-.105c3.165-.24 6.411-.476 9.392-1.644.758-.141 2.674-1.635 1.05-1.847-3.496.16-6.952.866-10.458.928-9.252.392-18.529.407-27.774-.176-2.328-.116-4.616-.612-6.94-.74-.525.068-1.541-.062-1.694.602zm1 6.1c-.201 1.388 1.542 1.265 2.44 1.443 4.512.842 9.023 1.766 13.616 2.029 7.426.559 14.883.791 22.328.582 1.695-.132 3.455-.073 5.088-.584 1.227-.301 2.381-2.788.656-3.1-1.372.25-2.739.641-4.145.789-4.112.636-8.283.922-12.44.625-8.123-.533-16.19-1.664-24.281-2.533-1.063.06-2.674-.467-3.263.748zm50.5 30.2c-3.764.439-7.592.668-11.242 1.757-1.064.104-1.783 1.706-.281 1.696 4.367.257 8.702-.602 13.063-.715 7.173-.341 14.382-.372 21.536.314 1.893.21 3.774.62 5.654.84 1.191-.787-.89-1.913-1.62-2.35-3.004-1.327-6.335-1.652-9.57-1.971-5.839-.419-11.723-.198-17.54.429zm0 4.5c-3.541.843-7.199 1.057-10.741 1.879-1.077.11-3.752 1.382-1.986 2.423 3.018.071 5.995-.787 9.02-.838 8.668-.587 17.36-.231 26.037-.487 1.958-.086 3.945-.156 5.869-.468.747-1.28-1.39-1.888-2.358-1.831a337.01 337.01 0 0 0-24.679-.776 9.6 9.6 0 0 0-1.162.096zm22.6 21c-.763 1.219-2.465 2.644-1.852 4.164 1.116.728 2.156-.585 2.94-1.237 1.457-1.309 2.775-2.806 3.767-4.49.309-1.396-1.389-1.284-2.162-.711-1.065.527-1.936 1.372-2.694 2.274zm-7.6 4.3c-1.492 3.36-1.72 7.132-1.546 10.759.147 1.736.423 3.797 2.099 4.746 1.206.808 2.719.584 4.054 1.028 2.896.669 5.658 1.973 8.645 2.197 1.369.384 1.623-1.308.441-1.783-3.35-1.916-7.226-2.585-10.753-4.089-1.626-.604-2.324-2.328-2.252-3.959-.144-2.848 1.016-5.504 1.914-8.138.305-.928.825-3.75-.925-3.017-.775.549-1.201 1.462-1.676 2.256zm-8.3 16.2c.347 1.836 1.772 3.514 3.594 3.991 1.794-.297.259-2.173-.202-3.068-.687-1.113-1.535-2.141-2.571-2.947-1.177-.235-.892 1.36-.821 2.024zm13.8 5.2c.328 1.194 1.724 1.507 2.736 1.912 1.426.444 3.036.748 4.472.213 1.322-1.203-.834-2.011-1.781-2.35-1.414-.472-2.905-.812-4.398-.832-.574.03-1.108.433-1.029 1.056zm.5 8.4c-4.658 1.192-9.498 1.334-14.276 1.569-4.311.118-8.657.156-12.934-.458-1.302-.023-3.325-1.391-4.185.041.163.985 1.378 1.36 2.13 1.878 3.184 1.576 6.824 1.688 10.304 1.86 6.041.155 12.099-.408 18.029-1.555 2.531-.555 5.131-1.157 7.361-2.526 1-.371 1.655-2.333.103-2.307-2.009.128-3.939.813-5.88 1.313l-.652.185zm-3 5c-6.907 1.089-13.908 1.471-20.892 1.612-3.265.063-6.563.027-9.783.621-1.33.776.806 1.308 1.493 1.549 2.313.702 4.715 1.106 7.139 1.038 8.552-.075 17.088-1.067 25.45-2.849 2.112-.422 4.257-.659 6.406-.738 1.201.009 2.377-1.55 1.274-2.474-1.16-.512-2.5-.104-3.725-.014-2.46.38-4.912.814-7.362 1.255zm-99.2-61.1c-.928.06-1.82 1.499-.36 1.53 2.956.602 5.998.529 9 .636 6.287.142 12.594-.218 18.867.331 2.58.221 5.066 1.02 7.392 2.136 1.61.698 3.246 1.397 4.977 1.727 1.854-.561-.034-2.129-.939-2.623-2.56-1.723-5.454-3.029-8.547-3.365-4.757-.537-9.556-.557-14.337-.676-5.036-.056-10.08-.085-15.111.167-.316.028-.631.069-.941.138zm2.8 6.2c-.877.338-3.01.93-2.498 2.004 1.024.445 2.196.298 3.286.424 5.254.171 10.51-.29 15.763.009 4.159.178 8.343.474 12.409 1.404.946.333 3.387 1.39 2.781-.594-.964-1.884-3.245-2.196-5.13-2.441-5.866-.792-11.79-1.055-17.702-1.217-2.828-.008-5.682-.102-8.485.316l-.212.045zm21.7 21.6c-1.272 2.076-2.696 4.273-2.804 6.772.632 1.813 2.165-.11 2.644-1.026 1.673-2.418 3.088-5.031 4.16-7.769.75-1.152-.302-3.232-1.431-1.608a31.85 31.85 0 0 0-2.57 3.63zm-30.1-1.8c-.18 1.157.463 2.249.779 3.33 1.076 2.602 2.301 5.23 2.387 8.097.207 2.3-.45 4.593-.154 6.883-.041 1.428 1.806 1.261 2.234.19 1.179-2.041 1.041-4.521.907-6.79-.392-4.062-1.809-8.094-4.339-11.319-.43-.483-1.258-1.007-1.813-.391zM38 209c.539 1.056 1.744 1.517 2.733 2.056 3.789 1.586 6.973 4.292 9.836 7.184 1.227 1.093 2.478 2.302 4.08 2.799 1.883-.274.118-2.165-.517-2.911-2.381-2.909-5.015-5.681-8.254-7.643-1.919-1.134-3.957-2.239-6.191-2.553-.707-.074-1.755.142-1.687 1.068zm18 20.2c-3.835.646-7.74.655-11.616.812-6.539.192-13.092-.077-19.621.398-.724.203-2.472-.011-2.327 1.038.791.871 2.077.735 3.135.973 4.488.53 9.075.087 13.51 1.087 4.603.118 9.179-.548 13.738-1.097 2.37-.345 4.768-.663 7.059-1.375.991-.387 2.722-1.643 1.79-2.779-1.253-.461-2.573.281-3.83.438-.618.148-1.232.313-1.838.505zm-4.5 5.1c-5.643.839-11.361.992-17.056 1.097-4.037.046-8.109-.212-12.116.384-1.421-.036-1.617 1.587-.149 1.677 4.721.993 9.578.898 14.377.953 5.225.02 10.45-.399 15.593-1.333 2.951-.529 5.936-1.046 8.756-2.088 1.361-.641-.33-1.758-1.214-1.566-2.751-.151-5.493.408-8.19.876zm146.4-46.5c-7.082 3.958-13.863 8.423-20.703 12.778-6.063 3.947-12.151 7.875-17.938 12.223-1.283 1.008-2.743 2.117-3.001 3.847-.418 2.535-.194 5.12-.26 7.677L156 229.7c7.807 3.935 15.49 8.129 23.458 11.734 1.107.815 2.422.498 3.382-.368 5.369-3.397 10.21-7.541 15.137-11.531 1.428-1.106 3.088-2.204 4.984-2.015 2.266.171 4.303 1.313 6.366 2.17 4.815 2.257 9.649 4.721 14.961 5.55 3.191.47 6.428.745 9.654.643 2.641-.164 4.704-2.016 6.708-3.536 4.001-3.079 6.573-7.828 7.128-12.83.356-3.125.194-6.346-.657-9.381-1.005-2.741-2.949-5.017-4.917-7.124-6.23-6.464-13.94-11.251-21.762-15.542-2.5-1.323-5.281-2.087-8.112-2.165-2.741-.142-5.523-.398-8.248.042-2.204.402-4.216 1.423-6.183 2.452zm22.4 3.1c1.688.832 3.544 1.642 4.705 3.177.077 1.347-2.121.838-2.823 1.783-7.489 4.363-14.729 9.138-22.017 13.825-6.705 4.302-13.347 8.732-20.381 12.486-1.236.51-2.535 1.543-3.933 1.109-.976-.45-2.032-.616-3.044-.948-1.228-.442-2.228-1.348-2.937-2.427-.938-1.065-2.476-1.025-3.616-1.768-1.539-.79-3.01-1.734-4.377-2.786-.947-1.149.712-1.808 1.673-1.783 1.486-.201 2.948.3 4.422.287 1.517-.081.9-1.821.06-2.409-.991-.558-.878-1.743.412-1.255.928.33 2.282.051 2.347-1.128 1.742-2.553 4.443-4.292 7.234-5.514 1.93-.833 3.539-2.199 5.128-3.541 1.171-.886 2.688-.876 4.037-.545 1.294-.007 1.415-1.416 1.886-2.288 1.435-2.122 3.734-3.459 5.905-4.716 1.871-.939 3.873-1.882 6.001-1.932.962-.002 3.179 1.161 2.807-.702-.409-1.425 1.717-1.399 2.644-1.509 3.89-.149 7.789.543 11.499 1.685.803.261 1.595.559 2.368.899zm12 7.2c5.978 3.107 10.944 8.639 12.365 15.337 1.135 5.317-.25 11.138-3.728 15.322-2.235 2.695-5.821 3.618-9.176 3.797-2.625.083-5.346.28-7.876-.563-1.075-.239-1.863-1.146-1.318-2.247-.18-1.564-2.376-1.584-3.354-2.542-1.454-1.041-2.571-2.451-3.738-3.784-1.743-1.608-4.267-1.442-6.472-1.395-3.274.138-6.399 1.367-9.146 3.103-4.136 2.494-7.709 5.862-12.035 8.044-1.14.146-2.435.28-2.53 1.748-.18 1.083-1.14 2.352-2.366 1.921-1.472-.879-1.057-2.846-1.264-4.285.029-1.541-.766-2.863-1.437-4.169-.507-1.518.703-3.314 2.343-3.221 1.009.062 2.817.422 2.833-1.102-.249-1.343.865-2.367 2.102-2.618 2.426-.67 4.31-2.437 6.157-4.048 1.078-.909 2.616-1.417 3.898-.589.964.149 2.976 1.877 3.353.323-.262-1.115-.123-2.296.469-3.289 1.498-2.491 4.178-4.532 7.187-4.509 1.655.048 1.683-1.67 2.23-2.68 1.174-1.535 2.944-2.457 4.674-3.213.979-.131 2.601.597 2.604-.98.301-1.396 1.767-1.997 2.782-2.812 1.977-1.233 4.162-2.256 6.478-2.612 1.709-.127 3.418.38 4.966 1.063zm-65.1 24.1c2.158 1.415 4.354 2.822 6.786 3.723 1.377.062 2.845.86 3.154 2.293 1.08 2.995 1.76 6.128 2.235 9.271.03 1.671-1.891-.008-2.673-.204-5.868-2.838-11.492-6.145-17.201-9.283.01-3.185-.322-6.401.159-9.564.709-1.58 2.145.62 3.143.927l4.397 2.837zm45.3 3.4c1.723.516 3.147 1.844 3.904 3.461-.536 1.006-2.053-.583-2.919-.661-2.004-.884-3.998-1.8-5.915-2.862-.281-1.064 1.757-.329 2.404-.43.852.108 1.693.287 2.526.492zm-18-30.6c-.49 1.314.607 2.506 1.289 3.52 1.804 2.294 4.052 4.312 6.682 5.605 1.2.715 3.071.279 3.401-1.199.342-1.582-.817-2.98-1.755-4.121-1.709-1.784-3.723-3.334-5.984-4.348-1.172-.45-2.875-.769-3.633.544zm29 10.3c-3.069 3.234-4.897 7.596-5.23 12.027-.123 2.066.605 4.107 1.898 5.709 1.708 2.283 3.877 4.313 6.473 5.534 2.072.863 4.455.327 6.408-.607 3.179-1.568 4.924-4.898 6.046-8.105 1.153-3.093.942-6.575-.356-9.587-1.158-2.711-2.533-5.765-5.427-6.984-1.957-.648-4.097-1.609-6.164-.852-1.448.598-2.534 1.806-3.648 2.864zm10.1 1c1.136 1.977 2.727 3.802 3.021 6.148.623 3.425.165 7.081-1.39 10.203-.789 1.6-2.262 2.944-4.097 3.117-3.201.535-6.878-.83-8.435-3.788-.813-1.411-.104-2.929.05-4.374.364-1.495-2.116-1.788-1.415-3.144.843-.934 2.203-1.622 2.228-3.073-.536-1.665.431-3.281 1.818-4.198 1.891-1.512 4.569-2.36 6.883-1.322.449.129.91.232 1.335.431zm-73 16.6c-.887 1.368.178 2.972 1.256 3.864 2.562 2.314 5.911 3.415 8.786 5.256 1.245.713 2.404 1.565 3.546 2.425 1.155.467 1.868-.947 1.694-1.92-.29-2.074-2.199-3.335-3.833-4.37-3.026-1.795-6.569-2.902-8.965-5.604-.711-.689-2.097-.703-2.485.349z"/></svg>
